<svg width="192" height="116" viewBox="0 0 192 116" fill="none" xmlns="http://www.w3.org/2000/svg">
<g id="Frame 716">
<path id="Vector 47" d="M15.7496 35.8146C23.0497 34.8483 28.1843 28.147 27.2179 20.8469C26.2516 13.5467 19.5503 8.41219 12.2502 9.37852C4.95011 10.3448 -0.184442 17.0461 0.78189 24.3462C1.74822 31.6464 8.4495 36.7809 15.7496 35.8146ZM190.581 87.7537C191.826 87.1564 192.351 85.6631 191.754 84.4182C191.157 83.1734 189.663 82.6485 188.418 83.2458L190.581 87.7537ZM181.492 86.4316C180.228 86.9868 179.653 88.4618 180.208 89.7259C180.764 90.99 182.239 91.5647 183.503 91.0094L181.492 86.4316ZM169.364 96.5624C170.67 96.1153 171.367 94.6938 170.92 93.3875C170.473 92.0812 169.051 91.3847 167.745 91.8318L169.364 96.5624ZM153.412 95.8261C152.061 96.1075 151.193 97.4314 151.474 98.7831C151.756 100.135 153.08 101.003 154.432 100.721L153.412 95.8261ZM139.016 102.547C140.397 102.522 141.496 101.383 141.471 100.003C141.447 98.6221 140.308 97.5228 138.927 97.5473L139.016 102.547ZM124.67 95.9476C123.334 95.5977 121.968 96.3969 121.618 97.7326C121.268 99.0682 122.067 100.435 123.403 100.784L124.67 95.9476ZM108.944 94.3894C110.103 95.1402 111.651 94.8096 112.401 93.651C113.152 92.4923 112.822 90.9443 111.663 90.1934L108.944 94.3894ZM100.716 80.7776C99.7809 79.7621 98.1993 79.6972 97.1838 80.6326C96.1683 81.5681 96.1034 83.1497 97.0388 84.1652L100.716 80.7776ZM87.4903 72.0375C88.2783 73.1712 89.8362 73.4514 90.97 72.6633C92.1037 71.8753 92.3839 70.3174 91.5958 69.1836L87.4903 72.0375ZM83.3488 56.6288C82.6032 55.4668 81.0567 55.1291 79.8947 55.8747C78.7326 56.6203 78.3949 58.1668 79.1405 59.3289L83.3488 56.6288ZM70.8049 46.8957C71.6156 48.0134 73.1788 48.2622 74.2965 47.4515C75.4141 46.6409 75.663 45.0776 74.8523 43.96L70.8049 46.8957ZM64.8202 32.1167C63.8302 31.1542 62.2475 31.1765 61.285 32.1664C60.3225 33.1563 60.3447 34.7391 61.3347 35.7016L64.8202 32.1167ZM49.7934 27.3016C51.0267 27.9222 52.5297 27.4254 53.1503 26.192C53.7709 24.9587 53.2742 23.4557 52.0408 22.8351L49.7934 27.3016ZM36.8018 18.3165C35.4305 18.1557 34.1885 19.137 34.0276 20.5083C33.8668 21.8796 34.8481 23.1216 36.2194 23.2825L36.8018 18.3165ZM21.7957 23.6227C23.162 23.424 24.1086 22.1554 23.91 20.789C23.7114 19.4227 22.4427 18.4761 21.0763 18.6747L21.7957 23.6227ZM188.418 83.2458C186.049 84.3826 183.741 85.4436 181.492 86.4316L183.503 91.0094C185.806 89.9979 188.164 88.9135 190.581 87.7537L188.418 83.2458ZM167.745 91.8318C162.617 93.587 157.851 94.902 153.412 95.8261L154.432 100.721C159.097 99.7499 164.063 98.3767 169.364 96.5624L167.745 91.8318ZM138.927 97.5473C133.637 97.6412 128.92 97.0608 124.67 95.9476L123.403 100.784C128.127 102.022 133.301 102.648 139.016 102.547L138.927 97.5473ZM111.663 90.1934C107.637 87.5844 104.041 84.387 100.716 80.7776L97.0388 84.1652C100.582 88.0114 104.492 91.5046 108.944 94.3894L111.663 90.1934ZM91.5958 69.1836C88.7672 65.1144 86.08 60.8857 83.3488 56.6288L79.1405 59.3289C81.8507 63.5529 84.5963 67.8742 87.4903 72.0375L91.5958 69.1836ZM74.8523 43.96C71.779 39.7228 68.4926 35.6873 64.8202 32.1167L61.3347 35.7016C64.7336 39.0063 67.8333 42.7988 70.8049 46.8957L74.8523 43.96ZM52.0408 22.8351C47.5149 20.5578 42.4827 18.9828 36.8018 18.3165L36.2194 23.2825C41.3168 23.8803 45.7857 25.285 49.7934 27.3016L52.0408 22.8351ZM21.0763 18.6747C18.6193 19.0319 16.0675 19.5264 13.4139 20.1662L14.5859 25.0269C17.1003 24.4207 19.5009 23.9563 21.7957 23.6227L21.0763 18.6747Z" fill="#FFD60A"/>
</g>
</svg>
