<svg width="90" height="107" viewBox="0 0 90 107" fill="none" xmlns="http://www.w3.org/2000/svg">
<g id="Frame 710">
<g id="Dot" opacity="0.1">
<path id="Vector" d="M86.6216 104.855C86.7825 103.99 87.61 103.423 88.4758 103.584C89.3416 103.745 89.9085 104.571 89.7476 105.436C89.5867 106.301 88.7592 106.867 87.8935 106.707C87.0277 106.546 86.4607 105.719 86.6216 104.855Z" fill="url(#paint0_linear_3001_905)"/>
<path id="Vector_2" d="M74.3091 104.855C74.47 103.99 75.2975 103.423 76.1632 103.584C77.029 103.745 77.596 104.571 77.4351 105.436C77.2742 106.301 76.4467 106.867 75.5809 106.707C74.7228 106.546 74.1558 105.719 74.3091 104.855Z" fill="url(#paint1_linear_3001_905)"/>
<path id="Vector_3" d="M62.004 104.855C62.1649 103.99 62.9924 103.423 63.8582 103.584C64.724 103.745 65.291 104.571 65.1301 105.436C64.9692 106.301 64.1417 106.867 63.2759 106.707C62.4178 106.546 61.8431 105.719 62.004 104.855Z" fill="url(#paint2_linear_3001_905)"/>
<path id="Vector_4" d="M49.6993 104.855C49.8602 103.99 50.6877 103.423 51.5535 103.584C52.4193 103.745 52.9863 104.571 52.8254 105.436C52.6645 106.301 51.837 106.867 50.9712 106.707C50.1131 106.546 49.5384 105.719 49.6993 104.855Z" fill="url(#paint3_linear_3001_905)"/>
<path id="Vector_5" d="M37.3945 104.855C37.5554 103.99 38.3829 103.423 39.2487 103.584C40.1145 103.745 40.6815 104.571 40.5206 105.436C40.3597 106.301 39.5322 106.867 38.6664 106.707C37.8006 106.546 37.2336 105.719 37.3945 104.855Z" fill="url(#paint4_linear_3001_905)"/>
<path id="Vector_6" d="M86.6216 94.4985C86.7825 93.6336 87.61 93.0672 88.4758 93.228C89.3416 93.3887 89.9085 94.2153 89.7476 95.0802C89.5867 95.9451 88.7592 96.5115 87.8935 96.3507C87.0277 96.19 86.4607 95.3634 86.6216 94.4985Z" fill="url(#paint5_linear_3001_905)"/>
<path id="Vector_7" d="M74.3091 94.4985C74.47 93.6336 75.2975 93.0672 76.1632 93.228C77.029 93.3887 77.596 94.2153 77.4351 95.0802C77.2742 95.9451 76.4467 96.5115 75.5809 96.3507C74.7228 96.19 74.1558 95.3634 74.3091 94.4985Z" fill="url(#paint6_linear_3001_905)"/>
<path id="Vector_8" d="M62.004 94.4985C62.1649 93.6336 62.9924 93.0672 63.8582 93.228C64.724 93.3887 65.291 94.2153 65.1301 95.0802C64.9692 95.9451 64.1417 96.5115 63.2759 96.3507C62.4178 96.19 61.8431 95.3634 62.004 94.4985Z" fill="url(#paint7_linear_3001_905)"/>
<path id="Vector_9" d="M49.6993 94.4986C49.8602 93.6337 50.6877 93.0673 51.5535 93.228C52.4193 93.3887 52.9863 94.2154 52.8254 95.0803C52.6645 95.9451 51.837 96.5115 50.9712 96.3508C50.1131 96.1901 49.5384 95.3634 49.6993 94.4986Z" fill="url(#paint8_linear_3001_905)"/>
<path id="Vector_10" d="M37.3945 94.4986C37.5554 93.6337 38.3829 93.0673 39.2487 93.228C40.1145 93.3887 40.6815 94.2154 40.5206 95.0803C40.3597 95.9451 39.5322 96.5115 38.6664 96.3508C37.8006 96.1901 37.2336 95.3634 37.3945 94.4986Z" fill="url(#paint9_linear_3001_905)"/>
<path id="Vector_11" d="M86.6216 84.1435C86.7825 83.2786 87.61 82.7122 88.4758 82.8729C89.3416 83.0337 89.9085 83.8603 89.7476 84.7252C89.5867 85.5901 88.7592 86.1565 87.8935 85.9957C87.0277 85.835 86.4607 85.0084 86.6216 84.1435Z" fill="url(#paint10_linear_3001_905)"/>
<path id="Vector_12" d="M74.3091 84.1435C74.47 83.2786 75.2975 82.7122 76.1632 82.8729C77.029 83.0337 77.596 83.8603 77.4351 84.7252C77.2742 85.5901 76.4467 86.1565 75.5809 85.9957C74.7228 85.835 74.1558 85.0084 74.3091 84.1435Z" fill="url(#paint11_linear_3001_905)"/>
<path id="Vector_13" d="M62.004 84.1435C62.1649 83.2786 62.9924 82.7122 63.8582 82.8729C64.724 83.0337 65.291 83.8603 65.1301 84.7252C64.9692 85.5901 64.1417 86.1565 63.2759 85.9957C62.4178 85.835 61.8431 85.0084 62.004 84.1435Z" fill="url(#paint12_linear_3001_905)"/>
<path id="Vector_14" d="M49.6993 84.1436C49.8602 83.2787 50.6877 82.7123 51.5535 82.873C52.4193 83.0338 52.9863 83.8604 52.8254 84.7253C52.6645 85.5902 51.837 86.1565 50.9712 85.9958C50.1131 85.8351 49.5384 85.0085 49.6993 84.1436Z" fill="url(#paint13_linear_3001_905)"/>
<path id="Vector_15" d="M37.3945 84.1436C37.5554 83.2787 38.3829 82.7123 39.2487 82.873C40.1145 83.0338 40.6815 83.8604 40.5206 84.7253C40.3597 85.5902 39.5322 86.1565 38.6664 85.9958C37.8006 85.8351 37.2336 85.0085 37.3945 84.1436Z" fill="url(#paint14_linear_3001_905)"/>
<path id="Vector_16" d="M86.6216 73.7875C86.7825 72.9226 87.61 72.3562 88.4758 72.517C89.3416 72.6777 89.9085 73.5043 89.7476 74.3692C89.5867 75.2341 88.7592 75.8005 87.8935 75.6397C87.0277 75.479 86.4607 74.6524 86.6216 73.7875Z" fill="url(#paint15_linear_3001_905)"/>
<path id="Vector_17" d="M74.3091 73.7875C74.47 72.9226 75.2975 72.3562 76.1632 72.517C77.029 72.6777 77.596 73.5043 77.4351 74.3692C77.2742 75.2341 76.4467 75.8005 75.5809 75.6397C74.7228 75.479 74.1558 74.6524 74.3091 73.7875Z" fill="url(#paint16_linear_3001_905)"/>
<path id="Vector_18" d="M62.004 73.7875C62.1649 72.9226 62.9924 72.3562 63.8582 72.517C64.724 72.6777 65.291 73.5043 65.1301 74.3692C64.9692 75.2341 64.1417 75.8005 63.2759 75.6397C62.4178 75.479 61.8431 74.6524 62.004 73.7875Z" fill="url(#paint17_linear_3001_905)"/>
<path id="Vector_19" d="M49.6993 73.7875C49.8602 72.9226 50.6877 72.3562 51.5535 72.517C52.4193 72.6777 52.9863 73.5043 52.8254 74.3692C52.6645 75.2341 51.837 75.8005 50.9712 75.6397C50.1131 75.479 49.5384 74.6524 49.6993 73.7875Z" fill="url(#paint18_linear_3001_905)"/>
<path id="Vector_20" d="M37.3945 73.7875C37.5554 72.9226 38.3829 72.3562 39.2487 72.517C40.1145 72.6777 40.6815 73.5043 40.5206 74.3692C40.3597 75.2341 39.5322 75.8005 38.6664 75.6397C37.8006 75.479 37.2336 74.6524 37.3945 73.7875Z" fill="url(#paint19_linear_3001_905)"/>
<path id="Vector_21" d="M86.6216 63.4315C86.7825 62.5667 87.61 62.0003 88.4758 62.161C89.3416 62.3217 89.9085 63.1483 89.7476 64.0132C89.5867 64.8781 88.7592 65.4445 87.8935 65.2838C87.0277 65.123 86.4607 64.2964 86.6216 63.4315Z" fill="url(#paint20_linear_3001_905)"/>
<path id="Vector_22" d="M74.3091 63.4315C74.47 62.5667 75.2975 62.0003 76.1632 62.161C77.029 62.3217 77.596 63.1483 77.4351 64.0132C77.2742 64.8781 76.4467 65.4445 75.5809 65.2838C74.7151 65.123 74.1558 64.2964 74.3091 63.4315Z" fill="url(#paint21_linear_3001_905)"/>
<path id="Vector_23" d="M62.004 63.4315C62.1649 62.5667 62.9924 62.0003 63.8582 62.161C64.724 62.3217 65.291 63.1483 65.1301 64.0132C64.9692 64.8781 64.1417 65.4445 63.2759 65.2838C62.4178 65.123 61.8431 64.2964 62.004 63.4315Z" fill="url(#paint22_linear_3001_905)"/>
<path id="Vector_24" d="M49.6993 63.4315C49.8602 62.5667 50.6877 62.0003 51.5535 62.161C52.4193 62.3217 52.9863 63.1483 52.8254 64.0132C52.6645 64.8781 51.837 65.4445 50.9712 65.2838C50.1131 65.123 49.5384 64.2964 49.6993 63.4315Z" fill="url(#paint23_linear_3001_905)"/>
<path id="Vector_25" d="M37.3945 63.4315C37.5554 62.5667 38.3829 62.0003 39.2487 62.161C40.1145 62.3217 40.6815 63.1483 40.5206 64.0132C40.3597 64.8781 39.5322 65.4445 38.6664 65.2838C37.8006 65.123 37.2336 64.2964 37.3945 63.4315Z" fill="url(#paint24_linear_3001_905)"/>
<path id="Vector_26" d="M86.6216 53.0757C86.7825 52.2108 87.61 51.6445 88.4758 51.8052C89.3416 51.9659 89.9085 52.7925 89.7476 53.6574C89.5867 54.5223 88.7592 55.0887 87.8935 54.928C87.0277 54.7672 86.4607 53.9406 86.6216 53.0757Z" fill="url(#paint25_linear_3001_905)"/>
<path id="Vector_27" d="M74.3091 53.0757C74.47 52.2108 75.2975 51.6445 76.1632 51.8052C77.029 51.9659 77.596 52.7925 77.4351 53.6574C77.2742 54.5223 76.4467 55.0887 75.5809 54.928C74.7151 54.7672 74.1558 53.9406 74.3091 53.0757Z" fill="url(#paint26_linear_3001_905)"/>
<path id="Vector_28" d="M62.004 53.0757C62.1649 52.2108 62.9924 51.6445 63.8582 51.8052C64.724 51.9659 65.291 52.7925 65.1301 53.6574C64.9692 54.5223 64.1417 55.0887 63.2759 54.928C62.4178 54.7672 61.8431 53.9406 62.004 53.0757Z" fill="url(#paint27_linear_3001_905)"/>
<path id="Vector_29" d="M49.6993 53.0757C49.8602 52.2108 50.6877 51.6444 51.5535 51.8052C52.4193 51.9659 52.9863 52.7925 52.8254 53.6574C52.6645 54.5223 51.837 55.0887 50.9712 54.9279C50.1131 54.7672 49.5384 53.9406 49.6993 53.0757Z" fill="url(#paint28_linear_3001_905)"/>
<path id="Vector_30" d="M37.3945 53.0757C37.5554 52.2108 38.3829 51.6444 39.2487 51.8052C40.1145 51.9659 40.6815 52.7925 40.5206 53.6574C40.3597 54.5223 39.5322 55.0887 38.6664 54.9279C37.8006 54.7672 37.2336 53.9406 37.3945 53.0757Z" fill="url(#paint29_linear_3001_905)"/>
<path id="Vector_31" d="M86.6216 42.7205C86.7825 41.8556 87.61 41.2892 88.4758 41.45C89.3416 41.6107 89.9085 42.4373 89.7476 43.3022C89.5867 44.1671 88.7592 44.7335 87.8935 44.5727C87.0277 44.412 86.4607 43.5854 86.6216 42.7205Z" fill="url(#paint30_linear_3001_905)"/>
<path id="Vector_32" d="M74.3091 42.7205C74.47 41.8556 75.2975 41.2892 76.1632 41.45C77.029 41.6107 77.596 42.4373 77.4351 43.3022C77.2742 44.1671 76.4467 44.7335 75.5809 44.5727C74.7228 44.412 74.1558 43.5854 74.3091 42.7205Z" fill="url(#paint31_linear_3001_905)"/>
<path id="Vector_33" d="M62.004 42.7205C62.1649 41.8556 62.9924 41.2892 63.8582 41.45C64.724 41.6107 65.291 42.4373 65.1301 43.3022C64.9692 44.1671 64.1417 44.7335 63.2759 44.5727C62.4178 44.412 61.8431 43.5854 62.004 42.7205Z" fill="url(#paint32_linear_3001_905)"/>
<path id="Vector_34" d="M49.6993 42.7205C49.8602 41.8556 50.6877 41.2892 51.5535 41.4499C52.4193 41.6107 52.9863 42.4373 52.8254 43.3022C52.6645 44.1671 51.837 44.7335 50.9712 44.5727C50.1131 44.412 49.5384 43.5854 49.6993 42.7205Z" fill="url(#paint33_linear_3001_905)"/>
<path id="Vector_35" d="M37.3945 42.7205C37.5554 41.8556 38.3829 41.2892 39.2487 41.4499C40.1145 41.6107 40.6815 42.4373 40.5206 43.3022C40.3597 44.1671 39.5322 44.7335 38.6664 44.5727C37.8006 44.412 37.2336 43.5854 37.3945 42.7205Z" fill="url(#paint34_linear_3001_905)"/>
<path id="Vector_36" d="M86.6216 32.3645C86.7825 31.4996 87.61 30.9332 88.4758 31.094C89.3416 31.2547 89.9085 32.0813 89.7476 32.9462C89.5867 33.8111 88.7592 34.3775 87.8935 34.2168C87.0277 34.056 86.4607 33.2294 86.6216 32.3645Z" fill="url(#paint35_linear_3001_905)"/>
<path id="Vector_37" d="M74.3091 32.3645C74.47 31.4996 75.2975 30.9332 76.1632 31.094C77.029 31.2547 77.596 32.0813 77.4351 32.9462C77.2742 33.8111 76.4467 34.3775 75.5809 34.2168C74.7228 34.056 74.1558 33.2294 74.3091 32.3645Z" fill="url(#paint36_linear_3001_905)"/>
<path id="Vector_38" d="M62.004 32.3645C62.1649 31.4996 62.9924 30.9332 63.8582 31.094C64.724 31.2547 65.291 32.0813 65.1301 32.9462C64.9692 33.8111 64.1417 34.3775 63.2759 34.2168C62.4178 34.056 61.8431 33.2294 62.004 32.3645Z" fill="url(#paint37_linear_3001_905)"/>
<path id="Vector_39" d="M49.6993 32.3645C49.8602 31.4996 50.6877 30.9332 51.5535 31.094C52.4193 31.2547 52.9863 32.0813 52.8254 32.9462C52.6645 33.8111 51.837 34.3775 50.9712 34.2168C50.1131 34.056 49.5384 33.2294 49.6993 32.3645Z" fill="url(#paint38_linear_3001_905)"/>
<path id="Vector_40" d="M37.3945 32.3645C37.5554 31.4996 38.3829 30.9332 39.2487 31.094C40.1145 31.2547 40.6815 32.0813 40.5206 32.9462C40.3597 33.8111 39.5322 34.3775 38.6664 34.2168C37.8006 34.056 37.2336 33.2294 37.3945 32.3645Z" fill="url(#paint39_linear_3001_905)"/>
<path id="Vector_41" d="M86.6216 22.0087C86.7825 21.1439 87.61 20.5775 88.4758 20.7382C89.3416 20.8989 89.9085 21.7256 89.7476 22.5904C89.5867 23.4553 88.7592 24.0217 87.8935 23.861C87.0277 23.7003 86.4607 22.8736 86.6216 22.0087Z" fill="url(#paint40_linear_3001_905)"/>
<path id="Vector_42" d="M74.3091 22.0087C74.47 21.1439 75.2975 20.5775 76.1632 20.7382C77.029 20.8989 77.596 21.7256 77.4351 22.5904C77.2742 23.4553 76.4467 24.0217 75.5809 23.861C74.7228 23.7003 74.1558 22.8736 74.3091 22.0087Z" fill="url(#paint41_linear_3001_905)"/>
<path id="Vector_43" d="M62.004 22.0087C62.1649 21.1439 62.9924 20.5775 63.8582 20.7382C64.724 20.8989 65.291 21.7256 65.1301 22.5904C64.9692 23.4553 64.1417 24.0217 63.2759 23.861C62.4178 23.7003 61.8431 22.8736 62.004 22.0087Z" fill="url(#paint42_linear_3001_905)"/>
<path id="Vector_44" d="M49.6993 22.0088C49.8602 21.1439 50.6877 20.5775 51.5535 20.7383C52.4193 20.899 52.9863 21.7256 52.8254 22.5905C52.6645 23.4554 51.837 24.0218 50.9712 23.861C50.1131 23.7003 49.5384 22.8737 49.6993 22.0088Z" fill="url(#paint43_linear_3001_905)"/>
<path id="Vector_45" d="M37.3945 22.0088C37.5554 21.1439 38.3829 20.5775 39.2487 20.7383C40.1145 20.899 40.6815 21.7256 40.5206 22.5905C40.3597 23.4554 39.5322 24.0218 38.6664 23.861C37.8006 23.7003 37.2336 22.8737 37.3945 22.0088Z" fill="url(#paint44_linear_3001_905)"/>
<path id="Vector_46" d="M86.6216 11.6535C86.7825 10.7886 87.61 10.2222 88.4758 10.383C89.3416 10.5437 89.9085 11.3703 89.7476 12.2352C89.5867 13.1001 88.7592 13.6665 87.8935 13.5058C87.0277 13.345 86.4607 12.5184 86.6216 11.6535Z" fill="url(#paint45_linear_3001_905)"/>
<path id="Vector_47" d="M74.3091 11.6535C74.47 10.7886 75.2975 10.2222 76.1632 10.383C77.029 10.5437 77.596 11.3703 77.4351 12.2352C77.2742 13.1001 76.4467 13.6665 75.5809 13.5058C74.7228 13.345 74.1558 12.5184 74.3091 11.6535Z" fill="url(#paint46_linear_3001_905)"/>
<path id="Vector_48" d="M62.004 11.6535C62.1649 10.7886 62.9924 10.2222 63.8582 10.383C64.724 10.5437 65.291 11.3703 65.1301 12.2352C64.9692 13.1001 64.1417 13.6665 63.2759 13.5058C62.4178 13.345 61.8431 12.5184 62.004 11.6535Z" fill="url(#paint47_linear_3001_905)"/>
<path id="Vector_49" d="M49.6993 11.6536C49.8602 10.7887 50.6877 10.2223 51.5535 10.383C52.4193 10.5438 52.9863 11.3704 52.8254 12.2353C52.6645 13.1002 51.837 13.6666 50.9712 13.5058C50.1131 13.3451 49.5384 12.5185 49.6993 11.6536Z" fill="url(#paint48_linear_3001_905)"/>
<path id="Vector_50" d="M37.3945 11.6536C37.5554 10.7887 38.3829 10.2223 39.2487 10.383C40.1145 10.5438 40.6815 11.3704 40.5206 12.2353C40.3597 13.1002 39.5322 13.6666 38.6664 13.5058C37.8006 13.3451 37.2336 12.5185 37.3945 11.6536Z" fill="url(#paint49_linear_3001_905)"/>
<path id="Vector_51" d="M86.6216 1.29763C86.7825 0.432741 87.61 -0.133649 88.4758 0.0270826C89.3416 0.187814 89.9085 1.01444 89.7476 1.87933C89.5867 2.74421 88.7592 3.3106 87.8935 3.14987C87.0277 2.98914 86.4607 2.16252 86.6216 1.29763Z" fill="url(#paint50_linear_3001_905)"/>
<path id="Vector_52" d="M74.3091 1.29763C74.47 0.432741 75.2975 -0.133649 76.1632 0.0270826C77.029 0.187814 77.596 1.01444 77.4351 1.87933C77.2742 2.74421 76.4467 3.3106 75.5809 3.14987C74.7228 2.98914 74.1558 2.16252 74.3091 1.29763Z" fill="url(#paint51_linear_3001_905)"/>
<path id="Vector_53" d="M62.004 1.29763C62.1649 0.432741 62.9924 -0.133649 63.8582 0.0270826C64.724 0.187814 65.291 1.01444 65.1301 1.87933C64.9692 2.74421 64.1417 3.3106 63.2759 3.14987C62.4178 2.98914 61.8431 2.16252 62.004 1.29763Z" fill="url(#paint52_linear_3001_905)"/>
<path id="Vector_54" d="M49.6993 1.29763C49.8602 0.432741 50.6877 -0.133649 51.5535 0.0270826C52.4193 0.187814 52.9863 1.01444 52.8254 1.87933C52.6645 2.74421 51.837 3.3106 50.9712 3.14987C50.1131 2.98914 49.5384 2.16252 49.6993 1.29763Z" fill="url(#paint53_linear_3001_905)"/>
<path id="Vector_55" d="M37.3945 1.29763C37.5554 0.432741 38.3829 -0.133649 39.2487 0.0270826C40.1145 0.187814 40.6815 1.01444 40.5206 1.87933C40.3597 2.74421 39.5322 3.3106 38.6664 3.14987C37.8006 2.98914 37.2336 2.16252 37.3945 1.29763Z" fill="url(#paint54_linear_3001_905)"/>
<path id="Vector_56" d="M25.3263 104.855C25.4872 103.99 26.3147 103.423 27.1805 103.584C28.0463 103.745 28.6132 104.571 28.4523 105.436C28.2914 106.301 27.464 106.867 26.5982 106.707C25.7324 106.546 25.1654 105.719 25.3263 104.855Z" fill="url(#paint55_linear_3001_905)"/>
<path id="Vector_57" d="M13.0146 104.855C13.1755 103.99 14.003 103.423 14.8688 103.584C15.7346 103.745 16.3016 104.571 16.1407 105.436C15.9798 106.301 15.1523 106.867 14.2865 106.707C13.4284 106.546 12.8614 105.719 13.0146 104.855Z" fill="url(#paint56_linear_3001_905)"/>
<path id="Vector_58" d="M0.708845 104.855C0.869744 103.99 1.69724 103.423 2.56303 103.584C3.42882 103.745 3.9958 104.571 3.8349 105.436C3.674 106.301 2.84651 106.867 1.98072 106.707C1.12259 106.546 0.547946 105.719 0.708845 104.855Z" fill="url(#paint57_linear_3001_905)"/>
<path id="Vector_59" d="M25.3263 94.4986C25.4872 93.6337 26.3147 93.0673 27.1805 93.228C28.0463 93.3887 28.6132 94.2154 28.4523 95.0803C28.2914 95.9451 27.464 96.5115 26.5982 96.3508C25.7324 96.1901 25.1654 95.3634 25.3263 94.4986Z" fill="url(#paint58_linear_3001_905)"/>
<path id="Vector_60" d="M13.0146 94.4986C13.1755 93.6337 14.003 93.0673 14.8688 93.228C15.7346 93.3887 16.3016 94.2154 16.1407 95.0803C15.9798 95.9451 15.1523 96.5115 14.2865 96.3508C13.4284 96.1901 12.8614 95.3634 13.0146 94.4986Z" fill="url(#paint59_linear_3001_905)"/>
<path id="Vector_61" d="M0.708845 94.4986C0.869744 93.6337 1.69724 93.0673 2.56303 93.228C3.42882 93.3887 3.9958 94.2154 3.8349 95.0803C3.674 95.9451 2.84651 96.5115 1.98072 96.3508C1.12259 96.1901 0.547946 95.3634 0.708845 94.4986Z" fill="url(#paint60_linear_3001_905)"/>
<path id="Vector_62" d="M25.3263 84.1436C25.4872 83.2787 26.3147 82.7123 27.1805 82.873C28.0463 83.0338 28.6132 83.8604 28.4523 84.7253C28.2914 85.5902 27.464 86.1565 26.5982 85.9958C25.7324 85.8351 25.1654 85.0085 25.3263 84.1436Z" fill="url(#paint61_linear_3001_905)"/>
<path id="Vector_63" d="M13.0146 84.1436C13.1755 83.2787 14.003 82.7123 14.8688 82.873C15.7346 83.0338 16.3016 83.8604 16.1407 84.7253C15.9798 85.5902 15.1523 86.1565 14.2865 85.9958C13.4284 85.8351 12.8614 85.0085 13.0146 84.1436Z" fill="url(#paint62_linear_3001_905)"/>
<path id="Vector_64" d="M0.708845 84.1436C0.869744 83.2787 1.69724 82.7123 2.56303 82.873C3.42882 83.0338 3.9958 83.8604 3.8349 84.7253C3.674 85.5902 2.84651 86.1565 1.98072 85.9958C1.12259 85.8351 0.547946 85.0085 0.708845 84.1436Z" fill="url(#paint63_linear_3001_905)"/>
<path id="Vector_65" d="M25.3263 73.7875C25.4872 72.9226 26.3147 72.3562 27.1805 72.517C28.0463 72.6777 28.6132 73.5043 28.4523 74.3692C28.2914 75.2341 27.464 75.8005 26.5982 75.6397C25.7324 75.479 25.1654 74.6524 25.3263 73.7875Z" fill="url(#paint64_linear_3001_905)"/>
<path id="Vector_66" d="M13.0146 73.7875C13.1755 72.9226 14.003 72.3562 14.8688 72.517C15.7346 72.6777 16.3016 73.5043 16.1407 74.3692C15.9798 75.2341 15.1523 75.8005 14.2865 75.6397C13.4284 75.479 12.8614 74.6524 13.0146 73.7875Z" fill="url(#paint65_linear_3001_905)"/>
<path id="Vector_67" d="M0.708845 73.7875C0.869744 72.9226 1.69724 72.3562 2.56303 72.517C3.42882 72.6777 3.9958 73.5043 3.8349 74.3692C3.674 75.2341 2.84651 75.8005 1.98072 75.6397C1.12259 75.479 0.547946 74.6524 0.708845 73.7875Z" fill="url(#paint66_linear_3001_905)"/>
<path id="Vector_68" d="M25.3263 63.4315C25.4872 62.5667 26.3147 62.0003 27.1805 62.161C28.0463 62.3217 28.6132 63.1483 28.4523 64.0132C28.2914 64.8781 27.464 65.4445 26.5982 65.2838C25.7324 65.123 25.1654 64.2964 25.3263 63.4315Z" fill="url(#paint67_linear_3001_905)"/>
<path id="Vector_69" d="M13.0146 63.4315C13.1755 62.5667 14.003 62.0003 14.8688 62.161C15.7346 62.3217 16.3016 63.1483 16.1407 64.0132C15.9798 64.8781 15.1523 65.4445 14.2865 65.2838C13.4207 65.123 12.8614 64.2964 13.0146 63.4315Z" fill="url(#paint68_linear_3001_905)"/>
<path id="Vector_70" d="M0.708845 63.4315C0.869744 62.5667 1.69724 62.0003 2.56303 62.161C3.42882 62.3217 3.9958 63.1483 3.8349 64.0132C3.674 64.8781 2.84651 65.4445 1.98072 65.2838C1.12259 65.123 0.547946 64.2964 0.708845 63.4315Z" fill="url(#paint69_linear_3001_905)"/>
<path id="Vector_71" d="M25.3263 53.0757C25.4872 52.2108 26.3147 51.6444 27.1805 51.8052C28.0463 51.9659 28.6132 52.7925 28.4523 53.6574C28.2914 54.5223 27.464 55.0887 26.5982 54.9279C25.7324 54.7672 25.1654 53.9406 25.3263 53.0757Z" fill="url(#paint70_linear_3001_905)"/>
<path id="Vector_72" d="M13.0146 53.0757C13.1755 52.2108 14.003 51.6444 14.8688 51.8052C15.7346 51.9659 16.3016 52.7925 16.1407 53.6574C15.9798 54.5223 15.1523 55.0887 14.2865 54.9279C13.4207 54.7672 12.8614 53.9406 13.0146 53.0757Z" fill="url(#paint71_linear_3001_905)"/>
<path id="Vector_73" d="M0.708845 53.0757C0.869744 52.2108 1.69724 51.6444 2.56303 51.8052C3.42882 51.9659 3.9958 52.7925 3.8349 53.6574C3.674 54.5223 2.84651 55.0887 1.98072 54.9279C1.12259 54.7672 0.547946 53.9406 0.708845 53.0757Z" fill="url(#paint72_linear_3001_905)"/>
<path id="Vector_74" d="M25.3263 42.7205C25.4872 41.8556 26.3147 41.2892 27.1805 41.4499C28.0463 41.6107 28.6132 42.4373 28.4523 43.3022C28.2914 44.1671 27.464 44.7335 26.5982 44.5727C25.7324 44.412 25.1654 43.5854 25.3263 42.7205Z" fill="url(#paint73_linear_3001_905)"/>
<path id="Vector_75" d="M13.0146 42.7205C13.1755 41.8556 14.003 41.2892 14.8688 41.4499C15.7346 41.6107 16.3016 42.4373 16.1407 43.3022C15.9798 44.1671 15.1523 44.7335 14.2865 44.5727C13.4284 44.412 12.8614 43.5854 13.0146 42.7205Z" fill="url(#paint74_linear_3001_905)"/>
<path id="Vector_76" d="M0.708845 42.7205C0.869744 41.8556 1.69724 41.2892 2.56303 41.4499C3.42882 41.6107 3.9958 42.4373 3.8349 43.3022C3.674 44.1671 2.84651 44.7335 1.98072 44.5727C1.12259 44.412 0.547946 43.5854 0.708845 42.7205Z" fill="url(#paint75_linear_3001_905)"/>
<path id="Vector_77" d="M25.3263 32.3645C25.4872 31.4996 26.3147 30.9332 27.1805 31.094C28.0463 31.2547 28.6132 32.0813 28.4523 32.9462C28.2914 33.8111 27.464 34.3775 26.5982 34.2168C25.7324 34.056 25.1654 33.2294 25.3263 32.3645Z" fill="url(#paint76_linear_3001_905)"/>
<path id="Vector_78" d="M13.0146 32.3645C13.1755 31.4996 14.003 30.9332 14.8688 31.094C15.7346 31.2547 16.3016 32.0813 16.1407 32.9462C15.9798 33.8111 15.1523 34.3775 14.2865 34.2168C13.4284 34.056 12.8614 33.2294 13.0146 32.3645Z" fill="url(#paint77_linear_3001_905)"/>
<path id="Vector_79" d="M0.708845 32.3645C0.869744 31.4996 1.69724 30.9332 2.56303 31.094C3.42882 31.2547 3.9958 32.0813 3.8349 32.9462C3.674 33.8111 2.84651 34.3775 1.98072 34.2168C1.12259 34.056 0.547946 33.2294 0.708845 32.3645Z" fill="url(#paint78_linear_3001_905)"/>
<path id="Vector_80" d="M25.3263 22.0088C25.4872 21.1439 26.3147 20.5775 27.1805 20.7383C28.0463 20.899 28.6132 21.7256 28.4523 22.5905C28.2914 23.4554 27.464 24.0218 26.5982 23.861C25.7324 23.7003 25.1654 22.8737 25.3263 22.0088Z" fill="url(#paint79_linear_3001_905)"/>
<path id="Vector_81" d="M13.0146 22.0088C13.1755 21.1439 14.003 20.5775 14.8688 20.7383C15.7346 20.899 16.3016 21.7256 16.1407 22.5905C15.9798 23.4554 15.1523 24.0218 14.2865 23.861C13.4284 23.7003 12.8614 22.8737 13.0146 22.0088Z" fill="url(#paint80_linear_3001_905)"/>
<path id="Vector_82" d="M0.708845 22.0088C0.869744 21.1439 1.69724 20.5775 2.56303 20.7383C3.42882 20.899 3.9958 21.7256 3.8349 22.5905C3.674 23.4554 2.84651 24.0218 1.98072 23.861C1.12259 23.7003 0.547946 22.8737 0.708845 22.0088Z" fill="url(#paint81_linear_3001_905)"/>
<path id="Vector_83" d="M25.3263 11.6536C25.4872 10.7887 26.3147 10.2223 27.1805 10.383C28.0463 10.5438 28.6132 11.3704 28.4523 12.2353C28.2914 13.1002 27.464 13.6666 26.5982 13.5058C25.7324 13.3451 25.1654 12.5185 25.3263 11.6536Z" fill="url(#paint82_linear_3001_905)"/>
<path id="Vector_84" d="M13.0146 11.6536C13.1755 10.7887 14.003 10.2223 14.8688 10.383C15.7346 10.5438 16.3016 11.3704 16.1407 12.2353C15.9798 13.1002 15.1523 13.6666 14.2865 13.5058C13.4284 13.3451 12.8614 12.5185 13.0146 11.6536Z" fill="url(#paint83_linear_3001_905)"/>
<path id="Vector_85" d="M0.708845 11.6536C0.869744 10.7887 1.69724 10.2223 2.56303 10.383C3.42882 10.5438 3.9958 11.3704 3.8349 12.2353C3.674 13.1002 2.84651 13.6666 1.98072 13.5058C1.12259 13.3451 0.547946 12.5185 0.708845 11.6536Z" fill="url(#paint84_linear_3001_905)"/>
<path id="Vector_86" d="M25.3263 1.29763C25.4872 0.432741 26.3147 -0.133649 27.1805 0.0270826C28.0463 0.187814 28.6132 1.01444 28.4523 1.87933C28.2914 2.74421 27.464 3.3106 26.5982 3.14987C25.7324 2.98914 25.1654 2.16252 25.3263 1.29763Z" fill="url(#paint85_linear_3001_905)"/>
<path id="Vector_87" d="M13.0146 1.29763C13.1755 0.432741 14.003 -0.133649 14.8688 0.0270826C15.7346 0.187814 16.3016 1.01444 16.1407 1.87933C15.9798 2.74421 15.1523 3.3106 14.2865 3.14987C13.4284 2.98914 12.8614 2.16252 13.0146 1.29763Z" fill="url(#paint86_linear_3001_905)"/>
<path id="Vector_88" d="M0.708845 1.29763C0.869744 0.432741 1.69724 -0.133649 2.56303 0.0270826C3.42882 0.187814 3.9958 1.01444 3.8349 1.87933C3.674 2.74421 2.84651 3.3106 1.98072 3.14987C1.12259 2.98914 0.547946 2.16252 0.708845 1.29763Z" fill="url(#paint87_linear_3001_905)"/>
</g>
</g>
<defs>
<linearGradient id="paint0_linear_3001_905" x1="88.1846" y1="103.557" x2="88.1846" y2="106.734" gradientUnits="userSpaceOnUse">
<stop stop-color="#004FE6"/>
<stop offset="1" stop-color="#002C80"/>
</linearGradient>
<linearGradient id="paint1_linear_3001_905" x1="75.8732" y1="103.557" x2="75.8732" y2="106.734" gradientUnits="userSpaceOnUse">
<stop stop-color="#004FE6"/>
<stop offset="1" stop-color="#002C80"/>
</linearGradient>
<linearGradient id="paint2_linear_3001_905" x1="63.5672" y1="103.557" x2="63.5672" y2="106.734" gradientUnits="userSpaceOnUse">
<stop stop-color="#004FE6"/>
<stop offset="1" stop-color="#002C80"/>
</linearGradient>
<linearGradient id="paint3_linear_3001_905" x1="51.2625" y1="103.557" x2="51.2625" y2="106.734" gradientUnits="userSpaceOnUse">
<stop stop-color="#004FE6"/>
<stop offset="1" stop-color="#002C80"/>
</linearGradient>
<linearGradient id="paint4_linear_3001_905" x1="38.9576" y1="103.557" x2="38.9576" y2="106.734" gradientUnits="userSpaceOnUse">
<stop stop-color="#004FE6"/>
<stop offset="1" stop-color="#002C80"/>
</linearGradient>
<linearGradient id="paint5_linear_3001_905" x1="88.1846" y1="93.2007" x2="88.1846" y2="96.378" gradientUnits="userSpaceOnUse">
<stop stop-color="#004FE6"/>
<stop offset="1" stop-color="#002C80"/>
</linearGradient>
<linearGradient id="paint6_linear_3001_905" x1="75.8732" y1="93.2007" x2="75.8732" y2="96.378" gradientUnits="userSpaceOnUse">
<stop stop-color="#004FE6"/>
<stop offset="1" stop-color="#002C80"/>
</linearGradient>
<linearGradient id="paint7_linear_3001_905" x1="63.5672" y1="93.2007" x2="63.5672" y2="96.378" gradientUnits="userSpaceOnUse">
<stop stop-color="#004FE6"/>
<stop offset="1" stop-color="#002C80"/>
</linearGradient>
<linearGradient id="paint8_linear_3001_905" x1="51.2625" y1="93.2008" x2="51.2625" y2="96.3781" gradientUnits="userSpaceOnUse">
<stop stop-color="#004FE6"/>
<stop offset="1" stop-color="#002C80"/>
</linearGradient>
<linearGradient id="paint9_linear_3001_905" x1="38.9576" y1="93.2008" x2="38.9576" y2="96.3781" gradientUnits="userSpaceOnUse">
<stop stop-color="#004FE6"/>
<stop offset="1" stop-color="#002C80"/>
</linearGradient>
<linearGradient id="paint10_linear_3001_905" x1="88.1846" y1="82.8457" x2="88.1846" y2="86.023" gradientUnits="userSpaceOnUse">
<stop stop-color="#004FE6"/>
<stop offset="1" stop-color="#002C80"/>
</linearGradient>
<linearGradient id="paint11_linear_3001_905" x1="75.8732" y1="82.8457" x2="75.8732" y2="86.023" gradientUnits="userSpaceOnUse">
<stop stop-color="#004FE6"/>
<stop offset="1" stop-color="#002C80"/>
</linearGradient>
<linearGradient id="paint12_linear_3001_905" x1="63.5672" y1="82.8457" x2="63.5672" y2="86.023" gradientUnits="userSpaceOnUse">
<stop stop-color="#004FE6"/>
<stop offset="1" stop-color="#002C80"/>
</linearGradient>
<linearGradient id="paint13_linear_3001_905" x1="51.2625" y1="82.8458" x2="51.2625" y2="86.0231" gradientUnits="userSpaceOnUse">
<stop stop-color="#004FE6"/>
<stop offset="1" stop-color="#002C80"/>
</linearGradient>
<linearGradient id="paint14_linear_3001_905" x1="38.9576" y1="82.8458" x2="38.9576" y2="86.0231" gradientUnits="userSpaceOnUse">
<stop stop-color="#004FE6"/>
<stop offset="1" stop-color="#002C80"/>
</linearGradient>
<linearGradient id="paint15_linear_3001_905" x1="88.1846" y1="72.4897" x2="88.1846" y2="75.667" gradientUnits="userSpaceOnUse">
<stop stop-color="#004FE6"/>
<stop offset="1" stop-color="#002C80"/>
</linearGradient>
<linearGradient id="paint16_linear_3001_905" x1="75.8732" y1="72.4897" x2="75.8732" y2="75.667" gradientUnits="userSpaceOnUse">
<stop stop-color="#004FE6"/>
<stop offset="1" stop-color="#002C80"/>
</linearGradient>
<linearGradient id="paint17_linear_3001_905" x1="63.5672" y1="72.4897" x2="63.5672" y2="75.667" gradientUnits="userSpaceOnUse">
<stop stop-color="#004FE6"/>
<stop offset="1" stop-color="#002C80"/>
</linearGradient>
<linearGradient id="paint18_linear_3001_905" x1="51.2625" y1="72.4897" x2="51.2625" y2="75.667" gradientUnits="userSpaceOnUse">
<stop stop-color="#004FE6"/>
<stop offset="1" stop-color="#002C80"/>
</linearGradient>
<linearGradient id="paint19_linear_3001_905" x1="38.9576" y1="72.4897" x2="38.9576" y2="75.667" gradientUnits="userSpaceOnUse">
<stop stop-color="#004FE6"/>
<stop offset="1" stop-color="#002C80"/>
</linearGradient>
<linearGradient id="paint20_linear_3001_905" x1="88.1846" y1="62.1337" x2="88.1846" y2="65.311" gradientUnits="userSpaceOnUse">
<stop stop-color="#004FE6"/>
<stop offset="1" stop-color="#002C80"/>
</linearGradient>
<linearGradient id="paint21_linear_3001_905" x1="75.8731" y1="62.1337" x2="75.8731" y2="65.311" gradientUnits="userSpaceOnUse">
<stop stop-color="#004FE6"/>
<stop offset="1" stop-color="#002C80"/>
</linearGradient>
<linearGradient id="paint22_linear_3001_905" x1="63.5672" y1="62.1337" x2="63.5672" y2="65.311" gradientUnits="userSpaceOnUse">
<stop stop-color="#004FE6"/>
<stop offset="1" stop-color="#002C80"/>
</linearGradient>
<linearGradient id="paint23_linear_3001_905" x1="51.2625" y1="62.1337" x2="51.2625" y2="65.311" gradientUnits="userSpaceOnUse">
<stop stop-color="#004FE6"/>
<stop offset="1" stop-color="#002C80"/>
</linearGradient>
<linearGradient id="paint24_linear_3001_905" x1="38.9576" y1="62.1337" x2="38.9576" y2="65.311" gradientUnits="userSpaceOnUse">
<stop stop-color="#004FE6"/>
<stop offset="1" stop-color="#002C80"/>
</linearGradient>
<linearGradient id="paint25_linear_3001_905" x1="88.1846" y1="51.7779" x2="88.1846" y2="54.9552" gradientUnits="userSpaceOnUse">
<stop stop-color="#004FE6"/>
<stop offset="1" stop-color="#002C80"/>
</linearGradient>
<linearGradient id="paint26_linear_3001_905" x1="75.8731" y1="51.7779" x2="75.8731" y2="54.9552" gradientUnits="userSpaceOnUse">
<stop stop-color="#004FE6"/>
<stop offset="1" stop-color="#002C80"/>
</linearGradient>
<linearGradient id="paint27_linear_3001_905" x1="63.5672" y1="51.7779" x2="63.5672" y2="54.9552" gradientUnits="userSpaceOnUse">
<stop stop-color="#004FE6"/>
<stop offset="1" stop-color="#002C80"/>
</linearGradient>
<linearGradient id="paint28_linear_3001_905" x1="51.2625" y1="51.7779" x2="51.2625" y2="54.9552" gradientUnits="userSpaceOnUse">
<stop stop-color="#004FE6"/>
<stop offset="1" stop-color="#002C80"/>
</linearGradient>
<linearGradient id="paint29_linear_3001_905" x1="38.9576" y1="51.7779" x2="38.9576" y2="54.9552" gradientUnits="userSpaceOnUse">
<stop stop-color="#004FE6"/>
<stop offset="1" stop-color="#002C80"/>
</linearGradient>
<linearGradient id="paint30_linear_3001_905" x1="88.1846" y1="41.4227" x2="88.1846" y2="44.6" gradientUnits="userSpaceOnUse">
<stop stop-color="#004FE6"/>
<stop offset="1" stop-color="#002C80"/>
</linearGradient>
<linearGradient id="paint31_linear_3001_905" x1="75.8732" y1="41.4227" x2="75.8732" y2="44.6" gradientUnits="userSpaceOnUse">
<stop stop-color="#004FE6"/>
<stop offset="1" stop-color="#002C80"/>
</linearGradient>
<linearGradient id="paint32_linear_3001_905" x1="63.5672" y1="41.4227" x2="63.5672" y2="44.6" gradientUnits="userSpaceOnUse">
<stop stop-color="#004FE6"/>
<stop offset="1" stop-color="#002C80"/>
</linearGradient>
<linearGradient id="paint33_linear_3001_905" x1="51.2625" y1="41.4227" x2="51.2625" y2="44.6" gradientUnits="userSpaceOnUse">
<stop stop-color="#004FE6"/>
<stop offset="1" stop-color="#002C80"/>
</linearGradient>
<linearGradient id="paint34_linear_3001_905" x1="38.9576" y1="41.4227" x2="38.9576" y2="44.6" gradientUnits="userSpaceOnUse">
<stop stop-color="#004FE6"/>
<stop offset="1" stop-color="#002C80"/>
</linearGradient>
<linearGradient id="paint35_linear_3001_905" x1="88.1846" y1="31.0667" x2="88.1846" y2="34.244" gradientUnits="userSpaceOnUse">
<stop stop-color="#004FE6"/>
<stop offset="1" stop-color="#002C80"/>
</linearGradient>
<linearGradient id="paint36_linear_3001_905" x1="75.8732" y1="31.0667" x2="75.8732" y2="34.244" gradientUnits="userSpaceOnUse">
<stop stop-color="#004FE6"/>
<stop offset="1" stop-color="#002C80"/>
</linearGradient>
<linearGradient id="paint37_linear_3001_905" x1="63.5672" y1="31.0667" x2="63.5672" y2="34.244" gradientUnits="userSpaceOnUse">
<stop stop-color="#004FE6"/>
<stop offset="1" stop-color="#002C80"/>
</linearGradient>
<linearGradient id="paint38_linear_3001_905" x1="51.2625" y1="31.0667" x2="51.2625" y2="34.244" gradientUnits="userSpaceOnUse">
<stop stop-color="#004FE6"/>
<stop offset="1" stop-color="#002C80"/>
</linearGradient>
<linearGradient id="paint39_linear_3001_905" x1="38.9576" y1="31.0667" x2="38.9576" y2="34.244" gradientUnits="userSpaceOnUse">
<stop stop-color="#004FE6"/>
<stop offset="1" stop-color="#002C80"/>
</linearGradient>
<linearGradient id="paint40_linear_3001_905" x1="88.1846" y1="20.7109" x2="88.1846" y2="23.8882" gradientUnits="userSpaceOnUse">
<stop stop-color="#004FE6"/>
<stop offset="1" stop-color="#002C80"/>
</linearGradient>
<linearGradient id="paint41_linear_3001_905" x1="75.8732" y1="20.7109" x2="75.8732" y2="23.8882" gradientUnits="userSpaceOnUse">
<stop stop-color="#004FE6"/>
<stop offset="1" stop-color="#002C80"/>
</linearGradient>
<linearGradient id="paint42_linear_3001_905" x1="63.5672" y1="20.7109" x2="63.5672" y2="23.8882" gradientUnits="userSpaceOnUse">
<stop stop-color="#004FE6"/>
<stop offset="1" stop-color="#002C80"/>
</linearGradient>
<linearGradient id="paint43_linear_3001_905" x1="51.2625" y1="20.711" x2="51.2625" y2="23.8883" gradientUnits="userSpaceOnUse">
<stop stop-color="#004FE6"/>
<stop offset="1" stop-color="#002C80"/>
</linearGradient>
<linearGradient id="paint44_linear_3001_905" x1="38.9576" y1="20.711" x2="38.9576" y2="23.8883" gradientUnits="userSpaceOnUse">
<stop stop-color="#004FE6"/>
<stop offset="1" stop-color="#002C80"/>
</linearGradient>
<linearGradient id="paint45_linear_3001_905" x1="88.1846" y1="10.3557" x2="88.1846" y2="13.533" gradientUnits="userSpaceOnUse">
<stop stop-color="#004FE6"/>
<stop offset="1" stop-color="#002C80"/>
</linearGradient>
<linearGradient id="paint46_linear_3001_905" x1="75.8732" y1="10.3557" x2="75.8732" y2="13.533" gradientUnits="userSpaceOnUse">
<stop stop-color="#004FE6"/>
<stop offset="1" stop-color="#002C80"/>
</linearGradient>
<linearGradient id="paint47_linear_3001_905" x1="63.5672" y1="10.3557" x2="63.5672" y2="13.533" gradientUnits="userSpaceOnUse">
<stop stop-color="#004FE6"/>
<stop offset="1" stop-color="#002C80"/>
</linearGradient>
<linearGradient id="paint48_linear_3001_905" x1="51.2625" y1="10.3558" x2="51.2625" y2="13.5331" gradientUnits="userSpaceOnUse">
<stop stop-color="#004FE6"/>
<stop offset="1" stop-color="#002C80"/>
</linearGradient>
<linearGradient id="paint49_linear_3001_905" x1="38.9576" y1="10.3558" x2="38.9576" y2="13.5331" gradientUnits="userSpaceOnUse">
<stop stop-color="#004FE6"/>
<stop offset="1" stop-color="#002C80"/>
</linearGradient>
<linearGradient id="paint50_linear_3001_905" x1="88.1846" y1="-0.000173946" x2="88.1846" y2="3.17712" gradientUnits="userSpaceOnUse">
<stop stop-color="#004FE6"/>
<stop offset="1" stop-color="#002C80"/>
</linearGradient>
<linearGradient id="paint51_linear_3001_905" x1="75.8732" y1="-0.000173946" x2="75.8732" y2="3.17712" gradientUnits="userSpaceOnUse">
<stop stop-color="#004FE6"/>
<stop offset="1" stop-color="#002C80"/>
</linearGradient>
<linearGradient id="paint52_linear_3001_905" x1="63.5672" y1="-0.000173946" x2="63.5672" y2="3.17712" gradientUnits="userSpaceOnUse">
<stop stop-color="#004FE6"/>
<stop offset="1" stop-color="#002C80"/>
</linearGradient>
<linearGradient id="paint53_linear_3001_905" x1="51.2625" y1="-0.000173946" x2="51.2625" y2="3.17712" gradientUnits="userSpaceOnUse">
<stop stop-color="#004FE6"/>
<stop offset="1" stop-color="#002C80"/>
</linearGradient>
<linearGradient id="paint54_linear_3001_905" x1="38.9576" y1="-0.000173946" x2="38.9576" y2="3.17712" gradientUnits="userSpaceOnUse">
<stop stop-color="#004FE6"/>
<stop offset="1" stop-color="#002C80"/>
</linearGradient>
<linearGradient id="paint55_linear_3001_905" x1="26.8893" y1="103.557" x2="26.8893" y2="106.734" gradientUnits="userSpaceOnUse">
<stop stop-color="#004FE6"/>
<stop offset="1" stop-color="#002C80"/>
</linearGradient>
<linearGradient id="paint56_linear_3001_905" x1="14.5788" y1="103.557" x2="14.5788" y2="106.734" gradientUnits="userSpaceOnUse">
<stop stop-color="#004FE6"/>
<stop offset="1" stop-color="#002C80"/>
</linearGradient>
<linearGradient id="paint57_linear_3001_905" x1="2.272" y1="103.557" x2="2.272" y2="106.734" gradientUnits="userSpaceOnUse">
<stop stop-color="#004FE6"/>
<stop offset="1" stop-color="#002C80"/>
</linearGradient>
<linearGradient id="paint58_linear_3001_905" x1="26.8893" y1="93.2008" x2="26.8893" y2="96.3781" gradientUnits="userSpaceOnUse">
<stop stop-color="#004FE6"/>
<stop offset="1" stop-color="#002C80"/>
</linearGradient>
<linearGradient id="paint59_linear_3001_905" x1="14.5788" y1="93.2008" x2="14.5788" y2="96.3781" gradientUnits="userSpaceOnUse">
<stop stop-color="#004FE6"/>
<stop offset="1" stop-color="#002C80"/>
</linearGradient>
<linearGradient id="paint60_linear_3001_905" x1="2.272" y1="93.2008" x2="2.272" y2="96.3781" gradientUnits="userSpaceOnUse">
<stop stop-color="#004FE6"/>
<stop offset="1" stop-color="#002C80"/>
</linearGradient>
<linearGradient id="paint61_linear_3001_905" x1="26.8893" y1="82.8458" x2="26.8893" y2="86.0231" gradientUnits="userSpaceOnUse">
<stop stop-color="#004FE6"/>
<stop offset="1" stop-color="#002C80"/>
</linearGradient>
<linearGradient id="paint62_linear_3001_905" x1="14.5788" y1="82.8458" x2="14.5788" y2="86.0231" gradientUnits="userSpaceOnUse">
<stop stop-color="#004FE6"/>
<stop offset="1" stop-color="#002C80"/>
</linearGradient>
<linearGradient id="paint63_linear_3001_905" x1="2.272" y1="82.8458" x2="2.272" y2="86.0231" gradientUnits="userSpaceOnUse">
<stop stop-color="#004FE6"/>
<stop offset="1" stop-color="#002C80"/>
</linearGradient>
<linearGradient id="paint64_linear_3001_905" x1="26.8893" y1="72.4897" x2="26.8893" y2="75.667" gradientUnits="userSpaceOnUse">
<stop stop-color="#004FE6"/>
<stop offset="1" stop-color="#002C80"/>
</linearGradient>
<linearGradient id="paint65_linear_3001_905" x1="14.5788" y1="72.4897" x2="14.5788" y2="75.667" gradientUnits="userSpaceOnUse">
<stop stop-color="#004FE6"/>
<stop offset="1" stop-color="#002C80"/>
</linearGradient>
<linearGradient id="paint66_linear_3001_905" x1="2.272" y1="72.4897" x2="2.272" y2="75.667" gradientUnits="userSpaceOnUse">
<stop stop-color="#004FE6"/>
<stop offset="1" stop-color="#002C80"/>
</linearGradient>
<linearGradient id="paint67_linear_3001_905" x1="26.8893" y1="62.1337" x2="26.8893" y2="65.311" gradientUnits="userSpaceOnUse">
<stop stop-color="#004FE6"/>
<stop offset="1" stop-color="#002C80"/>
</linearGradient>
<linearGradient id="paint68_linear_3001_905" x1="14.5787" y1="62.1337" x2="14.5787" y2="65.311" gradientUnits="userSpaceOnUse">
<stop stop-color="#004FE6"/>
<stop offset="1" stop-color="#002C80"/>
</linearGradient>
<linearGradient id="paint69_linear_3001_905" x1="2.272" y1="62.1337" x2="2.272" y2="65.311" gradientUnits="userSpaceOnUse">
<stop stop-color="#004FE6"/>
<stop offset="1" stop-color="#002C80"/>
</linearGradient>
<linearGradient id="paint70_linear_3001_905" x1="26.8893" y1="51.7779" x2="26.8893" y2="54.9552" gradientUnits="userSpaceOnUse">
<stop stop-color="#004FE6"/>
<stop offset="1" stop-color="#002C80"/>
</linearGradient>
<linearGradient id="paint71_linear_3001_905" x1="14.5787" y1="51.7779" x2="14.5787" y2="54.9552" gradientUnits="userSpaceOnUse">
<stop stop-color="#004FE6"/>
<stop offset="1" stop-color="#002C80"/>
</linearGradient>
<linearGradient id="paint72_linear_3001_905" x1="2.272" y1="51.7779" x2="2.272" y2="54.9552" gradientUnits="userSpaceOnUse">
<stop stop-color="#004FE6"/>
<stop offset="1" stop-color="#002C80"/>
</linearGradient>
<linearGradient id="paint73_linear_3001_905" x1="26.8893" y1="41.4227" x2="26.8893" y2="44.6" gradientUnits="userSpaceOnUse">
<stop stop-color="#004FE6"/>
<stop offset="1" stop-color="#002C80"/>
</linearGradient>
<linearGradient id="paint74_linear_3001_905" x1="14.5788" y1="41.4227" x2="14.5788" y2="44.6" gradientUnits="userSpaceOnUse">
<stop stop-color="#004FE6"/>
<stop offset="1" stop-color="#002C80"/>
</linearGradient>
<linearGradient id="paint75_linear_3001_905" x1="2.272" y1="41.4227" x2="2.272" y2="44.6" gradientUnits="userSpaceOnUse">
<stop stop-color="#004FE6"/>
<stop offset="1" stop-color="#002C80"/>
</linearGradient>
<linearGradient id="paint76_linear_3001_905" x1="26.8893" y1="31.0667" x2="26.8893" y2="34.244" gradientUnits="userSpaceOnUse">
<stop stop-color="#004FE6"/>
<stop offset="1" stop-color="#002C80"/>
</linearGradient>
<linearGradient id="paint77_linear_3001_905" x1="14.5788" y1="31.0667" x2="14.5788" y2="34.244" gradientUnits="userSpaceOnUse">
<stop stop-color="#004FE6"/>
<stop offset="1" stop-color="#002C80"/>
</linearGradient>
<linearGradient id="paint78_linear_3001_905" x1="2.272" y1="31.0667" x2="2.272" y2="34.244" gradientUnits="userSpaceOnUse">
<stop stop-color="#004FE6"/>
<stop offset="1" stop-color="#002C80"/>
</linearGradient>
<linearGradient id="paint79_linear_3001_905" x1="26.8893" y1="20.711" x2="26.8893" y2="23.8883" gradientUnits="userSpaceOnUse">
<stop stop-color="#004FE6"/>
<stop offset="1" stop-color="#002C80"/>
</linearGradient>
<linearGradient id="paint80_linear_3001_905" x1="14.5788" y1="20.711" x2="14.5788" y2="23.8883" gradientUnits="userSpaceOnUse">
<stop stop-color="#004FE6"/>
<stop offset="1" stop-color="#002C80"/>
</linearGradient>
<linearGradient id="paint81_linear_3001_905" x1="2.272" y1="20.711" x2="2.272" y2="23.8883" gradientUnits="userSpaceOnUse">
<stop stop-color="#004FE6"/>
<stop offset="1" stop-color="#002C80"/>
</linearGradient>
<linearGradient id="paint82_linear_3001_905" x1="26.8893" y1="10.3558" x2="26.8893" y2="13.5331" gradientUnits="userSpaceOnUse">
<stop stop-color="#004FE6"/>
<stop offset="1" stop-color="#002C80"/>
</linearGradient>
<linearGradient id="paint83_linear_3001_905" x1="14.5788" y1="10.3558" x2="14.5788" y2="13.5331" gradientUnits="userSpaceOnUse">
<stop stop-color="#004FE6"/>
<stop offset="1" stop-color="#002C80"/>
</linearGradient>
<linearGradient id="paint84_linear_3001_905" x1="2.272" y1="10.3558" x2="2.272" y2="13.5331" gradientUnits="userSpaceOnUse">
<stop stop-color="#004FE6"/>
<stop offset="1" stop-color="#002C80"/>
</linearGradient>
<linearGradient id="paint85_linear_3001_905" x1="26.8893" y1="-0.000173946" x2="26.8893" y2="3.17712" gradientUnits="userSpaceOnUse">
<stop stop-color="#004FE6"/>
<stop offset="1" stop-color="#002C80"/>
</linearGradient>
<linearGradient id="paint86_linear_3001_905" x1="14.5788" y1="-0.000173946" x2="14.5788" y2="3.17712" gradientUnits="userSpaceOnUse">
<stop stop-color="#004FE6"/>
<stop offset="1" stop-color="#002C80"/>
</linearGradient>
<linearGradient id="paint87_linear_3001_905" x1="2.272" y1="-0.000173946" x2="2.272" y2="3.17712" gradientUnits="userSpaceOnUse">
<stop stop-color="#004FE6"/>
<stop offset="1" stop-color="#002C80"/>
</linearGradient>
</defs>
</svg>
