<svg width="167" height="237" viewBox="0 0 167 237" fill="none" xmlns="http://www.w3.org/2000/svg">
<g id="Frame 711">
<path id="Vector 50" d="M151.25 30.2399C143.95 29.2736 138.815 22.5723 139.782 15.2722C140.748 7.97211 147.449 2.83757 154.749 3.8039C162.05 4.77023 167.184 11.4715 166.218 18.7716C165.251 26.0717 158.55 31.2063 151.25 30.2399ZM3.75091 222.165C2.55548 222.856 1.02633 222.447 0.33546 221.251C-0.355407 220.056 0.0536233 218.526 1.24906 217.836L3.75091 222.165ZM6.97994 214.067C8.0871 213.242 9.6534 213.471 10.4783 214.578C11.3033 215.685 11.0745 217.251 9.96735 218.076L6.97994 214.067ZM20.7171 207.892C19.8313 208.952 18.2546 209.092 17.1955 208.206C16.1364 207.32 15.996 205.744 16.8818 204.685L20.7171 207.892ZM24.5381 193.298C25.1949 192.083 26.7118 191.631 27.9263 192.288C29.1409 192.945 29.593 194.462 28.9363 195.676L24.5381 193.298ZM34.8568 182.31C34.3876 183.608 32.9545 184.281 31.656 183.811C30.3575 183.342 29.6852 181.909 30.1545 180.61L34.8568 182.31ZM34.1985 167.184C34.5342 165.845 35.892 165.031 37.2313 165.367C38.5706 165.703 39.3842 167.06 39.0485 168.4L34.1985 167.184ZM42.0665 154.315C41.8167 155.673 40.5134 156.571 39.1555 156.321C37.7976 156.072 36.8993 154.768 37.1491 153.41L42.0665 154.315ZM39.4409 139.415C39.6432 138.05 40.9144 137.106 42.2802 137.309C43.646 137.511 44.5892 138.782 44.3869 140.148L39.4409 139.415ZM46.3778 125.993C46.1904 127.361 44.9295 128.318 43.5616 128.13C42.1936 127.943 41.2367 126.682 41.4241 125.314L46.3778 125.993ZM43.4195 111.156C43.6225 109.791 44.8942 108.848 46.2599 109.051C47.6256 109.254 48.5681 110.526 48.3651 111.892L43.4195 111.156ZM50.6622 97.9098C50.412 99.2677 49.1083 100.166 47.7505 99.9153C46.3926 99.665 45.4948 98.3614 45.745 97.0036L50.6622 97.9098ZM48.7639 82.8943C49.0978 81.5546 50.4546 80.7393 51.7943 81.0733C53.134 81.4072 53.9494 82.764 53.6154 84.1037L48.7639 82.8943ZM57.6121 70.6664C57.1511 71.9679 55.7224 72.6492 54.4209 72.1883C53.1194 71.7273 52.438 70.2986 52.8989 68.9971L57.6121 70.6664ZM58.6561 55.5979C59.2921 54.3723 60.8012 53.8945 62.0267 54.5305C63.2522 55.1665 63.7301 56.6755 63.0941 57.901L58.6561 55.5979ZM70.4976 46.2756C69.6479 47.3639 68.0769 47.5574 66.9886 46.7078C65.9002 45.8582 65.7067 44.2871 66.5563 43.1988L70.4976 46.2756ZM76.8168 32.5997C77.8793 31.7181 79.4554 31.8648 80.3371 32.9274C81.2187 33.99 81.072 35.5661 80.0094 36.4477L76.8168 32.5997ZM91.4185 28.9033C90.1935 29.5402 88.6841 29.0635 88.0471 27.8384C87.4102 26.6134 87.887 25.104 89.112 24.4671L91.4185 28.9033ZM102.749 18.9365C104.069 18.5316 105.467 19.2735 105.872 20.5935C106.277 21.9135 105.535 23.3118 104.215 23.7167L102.749 18.9365ZM117.732 20.641C116.368 20.8561 115.088 19.9247 114.873 18.5609C114.658 17.197 115.589 15.9171 116.953 15.702L117.732 20.641ZM131.344 14.2516C132.723 14.1835 133.896 15.2463 133.965 16.6253C134.033 18.0043 132.97 19.1774 131.591 19.2455L131.344 14.2516ZM145.622 19.1535C144.242 19.1085 143.16 17.9533 143.205 16.5733C143.25 15.1934 144.405 14.1112 145.785 14.1562L145.622 19.1535ZM1.24906 217.836C3.27351 216.666 5.18092 215.407 6.97994 214.067L9.96735 218.076C8.01214 219.533 5.94255 220.898 3.75091 222.165L1.24906 217.836ZM16.8818 204.685C19.7971 201.199 22.3264 197.388 24.5381 193.298L28.9363 195.676C26.5838 200.027 23.8711 204.122 20.7171 207.892L16.8818 204.685ZM30.1545 180.61C31.7056 176.318 33.0343 171.829 34.1985 167.184L39.0485 168.4C37.8514 173.176 36.4758 177.83 34.8568 182.31L30.1545 180.61ZM37.1491 153.41C37.9927 148.824 38.7399 144.148 39.4409 139.415L44.3869 140.148C43.6808 144.916 42.9242 149.653 42.0665 154.315L37.1491 153.41ZM41.4241 125.314C42.0701 120.6 42.7198 115.864 43.4195 111.156L48.3651 111.892C47.6703 116.566 47.0244 121.274 46.3778 125.993L41.4241 125.314ZM45.745 97.0036C46.6255 92.2264 47.6137 87.5083 48.7639 82.8943L53.6154 84.1037C52.4957 88.5955 51.5285 93.2095 50.6622 97.9098L45.745 97.0036ZM52.8989 68.9971C54.5437 64.3532 56.44 59.8682 58.6561 55.5979L63.0941 57.901C60.9995 61.937 59.1919 66.2059 57.6121 70.6664L52.8989 68.9971ZM66.5563 43.1988C69.5528 39.3604 72.95 35.808 76.8168 32.5997L80.0094 36.4477C76.4339 39.4144 73.285 42.705 70.4976 46.2756L66.5563 43.1988ZM89.112 24.4671C93.2618 22.3095 97.7942 20.456 102.749 18.9365L104.215 23.7167C99.5341 25.1523 95.2845 26.8933 91.4185 28.9033L89.112 24.4671ZM116.953 15.702C121.462 14.9912 126.252 14.5031 131.344 14.2516L131.591 19.2455C126.662 19.4889 122.05 19.9602 117.732 20.641L116.953 15.702ZM145.785 14.1562C148.187 14.2345 150.647 14.3579 153.168 14.5276L152.832 19.5163C150.367 19.3504 147.964 19.2299 145.622 19.1535L145.785 14.1562Z" fill="#FFD60A"/>
</g>
</svg>
