<svg width="90" height="108" viewBox="0 0 90 108" fill="none" xmlns="http://www.w3.org/2000/svg">
<g id="Frame 717">
<g id="Dot" opacity="0.2">
<path id="Vector" d="M86.1606 105.43C86.3215 104.565 87.149 103.999 88.0148 104.16C88.8806 104.32 89.4476 105.147 89.2867 106.012C89.1258 106.877 88.2983 107.443 87.4325 107.282C86.5667 107.122 85.9998 106.295 86.1606 105.43Z" fill="url(#paint0_linear_3001_912)"/>
<path id="Vector_2" d="M73.8481 105.43C74.009 104.565 74.8365 103.999 75.7023 104.16C76.5681 104.32 77.1351 105.147 76.9742 106.012C76.8133 106.877 75.9858 107.443 75.12 107.282C74.2619 107.122 73.6949 106.295 73.8481 105.43Z" fill="url(#paint1_linear_3001_912)"/>
<path id="Vector_3" d="M61.5432 105.43C61.7041 104.565 62.5316 103.999 63.3974 104.16C64.2632 104.32 64.8301 105.147 64.6692 106.012C64.5083 106.877 63.6809 107.443 62.8151 107.282C61.9569 107.122 61.3823 106.295 61.5432 105.43Z" fill="url(#paint2_linear_3001_912)"/>
<path id="Vector_4" d="M49.2383 105.43C49.3992 104.565 50.2267 103.999 51.0925 104.16C51.9583 104.32 52.5252 105.147 52.3643 106.012C52.2034 106.877 51.3759 107.443 50.5102 107.282C49.652 107.122 49.0774 106.295 49.2383 105.43Z" fill="url(#paint3_linear_3001_912)"/>
<path id="Vector_5" d="M36.9336 105.43C37.0945 104.565 37.922 103.999 38.7878 104.16C39.6536 104.32 40.2205 105.147 40.0596 106.012C39.8987 106.877 39.0713 107.443 38.2055 107.282C37.3397 107.122 36.7727 106.295 36.9336 105.43Z" fill="url(#paint4_linear_3001_912)"/>
<path id="Vector_6" d="M86.1606 95.0741C86.3215 94.2092 87.149 93.6428 88.0148 93.8035C88.8806 93.9642 89.4476 94.7909 89.2867 95.6558C89.1258 96.5206 88.2983 97.087 87.4325 96.9263C86.5667 96.7656 85.9998 95.9389 86.1606 95.0741Z" fill="url(#paint5_linear_3001_912)"/>
<path id="Vector_7" d="M73.8481 95.0741C74.009 94.2092 74.8365 93.6428 75.7023 93.8035C76.5681 93.9642 77.1351 94.7909 76.9742 95.6558C76.8133 96.5206 75.9858 97.087 75.12 96.9263C74.2619 96.7656 73.6949 95.9389 73.8481 95.0741Z" fill="url(#paint6_linear_3001_912)"/>
<path id="Vector_8" d="M61.5432 95.0741C61.7041 94.2092 62.5316 93.6428 63.3974 93.8035C64.2632 93.9642 64.8301 94.7909 64.6692 95.6558C64.5083 96.5206 63.6809 97.087 62.8151 96.9263C61.9569 96.7656 61.3823 95.9389 61.5432 95.0741Z" fill="url(#paint7_linear_3001_912)"/>
<path id="Vector_9" d="M49.2383 95.0741C49.3992 94.2092 50.2267 93.6428 51.0925 93.8036C51.9583 93.9643 52.5252 94.7909 52.3643 95.6558C52.2034 96.5207 51.3759 97.0871 50.5102 96.9264C49.652 96.7656 49.0774 95.939 49.2383 95.0741Z" fill="url(#paint8_linear_3001_912)"/>
<path id="Vector_10" d="M36.9336 95.0741C37.0945 94.2092 37.922 93.6428 38.7878 93.8036C39.6536 93.9643 40.2205 94.7909 40.0596 95.6558C39.8987 96.5207 39.0713 97.0871 38.2055 96.9264C37.3397 96.7656 36.7727 95.939 36.9336 95.0741Z" fill="url(#paint9_linear_3001_912)"/>
<path id="Vector_11" d="M86.1606 84.719C86.3215 83.8541 87.149 83.2877 88.0148 83.4485C88.8806 83.6092 89.4476 84.4358 89.2867 85.3007C89.1258 86.1656 88.2983 86.732 87.4325 86.5713C86.5667 86.4105 85.9998 85.5839 86.1606 84.719Z" fill="url(#paint10_linear_3001_912)"/>
<path id="Vector_12" d="M73.8481 84.719C74.009 83.8541 74.8365 83.2877 75.7023 83.4485C76.5681 83.6092 77.1351 84.4358 76.9742 85.3007C76.8133 86.1656 75.9858 86.732 75.12 86.5713C74.2619 86.4105 73.6949 85.5839 73.8481 84.719Z" fill="url(#paint11_linear_3001_912)"/>
<path id="Vector_13" d="M61.5432 84.719C61.7041 83.8541 62.5316 83.2877 63.3974 83.4485C64.2632 83.6092 64.8301 84.4358 64.6692 85.3007C64.5083 86.1656 63.6809 86.732 62.8151 86.5713C61.9569 86.4105 61.3823 85.5839 61.5432 84.719Z" fill="url(#paint12_linear_3001_912)"/>
<path id="Vector_14" d="M49.2383 84.7191C49.3992 83.8542 50.2267 83.2879 51.0925 83.4486C51.9583 83.6093 52.5252 84.4359 52.3643 85.3008C52.2034 86.1657 51.3759 86.7321 50.5102 86.5714C49.652 86.4106 49.0774 85.584 49.2383 84.7191Z" fill="url(#paint13_linear_3001_912)"/>
<path id="Vector_15" d="M36.9336 84.7191C37.0945 83.8542 37.922 83.2879 38.7878 83.4486C39.6536 83.6093 40.2205 84.4359 40.0596 85.3008C39.8987 86.1657 39.0713 86.7321 38.2055 86.5714C37.3397 86.4106 36.7727 85.584 36.9336 84.7191Z" fill="url(#paint14_linear_3001_912)"/>
<path id="Vector_16" d="M86.1606 74.3631C86.3215 73.4982 87.149 72.9318 88.0148 73.0925C88.8806 73.2532 89.4476 74.0799 89.2867 74.9448C89.1258 75.8096 88.2983 76.376 87.4325 76.2153C86.5667 76.0546 85.9998 75.2279 86.1606 74.3631Z" fill="url(#paint15_linear_3001_912)"/>
<path id="Vector_17" d="M73.8481 74.3631C74.009 73.4982 74.8365 72.9318 75.7023 73.0925C76.5681 73.2532 77.1351 74.0799 76.9742 74.9448C76.8133 75.8096 75.9858 76.376 75.12 76.2153C74.2619 76.0546 73.6949 75.2279 73.8481 74.3631Z" fill="url(#paint16_linear_3001_912)"/>
<path id="Vector_18" d="M61.5432 74.3631C61.7041 73.4982 62.5316 72.9318 63.3974 73.0925C64.2632 73.2532 64.8301 74.0799 64.6692 74.9448C64.5083 75.8096 63.6809 76.376 62.8151 76.2153C61.9569 76.0546 61.3823 75.2279 61.5432 74.3631Z" fill="url(#paint17_linear_3001_912)"/>
<path id="Vector_19" d="M49.2383 74.3632C49.3992 73.4983 50.2267 72.9319 51.0925 73.0926C51.9583 73.2534 52.5252 74.08 52.3643 74.9449C52.2034 75.8098 51.3759 76.3762 50.5102 76.2154C49.652 76.0547 49.0774 75.2281 49.2383 74.3632Z" fill="url(#paint18_linear_3001_912)"/>
<path id="Vector_20" d="M36.9336 74.3632C37.0945 73.4983 37.922 72.9319 38.7878 73.0926C39.6536 73.2534 40.2205 74.08 40.0596 74.9449C39.8987 75.8098 39.0713 76.3762 38.2055 76.2154C37.3397 76.0547 36.7727 75.2281 36.9336 74.3632Z" fill="url(#paint19_linear_3001_912)"/>
<path id="Vector_21" d="M86.1606 64.0071C86.3215 63.1422 87.149 62.5758 88.0148 62.7366C88.8806 62.8973 89.4476 63.7239 89.2867 64.5888C89.1258 65.4537 88.2983 66.0201 87.4325 65.8593C86.5667 65.6986 85.9998 64.872 86.1606 64.0071Z" fill="url(#paint20_linear_3001_912)"/>
<path id="Vector_22" d="M73.8481 64.0071C74.009 63.1422 74.8365 62.5758 75.7023 62.7366C76.5681 62.8973 77.1351 63.7239 76.9742 64.5888C76.8133 65.4537 75.9858 66.0201 75.12 65.8593C74.2542 65.6986 73.6949 64.872 73.8481 64.0071Z" fill="url(#paint21_linear_3001_912)"/>
<path id="Vector_23" d="M61.5432 64.0071C61.7041 63.1422 62.5316 62.5758 63.3974 62.7366C64.2632 62.8973 64.8301 63.7239 64.6692 64.5888C64.5083 65.4537 63.6809 66.0201 62.8151 65.8593C61.9569 65.6986 61.3823 64.872 61.5432 64.0071Z" fill="url(#paint22_linear_3001_912)"/>
<path id="Vector_24" d="M49.2383 64.007C49.3992 63.1421 50.2267 62.5757 51.0925 62.7364C51.9583 62.8972 52.5252 63.7238 52.3643 64.5887C52.2034 65.4536 51.3759 66.0199 50.5102 65.8592C49.652 65.6985 49.0774 64.8719 49.2383 64.007Z" fill="url(#paint23_linear_3001_912)"/>
<path id="Vector_25" d="M36.9336 64.007C37.0945 63.1421 37.922 62.5757 38.7878 62.7364C39.6536 62.8972 40.2205 63.7238 40.0596 64.5887C39.8987 65.4536 39.0713 66.0199 38.2055 65.8592C37.3397 65.6985 36.7727 64.8719 36.9336 64.007Z" fill="url(#paint24_linear_3001_912)"/>
<path id="Vector_26" d="M86.1606 53.6513C86.3215 52.7864 87.149 52.2201 88.0148 52.3808C88.8806 52.5415 89.4476 53.3681 89.2867 54.233C89.1258 55.0979 88.2983 55.6643 87.4325 55.5036C86.5667 55.3428 85.9998 54.5162 86.1606 53.6513Z" fill="url(#paint25_linear_3001_912)"/>
<path id="Vector_27" d="M73.8481 53.6513C74.009 52.7864 74.8365 52.2201 75.7023 52.3808C76.5681 52.5415 77.1351 53.3681 76.9742 54.233C76.8133 55.0979 75.9858 55.6643 75.12 55.5036C74.2542 55.3428 73.6949 54.5162 73.8481 53.6513Z" fill="url(#paint26_linear_3001_912)"/>
<path id="Vector_28" d="M61.5432 53.6513C61.7041 52.7864 62.5316 52.2201 63.3974 52.3808C64.2632 52.5415 64.8301 53.3681 64.6692 54.233C64.5083 55.0979 63.6809 55.6643 62.8151 55.5036C61.9569 55.3428 61.3823 54.5162 61.5432 53.6513Z" fill="url(#paint27_linear_3001_912)"/>
<path id="Vector_29" d="M49.2383 53.6513C49.3992 52.7864 50.2267 52.22 51.0925 52.3807C51.9583 52.5415 52.5252 53.3681 52.3643 54.233C52.2034 55.0978 51.3759 55.6642 50.5102 55.5035C49.652 55.3428 49.0774 54.5162 49.2383 53.6513Z" fill="url(#paint28_linear_3001_912)"/>
<path id="Vector_30" d="M36.9336 53.6513C37.0945 52.7864 37.922 52.22 38.7878 52.3807C39.6536 52.5415 40.2205 53.3681 40.0596 54.233C39.8987 55.0978 39.0713 55.6642 38.2055 55.5035C37.3397 55.3428 36.7727 54.5162 36.9336 53.6513Z" fill="url(#paint29_linear_3001_912)"/>
<path id="Vector_31" d="M86.1606 43.296C86.3215 42.4312 87.149 41.8648 88.0148 42.0255C88.8806 42.1862 89.4476 43.0128 89.2867 43.8777C89.1258 44.7426 88.2983 45.309 87.4325 45.1483C86.5667 44.9875 85.9998 44.1609 86.1606 43.296Z" fill="url(#paint30_linear_3001_912)"/>
<path id="Vector_32" d="M73.8481 43.2961C74.009 42.4312 74.8365 41.8648 75.7023 42.0256C76.5681 42.1863 77.1351 43.0129 76.9742 43.8778C76.8133 44.7427 75.9858 45.3091 75.12 45.1483C74.2619 44.9876 73.6949 44.161 73.8481 43.2961Z" fill="url(#paint31_linear_3001_912)"/>
<path id="Vector_33" d="M61.5432 43.2961C61.7041 42.4312 62.5316 41.8648 63.3974 42.0256C64.2632 42.1863 64.8301 43.0129 64.6692 43.8778C64.5083 44.7427 63.6809 45.3091 62.8151 45.1483C61.9569 44.9876 61.3823 44.161 61.5432 43.2961Z" fill="url(#paint32_linear_3001_912)"/>
<path id="Vector_34" d="M49.2383 43.296C49.3992 42.4312 50.2267 41.8648 51.0925 42.0255C51.9583 42.1862 52.5252 43.0128 52.3643 43.8777C52.2034 44.7426 51.3759 45.309 50.5102 45.1483C49.652 44.9875 49.0774 44.1609 49.2383 43.296Z" fill="url(#paint33_linear_3001_912)"/>
<path id="Vector_35" d="M36.9336 43.296C37.0945 42.4312 37.922 41.8648 38.7878 42.0255C39.6536 42.1862 40.2205 43.0128 40.0596 43.8777C39.8987 44.7426 39.0713 45.309 38.2055 45.1483C37.3397 44.9875 36.7727 44.1609 36.9336 43.296Z" fill="url(#paint34_linear_3001_912)"/>
<path id="Vector_36" d="M86.1606 32.9401C86.3215 32.0752 87.149 31.5088 88.0148 31.6695C88.8806 31.8303 89.4476 32.6569 89.2867 33.5218C89.1258 34.3867 88.2983 34.9531 87.4325 34.7923C86.5667 34.6316 85.9998 33.805 86.1606 32.9401Z" fill="url(#paint35_linear_3001_912)"/>
<path id="Vector_37" d="M73.8481 32.9401C74.009 32.0752 74.8365 31.5088 75.7023 31.6695C76.5681 31.8303 77.1351 32.6569 76.9742 33.5218C76.8133 34.3867 75.9858 34.9531 75.12 34.7923C74.2619 34.6316 73.6949 33.805 73.8481 32.9401Z" fill="url(#paint36_linear_3001_912)"/>
<path id="Vector_38" d="M61.5432 32.9401C61.7041 32.0752 62.5316 31.5088 63.3974 31.6695C64.2632 31.8303 64.8301 32.6569 64.6692 33.5218C64.5083 34.3867 63.6809 34.9531 62.8151 34.7923C61.9569 34.6316 61.3823 33.805 61.5432 32.9401Z" fill="url(#paint37_linear_3001_912)"/>
<path id="Vector_39" d="M49.2383 32.9401C49.3992 32.0752 50.2267 31.5088 51.0925 31.6695C51.9583 31.8303 52.5252 32.6569 52.3643 33.5218C52.2034 34.3867 51.3759 34.9531 50.5102 34.7923C49.652 34.6316 49.0774 33.805 49.2383 32.9401Z" fill="url(#paint38_linear_3001_912)"/>
<path id="Vector_40" d="M36.9336 32.9401C37.0945 32.0752 37.922 31.5088 38.7878 31.6695C39.6536 31.8303 40.2205 32.6569 40.0596 33.5218C39.8987 34.3867 39.0713 34.9531 38.2055 34.7923C37.3397 34.6316 36.7727 33.805 36.9336 32.9401Z" fill="url(#paint39_linear_3001_912)"/>
<path id="Vector_41" d="M86.1606 22.5843C86.3215 21.7194 87.149 21.153 88.0148 21.3138C88.8806 21.4745 89.4476 22.3011 89.2867 23.166C89.1258 24.0309 88.2983 24.5973 87.4325 24.4365C86.5667 24.2758 85.9998 23.4492 86.1606 22.5843Z" fill="url(#paint40_linear_3001_912)"/>
<path id="Vector_42" d="M73.8481 22.5843C74.009 21.7194 74.8365 21.153 75.7023 21.3138C76.5681 21.4745 77.1351 22.3011 76.9742 23.166C76.8133 24.0309 75.9858 24.5973 75.12 24.4365C74.2619 24.2758 73.6949 23.4492 73.8481 22.5843Z" fill="url(#paint41_linear_3001_912)"/>
<path id="Vector_43" d="M61.5432 22.5843C61.7041 21.7194 62.5316 21.153 63.3974 21.3138C64.2632 21.4745 64.8301 22.3011 64.6692 23.166C64.5083 24.0309 63.6809 24.5973 62.8151 24.4365C61.9569 24.2758 61.3823 23.4492 61.5432 22.5843Z" fill="url(#paint42_linear_3001_912)"/>
<path id="Vector_44" d="M49.2383 22.5844C49.3992 21.7195 50.2267 21.1531 51.0925 21.3138C51.9583 21.4746 52.5252 22.3012 52.3643 23.1661C52.2034 24.031 51.3759 24.5973 50.5102 24.4366C49.652 24.2759 49.0774 23.4493 49.2383 22.5844Z" fill="url(#paint43_linear_3001_912)"/>
<path id="Vector_45" d="M36.9336 22.5844C37.0945 21.7195 37.922 21.1531 38.7878 21.3138C39.6536 21.4746 40.2205 22.3012 40.0596 23.1661C39.8987 24.031 39.0713 24.5973 38.2055 24.4366C37.3397 24.2759 36.7727 23.4493 36.9336 22.5844Z" fill="url(#paint44_linear_3001_912)"/>
<path id="Vector_46" d="M86.1606 12.2291C86.3215 11.3642 87.149 10.7978 88.0148 10.9585C88.8806 11.1193 89.4476 11.9459 89.2867 12.8108C89.1258 13.6757 88.2983 14.2421 87.4325 14.0813C86.5667 13.9206 85.9998 13.094 86.1606 12.2291Z" fill="url(#paint45_linear_3001_912)"/>
<path id="Vector_47" d="M73.8481 12.2291C74.009 11.3642 74.8365 10.7978 75.7023 10.9585C76.5681 11.1193 77.1351 11.9459 76.9742 12.8108C76.8133 13.6757 75.9858 14.2421 75.12 14.0813C74.2619 13.9206 73.6949 13.094 73.8481 12.2291Z" fill="url(#paint46_linear_3001_912)"/>
<path id="Vector_48" d="M61.5432 12.2291C61.7041 11.3642 62.5316 10.7978 63.3974 10.9585C64.2632 11.1193 64.8301 11.9459 64.6692 12.8108C64.5083 13.6757 63.6809 14.2421 62.8151 14.0813C61.9569 13.9206 61.3823 13.094 61.5432 12.2291Z" fill="url(#paint47_linear_3001_912)"/>
<path id="Vector_49" d="M49.2383 12.2291C49.3992 11.3643 50.2267 10.7979 51.0925 10.9586C51.9583 11.1193 52.5252 11.946 52.3643 12.8108C52.2034 13.6757 51.3759 14.2421 50.5102 14.0814C49.652 13.9207 49.0774 13.094 49.2383 12.2291Z" fill="url(#paint48_linear_3001_912)"/>
<path id="Vector_50" d="M36.9336 12.2291C37.0945 11.3643 37.922 10.7979 38.7878 10.9586C39.6536 11.1193 40.2205 11.946 40.0596 12.8108C39.8987 13.6757 39.0713 14.2421 38.2055 14.0814C37.3397 13.9207 36.7727 13.094 36.9336 12.2291Z" fill="url(#paint49_linear_3001_912)"/>
<path id="Vector_51" d="M86.1606 1.87319C86.3215 1.0083 87.149 0.441912 88.0148 0.602644C88.8806 0.763375 89.4476 1.59 89.2867 2.45489C89.1258 3.31978 88.2983 3.88616 87.4325 3.72543C86.5667 3.5647 85.9998 2.73808 86.1606 1.87319Z" fill="url(#paint50_linear_3001_912)"/>
<path id="Vector_52" d="M73.8481 1.87319C74.009 1.0083 74.8365 0.441912 75.7023 0.602644C76.5681 0.763375 77.1351 1.59 76.9742 2.45489C76.8133 3.31978 75.9858 3.88616 75.12 3.72543C74.2619 3.5647 73.6949 2.73808 73.8481 1.87319Z" fill="url(#paint51_linear_3001_912)"/>
<path id="Vector_53" d="M61.5432 1.87319C61.7041 1.0083 62.5316 0.441912 63.3974 0.602644C64.2632 0.763375 64.8301 1.59 64.6692 2.45489C64.5083 3.31978 63.6809 3.88616 62.8151 3.72543C61.9569 3.5647 61.3823 2.73808 61.5432 1.87319Z" fill="url(#paint52_linear_3001_912)"/>
<path id="Vector_54" d="M49.2383 1.87319C49.3992 1.0083 50.2267 0.441912 51.0925 0.602644C51.9583 0.763375 52.5252 1.59 52.3643 2.45489C52.2034 3.31978 51.3759 3.88616 50.5102 3.72543C49.652 3.5647 49.0774 2.73808 49.2383 1.87319Z" fill="url(#paint53_linear_3001_912)"/>
<path id="Vector_55" d="M36.9336 1.87319C37.0945 1.0083 37.922 0.441912 38.7878 0.602644C39.6536 0.763375 40.2205 1.59 40.0596 2.45489C39.8987 3.31978 39.0713 3.88616 38.2055 3.72543C37.3397 3.5647 36.7727 2.73808 36.9336 1.87319Z" fill="url(#paint54_linear_3001_912)"/>
<path id="Vector_56" d="M24.8652 105.43C25.0261 104.565 25.8536 103.999 26.7194 104.16C27.5852 104.32 28.1522 105.147 27.9913 106.012C27.8304 106.877 27.0029 107.443 26.1371 107.282C25.2713 107.122 24.7043 106.295 24.8652 105.43Z" fill="url(#paint55_linear_3001_912)"/>
<path id="Vector_57" d="M12.5537 105.43C12.7146 104.565 13.5421 103.999 14.4079 104.16C15.2737 104.32 15.8406 105.147 15.6797 106.012C15.5188 106.877 14.6914 107.443 13.8256 107.282C12.9674 107.122 12.4005 106.295 12.5537 105.43Z" fill="url(#paint56_linear_3001_912)"/>
<path id="Vector_58" d="M0.247785 105.43C0.408685 104.565 1.23618 103.999 2.10197 104.16C2.96776 104.32 3.53474 105.147 3.37384 106.012C3.21294 106.877 2.38545 107.443 1.51966 107.282C0.661529 107.122 0.0868863 106.295 0.247785 105.43Z" fill="url(#paint57_linear_3001_912)"/>
<path id="Vector_59" d="M24.8652 95.0741C25.0261 94.2092 25.8536 93.6428 26.7194 93.8036C27.5852 93.9643 28.1522 94.7909 27.9913 95.6558C27.8304 96.5207 27.0029 97.0871 26.1371 96.9264C25.2713 96.7656 24.7043 95.939 24.8652 95.0741Z" fill="url(#paint58_linear_3001_912)"/>
<path id="Vector_60" d="M12.5537 95.0741C12.7146 94.2092 13.5421 93.6428 14.4079 93.8036C15.2737 93.9643 15.8406 94.7909 15.6797 95.6558C15.5188 96.5207 14.6914 97.0871 13.8256 96.9264C12.9674 96.7656 12.4005 95.939 12.5537 95.0741Z" fill="url(#paint59_linear_3001_912)"/>
<path id="Vector_61" d="M0.247785 95.0741C0.408685 94.2092 1.23618 93.6428 2.10197 93.8036C2.96776 93.9643 3.53474 94.7909 3.37384 95.6558C3.21294 96.5207 2.38545 97.0871 1.51966 96.9264C0.661529 96.7656 0.0868863 95.939 0.247785 95.0741Z" fill="url(#paint60_linear_3001_912)"/>
<path id="Vector_62" d="M24.8652 84.7191C25.0261 83.8542 25.8536 83.2879 26.7194 83.4486C27.5852 83.6093 28.1522 84.4359 27.9913 85.3008C27.8304 86.1657 27.0029 86.7321 26.1371 86.5714C25.2713 86.4106 24.7043 85.584 24.8652 84.7191Z" fill="url(#paint61_linear_3001_912)"/>
<path id="Vector_63" d="M12.5537 84.7191C12.7146 83.8542 13.5421 83.2879 14.4079 83.4486C15.2737 83.6093 15.8406 84.4359 15.6797 85.3008C15.5188 86.1657 14.6914 86.7321 13.8256 86.5714C12.9674 86.4106 12.4005 85.584 12.5537 84.7191Z" fill="url(#paint62_linear_3001_912)"/>
<path id="Vector_64" d="M0.247785 84.7191C0.408685 83.8542 1.23618 83.2879 2.10197 83.4486C2.96776 83.6093 3.53474 84.4359 3.37384 85.3008C3.21294 86.1657 2.38545 86.7321 1.51966 86.5714C0.661529 86.4106 0.0868863 85.584 0.247785 84.7191Z" fill="url(#paint63_linear_3001_912)"/>
<path id="Vector_65" d="M24.8652 74.3632C25.0261 73.4983 25.8536 72.9319 26.7194 73.0926C27.5852 73.2534 28.1522 74.08 27.9913 74.9449C27.8304 75.8098 27.0029 76.3762 26.1371 76.2154C25.2713 76.0547 24.7043 75.2281 24.8652 74.3632Z" fill="url(#paint64_linear_3001_912)"/>
<path id="Vector_66" d="M12.5537 74.3632C12.7146 73.4983 13.5421 72.9319 14.4079 73.0926C15.2737 73.2534 15.8406 74.08 15.6797 74.9449C15.5188 75.8098 14.6914 76.3762 13.8256 76.2154C12.9674 76.0547 12.4005 75.2281 12.5537 74.3632Z" fill="url(#paint65_linear_3001_912)"/>
<path id="Vector_67" d="M0.247785 74.3632C0.408685 73.4983 1.23618 72.9319 2.10197 73.0926C2.96776 73.2534 3.53474 74.08 3.37384 74.9449C3.21294 75.8098 2.38545 76.3762 1.51966 76.2154C0.661529 76.0547 0.0868863 75.2281 0.247785 74.3632Z" fill="url(#paint66_linear_3001_912)"/>
<path id="Vector_68" d="M24.8652 64.007C25.0261 63.1421 25.8536 62.5757 26.7194 62.7364C27.5852 62.8972 28.1522 63.7238 27.9913 64.5887C27.8304 65.4536 27.0029 66.0199 26.1371 65.8592C25.2713 65.6985 24.7043 64.8719 24.8652 64.007Z" fill="url(#paint67_linear_3001_912)"/>
<path id="Vector_69" d="M12.5537 64.007C12.7146 63.1421 13.5421 62.5757 14.4079 62.7364C15.2737 62.8972 15.8406 63.7238 15.6797 64.5887C15.5188 65.4536 14.6914 66.0199 13.8256 65.8592C12.9598 65.6985 12.4005 64.8719 12.5537 64.007Z" fill="url(#paint68_linear_3001_912)"/>
<path id="Vector_70" d="M0.247785 64.007C0.408685 63.1421 1.23618 62.5757 2.10197 62.7364C2.96776 62.8972 3.53474 63.7238 3.37384 64.5887C3.21294 65.4536 2.38545 66.0199 1.51966 65.8592C0.661529 65.6985 0.0868863 64.8719 0.247785 64.007Z" fill="url(#paint69_linear_3001_912)"/>
<path id="Vector_71" d="M24.8652 53.6513C25.0261 52.7864 25.8536 52.22 26.7194 52.3807C27.5852 52.5415 28.1522 53.3681 27.9913 54.233C27.8304 55.0978 27.0029 55.6642 26.1371 55.5035C25.2713 55.3428 24.7043 54.5162 24.8652 53.6513Z" fill="url(#paint70_linear_3001_912)"/>
<path id="Vector_72" d="M12.5537 53.6513C12.7146 52.7864 13.5421 52.22 14.4079 52.3807C15.2737 52.5415 15.8406 53.3681 15.6797 54.233C15.5188 55.0978 14.6914 55.6642 13.8256 55.5035C12.9598 55.3428 12.4005 54.5162 12.5537 53.6513Z" fill="url(#paint71_linear_3001_912)"/>
<path id="Vector_73" d="M0.247785 53.6513C0.408685 52.7864 1.23618 52.22 2.10197 52.3807C2.96776 52.5415 3.53474 53.3681 3.37384 54.233C3.21294 55.0978 2.38545 55.6642 1.51966 55.5035C0.661529 55.3428 0.0868863 54.5162 0.247785 53.6513Z" fill="url(#paint72_linear_3001_912)"/>
<path id="Vector_74" d="M24.8652 43.296C25.0261 42.4312 25.8536 41.8648 26.7194 42.0255C27.5852 42.1862 28.1522 43.0128 27.9913 43.8777C27.8304 44.7426 27.0029 45.309 26.1371 45.1483C25.2713 44.9875 24.7043 44.1609 24.8652 43.296Z" fill="url(#paint73_linear_3001_912)"/>
<path id="Vector_75" d="M12.5537 43.296C12.7146 42.4312 13.5421 41.8648 14.4079 42.0255C15.2737 42.1862 15.8406 43.0128 15.6797 43.8777C15.5188 44.7426 14.6914 45.309 13.8256 45.1483C12.9674 44.9875 12.4005 44.1609 12.5537 43.296Z" fill="url(#paint74_linear_3001_912)"/>
<path id="Vector_76" d="M0.247785 43.296C0.408685 42.4312 1.23618 41.8648 2.10197 42.0255C2.96776 42.1862 3.53474 43.0128 3.37384 43.8777C3.21294 44.7426 2.38545 45.309 1.51966 45.1483C0.661529 44.9875 0.0868863 44.1609 0.247785 43.296Z" fill="url(#paint75_linear_3001_912)"/>
<path id="Vector_77" d="M24.8652 32.9401C25.0261 32.0752 25.8536 31.5088 26.7194 31.6695C27.5852 31.8303 28.1522 32.6569 27.9913 33.5218C27.8304 34.3867 27.0029 34.9531 26.1371 34.7923C25.2713 34.6316 24.7043 33.805 24.8652 32.9401Z" fill="url(#paint76_linear_3001_912)"/>
<path id="Vector_78" d="M12.5537 32.9401C12.7146 32.0752 13.5421 31.5088 14.4079 31.6695C15.2737 31.8303 15.8406 32.6569 15.6797 33.5218C15.5188 34.3867 14.6914 34.9531 13.8256 34.7923C12.9674 34.6316 12.4005 33.805 12.5537 32.9401Z" fill="url(#paint77_linear_3001_912)"/>
<path id="Vector_79" d="M0.247785 32.9401C0.408685 32.0752 1.23618 31.5088 2.10197 31.6695C2.96776 31.8303 3.53474 32.6569 3.37384 33.5218C3.21294 34.3867 2.38545 34.9531 1.51966 34.7923C0.661529 34.6316 0.0868863 33.805 0.247785 32.9401Z" fill="url(#paint78_linear_3001_912)"/>
<path id="Vector_80" d="M24.8652 22.5844C25.0261 21.7195 25.8536 21.1531 26.7194 21.3138C27.5852 21.4746 28.1522 22.3012 27.9913 23.1661C27.8304 24.031 27.0029 24.5973 26.1371 24.4366C25.2713 24.2759 24.7043 23.4493 24.8652 22.5844Z" fill="url(#paint79_linear_3001_912)"/>
<path id="Vector_81" d="M12.5537 22.5844C12.7146 21.7195 13.5421 21.1531 14.4079 21.3138C15.2737 21.4746 15.8406 22.3012 15.6797 23.1661C15.5188 24.031 14.6914 24.5973 13.8256 24.4366C12.9674 24.2759 12.4005 23.4493 12.5537 22.5844Z" fill="url(#paint80_linear_3001_912)"/>
<path id="Vector_82" d="M0.247785 22.5844C0.408685 21.7195 1.23618 21.1531 2.10197 21.3138C2.96776 21.4746 3.53474 22.3012 3.37384 23.1661C3.21294 24.031 2.38545 24.5973 1.51966 24.4366C0.661529 24.2759 0.0868863 23.4493 0.247785 22.5844Z" fill="url(#paint81_linear_3001_912)"/>
<path id="Vector_83" d="M24.8652 12.2291C25.0261 11.3643 25.8536 10.7979 26.7194 10.9586C27.5852 11.1193 28.1522 11.946 27.9913 12.8108C27.8304 13.6757 27.0029 14.2421 26.1371 14.0814C25.2713 13.9207 24.7043 13.094 24.8652 12.2291Z" fill="url(#paint82_linear_3001_912)"/>
<path id="Vector_84" d="M12.5537 12.2291C12.7146 11.3643 13.5421 10.7979 14.4079 10.9586C15.2737 11.1193 15.8406 11.946 15.6797 12.8108C15.5188 13.6757 14.6914 14.2421 13.8256 14.0814C12.9674 13.9207 12.4005 13.094 12.5537 12.2291Z" fill="url(#paint83_linear_3001_912)"/>
<path id="Vector_85" d="M0.247785 12.2291C0.408685 11.3643 1.23618 10.7979 2.10197 10.9586C2.96776 11.1193 3.53474 11.946 3.37384 12.8108C3.21294 13.6757 2.38545 14.2421 1.51966 14.0814C0.661529 13.9207 0.0868863 13.094 0.247785 12.2291Z" fill="url(#paint84_linear_3001_912)"/>
<path id="Vector_86" d="M24.8652 1.87319C25.0261 1.0083 25.8536 0.441912 26.7194 0.602644C27.5852 0.763375 28.1522 1.59 27.9913 2.45489C27.8304 3.31978 27.0029 3.88616 26.1371 3.72543C25.2713 3.5647 24.7043 2.73808 24.8652 1.87319Z" fill="url(#paint85_linear_3001_912)"/>
<path id="Vector_87" d="M12.5537 1.87319C12.7146 1.0083 13.5421 0.441912 14.4079 0.602644C15.2737 0.763375 15.8406 1.59 15.6797 2.45489C15.5188 3.31978 14.6914 3.88616 13.8256 3.72543C12.9674 3.5647 12.4005 2.73808 12.5537 1.87319Z" fill="url(#paint86_linear_3001_912)"/>
<path id="Vector_88" d="M0.247785 1.87319C0.408685 1.0083 1.23618 0.441912 2.10197 0.602644C2.96776 0.763375 3.53474 1.59 3.37384 2.45489C3.21294 3.31978 2.38545 3.88616 1.51966 3.72543C0.661529 3.5647 0.0868863 2.73808 0.247785 1.87319Z" fill="url(#paint87_linear_3001_912)"/>
</g>
</g>
<defs>
<linearGradient id="paint0_linear_3001_912" x1="87.7237" y1="104.132" x2="87.7237" y2="107.31" gradientUnits="userSpaceOnUse">
<stop stop-color="#004FE6"/>
<stop offset="1" stop-color="#002C80"/>
</linearGradient>
<linearGradient id="paint1_linear_3001_912" x1="75.4123" y1="104.132" x2="75.4123" y2="107.31" gradientUnits="userSpaceOnUse">
<stop stop-color="#004FE6"/>
<stop offset="1" stop-color="#002C80"/>
</linearGradient>
<linearGradient id="paint2_linear_3001_912" x1="63.1064" y1="104.132" x2="63.1064" y2="107.31" gradientUnits="userSpaceOnUse">
<stop stop-color="#004FE6"/>
<stop offset="1" stop-color="#002C80"/>
</linearGradient>
<linearGradient id="paint3_linear_3001_912" x1="50.8014" y1="104.132" x2="50.8014" y2="107.31" gradientUnits="userSpaceOnUse">
<stop stop-color="#004FE6"/>
<stop offset="1" stop-color="#002C80"/>
</linearGradient>
<linearGradient id="paint4_linear_3001_912" x1="38.4966" y1="104.132" x2="38.4966" y2="107.31" gradientUnits="userSpaceOnUse">
<stop stop-color="#004FE6"/>
<stop offset="1" stop-color="#002C80"/>
</linearGradient>
<linearGradient id="paint5_linear_3001_912" x1="87.7237" y1="93.7763" x2="87.7237" y2="96.9536" gradientUnits="userSpaceOnUse">
<stop stop-color="#004FE6"/>
<stop offset="1" stop-color="#002C80"/>
</linearGradient>
<linearGradient id="paint6_linear_3001_912" x1="75.4123" y1="93.7763" x2="75.4123" y2="96.9536" gradientUnits="userSpaceOnUse">
<stop stop-color="#004FE6"/>
<stop offset="1" stop-color="#002C80"/>
</linearGradient>
<linearGradient id="paint7_linear_3001_912" x1="63.1064" y1="93.7763" x2="63.1064" y2="96.9536" gradientUnits="userSpaceOnUse">
<stop stop-color="#004FE6"/>
<stop offset="1" stop-color="#002C80"/>
</linearGradient>
<linearGradient id="paint8_linear_3001_912" x1="50.8014" y1="93.7763" x2="50.8014" y2="96.9536" gradientUnits="userSpaceOnUse">
<stop stop-color="#004FE6"/>
<stop offset="1" stop-color="#002C80"/>
</linearGradient>
<linearGradient id="paint9_linear_3001_912" x1="38.4966" y1="93.7763" x2="38.4966" y2="96.9536" gradientUnits="userSpaceOnUse">
<stop stop-color="#004FE6"/>
<stop offset="1" stop-color="#002C80"/>
</linearGradient>
<linearGradient id="paint10_linear_3001_912" x1="87.7237" y1="83.4212" x2="87.7237" y2="86.5985" gradientUnits="userSpaceOnUse">
<stop stop-color="#004FE6"/>
<stop offset="1" stop-color="#002C80"/>
</linearGradient>
<linearGradient id="paint11_linear_3001_912" x1="75.4123" y1="83.4212" x2="75.4123" y2="86.5985" gradientUnits="userSpaceOnUse">
<stop stop-color="#004FE6"/>
<stop offset="1" stop-color="#002C80"/>
</linearGradient>
<linearGradient id="paint12_linear_3001_912" x1="63.1064" y1="83.4212" x2="63.1064" y2="86.5985" gradientUnits="userSpaceOnUse">
<stop stop-color="#004FE6"/>
<stop offset="1" stop-color="#002C80"/>
</linearGradient>
<linearGradient id="paint13_linear_3001_912" x1="50.8014" y1="83.4213" x2="50.8014" y2="86.5986" gradientUnits="userSpaceOnUse">
<stop stop-color="#004FE6"/>
<stop offset="1" stop-color="#002C80"/>
</linearGradient>
<linearGradient id="paint14_linear_3001_912" x1="38.4966" y1="83.4213" x2="38.4966" y2="86.5986" gradientUnits="userSpaceOnUse">
<stop stop-color="#004FE6"/>
<stop offset="1" stop-color="#002C80"/>
</linearGradient>
<linearGradient id="paint15_linear_3001_912" x1="87.7237" y1="73.0653" x2="87.7237" y2="76.2426" gradientUnits="userSpaceOnUse">
<stop stop-color="#004FE6"/>
<stop offset="1" stop-color="#002C80"/>
</linearGradient>
<linearGradient id="paint16_linear_3001_912" x1="75.4123" y1="73.0653" x2="75.4123" y2="76.2426" gradientUnits="userSpaceOnUse">
<stop stop-color="#004FE6"/>
<stop offset="1" stop-color="#002C80"/>
</linearGradient>
<linearGradient id="paint17_linear_3001_912" x1="63.1064" y1="73.0653" x2="63.1064" y2="76.2426" gradientUnits="userSpaceOnUse">
<stop stop-color="#004FE6"/>
<stop offset="1" stop-color="#002C80"/>
</linearGradient>
<linearGradient id="paint18_linear_3001_912" x1="50.8014" y1="73.0654" x2="50.8014" y2="76.2427" gradientUnits="userSpaceOnUse">
<stop stop-color="#004FE6"/>
<stop offset="1" stop-color="#002C80"/>
</linearGradient>
<linearGradient id="paint19_linear_3001_912" x1="38.4966" y1="73.0654" x2="38.4966" y2="76.2427" gradientUnits="userSpaceOnUse">
<stop stop-color="#004FE6"/>
<stop offset="1" stop-color="#002C80"/>
</linearGradient>
<linearGradient id="paint20_linear_3001_912" x1="87.7237" y1="62.7093" x2="87.7237" y2="65.8866" gradientUnits="userSpaceOnUse">
<stop stop-color="#004FE6"/>
<stop offset="1" stop-color="#002C80"/>
</linearGradient>
<linearGradient id="paint21_linear_3001_912" x1="75.4122" y1="62.7093" x2="75.4122" y2="65.8866" gradientUnits="userSpaceOnUse">
<stop stop-color="#004FE6"/>
<stop offset="1" stop-color="#002C80"/>
</linearGradient>
<linearGradient id="paint22_linear_3001_912" x1="63.1064" y1="62.7093" x2="63.1064" y2="65.8866" gradientUnits="userSpaceOnUse">
<stop stop-color="#004FE6"/>
<stop offset="1" stop-color="#002C80"/>
</linearGradient>
<linearGradient id="paint23_linear_3001_912" x1="50.8014" y1="62.7092" x2="50.8014" y2="65.8865" gradientUnits="userSpaceOnUse">
<stop stop-color="#004FE6"/>
<stop offset="1" stop-color="#002C80"/>
</linearGradient>
<linearGradient id="paint24_linear_3001_912" x1="38.4966" y1="62.7092" x2="38.4966" y2="65.8865" gradientUnits="userSpaceOnUse">
<stop stop-color="#004FE6"/>
<stop offset="1" stop-color="#002C80"/>
</linearGradient>
<linearGradient id="paint25_linear_3001_912" x1="87.7237" y1="52.3535" x2="87.7237" y2="55.5308" gradientUnits="userSpaceOnUse">
<stop stop-color="#004FE6"/>
<stop offset="1" stop-color="#002C80"/>
</linearGradient>
<linearGradient id="paint26_linear_3001_912" x1="75.4122" y1="52.3535" x2="75.4122" y2="55.5308" gradientUnits="userSpaceOnUse">
<stop stop-color="#004FE6"/>
<stop offset="1" stop-color="#002C80"/>
</linearGradient>
<linearGradient id="paint27_linear_3001_912" x1="63.1064" y1="52.3535" x2="63.1064" y2="55.5308" gradientUnits="userSpaceOnUse">
<stop stop-color="#004FE6"/>
<stop offset="1" stop-color="#002C80"/>
</linearGradient>
<linearGradient id="paint28_linear_3001_912" x1="50.8014" y1="52.3535" x2="50.8014" y2="55.5308" gradientUnits="userSpaceOnUse">
<stop stop-color="#004FE6"/>
<stop offset="1" stop-color="#002C80"/>
</linearGradient>
<linearGradient id="paint29_linear_3001_912" x1="38.4966" y1="52.3535" x2="38.4966" y2="55.5308" gradientUnits="userSpaceOnUse">
<stop stop-color="#004FE6"/>
<stop offset="1" stop-color="#002C80"/>
</linearGradient>
<linearGradient id="paint30_linear_3001_912" x1="87.7237" y1="41.9982" x2="87.7237" y2="45.1755" gradientUnits="userSpaceOnUse">
<stop stop-color="#004FE6"/>
<stop offset="1" stop-color="#002C80"/>
</linearGradient>
<linearGradient id="paint31_linear_3001_912" x1="75.4123" y1="41.9983" x2="75.4123" y2="45.1756" gradientUnits="userSpaceOnUse">
<stop stop-color="#004FE6"/>
<stop offset="1" stop-color="#002C80"/>
</linearGradient>
<linearGradient id="paint32_linear_3001_912" x1="63.1064" y1="41.9983" x2="63.1064" y2="45.1756" gradientUnits="userSpaceOnUse">
<stop stop-color="#004FE6"/>
<stop offset="1" stop-color="#002C80"/>
</linearGradient>
<linearGradient id="paint33_linear_3001_912" x1="50.8014" y1="41.9982" x2="50.8014" y2="45.1755" gradientUnits="userSpaceOnUse">
<stop stop-color="#004FE6"/>
<stop offset="1" stop-color="#002C80"/>
</linearGradient>
<linearGradient id="paint34_linear_3001_912" x1="38.4966" y1="41.9982" x2="38.4966" y2="45.1755" gradientUnits="userSpaceOnUse">
<stop stop-color="#004FE6"/>
<stop offset="1" stop-color="#002C80"/>
</linearGradient>
<linearGradient id="paint35_linear_3001_912" x1="87.7237" y1="31.6423" x2="87.7237" y2="34.8196" gradientUnits="userSpaceOnUse">
<stop stop-color="#004FE6"/>
<stop offset="1" stop-color="#002C80"/>
</linearGradient>
<linearGradient id="paint36_linear_3001_912" x1="75.4123" y1="31.6423" x2="75.4123" y2="34.8196" gradientUnits="userSpaceOnUse">
<stop stop-color="#004FE6"/>
<stop offset="1" stop-color="#002C80"/>
</linearGradient>
<linearGradient id="paint37_linear_3001_912" x1="63.1064" y1="31.6423" x2="63.1064" y2="34.8196" gradientUnits="userSpaceOnUse">
<stop stop-color="#004FE6"/>
<stop offset="1" stop-color="#002C80"/>
</linearGradient>
<linearGradient id="paint38_linear_3001_912" x1="50.8014" y1="31.6423" x2="50.8014" y2="34.8196" gradientUnits="userSpaceOnUse">
<stop stop-color="#004FE6"/>
<stop offset="1" stop-color="#002C80"/>
</linearGradient>
<linearGradient id="paint39_linear_3001_912" x1="38.4966" y1="31.6423" x2="38.4966" y2="34.8196" gradientUnits="userSpaceOnUse">
<stop stop-color="#004FE6"/>
<stop offset="1" stop-color="#002C80"/>
</linearGradient>
<linearGradient id="paint40_linear_3001_912" x1="87.7237" y1="21.2865" x2="87.7237" y2="24.4638" gradientUnits="userSpaceOnUse">
<stop stop-color="#004FE6"/>
<stop offset="1" stop-color="#002C80"/>
</linearGradient>
<linearGradient id="paint41_linear_3001_912" x1="75.4123" y1="21.2865" x2="75.4123" y2="24.4638" gradientUnits="userSpaceOnUse">
<stop stop-color="#004FE6"/>
<stop offset="1" stop-color="#002C80"/>
</linearGradient>
<linearGradient id="paint42_linear_3001_912" x1="63.1064" y1="21.2865" x2="63.1064" y2="24.4638" gradientUnits="userSpaceOnUse">
<stop stop-color="#004FE6"/>
<stop offset="1" stop-color="#002C80"/>
</linearGradient>
<linearGradient id="paint43_linear_3001_912" x1="50.8014" y1="21.2866" x2="50.8014" y2="24.4639" gradientUnits="userSpaceOnUse">
<stop stop-color="#004FE6"/>
<stop offset="1" stop-color="#002C80"/>
</linearGradient>
<linearGradient id="paint44_linear_3001_912" x1="38.4966" y1="21.2866" x2="38.4966" y2="24.4639" gradientUnits="userSpaceOnUse">
<stop stop-color="#004FE6"/>
<stop offset="1" stop-color="#002C80"/>
</linearGradient>
<linearGradient id="paint45_linear_3001_912" x1="87.7237" y1="10.9313" x2="87.7237" y2="14.1086" gradientUnits="userSpaceOnUse">
<stop stop-color="#004FE6"/>
<stop offset="1" stop-color="#002C80"/>
</linearGradient>
<linearGradient id="paint46_linear_3001_912" x1="75.4123" y1="10.9313" x2="75.4123" y2="14.1086" gradientUnits="userSpaceOnUse">
<stop stop-color="#004FE6"/>
<stop offset="1" stop-color="#002C80"/>
</linearGradient>
<linearGradient id="paint47_linear_3001_912" x1="63.1064" y1="10.9313" x2="63.1064" y2="14.1086" gradientUnits="userSpaceOnUse">
<stop stop-color="#004FE6"/>
<stop offset="1" stop-color="#002C80"/>
</linearGradient>
<linearGradient id="paint48_linear_3001_912" x1="50.8014" y1="10.9313" x2="50.8014" y2="14.1086" gradientUnits="userSpaceOnUse">
<stop stop-color="#004FE6"/>
<stop offset="1" stop-color="#002C80"/>
</linearGradient>
<linearGradient id="paint49_linear_3001_912" x1="38.4966" y1="10.9313" x2="38.4966" y2="14.1086" gradientUnits="userSpaceOnUse">
<stop stop-color="#004FE6"/>
<stop offset="1" stop-color="#002C80"/>
</linearGradient>
<linearGradient id="paint50_linear_3001_912" x1="87.7237" y1="0.575388" x2="87.7237" y2="3.75269" gradientUnits="userSpaceOnUse">
<stop stop-color="#004FE6"/>
<stop offset="1" stop-color="#002C80"/>
</linearGradient>
<linearGradient id="paint51_linear_3001_912" x1="75.4123" y1="0.575388" x2="75.4123" y2="3.75269" gradientUnits="userSpaceOnUse">
<stop stop-color="#004FE6"/>
<stop offset="1" stop-color="#002C80"/>
</linearGradient>
<linearGradient id="paint52_linear_3001_912" x1="63.1064" y1="0.575388" x2="63.1064" y2="3.75269" gradientUnits="userSpaceOnUse">
<stop stop-color="#004FE6"/>
<stop offset="1" stop-color="#002C80"/>
</linearGradient>
<linearGradient id="paint53_linear_3001_912" x1="50.8014" y1="0.575388" x2="50.8014" y2="3.75269" gradientUnits="userSpaceOnUse">
<stop stop-color="#004FE6"/>
<stop offset="1" stop-color="#002C80"/>
</linearGradient>
<linearGradient id="paint54_linear_3001_912" x1="38.4966" y1="0.575388" x2="38.4966" y2="3.75269" gradientUnits="userSpaceOnUse">
<stop stop-color="#004FE6"/>
<stop offset="1" stop-color="#002C80"/>
</linearGradient>
<linearGradient id="paint55_linear_3001_912" x1="26.4283" y1="104.132" x2="26.4283" y2="107.31" gradientUnits="userSpaceOnUse">
<stop stop-color="#004FE6"/>
<stop offset="1" stop-color="#002C80"/>
</linearGradient>
<linearGradient id="paint56_linear_3001_912" x1="14.1179" y1="104.132" x2="14.1179" y2="107.31" gradientUnits="userSpaceOnUse">
<stop stop-color="#004FE6"/>
<stop offset="1" stop-color="#002C80"/>
</linearGradient>
<linearGradient id="paint57_linear_3001_912" x1="1.81094" y1="104.132" x2="1.81094" y2="107.31" gradientUnits="userSpaceOnUse">
<stop stop-color="#004FE6"/>
<stop offset="1" stop-color="#002C80"/>
</linearGradient>
<linearGradient id="paint58_linear_3001_912" x1="26.4283" y1="93.7763" x2="26.4283" y2="96.9536" gradientUnits="userSpaceOnUse">
<stop stop-color="#004FE6"/>
<stop offset="1" stop-color="#002C80"/>
</linearGradient>
<linearGradient id="paint59_linear_3001_912" x1="14.1179" y1="93.7763" x2="14.1179" y2="96.9536" gradientUnits="userSpaceOnUse">
<stop stop-color="#004FE6"/>
<stop offset="1" stop-color="#002C80"/>
</linearGradient>
<linearGradient id="paint60_linear_3001_912" x1="1.81094" y1="93.7763" x2="1.81094" y2="96.9536" gradientUnits="userSpaceOnUse">
<stop stop-color="#004FE6"/>
<stop offset="1" stop-color="#002C80"/>
</linearGradient>
<linearGradient id="paint61_linear_3001_912" x1="26.4283" y1="83.4213" x2="26.4283" y2="86.5986" gradientUnits="userSpaceOnUse">
<stop stop-color="#004FE6"/>
<stop offset="1" stop-color="#002C80"/>
</linearGradient>
<linearGradient id="paint62_linear_3001_912" x1="14.1179" y1="83.4213" x2="14.1179" y2="86.5986" gradientUnits="userSpaceOnUse">
<stop stop-color="#004FE6"/>
<stop offset="1" stop-color="#002C80"/>
</linearGradient>
<linearGradient id="paint63_linear_3001_912" x1="1.81094" y1="83.4213" x2="1.81094" y2="86.5986" gradientUnits="userSpaceOnUse">
<stop stop-color="#004FE6"/>
<stop offset="1" stop-color="#002C80"/>
</linearGradient>
<linearGradient id="paint64_linear_3001_912" x1="26.4283" y1="73.0654" x2="26.4283" y2="76.2427" gradientUnits="userSpaceOnUse">
<stop stop-color="#004FE6"/>
<stop offset="1" stop-color="#002C80"/>
</linearGradient>
<linearGradient id="paint65_linear_3001_912" x1="14.1179" y1="73.0654" x2="14.1179" y2="76.2427" gradientUnits="userSpaceOnUse">
<stop stop-color="#004FE6"/>
<stop offset="1" stop-color="#002C80"/>
</linearGradient>
<linearGradient id="paint66_linear_3001_912" x1="1.81094" y1="73.0654" x2="1.81094" y2="76.2427" gradientUnits="userSpaceOnUse">
<stop stop-color="#004FE6"/>
<stop offset="1" stop-color="#002C80"/>
</linearGradient>
<linearGradient id="paint67_linear_3001_912" x1="26.4283" y1="62.7092" x2="26.4283" y2="65.8865" gradientUnits="userSpaceOnUse">
<stop stop-color="#004FE6"/>
<stop offset="1" stop-color="#002C80"/>
</linearGradient>
<linearGradient id="paint68_linear_3001_912" x1="14.1177" y1="62.7092" x2="14.1177" y2="65.8865" gradientUnits="userSpaceOnUse">
<stop stop-color="#004FE6"/>
<stop offset="1" stop-color="#002C80"/>
</linearGradient>
<linearGradient id="paint69_linear_3001_912" x1="1.81094" y1="62.7092" x2="1.81094" y2="65.8865" gradientUnits="userSpaceOnUse">
<stop stop-color="#004FE6"/>
<stop offset="1" stop-color="#002C80"/>
</linearGradient>
<linearGradient id="paint70_linear_3001_912" x1="26.4283" y1="52.3535" x2="26.4283" y2="55.5308" gradientUnits="userSpaceOnUse">
<stop stop-color="#004FE6"/>
<stop offset="1" stop-color="#002C80"/>
</linearGradient>
<linearGradient id="paint71_linear_3001_912" x1="14.1177" y1="52.3535" x2="14.1177" y2="55.5308" gradientUnits="userSpaceOnUse">
<stop stop-color="#004FE6"/>
<stop offset="1" stop-color="#002C80"/>
</linearGradient>
<linearGradient id="paint72_linear_3001_912" x1="1.81094" y1="52.3535" x2="1.81094" y2="55.5308" gradientUnits="userSpaceOnUse">
<stop stop-color="#004FE6"/>
<stop offset="1" stop-color="#002C80"/>
</linearGradient>
<linearGradient id="paint73_linear_3001_912" x1="26.4283" y1="41.9982" x2="26.4283" y2="45.1755" gradientUnits="userSpaceOnUse">
<stop stop-color="#004FE6"/>
<stop offset="1" stop-color="#002C80"/>
</linearGradient>
<linearGradient id="paint74_linear_3001_912" x1="14.1179" y1="41.9982" x2="14.1179" y2="45.1755" gradientUnits="userSpaceOnUse">
<stop stop-color="#004FE6"/>
<stop offset="1" stop-color="#002C80"/>
</linearGradient>
<linearGradient id="paint75_linear_3001_912" x1="1.81094" y1="41.9982" x2="1.81094" y2="45.1755" gradientUnits="userSpaceOnUse">
<stop stop-color="#004FE6"/>
<stop offset="1" stop-color="#002C80"/>
</linearGradient>
<linearGradient id="paint76_linear_3001_912" x1="26.4283" y1="31.6423" x2="26.4283" y2="34.8196" gradientUnits="userSpaceOnUse">
<stop stop-color="#004FE6"/>
<stop offset="1" stop-color="#002C80"/>
</linearGradient>
<linearGradient id="paint77_linear_3001_912" x1="14.1179" y1="31.6423" x2="14.1179" y2="34.8196" gradientUnits="userSpaceOnUse">
<stop stop-color="#004FE6"/>
<stop offset="1" stop-color="#002C80"/>
</linearGradient>
<linearGradient id="paint78_linear_3001_912" x1="1.81094" y1="31.6423" x2="1.81094" y2="34.8196" gradientUnits="userSpaceOnUse">
<stop stop-color="#004FE6"/>
<stop offset="1" stop-color="#002C80"/>
</linearGradient>
<linearGradient id="paint79_linear_3001_912" x1="26.4283" y1="21.2866" x2="26.4283" y2="24.4639" gradientUnits="userSpaceOnUse">
<stop stop-color="#004FE6"/>
<stop offset="1" stop-color="#002C80"/>
</linearGradient>
<linearGradient id="paint80_linear_3001_912" x1="14.1179" y1="21.2866" x2="14.1179" y2="24.4639" gradientUnits="userSpaceOnUse">
<stop stop-color="#004FE6"/>
<stop offset="1" stop-color="#002C80"/>
</linearGradient>
<linearGradient id="paint81_linear_3001_912" x1="1.81094" y1="21.2866" x2="1.81094" y2="24.4639" gradientUnits="userSpaceOnUse">
<stop stop-color="#004FE6"/>
<stop offset="1" stop-color="#002C80"/>
</linearGradient>
<linearGradient id="paint82_linear_3001_912" x1="26.4283" y1="10.9313" x2="26.4283" y2="14.1086" gradientUnits="userSpaceOnUse">
<stop stop-color="#004FE6"/>
<stop offset="1" stop-color="#002C80"/>
</linearGradient>
<linearGradient id="paint83_linear_3001_912" x1="14.1179" y1="10.9313" x2="14.1179" y2="14.1086" gradientUnits="userSpaceOnUse">
<stop stop-color="#004FE6"/>
<stop offset="1" stop-color="#002C80"/>
</linearGradient>
<linearGradient id="paint84_linear_3001_912" x1="1.81094" y1="10.9313" x2="1.81094" y2="14.1086" gradientUnits="userSpaceOnUse">
<stop stop-color="#004FE6"/>
<stop offset="1" stop-color="#002C80"/>
</linearGradient>
<linearGradient id="paint85_linear_3001_912" x1="26.4283" y1="0.575388" x2="26.4283" y2="3.75269" gradientUnits="userSpaceOnUse">
<stop stop-color="#004FE6"/>
<stop offset="1" stop-color="#002C80"/>
</linearGradient>
<linearGradient id="paint86_linear_3001_912" x1="14.1179" y1="0.575388" x2="14.1179" y2="3.75269" gradientUnits="userSpaceOnUse">
<stop stop-color="#004FE6"/>
<stop offset="1" stop-color="#002C80"/>
</linearGradient>
<linearGradient id="paint87_linear_3001_912" x1="1.81094" y1="0.575388" x2="1.81094" y2="3.75269" gradientUnits="userSpaceOnUse">
<stop stop-color="#004FE6"/>
<stop offset="1" stop-color="#002C80"/>
</linearGradient>
</defs>
</svg>
