<svg width="49" height="49" viewBox="0 0 49 49" fill="none" xmlns="http://www.w3.org/2000/svg">
<path d="M20.4163 36.7499C24.0403 36.7492 27.5597 35.536 30.4144 33.3036L37.9461 40.8353C38.7433 41.6325 40.0358 41.6325 40.833 40.8353C41.6302 40.0381 41.6302 38.7456 40.833 37.9484L33.3013 30.4167C35.5349 27.5617 36.7488 24.0414 36.7497 20.4166C36.7497 11.4108 29.4221 4.08325 20.4163 4.08325C11.4106 4.08325 4.08301 11.4108 4.08301 20.4166C4.08301 29.4224 11.4106 36.7499 20.4163 36.7499ZM20.4163 8.16659C27.1722 8.16659 32.6663 13.6607 32.6663 20.4166C32.6663 27.1725 27.1722 32.6666 20.4163 32.6666C13.6605 32.6666 8.16634 27.1725 8.16634 20.4166C8.16634 13.6607 13.6605 8.16659 20.4163 8.16659Z" fill="#399AFB"/>
<path d="M23.2991 17.5298C24.0729 18.3056 24.4996 19.3306 24.4996 20.4167H28.5829C28.5847 19.3437 28.3738 18.2809 27.9624 17.2899C27.551 16.2988 26.9472 15.3992 26.186 14.6429C23.0949 11.5559 17.7355 11.5559 14.6465 14.6429L17.5293 17.5339C19.081 15.9863 21.7556 15.9904 23.2991 17.5298Z" fill="#399AFB"/>
</svg>
