<svg width="140" height="26" viewBox="0 0 140 26" fill="none" xmlns="http://www.w3.org/2000/svg">
<path d="M12.5114 26C9.99511 26 7.79339 25.4867 5.9062 24.4601C4.04231 23.4095 2.58615 21.9412 1.53771 20.0551C0.512569 18.169 0 15.9725 0 13.4656C0 10.8871 0.535868 8.60698 1.6076 6.62534C2.70264 4.64371 4.19375 3.09183 6.08094 1.9697C7.99142 0.823692 10.1815 0.25069 12.6511 0.25069C15.4004 0.25069 17.5555 0.799817 19.1165 1.89807L18.1729 7.59229C17.4973 7.25803 16.7867 7.01928 16.0411 6.87603C15.3188 6.70891 14.6315 6.62534 13.9792 6.62534C12.0687 6.62534 10.5659 7.21028 9.47089 8.38017C8.37585 9.55005 7.82833 11.1736 7.82833 13.2507C7.82833 15.2084 8.35255 16.7484 9.40099 17.8705C10.4727 18.9688 11.9522 19.5179 13.8394 19.5179C14.5849 19.5179 15.2606 19.4463 15.8664 19.303C16.4954 19.1598 17.2643 18.8972 18.1729 18.5152L19.1515 24.1736C17.1245 25.3912 14.9111 26 12.5114 26Z" fill="#EDF7FF"/>
<path d="M21.4867 25.427V7.48485H28.7559V11.9614C29.2218 10.3379 29.9441 9.14417 30.9226 8.38017C31.9245 7.61616 33.1127 7.23416 34.4873 7.23416L35.361 13.573C34.8018 13.5014 34.2543 13.4656 33.7185 13.4656C30.48 13.4656 28.8607 14.8264 28.8607 17.5482V25.427H21.4867Z" fill="#EDF7FF"/>
<path d="M44.3293 25.7135C42.7216 25.7135 41.2655 25.3196 39.9608 24.5317C38.656 23.7199 37.6193 22.6097 36.8504 21.2011C36.1048 19.7925 35.7321 18.1809 35.7321 16.3664C35.7321 14.5519 36.1048 12.9642 36.8504 11.6033C37.6193 10.2424 38.656 9.17998 39.9608 8.41598C41.2655 7.6281 42.7216 7.23416 44.3293 7.23416C45.4709 7.23416 46.5776 7.55647 47.6493 8.2011C48.721 8.84573 49.5481 9.90817 50.1306 11.3884V7.48485H57.3998V25.427H50.0607V22.0964C49.5015 23.2663 48.756 24.1616 47.824 24.7824C46.8921 25.4031 45.7272 25.7135 44.3293 25.7135ZM46.6009 20.0551C47.5561 20.0551 48.3716 19.7089 49.0472 19.0165C49.7229 18.3003 50.0607 17.4288 50.0607 16.4022C50.0607 15.3756 49.7229 14.5399 49.0472 13.8953C48.3716 13.2268 47.5561 12.8926 46.6009 12.8926C45.599 12.8926 44.7603 13.2388 44.0846 13.9311C43.409 14.6235 43.0711 15.4711 43.0711 16.4738C43.0711 17.4766 43.409 18.3242 44.0846 19.0165C44.7603 19.7089 45.599 20.0551 46.6009 20.0551Z" fill="#EDF7FF"/>
<path d="M64.1556 25.427L59.6124 7.48485H67.0913L69.4328 18.7658L72.1937 7.48485H78.2047L81.0005 19.0523L83.342 7.48485H89.3181L85.0894 25.427H76.7369L74.4303 16.2948L72.2286 25.427H64.1556Z" fill="#EDF7FF"/>
<path d="M98.2331 25.7135C96.5789 25.7135 95.2276 25.427 94.1792 24.854C93.154 24.281 92.4085 23.505 91.9425 22.5262C91.4765 21.5473 91.2436 20.449 91.2436 19.2314V1.11019L98.6176 0V18.1928C98.6176 18.742 98.7923 19.1717 99.1418 19.4821C99.4913 19.7686 99.9456 19.9118 100.505 19.9118C101.064 19.9118 101.623 19.7686 102.182 19.4821L102.706 24.4601C102.147 24.8659 101.437 25.1763 100.575 25.3912C99.7126 25.6061 98.9321 25.7135 98.2331 25.7135Z" fill="#EDF7FF"/>
<path d="M113.544 25.7135C110.585 25.7135 108.267 24.9495 106.59 23.4215C104.936 21.8696 104.108 19.7328 104.108 17.011V7.48485H111.308V17.3333C111.308 18.2883 111.506 18.9927 111.902 19.4463C112.321 19.8999 112.88 20.1267 113.579 20.1267C114.255 20.1267 114.779 19.8999 115.152 19.4463C115.548 18.9927 115.746 18.2883 115.746 17.3333V7.48485H122.806V17.011C122.806 19.7567 121.99 21.8935 120.359 23.4215C118.752 24.9495 116.48 25.7135 113.544 25.7135Z" fill="#EDF7FF"/>
<path d="M126.126 25.427V7.48485H133.395V11.9614C133.861 10.3379 134.583 9.14417 135.562 8.38017C136.563 7.61616 137.752 7.23416 139.126 7.23416L140 13.573C139.441 13.5014 138.893 13.4656 138.357 13.4656C135.119 13.4656 133.5 14.8264 133.5 17.5482V25.427H126.126Z" fill="#EDF7FF"/>
</svg>
