<svg width="100" height="18" viewBox="0 0 100 18" fill="none" xmlns="http://www.w3.org/2000/svg">
<path d="M8.93668 18C7.13936 18 5.5667 17.6446 4.21871 16.9339C2.88736 16.2066 1.84725 15.1901 1.09836 13.8843C0.366121 12.5785 0 11.0579 0 9.32231C0 7.53719 0.382763 5.95868 1.14829 4.58678C1.93046 3.21488 2.99554 2.1405 4.34353 1.36364C5.70816 0.570248 7.2725 0.173554 9.03653 0.173554C11.0003 0.173554 12.5396 0.55372 13.6547 1.31405L12.9807 5.2562C12.498 5.02479 11.9905 4.8595 11.4579 4.76033C10.942 4.64463 10.4511 4.58678 9.98512 4.58678C8.62049 4.58678 7.54709 4.99174 6.76492 5.80165C5.98275 6.61157 5.59167 7.73554 5.59167 9.17355C5.59167 10.5289 5.96611 11.595 6.71499 12.3719C7.48052 13.1322 8.53728 13.5124 9.88527 13.5124C10.4178 13.5124 10.9004 13.4628 11.3331 13.3636C11.7824 13.2645 12.3316 13.0826 12.9807 12.8182L13.6796 16.7355C12.2318 17.5785 10.6508 18 8.93668 18Z" fill="white"/>
<path d="M15.3476 17.6033V5.18182H20.5399V8.28099C20.8727 7.15702 21.3886 6.33058 22.0876 5.80165C22.8032 5.27273 23.6519 5.00826 24.6338 5.00826L25.2579 9.39669C24.8585 9.34711 24.4674 9.32231 24.0846 9.32231C21.7714 9.32231 20.6148 10.2645 20.6148 12.1488V17.6033H15.3476Z" fill="white"/>
<path d="M31.6638 17.8017C30.5155 17.8017 29.4753 17.5289 28.5434 16.9835C27.6115 16.4215 26.8709 15.6529 26.3217 14.6777C25.7892 13.7025 25.5229 12.5868 25.5229 11.3306C25.5229 10.0744 25.7892 8.97521 26.3217 8.03306C26.8709 7.09091 27.6115 6.35537 28.5434 5.82645C29.4753 5.28099 30.5155 5.00826 31.6638 5.00826C32.4792 5.00826 33.2697 5.23141 34.0352 5.67769C34.8007 6.12397 35.3915 6.8595 35.8076 7.8843V5.18182H40.9998V17.6033H35.7577V15.2975C35.3582 16.1074 34.8257 16.7273 34.16 17.157C33.4944 17.5868 32.6623 17.8017 31.6638 17.8017ZM33.2863 13.8843C33.9687 13.8843 34.5511 13.6446 35.0337 13.1653C35.5163 12.6694 35.7577 12.0661 35.7577 11.3554C35.7577 10.6446 35.5163 10.0661 35.0337 9.61983C34.5511 9.15702 33.9687 8.92562 33.2863 8.92562C32.5707 8.92562 31.9716 9.16529 31.489 9.64463C31.0064 10.124 30.7651 10.7107 30.7651 11.405C30.7651 12.0992 31.0064 12.6859 31.489 13.1653C31.9716 13.6446 32.5707 13.8843 33.2863 13.8843Z" fill="white"/>
<path d="M45.8255 17.6033L42.5803 5.18182H47.9223L49.5948 12.9917L51.5669 5.18182H55.8605L57.8575 13.1901L59.53 5.18182H63.7987L60.7782 17.6033H54.8121L53.1645 11.281L51.5919 17.6033H45.8255Z" fill="white"/>
<path d="M70.1665 17.8017C68.985 17.8017 68.0197 17.6033 67.2708 17.2066C66.5386 16.8099 66.0061 16.2727 65.6732 15.595C65.3404 14.9174 65.174 14.157 65.174 13.314V0.768595L70.4411 0V12.595C70.4411 12.9752 70.5659 13.2727 70.8156 13.4876C71.0652 13.686 71.3897 13.7851 71.7891 13.7851C72.1885 13.7851 72.5879 13.686 72.9873 13.4876L73.3618 16.9339C72.9624 17.2149 72.4548 17.4298 71.839 17.5785C71.2233 17.7273 70.6658 17.8017 70.1665 17.8017Z" fill="white"/>
<path d="M81.1031 17.8017C78.9896 17.8017 77.3338 17.2727 76.1356 16.2149C74.954 15.1405 74.3632 13.6612 74.3632 11.7769V5.18182H79.5055V12C79.5055 12.6612 79.647 13.1488 79.9299 13.4628C80.2295 13.7769 80.6289 13.9339 81.1281 13.9339C81.6107 13.9339 81.9852 13.7769 82.2514 13.4628C82.5344 13.1488 82.6758 12.6612 82.6758 12V5.18182H87.7183V11.7769C87.7183 13.6777 87.1358 15.157 85.9709 16.2149C84.8226 17.2727 83.2 17.8017 81.1031 17.8017Z" fill="white"/>
<path d="M90.0898 17.6033V5.18182H95.282V8.28099C95.6149 7.15702 96.1308 6.33058 96.8297 5.80165C97.5453 5.27273 98.3941 5.00826 99.3759 5.00826L100 9.39669C99.6006 9.34711 99.2095 9.32231 98.8267 9.32231C96.5135 9.32231 95.3569 10.2645 95.3569 12.1488V17.6033H90.0898Z" fill="white"/>
</svg>
