<svg width="30" height="30" viewBox="0 0 30 30" fill="none" xmlns="http://www.w3.org/2000/svg">
<path d="M3.75 6.25V4.6875C2.88705 4.6875 2.1875 5.38705 2.1875 6.25H3.75ZM26.25 6.25H27.8125C27.8125 5.38705 27.113 4.6875 26.25 4.6875V6.25ZM3.75 7.8125H26.25V4.6875H3.75V7.8125ZM24.6875 6.25V21.25H27.8125V6.25H24.6875ZM23.75 22.1875H6.25V25.3125H23.75V22.1875ZM5.3125 21.25V6.25H2.1875V21.25H5.3125ZM6.25 22.1875C5.73224 22.1875 5.3125 21.7677 5.3125 21.25H2.1875C2.1875 23.4936 4.00634 25.3125 6.25 25.3125V22.1875ZM24.6875 21.25C24.6875 21.7677 24.2677 22.1875 23.75 22.1875V25.3125C25.9936 25.3125 27.8125 23.4936 27.8125 21.25H24.6875Z" fill="white"/>
<path d="M3.75 6.25L15 17.5L26.25 6.25" stroke="white" stroke-width="2.5" stroke-linecap="round" stroke-linejoin="round"/>
</svg>
