<svg width="25" height="24" viewBox="0 0 25 24" fill="none" xmlns="http://www.w3.org/2000/svg">
<path d="M12.9523 13.4625L12.9594 13.4297C13.0953 12.8695 13.2664 12.1711 13.1328 11.5383C13.0437 11.0391 12.6758 10.8445 12.3617 10.8305C11.9914 10.8141 11.6609 11.025 11.5789 11.332C11.4242 11.8945 11.5625 12.6633 11.8156 13.643C11.4969 14.4023 10.9883 15.5062 10.6156 16.1625C9.92188 16.5211 8.99141 17.0742 8.85312 17.7727C8.825 17.9016 8.85781 18.0656 8.93516 18.2133C9.02187 18.3773 9.16016 18.5039 9.32187 18.5648C9.39219 18.5906 9.47656 18.6117 9.575 18.6117C9.9875 18.6117 10.6555 18.2789 11.5461 16.7508C11.682 16.7063 11.8227 16.6594 11.9586 16.6125C12.5961 16.3969 13.257 16.1719 13.8547 16.0711C14.5156 16.425 15.268 16.6523 15.7789 16.6523C16.2852 16.6523 16.4844 16.3523 16.5594 16.1719C16.6906 15.8555 16.6273 15.457 16.4141 15.2438C16.1047 14.9391 15.3523 14.8594 14.1805 15.0047C13.6039 14.6531 13.2266 14.175 12.9523 13.4625ZM10.3813 17.0227C10.0555 17.4961 9.80937 17.7328 9.67578 17.8359C9.83281 17.5477 10.1398 17.243 10.3813 17.0227ZM12.4344 11.5031C12.5563 11.7117 12.5398 12.3422 12.4461 12.6609C12.3313 12.1945 12.3148 11.5336 12.3828 11.4562C12.4016 11.4586 12.418 11.4727 12.4344 11.5031ZM12.3969 14.3273C12.6477 14.7609 12.9641 15.1336 13.3133 15.4102C12.807 15.525 12.3453 15.7148 11.9328 15.8836C11.8344 15.9234 11.7383 15.9633 11.6445 16.0008C11.9563 15.4359 12.2164 14.7961 12.3969 14.3273ZM16.0438 15.8625C16.0461 15.8672 16.0484 15.8742 16.0344 15.8836H16.0297L16.025 15.8906C16.0063 15.9023 15.8141 16.0148 14.9867 15.6891C15.9383 15.6445 16.0414 15.8602 16.0438 15.8625ZM20.5297 6.76406L15.4859 1.72031C15.3453 1.57969 15.1555 1.5 14.9562 1.5H5C4.58516 1.5 4.25 1.83516 4.25 2.25V21.75C4.25 22.1648 4.58516 22.5 5 22.5H20C20.4148 22.5 20.75 22.1648 20.75 21.75V7.29609C20.75 7.09687 20.6703 6.90469 20.5297 6.76406ZM19.0203 7.64062H14.6094V3.22969L19.0203 7.64062ZM19.0625 20.8125H5.9375V3.1875H13.0156V8.25C13.0156 8.51107 13.1193 8.76145 13.3039 8.94606C13.4885 9.13066 13.7389 9.23438 14 9.23438H19.0625V20.8125Z" fill="white"/>
</svg>
