<svg width="89" height="107" viewBox="0 0 89 107" fill="none" xmlns="http://www.w3.org/2000/svg">
<g opacity="0.3">
<path d="M85.8505 104.854C86.0112 103.99 86.8378 103.423 87.7027 103.584C88.5676 103.745 89.134 104.571 88.9732 105.436C88.8125 106.301 87.9859 106.867 87.121 106.707C86.2561 106.546 85.6897 105.719 85.8505 104.854Z" fill="url(#paint0_linear_214_227)"/>
<path d="M73.5506 104.854C73.7114 103.99 74.538 103.423 75.4029 103.584C76.2678 103.745 76.8342 104.571 76.6734 105.436C76.5127 106.301 75.6861 106.867 74.8212 106.707C73.9639 106.546 73.3976 105.719 73.5506 104.854Z" fill="url(#paint1_linear_214_227)"/>
<path d="M61.2586 104.854C61.4194 103.99 62.246 103.423 63.1109 103.584C63.9758 103.745 64.5422 104.571 64.3814 105.436C64.2207 106.301 63.3941 106.867 62.5292 106.707C61.672 106.546 61.0979 105.719 61.2586 104.854Z" fill="url(#paint2_linear_214_227)"/>
<path d="M48.9667 104.854C49.1274 103.99 49.954 103.423 50.8189 103.584C51.6838 103.745 52.2502 104.571 52.0894 105.436C51.9287 106.301 51.1021 106.867 50.2372 106.707C49.38 106.546 48.8059 105.719 48.9667 104.854Z" fill="url(#paint3_linear_214_227)"/>
<path d="M36.6747 104.854C36.8354 103.99 37.662 103.423 38.5269 103.584C39.3918 103.745 39.9582 104.571 39.7974 105.436C39.6367 106.301 38.8101 106.867 37.9452 106.707C37.0803 106.546 36.5139 105.719 36.6747 104.854Z" fill="url(#paint4_linear_214_227)"/>
<path d="M85.8505 94.4985C86.0112 93.6336 86.8378 93.0672 87.7027 93.228C88.5676 93.3887 89.134 94.2153 88.9732 95.0802C88.8125 95.9451 87.9859 96.5115 87.121 96.3507C86.2561 96.19 85.6897 95.3634 85.8505 94.4985Z" fill="url(#paint5_linear_214_227)"/>
<path d="M73.5506 94.4985C73.7114 93.6336 74.538 93.0672 75.4029 93.228C76.2678 93.3887 76.8342 94.2153 76.6734 95.0802C76.5127 95.9451 75.6861 96.5115 74.8212 96.3507C73.9639 96.19 73.3976 95.3634 73.5506 94.4985Z" fill="url(#paint6_linear_214_227)"/>
<path d="M61.2586 94.4985C61.4194 93.6336 62.246 93.0672 63.1109 93.228C63.9758 93.3887 64.5422 94.2153 64.3814 95.0802C64.2207 95.9451 63.3941 96.5115 62.5292 96.3507C61.672 96.19 61.0979 95.3634 61.2586 94.4985Z" fill="url(#paint7_linear_214_227)"/>
<path d="M48.9667 94.4985C49.1274 93.6336 49.954 93.0672 50.8189 93.228C51.6838 93.3887 52.2502 94.2153 52.0894 95.0802C51.9287 95.9451 51.1021 96.5115 50.2372 96.3507C49.38 96.19 48.8059 95.3634 48.9667 94.4985Z" fill="url(#paint8_linear_214_227)"/>
<path d="M36.6747 94.4985C36.8354 93.6336 37.662 93.0672 38.5269 93.228C39.3918 93.3887 39.9582 94.2153 39.7974 95.0802C39.6367 95.9451 38.8101 96.5115 37.9452 96.3507C37.0803 96.19 36.5139 95.3634 36.6747 94.4985Z" fill="url(#paint9_linear_214_227)"/>
<path d="M85.8505 84.1435C86.0112 83.2786 86.8378 82.7122 87.7027 82.873C88.5676 83.0337 89.134 83.8603 88.9732 84.7252C88.8125 85.5901 87.9859 86.1565 87.121 85.9958C86.2561 85.835 85.6897 85.0084 85.8505 84.1435Z" fill="url(#paint10_linear_214_227)"/>
<path d="M73.5506 84.1435C73.7114 83.2786 74.538 82.7122 75.4029 82.873C76.2678 83.0337 76.8342 83.8603 76.6734 84.7252C76.5127 85.5901 75.6861 86.1565 74.8212 85.9958C73.9639 85.835 73.3976 85.0084 73.5506 84.1435Z" fill="url(#paint11_linear_214_227)"/>
<path d="M61.2586 84.1435C61.4194 83.2786 62.246 82.7122 63.1109 82.873C63.9758 83.0337 64.5422 83.8603 64.3814 84.7252C64.2207 85.5901 63.3941 86.1565 62.5292 85.9958C61.672 85.835 61.0979 85.0084 61.2586 84.1435Z" fill="url(#paint12_linear_214_227)"/>
<path d="M48.9667 84.1435C49.1274 83.2786 49.954 82.7122 50.8189 82.873C51.6838 83.0337 52.2502 83.8603 52.0894 84.7252C51.9287 85.5901 51.1021 86.1565 50.2372 85.9958C49.38 85.835 48.8059 85.0084 48.9667 84.1435Z" fill="url(#paint13_linear_214_227)"/>
<path d="M36.6747 84.1435C36.8354 83.2786 37.662 82.7122 38.5269 82.873C39.3918 83.0337 39.9582 83.8603 39.7974 84.7252C39.6367 85.5901 38.8101 86.1565 37.9452 85.9958C37.0803 85.835 36.5139 85.0084 36.6747 84.1435Z" fill="url(#paint14_linear_214_227)"/>
<path d="M85.8505 73.7876C86.0112 72.9227 86.8378 72.3563 87.7027 72.517C88.5676 72.6777 89.134 73.5044 88.9732 74.3693C88.8125 75.2341 87.9859 75.8005 87.121 75.6398C86.2561 75.4791 85.6897 74.6524 85.8505 73.7876Z" fill="url(#paint15_linear_214_227)"/>
<path d="M73.5506 73.7876C73.7114 72.9227 74.538 72.3563 75.4029 72.517C76.2678 72.6777 76.8342 73.5044 76.6734 74.3693C76.5127 75.2341 75.6861 75.8005 74.8212 75.6398C73.9639 75.4791 73.3976 74.6524 73.5506 73.7876Z" fill="url(#paint16_linear_214_227)"/>
<path d="M61.2586 73.7876C61.4194 72.9227 62.246 72.3563 63.1109 72.517C63.9758 72.6777 64.5422 73.5044 64.3814 74.3693C64.2207 75.2341 63.3941 75.8005 62.5292 75.6398C61.672 75.4791 61.0979 74.6524 61.2586 73.7876Z" fill="url(#paint17_linear_214_227)"/>
<path d="M48.9667 73.7876C49.1274 72.9227 49.954 72.3563 50.8189 72.517C51.6838 72.6777 52.2502 73.5044 52.0894 74.3693C51.9287 75.2341 51.1021 75.8005 50.2372 75.6398C49.38 75.4791 48.8059 74.6524 48.9667 73.7876Z" fill="url(#paint18_linear_214_227)"/>
<path d="M36.6747 73.7876C36.8354 72.9227 37.662 72.3563 38.5269 72.517C39.3918 72.6777 39.9582 73.5044 39.7974 74.3693C39.6367 75.2341 38.8101 75.8005 37.9452 75.6398C37.0803 75.4791 36.5139 74.6524 36.6747 73.7876Z" fill="url(#paint19_linear_214_227)"/>
<path d="M85.8505 63.4316C86.0112 62.5667 86.8378 62.0003 87.7027 62.1611C88.5676 62.3218 89.134 63.1484 88.9732 64.0133C88.8125 64.8782 87.9859 65.4446 87.121 65.2838C86.2561 65.1231 85.6897 64.2965 85.8505 63.4316Z" fill="url(#paint20_linear_214_227)"/>
<path d="M73.5506 63.4316C73.7114 62.5667 74.538 62.0003 75.4029 62.1611C76.2678 62.3218 76.8342 63.1484 76.6734 64.0133C76.5127 64.8782 75.6861 65.4446 74.8212 65.2838C73.9563 65.1231 73.3976 64.2965 73.5506 63.4316Z" fill="url(#paint21_linear_214_227)"/>
<path d="M61.2586 63.4316C61.4194 62.5667 62.246 62.0003 63.1109 62.1611C63.9758 62.3218 64.5422 63.1484 64.3814 64.0133C64.2207 64.8782 63.3941 65.4446 62.5292 65.2838C61.672 65.1231 61.0979 64.2965 61.2586 63.4316Z" fill="url(#paint22_linear_214_227)"/>
<path d="M48.9667 63.4316C49.1274 62.5667 49.954 62.0003 50.8189 62.1611C51.6838 62.3218 52.2502 63.1484 52.0894 64.0133C51.9287 64.8782 51.1021 65.4446 50.2372 65.2838C49.38 65.1231 48.8059 64.2965 48.9667 63.4316Z" fill="url(#paint23_linear_214_227)"/>
<path d="M36.6747 63.4316C36.8354 62.5667 37.662 62.0003 38.5269 62.1611C39.3918 62.3218 39.9582 63.1484 39.7974 64.0133C39.6367 64.8782 38.8101 65.4446 37.9452 65.2838C37.0803 65.1231 36.5139 64.2965 36.6747 63.4316Z" fill="url(#paint24_linear_214_227)"/>
<path d="M85.8505 53.0756C86.0112 52.2108 86.8378 51.6444 87.7027 51.8051C88.5676 51.9658 89.134 52.7924 88.9732 53.6573C88.8125 54.5222 87.9859 55.0886 87.121 54.9279C86.2561 54.7672 85.6897 53.9405 85.8505 53.0756Z" fill="url(#paint25_linear_214_227)"/>
<path d="M73.5516 53.0756C73.7123 52.2108 74.539 51.6444 75.4039 51.8051C76.2687 51.9658 76.8351 52.7924 76.6744 53.6573C76.5137 54.5222 75.687 55.0886 74.8222 54.9279C73.9573 54.7672 73.3985 53.9405 73.5516 53.0756Z" fill="url(#paint26_linear_214_227)"/>
<path d="M61.2586 53.0756C61.4194 52.2108 62.246 51.6444 63.1109 51.8051C63.9758 51.9658 64.5422 52.7924 64.3814 53.6573C64.2207 54.5222 63.3941 55.0886 62.5292 54.9279C61.672 54.7672 61.0979 53.9405 61.2586 53.0756Z" fill="url(#paint27_linear_214_227)"/>
<path d="M48.9667 53.0756C49.1274 52.2108 49.954 51.6444 50.8189 51.8051C51.6838 51.9658 52.2502 52.7924 52.0894 53.6573C51.9287 54.5222 51.1021 55.0886 50.2372 54.9279C49.38 54.7672 48.8059 53.9405 48.9667 53.0756Z" fill="url(#paint28_linear_214_227)"/>
<path d="M36.6747 53.0756C36.8354 52.2108 37.662 51.6444 38.5269 51.8051C39.3918 51.9658 39.9582 52.7924 39.7974 53.6573C39.6367 54.5222 38.8101 55.0886 37.9452 54.9279C37.0803 54.7672 36.5139 53.9405 36.6747 53.0756Z" fill="url(#paint29_linear_214_227)"/>
<path d="M85.8505 42.7207C86.0112 41.8558 86.8378 41.2894 87.7027 41.4501C88.5676 41.6109 89.134 42.4375 88.9732 43.3024C88.8125 44.1672 87.9859 44.7336 87.121 44.5729C86.2561 44.4122 85.6897 43.5856 85.8505 42.7207Z" fill="url(#paint30_linear_214_227)"/>
<path d="M73.5516 42.7207C73.7123 41.8558 74.539 41.2894 75.4039 41.4501C76.2687 41.6109 76.8351 42.4375 76.6744 43.3024C76.5137 44.1672 75.687 44.7336 74.8222 44.5729C73.9649 44.4122 73.3985 43.5856 73.5516 42.7207Z" fill="url(#paint31_linear_214_227)"/>
<path d="M61.2586 42.7207C61.4194 41.8558 62.246 41.2894 63.1109 41.4501C63.9758 41.6109 64.5422 42.4375 64.3814 43.3024C64.2207 44.1672 63.3941 44.7336 62.5292 44.5729C61.672 44.4122 61.0979 43.5856 61.2586 42.7207Z" fill="url(#paint32_linear_214_227)"/>
<path d="M48.9667 42.7207C49.1274 41.8558 49.954 41.2894 50.8189 41.4501C51.6838 41.6109 52.2502 42.4375 52.0894 43.3024C51.9287 44.1672 51.1021 44.7336 50.2372 44.5729C49.38 44.4122 48.8059 43.5856 48.9667 42.7207Z" fill="url(#paint33_linear_214_227)"/>
<path d="M36.6747 42.7207C36.8354 41.8558 37.662 41.2894 38.5269 41.4501C39.3918 41.6109 39.9582 42.4375 39.7974 43.3024C39.6367 44.1672 38.8101 44.7336 37.9452 44.5729C37.0803 44.4122 36.5139 43.5856 36.6747 42.7207Z" fill="url(#paint34_linear_214_227)"/>
<path d="M85.8505 32.3647C86.0112 31.4998 86.8378 30.9334 87.7027 31.0942C88.5676 31.2549 89.134 32.0815 88.9732 32.9464C88.8125 33.8113 87.9859 34.3777 87.121 34.2169C86.2561 34.0562 85.6897 33.2296 85.8505 32.3647Z" fill="url(#paint35_linear_214_227)"/>
<path d="M73.5516 32.3647C73.7123 31.4998 74.539 30.9334 75.4039 31.0942C76.2687 31.2549 76.8351 32.0815 76.6744 32.9464C76.5137 33.8113 75.687 34.3777 74.8222 34.2169C73.9649 34.0562 73.3985 33.2296 73.5516 32.3647Z" fill="url(#paint36_linear_214_227)"/>
<path d="M61.2586 32.3647C61.4194 31.4998 62.246 30.9334 63.1109 31.0942C63.9758 31.2549 64.5422 32.0815 64.3814 32.9464C64.2207 33.8113 63.3941 34.3777 62.5292 34.2169C61.672 34.0562 61.0979 33.2296 61.2586 32.3647Z" fill="url(#paint37_linear_214_227)"/>
<path d="M48.9667 32.3647C49.1274 31.4998 49.954 30.9334 50.8189 31.0942C51.6838 31.2549 52.2502 32.0815 52.0894 32.9464C51.9287 33.8113 51.1021 34.3777 50.2372 34.2169C49.38 34.0562 48.8059 33.2296 48.9667 32.3647Z" fill="url(#paint38_linear_214_227)"/>
<path d="M36.6747 32.3647C36.8354 31.4998 37.662 30.9334 38.5269 31.0942C39.3918 31.2549 39.9582 32.0815 39.7974 32.9464C39.6367 33.8113 38.8101 34.3777 37.9452 34.2169C37.0803 34.0562 36.5139 33.2296 36.6747 32.3647Z" fill="url(#paint39_linear_214_227)"/>
<path d="M85.8505 22.0087C86.0112 21.1439 86.8378 20.5775 87.7027 20.7382C88.5676 20.8989 89.134 21.7256 88.9732 22.5904C88.8125 23.4553 87.9859 24.0217 87.121 23.861C86.2561 23.7003 85.6897 22.8736 85.8505 22.0087Z" fill="url(#paint40_linear_214_227)"/>
<path d="M73.5516 22.0087C73.7123 21.1439 74.539 20.5775 75.4039 20.7382C76.2687 20.8989 76.8351 21.7256 76.6744 22.5904C76.5137 23.4553 75.687 24.0217 74.8222 23.861C73.9649 23.7003 73.3985 22.8736 73.5516 22.0087Z" fill="url(#paint41_linear_214_227)"/>
<path d="M61.2586 22.0087C61.4194 21.1439 62.246 20.5775 63.1109 20.7382C63.9758 20.8989 64.5422 21.7256 64.3814 22.5904C64.2207 23.4553 63.3941 24.0217 62.5292 23.861C61.672 23.7003 61.0979 22.8736 61.2586 22.0087Z" fill="url(#paint42_linear_214_227)"/>
<path d="M48.9667 22.0087C49.1274 21.1439 49.954 20.5775 50.8189 20.7382C51.6838 20.8989 52.2502 21.7256 52.0894 22.5904C51.9287 23.4553 51.1021 24.0217 50.2372 23.861C49.38 23.7003 48.8059 22.8736 48.9667 22.0087Z" fill="url(#paint43_linear_214_227)"/>
<path d="M36.6747 22.0087C36.8354 21.1439 37.662 20.5775 38.5269 20.7382C39.3918 20.8989 39.9582 21.7256 39.7974 22.5904C39.6367 23.4553 38.8101 24.0217 37.9452 23.861C37.0803 23.7003 36.5139 22.8736 36.6747 22.0087Z" fill="url(#paint44_linear_214_227)"/>
<path d="M85.8505 11.6535C86.0112 10.7886 86.8378 10.2222 87.7027 10.383C88.5676 10.5437 89.134 11.3703 88.9732 12.2352C88.8125 13.1001 87.9859 13.6665 87.121 13.5058C86.2561 13.345 85.6897 12.5184 85.8505 11.6535Z" fill="url(#paint45_linear_214_227)"/>
<path d="M73.5516 11.6535C73.7123 10.7886 74.539 10.2222 75.4039 10.383C76.2687 10.5437 76.8351 11.3703 76.6744 12.2352C76.5137 13.1001 75.687 13.6665 74.8222 13.5058C73.9649 13.345 73.3985 12.5184 73.5516 11.6535Z" fill="url(#paint46_linear_214_227)"/>
<path d="M61.2586 11.6535C61.4194 10.7886 62.246 10.2222 63.1109 10.383C63.9758 10.5437 64.5422 11.3703 64.3814 12.2352C64.2207 13.1001 63.3941 13.6665 62.5292 13.5058C61.672 13.345 61.0979 12.5184 61.2586 11.6535Z" fill="url(#paint47_linear_214_227)"/>
<path d="M48.9667 11.6538C49.1274 10.7889 49.954 10.2225 50.8189 10.3832C51.6838 10.544 52.2502 11.3706 52.0894 12.2355C51.9287 13.1004 51.1021 13.6667 50.2372 13.506C49.38 13.3453 48.8059 12.5187 48.9667 11.6538Z" fill="url(#paint48_linear_214_227)"/>
<path d="M36.6747 11.6538C36.8354 10.7889 37.662 10.2225 38.5269 10.3832C39.3918 10.544 39.9582 11.3706 39.7974 12.2355C39.6367 13.1004 38.8101 13.6667 37.9452 13.506C37.0803 13.3453 36.5139 12.5187 36.6747 11.6538Z" fill="url(#paint49_linear_214_227)"/>
<path d="M85.8505 1.29781C86.0112 0.432924 86.8378 -0.133466 87.7027 0.0272657C88.5676 0.187997 89.134 1.01462 88.9732 1.87951C88.8125 2.7444 87.9859 3.31078 87.121 3.15005C86.2561 2.98932 85.6897 2.1627 85.8505 1.29781Z" fill="url(#paint50_linear_214_227)"/>
<path d="M73.5516 1.29781C73.7123 0.432924 74.539 -0.133466 75.4039 0.0272657C76.2687 0.187997 76.8351 1.01462 76.6744 1.87951C76.5137 2.7444 75.687 3.31078 74.8222 3.15005C73.9649 2.98932 73.3985 2.1627 73.5516 1.29781Z" fill="url(#paint51_linear_214_227)"/>
<path d="M61.2586 1.29781C61.4194 0.432924 62.246 -0.133466 63.1109 0.0272657C63.9758 0.187997 64.5422 1.01462 64.3814 1.87951C64.2207 2.7444 63.3941 3.31078 62.5292 3.15005C61.672 2.98932 61.0979 2.1627 61.2586 1.29781Z" fill="url(#paint52_linear_214_227)"/>
<path d="M48.9667 1.29781C49.1274 0.432924 49.954 -0.133466 50.8189 0.0272657C51.6838 0.187997 52.2502 1.01462 52.0894 1.87951C51.9287 2.7444 51.1021 3.31078 50.2372 3.15005C49.38 2.98932 48.8059 2.1627 48.9667 1.29781Z" fill="url(#paint53_linear_214_227)"/>
<path d="M36.6747 1.29781C36.8354 0.432924 37.662 -0.133466 38.5269 0.0272657C39.3918 0.187997 39.9582 1.01462 39.7974 1.87951C39.6367 2.7444 38.8101 3.31078 37.9452 3.15005C37.0803 2.98932 36.5139 2.1627 36.6747 1.29781Z" fill="url(#paint54_linear_214_227)"/>
<path d="M24.619 104.854C24.7797 103.99 25.6064 103.423 26.4713 103.584C27.3362 103.745 27.9025 104.571 27.7418 105.436C27.5811 106.301 26.7544 106.867 25.8896 106.707C25.0247 106.546 24.4583 105.719 24.619 104.854Z" fill="url(#paint55_linear_214_227)"/>
<path d="M12.3202 104.854C12.4809 103.99 13.3075 103.423 14.1724 103.584C15.0373 103.745 15.6037 104.571 15.443 105.436C15.2822 106.301 14.4556 106.867 13.5907 106.707C12.7335 106.546 12.1671 105.719 12.3202 104.854Z" fill="url(#paint56_linear_214_227)"/>
<path d="M0.0271932 104.854C0.187925 103.99 1.01455 103.423 1.87944 103.584C2.74433 103.745 3.31072 104.571 3.14999 105.436C2.98926 106.301 2.16263 106.867 1.29774 106.707C0.440505 106.546 -0.133538 105.719 0.0271932 104.854Z" fill="url(#paint57_linear_214_227)"/>
<path d="M24.619 94.4985C24.7797 93.6336 25.6064 93.0672 26.4713 93.228C27.3362 93.3887 27.9025 94.2153 27.7418 95.0802C27.5811 95.9451 26.7544 96.5115 25.8896 96.3507C25.0247 96.19 24.4583 95.3634 24.619 94.4985Z" fill="url(#paint58_linear_214_227)"/>
<path d="M12.3202 94.4985C12.4809 93.6336 13.3075 93.0672 14.1724 93.228C15.0373 93.3887 15.6037 94.2153 15.443 95.0802C15.2822 95.9451 14.4556 96.5115 13.5907 96.3507C12.7335 96.19 12.1671 95.3634 12.3202 94.4985Z" fill="url(#paint59_linear_214_227)"/>
<path d="M0.0271932 94.4985C0.187925 93.6336 1.01455 93.0672 1.87944 93.228C2.74433 93.3887 3.31072 94.2153 3.14999 95.0802C2.98926 95.9451 2.16263 96.5115 1.29774 96.3507C0.440505 96.19 -0.133538 95.3634 0.0271932 94.4985Z" fill="url(#paint60_linear_214_227)"/>
<path d="M24.619 84.1435C24.7797 83.2786 25.6064 82.7122 26.4713 82.873C27.3362 83.0337 27.9025 83.8603 27.7418 84.7252C27.5811 85.5901 26.7544 86.1565 25.8896 85.9958C25.0247 85.835 24.4583 85.0084 24.619 84.1435Z" fill="url(#paint61_linear_214_227)"/>
<path d="M12.3202 84.1435C12.4809 83.2786 13.3075 82.7122 14.1724 82.873C15.0373 83.0337 15.6037 83.8603 15.443 84.7252C15.2822 85.5901 14.4556 86.1565 13.5907 85.9958C12.7335 85.835 12.1671 85.0084 12.3202 84.1435Z" fill="url(#paint62_linear_214_227)"/>
<path d="M0.0271932 84.1435C0.187925 83.2786 1.01455 82.7122 1.87944 82.873C2.74433 83.0337 3.31072 83.8603 3.14999 84.7252C2.98926 85.5901 2.16263 86.1565 1.29774 85.9958C0.440505 85.835 -0.133538 85.0084 0.0271932 84.1435Z" fill="url(#paint63_linear_214_227)"/>
<path d="M24.619 73.7876C24.7797 72.9227 25.6064 72.3563 26.4713 72.517C27.3362 72.6777 27.9025 73.5044 27.7418 74.3693C27.5811 75.2341 26.7544 75.8005 25.8896 75.6398C25.0247 75.4791 24.4583 74.6524 24.619 73.7876Z" fill="url(#paint64_linear_214_227)"/>
<path d="M12.3202 73.7876C12.4809 72.9227 13.3075 72.3563 14.1724 72.517C15.0373 72.6777 15.6037 73.5044 15.443 74.3693C15.2822 75.2341 14.4556 75.8005 13.5907 75.6398C12.7335 75.4791 12.1671 74.6524 12.3202 73.7876Z" fill="url(#paint65_linear_214_227)"/>
<path d="M0.0271932 73.7876C0.187925 72.9227 1.01455 72.3563 1.87944 72.517C2.74433 72.6777 3.31072 73.5044 3.14999 74.3693C2.98926 75.2341 2.16263 75.8005 1.29774 75.6398C0.440505 75.4791 -0.133538 74.6524 0.0271932 73.7876Z" fill="url(#paint66_linear_214_227)"/>
<path d="M24.619 63.4316C24.7797 62.5667 25.6064 62.0003 26.4713 62.1611C27.3362 62.3218 27.9025 63.1484 27.7418 64.0133C27.5811 64.8782 26.7544 65.4446 25.8896 65.2838C25.0247 65.1231 24.4583 64.2965 24.619 63.4316Z" fill="url(#paint67_linear_214_227)"/>
<path d="M12.3202 63.4316C12.4809 62.5667 13.3075 62.0003 14.1724 62.1611C15.0373 62.3218 15.6037 63.1484 15.443 64.0133C15.2822 64.8782 14.4556 65.4446 13.5907 65.2838C12.7258 65.1231 12.1671 64.2965 12.3202 63.4316Z" fill="url(#paint68_linear_214_227)"/>
<path d="M0.0271932 63.4316C0.187925 62.5667 1.01455 62.0003 1.87944 62.1611C2.74433 62.3218 3.31072 63.1484 3.14999 64.0133C2.98926 64.8782 2.16263 65.4446 1.29774 65.2838C0.440505 65.1231 -0.133538 64.2965 0.0271932 63.4316Z" fill="url(#paint69_linear_214_227)"/>
<path d="M24.619 53.0756C24.7797 52.2108 25.6064 51.6444 26.4713 51.8051C27.3362 51.9658 27.9025 52.7924 27.7418 53.6573C27.5811 54.5222 26.7544 55.0886 25.8896 54.9279C25.0247 54.7672 24.4583 53.9405 24.619 53.0756Z" fill="url(#paint70_linear_214_227)"/>
<path d="M12.3202 53.0756C12.4809 52.2108 13.3075 51.6444 14.1724 51.8051C15.0373 51.9658 15.6037 52.7924 15.443 53.6573C15.2822 54.5222 14.4556 55.0886 13.5907 54.9279C12.7258 54.7672 12.1671 53.9405 12.3202 53.0756Z" fill="url(#paint71_linear_214_227)"/>
<path d="M0.0271932 53.0756C0.187925 52.2108 1.01455 51.6444 1.87944 51.8051C2.74433 51.9658 3.31072 52.7924 3.14999 53.6573C2.98926 54.5222 2.16263 55.0886 1.29774 54.9279C0.440505 54.7672 -0.133538 53.9405 0.0271932 53.0756Z" fill="url(#paint72_linear_214_227)"/>
<path d="M24.619 42.7207C24.7797 41.8558 25.6064 41.2894 26.4713 41.4501C27.3362 41.6109 27.9025 42.4375 27.7418 43.3024C27.5811 44.1672 26.7544 44.7336 25.8896 44.5729C25.0247 44.4122 24.4583 43.5856 24.619 42.7207Z" fill="url(#paint73_linear_214_227)"/>
<path d="M12.3202 42.7207C12.4809 41.8558 13.3075 41.2894 14.1724 41.4501C15.0373 41.6109 15.6037 42.4375 15.443 43.3024C15.2822 44.1672 14.4556 44.7336 13.5907 44.5729C12.7335 44.4122 12.1671 43.5856 12.3202 42.7207Z" fill="url(#paint74_linear_214_227)"/>
<path d="M0.0271932 42.7207C0.187925 41.8558 1.01455 41.2894 1.87944 41.4501C2.74433 41.6109 3.31072 42.4375 3.14999 43.3024C2.98926 44.1672 2.16263 44.7336 1.29774 44.5729C0.440505 44.4122 -0.133538 43.5856 0.0271932 42.7207Z" fill="url(#paint75_linear_214_227)"/>
<path d="M24.619 32.3647C24.7797 31.4998 25.6064 30.9334 26.4713 31.0942C27.3362 31.2549 27.9025 32.0815 27.7418 32.9464C27.5811 33.8113 26.7544 34.3777 25.8896 34.2169C25.0247 34.0562 24.4583 33.2296 24.619 32.3647Z" fill="url(#paint76_linear_214_227)"/>
<path d="M12.3202 32.3647C12.4809 31.4998 13.3075 30.9334 14.1724 31.0942C15.0373 31.2549 15.6037 32.0815 15.443 32.9464C15.2822 33.8113 14.4556 34.3777 13.5907 34.2169C12.7335 34.0562 12.1671 33.2296 12.3202 32.3647Z" fill="url(#paint77_linear_214_227)"/>
<path d="M0.0271932 32.3647C0.187925 31.4998 1.01455 30.9334 1.87944 31.0942C2.74433 31.2549 3.31072 32.0815 3.14999 32.9464C2.98926 33.8113 2.16263 34.3777 1.29774 34.2169C0.440505 34.0562 -0.133538 33.2296 0.0271932 32.3647Z" fill="url(#paint78_linear_214_227)"/>
<path d="M24.619 22.0087C24.7797 21.1439 25.6064 20.5775 26.4713 20.7382C27.3362 20.8989 27.9025 21.7256 27.7418 22.5904C27.5811 23.4553 26.7544 24.0217 25.8896 23.861C25.0247 23.7003 24.4583 22.8736 24.619 22.0087Z" fill="url(#paint79_linear_214_227)"/>
<path d="M12.3202 22.0087C12.4809 21.1439 13.3075 20.5775 14.1724 20.7382C15.0373 20.8989 15.6037 21.7256 15.443 22.5904C15.2822 23.4553 14.4556 24.0217 13.5907 23.861C12.7335 23.7003 12.1671 22.8736 12.3202 22.0087Z" fill="url(#paint80_linear_214_227)"/>
<path d="M0.0271932 22.0087C0.187925 21.1439 1.01455 20.5775 1.87944 20.7382C2.74433 20.8989 3.31072 21.7256 3.14999 22.5904C2.98926 23.4553 2.16263 24.0217 1.29774 23.861C0.440505 23.7003 -0.133538 22.8736 0.0271932 22.0087Z" fill="url(#paint81_linear_214_227)"/>
<path d="M24.619 11.6538C24.7797 10.7889 25.6064 10.2225 26.4713 10.3832C27.3362 10.544 27.9025 11.3706 27.7418 12.2355C27.5811 13.1004 26.7544 13.6667 25.8896 13.506C25.0247 13.3453 24.4583 12.5187 24.619 11.6538Z" fill="url(#paint82_linear_214_227)"/>
<path d="M12.3202 11.6538C12.4809 10.7889 13.3075 10.2225 14.1724 10.3832C15.0373 10.544 15.6037 11.3706 15.443 12.2355C15.2822 13.1004 14.4556 13.6667 13.5907 13.506C12.7335 13.3453 12.1671 12.5187 12.3202 11.6538Z" fill="url(#paint83_linear_214_227)"/>
<path d="M0.0271932 11.6538C0.187925 10.7889 1.01455 10.2225 1.87944 10.3832C2.74433 10.544 3.31072 11.3706 3.14999 12.2355C2.98926 13.1004 2.16263 13.6667 1.29774 13.506C0.440505 13.3453 -0.133538 12.5187 0.0271932 11.6538Z" fill="url(#paint84_linear_214_227)"/>
<path d="M24.619 1.29781C24.7797 0.432924 25.6064 -0.133466 26.4713 0.0272657C27.3362 0.187997 27.9025 1.01462 27.7418 1.87951C27.5811 2.7444 26.7544 3.31078 25.8896 3.15005C25.0247 2.98932 24.4583 2.1627 24.619 1.29781Z" fill="url(#paint85_linear_214_227)"/>
<path d="M12.3202 1.29781C12.4809 0.432924 13.3075 -0.133466 14.1724 0.0272657C15.0373 0.187997 15.6037 1.01462 15.443 1.87951C15.2822 2.7444 14.4556 3.31078 13.5907 3.15005C12.7335 2.98932 12.1671 2.1627 12.3202 1.29781Z" fill="url(#paint86_linear_214_227)"/>
<path d="M0.0271932 1.29781C0.187925 0.432924 1.01455 -0.133466 1.87944 0.0272657C2.74433 0.187997 3.31072 1.01462 3.14999 1.87951C2.98926 2.7444 2.16263 3.31078 1.29774 3.15005C0.440505 2.98932 -0.133538 2.1627 0.0271932 1.29781Z" fill="url(#paint87_linear_214_227)"/>
</g>
<defs>
<linearGradient id="paint0_linear_214_227" x1="87.4118" y1="103.557" x2="87.4118" y2="106.734" gradientUnits="userSpaceOnUse">
<stop stop-color="#004FE6"/>
<stop offset="1" stop-color="#002C80"/>
</linearGradient>
<linearGradient id="paint1_linear_214_227" x1="75.1132" y1="103.557" x2="75.1132" y2="106.734" gradientUnits="userSpaceOnUse">
<stop stop-color="#004FE6"/>
<stop offset="1" stop-color="#002C80"/>
</linearGradient>
<linearGradient id="paint2_linear_214_227" x1="62.8202" y1="103.557" x2="62.8202" y2="106.734" gradientUnits="userSpaceOnUse">
<stop stop-color="#004FE6"/>
<stop offset="1" stop-color="#002C80"/>
</linearGradient>
<linearGradient id="paint3_linear_214_227" x1="50.5282" y1="103.557" x2="50.5282" y2="106.734" gradientUnits="userSpaceOnUse">
<stop stop-color="#004FE6"/>
<stop offset="1" stop-color="#002C80"/>
</linearGradient>
<linearGradient id="paint4_linear_214_227" x1="38.2361" y1="103.557" x2="38.2361" y2="106.734" gradientUnits="userSpaceOnUse">
<stop stop-color="#004FE6"/>
<stop offset="1" stop-color="#002C80"/>
</linearGradient>
<linearGradient id="paint5_linear_214_227" x1="87.4118" y1="93.2007" x2="87.4118" y2="96.378" gradientUnits="userSpaceOnUse">
<stop stop-color="#004FE6"/>
<stop offset="1" stop-color="#002C80"/>
</linearGradient>
<linearGradient id="paint6_linear_214_227" x1="75.1132" y1="93.2007" x2="75.1132" y2="96.378" gradientUnits="userSpaceOnUse">
<stop stop-color="#004FE6"/>
<stop offset="1" stop-color="#002C80"/>
</linearGradient>
<linearGradient id="paint7_linear_214_227" x1="62.8202" y1="93.2007" x2="62.8202" y2="96.378" gradientUnits="userSpaceOnUse">
<stop stop-color="#004FE6"/>
<stop offset="1" stop-color="#002C80"/>
</linearGradient>
<linearGradient id="paint8_linear_214_227" x1="50.5282" y1="93.2007" x2="50.5282" y2="96.378" gradientUnits="userSpaceOnUse">
<stop stop-color="#004FE6"/>
<stop offset="1" stop-color="#002C80"/>
</linearGradient>
<linearGradient id="paint9_linear_214_227" x1="38.2361" y1="93.2007" x2="38.2361" y2="96.378" gradientUnits="userSpaceOnUse">
<stop stop-color="#004FE6"/>
<stop offset="1" stop-color="#002C80"/>
</linearGradient>
<linearGradient id="paint10_linear_214_227" x1="87.4118" y1="82.8457" x2="87.4118" y2="86.023" gradientUnits="userSpaceOnUse">
<stop stop-color="#004FE6"/>
<stop offset="1" stop-color="#002C80"/>
</linearGradient>
<linearGradient id="paint11_linear_214_227" x1="75.1132" y1="82.8457" x2="75.1132" y2="86.023" gradientUnits="userSpaceOnUse">
<stop stop-color="#004FE6"/>
<stop offset="1" stop-color="#002C80"/>
</linearGradient>
<linearGradient id="paint12_linear_214_227" x1="62.8202" y1="82.8457" x2="62.8202" y2="86.023" gradientUnits="userSpaceOnUse">
<stop stop-color="#004FE6"/>
<stop offset="1" stop-color="#002C80"/>
</linearGradient>
<linearGradient id="paint13_linear_214_227" x1="50.5282" y1="82.8457" x2="50.5282" y2="86.023" gradientUnits="userSpaceOnUse">
<stop stop-color="#004FE6"/>
<stop offset="1" stop-color="#002C80"/>
</linearGradient>
<linearGradient id="paint14_linear_214_227" x1="38.2361" y1="82.8457" x2="38.2361" y2="86.023" gradientUnits="userSpaceOnUse">
<stop stop-color="#004FE6"/>
<stop offset="1" stop-color="#002C80"/>
</linearGradient>
<linearGradient id="paint15_linear_214_227" x1="87.4118" y1="72.4898" x2="87.4118" y2="75.6671" gradientUnits="userSpaceOnUse">
<stop stop-color="#004FE6"/>
<stop offset="1" stop-color="#002C80"/>
</linearGradient>
<linearGradient id="paint16_linear_214_227" x1="75.1132" y1="72.4898" x2="75.1132" y2="75.6671" gradientUnits="userSpaceOnUse">
<stop stop-color="#004FE6"/>
<stop offset="1" stop-color="#002C80"/>
</linearGradient>
<linearGradient id="paint17_linear_214_227" x1="62.8202" y1="72.4898" x2="62.8202" y2="75.6671" gradientUnits="userSpaceOnUse">
<stop stop-color="#004FE6"/>
<stop offset="1" stop-color="#002C80"/>
</linearGradient>
<linearGradient id="paint18_linear_214_227" x1="50.5282" y1="72.4898" x2="50.5282" y2="75.6671" gradientUnits="userSpaceOnUse">
<stop stop-color="#004FE6"/>
<stop offset="1" stop-color="#002C80"/>
</linearGradient>
<linearGradient id="paint19_linear_214_227" x1="38.2361" y1="72.4898" x2="38.2361" y2="75.6671" gradientUnits="userSpaceOnUse">
<stop stop-color="#004FE6"/>
<stop offset="1" stop-color="#002C80"/>
</linearGradient>
<linearGradient id="paint20_linear_214_227" x1="87.4118" y1="62.1338" x2="87.4118" y2="65.3111" gradientUnits="userSpaceOnUse">
<stop stop-color="#004FE6"/>
<stop offset="1" stop-color="#002C80"/>
</linearGradient>
<linearGradient id="paint21_linear_214_227" x1="75.113" y1="62.1338" x2="75.113" y2="65.3111" gradientUnits="userSpaceOnUse">
<stop stop-color="#004FE6"/>
<stop offset="1" stop-color="#002C80"/>
</linearGradient>
<linearGradient id="paint22_linear_214_227" x1="62.8202" y1="62.1338" x2="62.8202" y2="65.3111" gradientUnits="userSpaceOnUse">
<stop stop-color="#004FE6"/>
<stop offset="1" stop-color="#002C80"/>
</linearGradient>
<linearGradient id="paint23_linear_214_227" x1="50.5282" y1="62.1338" x2="50.5282" y2="65.3111" gradientUnits="userSpaceOnUse">
<stop stop-color="#004FE6"/>
<stop offset="1" stop-color="#002C80"/>
</linearGradient>
<linearGradient id="paint24_linear_214_227" x1="38.2361" y1="62.1338" x2="38.2361" y2="65.3111" gradientUnits="userSpaceOnUse">
<stop stop-color="#004FE6"/>
<stop offset="1" stop-color="#002C80"/>
</linearGradient>
<linearGradient id="paint25_linear_214_227" x1="87.4118" y1="51.7778" x2="87.4118" y2="54.9551" gradientUnits="userSpaceOnUse">
<stop stop-color="#004FE6"/>
<stop offset="1" stop-color="#002C80"/>
</linearGradient>
<linearGradient id="paint26_linear_214_227" x1="75.114" y1="51.7778" x2="75.114" y2="54.9551" gradientUnits="userSpaceOnUse">
<stop stop-color="#004FE6"/>
<stop offset="1" stop-color="#002C80"/>
</linearGradient>
<linearGradient id="paint27_linear_214_227" x1="62.8202" y1="51.7778" x2="62.8202" y2="54.9551" gradientUnits="userSpaceOnUse">
<stop stop-color="#004FE6"/>
<stop offset="1" stop-color="#002C80"/>
</linearGradient>
<linearGradient id="paint28_linear_214_227" x1="50.5282" y1="51.7778" x2="50.5282" y2="54.9551" gradientUnits="userSpaceOnUse">
<stop stop-color="#004FE6"/>
<stop offset="1" stop-color="#002C80"/>
</linearGradient>
<linearGradient id="paint29_linear_214_227" x1="38.2361" y1="51.7778" x2="38.2361" y2="54.9551" gradientUnits="userSpaceOnUse">
<stop stop-color="#004FE6"/>
<stop offset="1" stop-color="#002C80"/>
</linearGradient>
<linearGradient id="paint30_linear_214_227" x1="87.4118" y1="41.4229" x2="87.4118" y2="44.6002" gradientUnits="userSpaceOnUse">
<stop stop-color="#004FE6"/>
<stop offset="1" stop-color="#002C80"/>
</linearGradient>
<linearGradient id="paint31_linear_214_227" x1="75.1141" y1="41.4229" x2="75.1141" y2="44.6002" gradientUnits="userSpaceOnUse">
<stop stop-color="#004FE6"/>
<stop offset="1" stop-color="#002C80"/>
</linearGradient>
<linearGradient id="paint32_linear_214_227" x1="62.8202" y1="41.4229" x2="62.8202" y2="44.6002" gradientUnits="userSpaceOnUse">
<stop stop-color="#004FE6"/>
<stop offset="1" stop-color="#002C80"/>
</linearGradient>
<linearGradient id="paint33_linear_214_227" x1="50.5282" y1="41.4229" x2="50.5282" y2="44.6002" gradientUnits="userSpaceOnUse">
<stop stop-color="#004FE6"/>
<stop offset="1" stop-color="#002C80"/>
</linearGradient>
<linearGradient id="paint34_linear_214_227" x1="38.2361" y1="41.4229" x2="38.2361" y2="44.6002" gradientUnits="userSpaceOnUse">
<stop stop-color="#004FE6"/>
<stop offset="1" stop-color="#002C80"/>
</linearGradient>
<linearGradient id="paint35_linear_214_227" x1="87.4118" y1="31.0669" x2="87.4118" y2="34.2442" gradientUnits="userSpaceOnUse">
<stop stop-color="#004FE6"/>
<stop offset="1" stop-color="#002C80"/>
</linearGradient>
<linearGradient id="paint36_linear_214_227" x1="75.1141" y1="31.0669" x2="75.1141" y2="34.2442" gradientUnits="userSpaceOnUse">
<stop stop-color="#004FE6"/>
<stop offset="1" stop-color="#002C80"/>
</linearGradient>
<linearGradient id="paint37_linear_214_227" x1="62.8202" y1="31.0669" x2="62.8202" y2="34.2442" gradientUnits="userSpaceOnUse">
<stop stop-color="#004FE6"/>
<stop offset="1" stop-color="#002C80"/>
</linearGradient>
<linearGradient id="paint38_linear_214_227" x1="50.5282" y1="31.0669" x2="50.5282" y2="34.2442" gradientUnits="userSpaceOnUse">
<stop stop-color="#004FE6"/>
<stop offset="1" stop-color="#002C80"/>
</linearGradient>
<linearGradient id="paint39_linear_214_227" x1="38.2361" y1="31.0669" x2="38.2361" y2="34.2442" gradientUnits="userSpaceOnUse">
<stop stop-color="#004FE6"/>
<stop offset="1" stop-color="#002C80"/>
</linearGradient>
<linearGradient id="paint40_linear_214_227" x1="87.4118" y1="20.7109" x2="87.4118" y2="23.8882" gradientUnits="userSpaceOnUse">
<stop stop-color="#004FE6"/>
<stop offset="1" stop-color="#002C80"/>
</linearGradient>
<linearGradient id="paint41_linear_214_227" x1="75.1141" y1="20.7109" x2="75.1141" y2="23.8882" gradientUnits="userSpaceOnUse">
<stop stop-color="#004FE6"/>
<stop offset="1" stop-color="#002C80"/>
</linearGradient>
<linearGradient id="paint42_linear_214_227" x1="62.8202" y1="20.7109" x2="62.8202" y2="23.8882" gradientUnits="userSpaceOnUse">
<stop stop-color="#004FE6"/>
<stop offset="1" stop-color="#002C80"/>
</linearGradient>
<linearGradient id="paint43_linear_214_227" x1="50.5282" y1="20.7109" x2="50.5282" y2="23.8882" gradientUnits="userSpaceOnUse">
<stop stop-color="#004FE6"/>
<stop offset="1" stop-color="#002C80"/>
</linearGradient>
<linearGradient id="paint44_linear_214_227" x1="38.2361" y1="20.7109" x2="38.2361" y2="23.8882" gradientUnits="userSpaceOnUse">
<stop stop-color="#004FE6"/>
<stop offset="1" stop-color="#002C80"/>
</linearGradient>
<linearGradient id="paint45_linear_214_227" x1="87.4118" y1="10.3557" x2="87.4118" y2="13.533" gradientUnits="userSpaceOnUse">
<stop stop-color="#004FE6"/>
<stop offset="1" stop-color="#002C80"/>
</linearGradient>
<linearGradient id="paint46_linear_214_227" x1="75.1141" y1="10.3557" x2="75.1141" y2="13.533" gradientUnits="userSpaceOnUse">
<stop stop-color="#004FE6"/>
<stop offset="1" stop-color="#002C80"/>
</linearGradient>
<linearGradient id="paint47_linear_214_227" x1="62.8202" y1="10.3557" x2="62.8202" y2="13.533" gradientUnits="userSpaceOnUse">
<stop stop-color="#004FE6"/>
<stop offset="1" stop-color="#002C80"/>
</linearGradient>
<linearGradient id="paint48_linear_214_227" x1="50.5282" y1="10.356" x2="50.5282" y2="13.5333" gradientUnits="userSpaceOnUse">
<stop stop-color="#004FE6"/>
<stop offset="1" stop-color="#002C80"/>
</linearGradient>
<linearGradient id="paint49_linear_214_227" x1="38.2361" y1="10.356" x2="38.2361" y2="13.5333" gradientUnits="userSpaceOnUse">
<stop stop-color="#004FE6"/>
<stop offset="1" stop-color="#002C80"/>
</linearGradient>
<linearGradient id="paint50_linear_214_227" x1="87.4118" y1="9.15944e-06" x2="87.4118" y2="3.17731" gradientUnits="userSpaceOnUse">
<stop stop-color="#004FE6"/>
<stop offset="1" stop-color="#002C80"/>
</linearGradient>
<linearGradient id="paint51_linear_214_227" x1="75.1141" y1="9.15954e-06" x2="75.1141" y2="3.17731" gradientUnits="userSpaceOnUse">
<stop stop-color="#004FE6"/>
<stop offset="1" stop-color="#002C80"/>
</linearGradient>
<linearGradient id="paint52_linear_214_227" x1="62.8202" y1="9.15945e-06" x2="62.8202" y2="3.17731" gradientUnits="userSpaceOnUse">
<stop stop-color="#004FE6"/>
<stop offset="1" stop-color="#002C80"/>
</linearGradient>
<linearGradient id="paint53_linear_214_227" x1="50.5282" y1="9.15945e-06" x2="50.5282" y2="3.17731" gradientUnits="userSpaceOnUse">
<stop stop-color="#004FE6"/>
<stop offset="1" stop-color="#002C80"/>
</linearGradient>
<linearGradient id="paint54_linear_214_227" x1="38.2361" y1="9.15944e-06" x2="38.2361" y2="3.17731" gradientUnits="userSpaceOnUse">
<stop stop-color="#004FE6"/>
<stop offset="1" stop-color="#002C80"/>
</linearGradient>
<linearGradient id="paint55_linear_214_227" x1="26.1804" y1="103.557" x2="26.1804" y2="106.734" gradientUnits="userSpaceOnUse">
<stop stop-color="#004FE6"/>
<stop offset="1" stop-color="#002C80"/>
</linearGradient>
<linearGradient id="paint56_linear_214_227" x1="13.8827" y1="103.557" x2="13.8827" y2="106.734" gradientUnits="userSpaceOnUse">
<stop stop-color="#004FE6"/>
<stop offset="1" stop-color="#002C80"/>
</linearGradient>
<linearGradient id="paint57_linear_214_227" x1="1.58872" y1="103.557" x2="1.58872" y2="106.734" gradientUnits="userSpaceOnUse">
<stop stop-color="#004FE6"/>
<stop offset="1" stop-color="#002C80"/>
</linearGradient>
<linearGradient id="paint58_linear_214_227" x1="26.1804" y1="93.2007" x2="26.1804" y2="96.378" gradientUnits="userSpaceOnUse">
<stop stop-color="#004FE6"/>
<stop offset="1" stop-color="#002C80"/>
</linearGradient>
<linearGradient id="paint59_linear_214_227" x1="13.8827" y1="93.2007" x2="13.8827" y2="96.378" gradientUnits="userSpaceOnUse">
<stop stop-color="#004FE6"/>
<stop offset="1" stop-color="#002C80"/>
</linearGradient>
<linearGradient id="paint60_linear_214_227" x1="1.58872" y1="93.2007" x2="1.58872" y2="96.378" gradientUnits="userSpaceOnUse">
<stop stop-color="#004FE6"/>
<stop offset="1" stop-color="#002C80"/>
</linearGradient>
<linearGradient id="paint61_linear_214_227" x1="26.1804" y1="82.8457" x2="26.1804" y2="86.023" gradientUnits="userSpaceOnUse">
<stop stop-color="#004FE6"/>
<stop offset="1" stop-color="#002C80"/>
</linearGradient>
<linearGradient id="paint62_linear_214_227" x1="13.8827" y1="82.8457" x2="13.8827" y2="86.023" gradientUnits="userSpaceOnUse">
<stop stop-color="#004FE6"/>
<stop offset="1" stop-color="#002C80"/>
</linearGradient>
<linearGradient id="paint63_linear_214_227" x1="1.58872" y1="82.8457" x2="1.58872" y2="86.023" gradientUnits="userSpaceOnUse">
<stop stop-color="#004FE6"/>
<stop offset="1" stop-color="#002C80"/>
</linearGradient>
<linearGradient id="paint64_linear_214_227" x1="26.1804" y1="72.4898" x2="26.1804" y2="75.6671" gradientUnits="userSpaceOnUse">
<stop stop-color="#004FE6"/>
<stop offset="1" stop-color="#002C80"/>
</linearGradient>
<linearGradient id="paint65_linear_214_227" x1="13.8827" y1="72.4898" x2="13.8827" y2="75.6671" gradientUnits="userSpaceOnUse">
<stop stop-color="#004FE6"/>
<stop offset="1" stop-color="#002C80"/>
</linearGradient>
<linearGradient id="paint66_linear_214_227" x1="1.58872" y1="72.4898" x2="1.58872" y2="75.6671" gradientUnits="userSpaceOnUse">
<stop stop-color="#004FE6"/>
<stop offset="1" stop-color="#002C80"/>
</linearGradient>
<linearGradient id="paint67_linear_214_227" x1="26.1804" y1="62.1338" x2="26.1804" y2="65.3111" gradientUnits="userSpaceOnUse">
<stop stop-color="#004FE6"/>
<stop offset="1" stop-color="#002C80"/>
</linearGradient>
<linearGradient id="paint68_linear_214_227" x1="13.8826" y1="62.1338" x2="13.8826" y2="65.3111" gradientUnits="userSpaceOnUse">
<stop stop-color="#004FE6"/>
<stop offset="1" stop-color="#002C80"/>
</linearGradient>
<linearGradient id="paint69_linear_214_227" x1="1.58872" y1="62.1338" x2="1.58872" y2="65.3111" gradientUnits="userSpaceOnUse">
<stop stop-color="#004FE6"/>
<stop offset="1" stop-color="#002C80"/>
</linearGradient>
<linearGradient id="paint70_linear_214_227" x1="26.1804" y1="51.7778" x2="26.1804" y2="54.9551" gradientUnits="userSpaceOnUse">
<stop stop-color="#004FE6"/>
<stop offset="1" stop-color="#002C80"/>
</linearGradient>
<linearGradient id="paint71_linear_214_227" x1="13.8826" y1="51.7778" x2="13.8826" y2="54.9551" gradientUnits="userSpaceOnUse">
<stop stop-color="#004FE6"/>
<stop offset="1" stop-color="#002C80"/>
</linearGradient>
<linearGradient id="paint72_linear_214_227" x1="1.58872" y1="51.7778" x2="1.58872" y2="54.9551" gradientUnits="userSpaceOnUse">
<stop stop-color="#004FE6"/>
<stop offset="1" stop-color="#002C80"/>
</linearGradient>
<linearGradient id="paint73_linear_214_227" x1="26.1804" y1="41.4229" x2="26.1804" y2="44.6002" gradientUnits="userSpaceOnUse">
<stop stop-color="#004FE6"/>
<stop offset="1" stop-color="#002C80"/>
</linearGradient>
<linearGradient id="paint74_linear_214_227" x1="13.8827" y1="41.4229" x2="13.8827" y2="44.6002" gradientUnits="userSpaceOnUse">
<stop stop-color="#004FE6"/>
<stop offset="1" stop-color="#002C80"/>
</linearGradient>
<linearGradient id="paint75_linear_214_227" x1="1.58872" y1="41.4229" x2="1.58872" y2="44.6002" gradientUnits="userSpaceOnUse">
<stop stop-color="#004FE6"/>
<stop offset="1" stop-color="#002C80"/>
</linearGradient>
<linearGradient id="paint76_linear_214_227" x1="26.1804" y1="31.0669" x2="26.1804" y2="34.2442" gradientUnits="userSpaceOnUse">
<stop stop-color="#004FE6"/>
<stop offset="1" stop-color="#002C80"/>
</linearGradient>
<linearGradient id="paint77_linear_214_227" x1="13.8827" y1="31.0669" x2="13.8827" y2="34.2442" gradientUnits="userSpaceOnUse">
<stop stop-color="#004FE6"/>
<stop offset="1" stop-color="#002C80"/>
</linearGradient>
<linearGradient id="paint78_linear_214_227" x1="1.58872" y1="31.0669" x2="1.58872" y2="34.2442" gradientUnits="userSpaceOnUse">
<stop stop-color="#004FE6"/>
<stop offset="1" stop-color="#002C80"/>
</linearGradient>
<linearGradient id="paint79_linear_214_227" x1="26.1804" y1="20.7109" x2="26.1804" y2="23.8882" gradientUnits="userSpaceOnUse">
<stop stop-color="#004FE6"/>
<stop offset="1" stop-color="#002C80"/>
</linearGradient>
<linearGradient id="paint80_linear_214_227" x1="13.8827" y1="20.7109" x2="13.8827" y2="23.8882" gradientUnits="userSpaceOnUse">
<stop stop-color="#004FE6"/>
<stop offset="1" stop-color="#002C80"/>
</linearGradient>
<linearGradient id="paint81_linear_214_227" x1="1.58872" y1="20.7109" x2="1.58872" y2="23.8882" gradientUnits="userSpaceOnUse">
<stop stop-color="#004FE6"/>
<stop offset="1" stop-color="#002C80"/>
</linearGradient>
<linearGradient id="paint82_linear_214_227" x1="26.1804" y1="10.356" x2="26.1804" y2="13.5333" gradientUnits="userSpaceOnUse">
<stop stop-color="#004FE6"/>
<stop offset="1" stop-color="#002C80"/>
</linearGradient>
<linearGradient id="paint83_linear_214_227" x1="13.8827" y1="10.356" x2="13.8827" y2="13.5333" gradientUnits="userSpaceOnUse">
<stop stop-color="#004FE6"/>
<stop offset="1" stop-color="#002C80"/>
</linearGradient>
<linearGradient id="paint84_linear_214_227" x1="1.58872" y1="10.356" x2="1.58872" y2="13.5333" gradientUnits="userSpaceOnUse">
<stop stop-color="#004FE6"/>
<stop offset="1" stop-color="#002C80"/>
</linearGradient>
<linearGradient id="paint85_linear_214_227" x1="26.1804" y1="9.15944e-06" x2="26.1804" y2="3.17731" gradientUnits="userSpaceOnUse">
<stop stop-color="#004FE6"/>
<stop offset="1" stop-color="#002C80"/>
</linearGradient>
<linearGradient id="paint86_linear_214_227" x1="13.8827" y1="9.15954e-06" x2="13.8827" y2="3.17731" gradientUnits="userSpaceOnUse">
<stop stop-color="#004FE6"/>
<stop offset="1" stop-color="#002C80"/>
</linearGradient>
<linearGradient id="paint87_linear_214_227" x1="1.58872" y1="9.15945e-06" x2="1.58872" y2="3.17731" gradientUnits="userSpaceOnUse">
<stop stop-color="#004FE6"/>
<stop offset="1" stop-color="#002C80"/>
</linearGradient>
</defs>
</svg>
