<svg width="413" height="59" viewBox="0 0 413 59" fill="none" xmlns="http://www.w3.org/2000/svg">
<path d="M77.4961 30C77.4961 13.9837 90.4798 1 106.496 1H383.465C399.481 1 412.465 13.9837 412.465 30C412.465 46.0162 399.481 58.9999 383.465 58.9999H106.496C90.4798 58.9999 77.4961 46.0162 77.4961 30Z" fill="#0E275D"/>
<path d="M271.891 16.6583C264.442 16.6583 258.422 22.6521 258.422 30.0452C258.422 35.7196 261.969 40.5675 266.98 42.5177C266.858 41.46 266.758 39.8293 267.025 38.6724C267.268 37.6257 268.599 32.0175 268.599 32.0175C268.599 32.0175 268.2 31.2132 268.2 30.0342C268.2 28.1722 269.286 26.7839 270.639 26.7839C271.791 26.7839 272.346 27.6433 272.346 28.668C272.346 29.8139 271.614 31.5327 271.226 33.1303C270.905 34.4635 271.902 35.5543 273.222 35.5543C275.616 35.5543 277.456 33.0422 277.456 29.4282C277.456 26.222 275.139 23.9853 271.825 23.9853C267.989 23.9853 265.739 26.839 265.739 29.7918C265.739 30.9377 266.182 32.1717 266.736 32.8438C266.847 32.9761 266.858 33.0973 266.825 33.2295C266.725 33.6482 266.492 34.5627 266.448 34.75C266.393 34.9924 266.249 35.0475 265.994 34.9263C264.331 34.1329 263.289 31.6869 263.289 29.7257C263.289 25.5058 266.37 21.6274 272.191 21.6274C276.858 21.6274 280.494 24.9328 280.494 29.3621C280.494 33.9787 277.567 37.6918 273.51 37.6918C272.146 37.6918 270.86 36.9866 270.428 36.1493C270.428 36.1493 269.752 38.7055 269.585 39.3335C269.286 40.5014 268.466 41.9558 267.911 42.8483C269.175 43.2339 270.506 43.4432 271.902 43.4432C279.341 43.4432 285.372 37.4494 285.372 30.0563C285.361 22.6521 279.33 16.6583 271.891 16.6583Z" fill="white"/>
<rect x="148.543" y="12" width="36" height="36" rx="18" fill="#0E275D"/>
<path d="M162.459 29.8725C162.459 27.6869 164.23 25.9147 166.415 25.9147C168.601 25.9147 170.373 27.6869 170.373 29.8725C170.373 32.0581 168.601 33.8303 166.415 33.8303C164.23 33.8303 162.459 32.0581 162.459 29.8725ZM160.319 29.8725C160.319 33.2395 163.048 35.9689 166.415 35.9689C169.783 35.9689 172.512 33.2395 172.512 29.8725C172.512 26.5055 169.783 23.7761 166.415 23.7761C163.048 23.7761 160.319 26.5053 160.319 29.8725M171.329 23.5344C171.328 23.8162 171.412 24.0917 171.568 24.326C171.725 24.5604 171.947 24.7431 172.208 24.851C172.468 24.9589 172.754 24.9873 173.031 24.9324C173.307 24.8775 173.561 24.7419 173.76 24.5428C173.96 24.3436 174.095 24.0898 174.151 23.8135C174.206 23.5371 174.177 23.2507 174.07 22.9903C173.962 22.7299 173.78 22.5073 173.545 22.3507C173.311 22.194 173.036 22.1104 172.754 22.1103H172.753C172.376 22.1104 172.013 22.2605 171.746 22.5275C171.479 22.7946 171.329 23.1567 171.329 23.5344ZM161.619 39.5365C160.461 39.4838 159.832 39.291 159.414 39.1281C158.86 38.9123 158.464 38.6553 158.049 38.24C157.633 37.8248 157.375 37.4297 157.161 36.8754C156.998 36.4575 156.805 35.8281 156.752 34.6706C156.695 33.4191 156.683 33.0432 156.683 29.8727C156.683 26.7022 156.696 26.3273 156.752 25.0748C156.805 23.9173 156.999 23.2892 157.161 22.87C157.376 22.3157 157.633 21.9202 158.049 21.5044C158.464 21.0886 158.859 20.8312 159.414 20.6163C159.832 20.4533 160.461 20.2605 161.619 20.2079C162.87 20.1503 163.246 20.1389 166.415 20.1389C169.585 20.1389 169.961 20.1511 171.213 20.2081C172.371 20.2608 172.999 20.455 173.418 20.6165C173.972 20.8314 174.368 21.0893 174.784 21.5046C175.2 21.9198 175.456 22.3159 175.672 22.8702C175.835 23.2881 176.028 23.9174 176.08 25.075C176.138 26.3275 176.149 26.7024 176.149 29.8729C176.149 33.0434 176.138 33.4183 176.08 34.6708C176.028 35.8283 175.834 36.4575 175.672 36.8756C175.456 37.4299 175.199 37.8254 174.784 38.2402C174.369 38.6551 173.972 38.9125 173.418 39.1283C173 39.2913 172.371 39.4841 171.213 39.5367C169.962 39.5943 169.586 39.6058 166.415 39.6058C163.245 39.6058 162.87 39.5943 161.619 39.5367M161.521 18.0719C160.257 18.1295 159.393 18.3299 158.639 18.6234C157.858 18.9264 157.197 19.333 156.536 19.9928C155.875 20.6525 155.469 21.3143 155.166 22.0959C154.873 22.8506 154.672 23.7138 154.615 24.9777C154.556 26.2436 154.543 26.6483 154.543 29.8725C154.543 33.0967 154.556 33.5014 154.615 34.7673C154.672 36.0313 154.873 36.8944 155.166 37.6491C155.469 38.4297 155.875 39.0928 156.536 39.7522C157.196 40.4117 157.857 40.8177 158.639 41.1216C159.395 41.4151 160.257 41.6155 161.521 41.6731C162.787 41.7307 163.191 41.745 166.415 41.745C169.64 41.745 170.044 41.7316 171.31 41.6731C172.574 41.6155 173.437 41.4151 174.192 41.1216C174.973 40.8177 175.634 40.412 176.295 39.7522C176.956 39.0925 177.361 38.4297 177.665 37.6491C177.958 36.8944 178.159 36.0312 178.216 34.7673C178.274 33.5005 178.287 33.0967 178.287 29.8725C178.287 26.6483 178.274 26.2436 178.216 24.9777C178.159 23.7137 177.958 22.8502 177.665 22.0959C177.361 21.3153 176.955 20.6536 176.295 19.9928C175.635 19.332 174.973 18.9264 174.193 18.6234C173.437 18.3299 172.574 18.1285 171.311 18.0719C170.045 18.0141 169.641 18 166.417 18C163.193 18 162.788 18.0134 161.521 18.0719" fill="white"/>
<rect x="200.916" y="12" width="36" height="36" rx="18" fill="#0E275D"/>
<g clip-path="url(#clip0_411_964)">
<path d="M208.416 22.3015C208.416 21.6258 208.653 21.0684 209.125 20.6292C209.598 20.19 210.213 19.9704 210.97 19.9704C211.713 19.9704 212.315 20.1866 212.774 20.619C213.247 21.065 213.484 21.6461 213.484 22.3623C213.484 23.0109 213.254 23.5515 212.794 23.9839C212.321 24.4299 211.7 24.6528 210.93 24.6528H210.909C210.166 24.6528 209.565 24.4299 209.105 23.9839C208.646 23.538 208.416 22.9771 208.416 22.3015ZM208.68 40.038V26.4974H213.18V40.038H208.68ZM215.673 40.038H220.173V32.4772C220.173 32.0042 220.227 31.6393 220.335 31.3826C220.524 30.9231 220.811 30.5346 221.196 30.217C221.582 29.8994 222.065 29.7407 222.646 29.7407C224.159 29.7407 224.916 30.7609 224.916 32.8015V40.038H229.416V32.2744C229.416 30.2744 228.943 28.7576 227.997 27.7238C227.051 26.69 225.801 26.1731 224.247 26.1731C222.504 26.1731 221.146 26.9231 220.173 28.4231V28.4636H220.153L220.173 28.4231V26.4974H215.673C215.7 26.9298 215.713 28.2744 215.713 30.5312C215.713 32.788 215.7 35.9569 215.673 40.038Z" fill="white"/>
</g>
<path d="M305.664 30C305.664 20.0589 313.773 12 323.775 12C333.777 12 341.886 20.0589 341.886 30C341.886 39.9411 333.777 48 323.775 48C313.773 48 305.664 39.9411 305.664 30Z" fill="#0E275D"/>
<path d="M329.653 29.1235C329.547 29.074 329.439 29.0263 329.33 28.9806C329.141 25.5673 327.232 23.6131 324.028 23.5931C324.013 23.593 323.999 23.593 323.984 23.593C322.067 23.593 320.473 24.3926 319.492 25.8476L321.254 27.0291C321.987 25.9423 323.138 25.7106 323.985 25.7106C323.995 25.7106 324.005 25.7106 324.014 25.7107C325.069 25.7173 325.866 26.0171 326.381 26.6018C326.756 27.0274 327.007 27.6156 327.131 28.358C326.196 28.2026 325.184 28.1548 324.102 28.2154C321.055 28.3869 319.096 30.1235 319.228 32.5365C319.295 33.7605 319.919 34.8135 320.985 35.5014C321.886 36.0829 323.047 36.3673 324.254 36.3029C325.847 36.2175 327.098 35.6234 327.97 34.537C328.632 33.712 329.051 32.6429 329.236 31.2957C329.995 31.7436 330.558 32.333 330.869 33.0415C331.398 34.2459 331.428 36.225 329.776 37.8385C328.328 39.252 326.588 39.8635 323.957 39.8824C321.04 39.8612 318.833 38.9469 317.399 37.1646C316.055 35.4958 315.361 33.0852 315.335 30C315.361 26.9147 316.055 24.5042 317.399 22.8353C318.833 21.0531 321.04 20.1388 323.957 20.1176C326.896 20.1389 329.141 21.0577 330.631 22.8485C331.361 23.7267 331.912 24.8311 332.275 26.1188L334.34 25.5803C333.9 23.9953 333.208 22.6295 332.266 21.4968C330.356 19.2008 327.563 18.0244 323.965 18H323.95C320.359 18.0243 317.597 19.2052 315.742 21.5099C314.091 23.5608 313.24 26.4145 313.211 29.9916L313.211 30L313.211 30.0084C313.24 33.5855 314.091 36.4393 315.742 38.4901C317.597 40.7948 320.359 41.9757 323.95 42H323.965C327.157 41.9784 329.408 41.1615 331.262 39.3514C333.687 36.9832 333.614 34.0149 332.815 32.1926C332.241 30.8859 331.148 29.8245 329.653 29.1235ZM324.14 34.1884C322.805 34.2619 321.417 33.6761 321.349 32.4215C321.298 31.4913 322.026 30.4532 324.222 30.3296C324.473 30.3154 324.72 30.3085 324.962 30.3085C325.76 30.3085 326.506 30.3842 327.184 30.5291C326.931 33.6169 325.447 34.1182 324.14 34.1884Z" fill="white"/>
<circle cx="376.037" cy="30" r="18" fill="#0E275D"/>
<path fill-rule="evenodd" clip-rule="evenodd" d="M373.406 30.1506L365.539 20.375H371.77L376.626 26.417L381.815 20.4022H385.246L378.286 28.4814L386.539 38.75H380.326L375.068 32.216L369.454 38.7319H366.004L373.406 30.1506ZM381.232 36.9388L369.36 22.1862H370.864L382.721 36.9388H381.232Z" fill="white"/>
<path d="M118.759 30.9609L119.427 26.3591H115.249V23.3742C115.249 22.115 115.831 20.8868 117.703 20.8868H119.604V16.9691C119.604 16.9691 117.879 16.6582 116.232 16.6582C112.789 16.6582 110.54 18.8627 110.54 22.8519V26.3591H106.715V30.9609H110.54V42.0858C111.308 42.2133 112.094 42.2786 112.895 42.2786C113.695 42.2786 114.481 42.2133 115.249 42.0858V30.9609H118.759Z" fill="white"/>
<rect x="58.8203" y="58.573" width="58.3569" height="57.9999" rx="29" transform="rotate(180 58.8203 58.573)" fill="#0E275D"/>
<path d="M40.7643 35.2666C39.7917 34.8064 38.6941 34.6666 37.6343 34.8681C36.5745 35.0695 35.609 35.6015 34.8809 36.385L24.4085 31.41C24.6245 30.601 24.6245 29.7508 24.4085 28.9418L34.9005 23.9668C35.7191 24.8404 36.8296 25.3957 38.0296 25.5318C39.2297 25.6679 40.4396 25.3757 41.4389 24.7083C42.4382 24.0409 43.1605 23.0429 43.4742 21.8958C43.788 20.7488 43.6723 19.5291 43.1482 18.4589C42.6242 17.3887 41.7266 16.5392 40.619 16.065C39.5114 15.5909 38.2674 15.5237 37.1137 15.8756C35.9599 16.2276 34.9731 16.9753 34.3329 17.9826C33.6927 18.9899 33.4418 20.1897 33.6258 21.3637L22.8592 26.4736C22.1331 25.8384 21.2358 25.4232 20.2753 25.2779C19.3147 25.1325 18.3319 25.2634 17.4453 25.6546C16.5586 26.0459 15.8059 26.6808 15.2778 27.483C14.7497 28.2852 14.4688 29.2203 14.4688 30.1759C14.4688 31.1315 14.7497 32.0667 15.2778 32.8688C15.8059 33.671 16.5586 34.3059 17.4453 34.6972C18.3319 35.0884 19.3147 35.2193 20.2753 35.074C21.2358 34.9287 22.1331 34.5134 22.8592 33.8782L33.6258 38.9882C33.4887 39.8916 33.6092 40.8147 33.974 41.6548C34.3388 42.4949 34.9335 43.2191 35.6919 43.7466C36.4503 44.2741 37.3427 44.5844 38.2698 44.6429C39.1969 44.7014 40.1224 44.5058 40.9431 44.0779C41.7639 43.65 42.4479 43.0066 42.9188 42.2192C43.3898 41.4318 43.6294 40.5314 43.6108 39.6181C43.5923 38.7049 43.3164 37.8146 42.8138 37.0463C42.3113 36.278 41.6018 35.6619 40.7643 35.2666Z" fill="white"/>
<path d="M68.1582 30.1531L79.8296 21.4531V38.8531L68.1582 30.1531Z" fill="#0E275D"/>
<defs>
<clipPath id="clip0_411_964">
<rect x="208.416" y="19.5" width="21" height="21" fill="white"/>
</clipPath>
</defs>
</svg>
