<svg width="89" height="107" viewBox="0 0 89 107" fill="none" xmlns="http://www.w3.org/2000/svg">
<g opacity="0.3">
<path d="M85.85 104.854C86.0107 103.989 86.8373 103.423 87.7022 103.584C88.5671 103.745 89.1335 104.571 88.9727 105.436C88.812 106.301 87.9854 106.867 87.1205 106.707C86.2556 106.546 85.6892 105.719 85.85 104.854Z" fill="url(#paint0_linear_411_1085)"/>
<path d="M73.5511 104.854C73.7119 103.989 74.5385 103.423 75.4034 103.584C76.2683 103.745 76.8346 104.571 76.6739 105.436C76.5132 106.301 75.6866 106.867 74.8217 106.707C73.9644 106.546 73.398 105.719 73.5511 104.854Z" fill="url(#paint1_linear_411_1085)"/>
<path d="M61.2582 104.854C61.4189 103.989 62.2455 103.423 63.1104 103.584C63.9753 103.745 64.5417 104.571 64.3809 105.436C64.2202 106.301 63.3936 106.867 62.5287 106.707C61.6715 106.546 61.0974 105.719 61.2582 104.854Z" fill="url(#paint2_linear_411_1085)"/>
<path d="M48.9672 104.854C49.1279 103.989 49.9545 103.423 50.8194 103.584C51.6843 103.745 52.2507 104.571 52.0899 105.436C51.9292 106.301 51.1026 106.867 50.2377 106.707C49.3805 106.546 48.8064 105.719 48.9672 104.854Z" fill="url(#paint3_linear_411_1085)"/>
<path d="M36.6742 104.854C36.8349 103.989 37.6615 103.423 38.5264 103.584C39.3913 103.745 39.9577 104.571 39.797 105.436C39.6362 106.301 38.8096 106.867 37.9447 106.707C37.0798 106.546 36.5135 105.719 36.6742 104.854Z" fill="url(#paint4_linear_411_1085)"/>
<path d="M85.85 94.4984C86.0107 93.6335 86.8373 93.0672 87.7022 93.2279C88.5671 93.3886 89.1335 94.2152 88.9727 95.0801C88.812 95.945 87.9854 96.5114 87.1205 96.3507C86.2556 96.1899 85.6892 95.3633 85.85 94.4984Z" fill="url(#paint5_linear_411_1085)"/>
<path d="M73.5511 94.4984C73.7119 93.6335 74.5385 93.0672 75.4034 93.2279C76.2683 93.3886 76.8346 94.2152 76.6739 95.0801C76.5132 95.945 75.6866 96.5114 74.8217 96.3507C73.9644 96.1899 73.398 95.3633 73.5511 94.4984Z" fill="url(#paint6_linear_411_1085)"/>
<path d="M61.2582 94.4984C61.4189 93.6335 62.2455 93.0672 63.1104 93.2279C63.9753 93.3886 64.5417 94.2152 64.3809 95.0801C64.2202 95.945 63.3936 96.5114 62.5287 96.3507C61.6715 96.1899 61.0974 95.3633 61.2582 94.4984Z" fill="url(#paint7_linear_411_1085)"/>
<path d="M48.9672 94.4984C49.1279 93.6335 49.9545 93.0672 50.8194 93.2279C51.6843 93.3886 52.2507 94.2152 52.0899 95.0801C51.9292 95.945 51.1026 96.5114 50.2377 96.3507C49.3805 96.1899 48.8064 95.3633 48.9672 94.4984Z" fill="url(#paint8_linear_411_1085)"/>
<path d="M36.6742 94.4984C36.8349 93.6335 37.6615 93.0672 38.5264 93.2279C39.3913 93.3886 39.9577 94.2152 39.797 95.0801C39.6362 95.945 38.8096 96.5114 37.9447 96.3507C37.0798 96.1899 36.5135 95.3633 36.6742 94.4984Z" fill="url(#paint9_linear_411_1085)"/>
<path d="M85.85 84.1435C86.0107 83.2786 86.8373 82.7122 87.7022 82.8729C88.5671 83.0336 89.1335 83.8603 88.9727 84.7251C88.812 85.59 87.9854 86.1564 87.1205 85.9957C86.2556 85.835 85.6892 85.0083 85.85 84.1435Z" fill="url(#paint10_linear_411_1085)"/>
<path d="M73.5511 84.1435C73.7119 83.2786 74.5385 82.7122 75.4034 82.8729C76.2683 83.0336 76.8346 83.8603 76.6739 84.7251C76.5132 85.59 75.6866 86.1564 74.8217 85.9957C73.9644 85.835 73.398 85.0083 73.5511 84.1435Z" fill="url(#paint11_linear_411_1085)"/>
<path d="M61.2582 84.1435C61.4189 83.2786 62.2455 82.7122 63.1104 82.8729C63.9753 83.0336 64.5417 83.8603 64.3809 84.7251C64.2202 85.59 63.3936 86.1564 62.5287 85.9957C61.6715 85.835 61.0974 85.0083 61.2582 84.1435Z" fill="url(#paint12_linear_411_1085)"/>
<path d="M48.9672 84.1435C49.1279 83.2786 49.9545 82.7122 50.8194 82.8729C51.6843 83.0336 52.2507 83.8603 52.0899 84.7251C51.9292 85.59 51.1026 86.1564 50.2377 85.9957C49.3805 85.835 48.8064 85.0083 48.9672 84.1435Z" fill="url(#paint13_linear_411_1085)"/>
<path d="M36.6742 84.1435C36.8349 83.2786 37.6615 82.7122 38.5264 82.8729C39.3913 83.0336 39.9577 83.8603 39.797 84.7251C39.6362 85.59 38.8096 86.1564 37.9447 85.9957C37.0798 85.835 36.5135 85.0083 36.6742 84.1435Z" fill="url(#paint14_linear_411_1085)"/>
<path d="M85.85 73.7875C86.0107 72.9226 86.8373 72.3562 87.7022 72.517C88.5671 72.6777 89.1335 73.5043 88.9727 74.3692C88.812 75.2341 87.9854 75.8005 87.1205 75.6397C86.2556 75.479 85.6892 74.6524 85.85 73.7875Z" fill="url(#paint15_linear_411_1085)"/>
<path d="M73.5511 73.7875C73.7119 72.9226 74.5385 72.3562 75.4034 72.517C76.2683 72.6777 76.8346 73.5043 76.6739 74.3692C76.5132 75.2341 75.6866 75.8005 74.8217 75.6397C73.9644 75.479 73.398 74.6524 73.5511 73.7875Z" fill="url(#paint16_linear_411_1085)"/>
<path d="M61.2582 73.7875C61.4189 72.9226 62.2455 72.3562 63.1104 72.517C63.9753 72.6777 64.5417 73.5043 64.3809 74.3692C64.2202 75.2341 63.3936 75.8005 62.5287 75.6397C61.6715 75.479 61.0974 74.6524 61.2582 73.7875Z" fill="url(#paint17_linear_411_1085)"/>
<path d="M48.9672 73.7875C49.1279 72.9226 49.9545 72.3562 50.8194 72.517C51.6843 72.6777 52.2507 73.5043 52.0899 74.3692C51.9292 75.2341 51.1026 75.8005 50.2377 75.6397C49.3805 75.479 48.8064 74.6524 48.9672 73.7875Z" fill="url(#paint18_linear_411_1085)"/>
<path d="M36.6742 73.7875C36.8349 72.9226 37.6615 72.3562 38.5264 72.517C39.3913 72.6777 39.9577 73.5043 39.797 74.3692C39.6362 75.2341 38.8096 75.8005 37.9447 75.6397C37.0798 75.479 36.5135 74.6524 36.6742 73.7875Z" fill="url(#paint19_linear_411_1085)"/>
<path d="M85.85 63.4315C86.0107 62.5667 86.8373 62.0003 87.7022 62.161C88.5671 62.3217 89.1335 63.1483 88.9727 64.0132C88.812 64.8781 87.9854 65.4445 87.1205 65.2838C86.2556 65.123 85.6892 64.2964 85.85 63.4315Z" fill="url(#paint20_linear_411_1085)"/>
<path d="M73.5511 63.4315C73.7119 62.5667 74.5385 62.0003 75.4034 62.161C76.2683 62.3217 76.8346 63.1483 76.6739 64.0132C76.5132 64.8781 75.6866 65.4445 74.8217 65.2838C73.9568 65.123 73.398 64.2964 73.5511 63.4315Z" fill="url(#paint21_linear_411_1085)"/>
<path d="M61.2582 63.4315C61.4189 62.5667 62.2455 62.0003 63.1104 62.161C63.9753 62.3217 64.5417 63.1483 64.3809 64.0132C64.2202 64.8781 63.3936 65.4445 62.5287 65.2838C61.6715 65.123 61.0974 64.2964 61.2582 63.4315Z" fill="url(#paint22_linear_411_1085)"/>
<path d="M48.9672 63.4315C49.1279 62.5667 49.9545 62.0003 50.8194 62.161C51.6843 62.3217 52.2507 63.1483 52.0899 64.0132C51.9292 64.8781 51.1026 65.4445 50.2377 65.2838C49.3805 65.123 48.8064 64.2964 48.9672 63.4315Z" fill="url(#paint23_linear_411_1085)"/>
<path d="M36.6742 63.4315C36.8349 62.5667 37.6615 62.0003 38.5264 62.161C39.3913 62.3217 39.9577 63.1483 39.797 64.0132C39.6362 64.8781 38.8096 65.4445 37.9447 65.2838C37.0798 65.123 36.5135 64.2964 36.6742 63.4315Z" fill="url(#paint24_linear_411_1085)"/>
<path d="M85.85 53.0756C86.0107 52.2107 86.8373 51.6443 87.7022 51.805C88.5671 51.9658 89.1335 52.7924 88.9727 53.6573C88.812 54.5222 87.9854 55.0886 87.1205 54.9278C86.2556 54.7671 85.6892 53.9405 85.85 53.0756Z" fill="url(#paint25_linear_411_1085)"/>
<path d="M73.5511 53.0756C73.7119 52.2107 74.5385 51.6443 75.4034 51.805C76.2683 51.9658 76.8346 52.7924 76.6739 53.6573C76.5132 54.5222 75.6866 55.0886 74.8217 54.9278C73.9568 54.7671 73.398 53.9405 73.5511 53.0756Z" fill="url(#paint26_linear_411_1085)"/>
<path d="M61.2582 53.0756C61.4189 52.2107 62.2455 51.6443 63.1104 51.805C63.9753 51.9658 64.5417 52.7924 64.3809 53.6573C64.2202 54.5222 63.3936 55.0886 62.5287 54.9278C61.6715 54.7671 61.0974 53.9405 61.2582 53.0756Z" fill="url(#paint27_linear_411_1085)"/>
<path d="M48.9672 53.0756C49.1279 52.2107 49.9545 51.6443 50.8194 51.805C51.6843 51.9658 52.2507 52.7924 52.0899 53.6573C51.9292 54.5222 51.1026 55.0886 50.2377 54.9278C49.3805 54.7671 48.8064 53.9405 48.9672 53.0756Z" fill="url(#paint28_linear_411_1085)"/>
<path d="M36.6742 53.0756C36.8349 52.2107 37.6615 51.6443 38.5264 51.805C39.3913 51.9658 39.9577 52.7924 39.797 53.6573C39.6362 54.5222 38.8096 55.0886 37.9447 54.9278C37.0798 54.7671 36.5135 53.9405 36.6742 53.0756Z" fill="url(#paint29_linear_411_1085)"/>
<path d="M85.85 42.7206C86.0107 41.8557 86.8373 41.2893 87.7022 41.4501C88.5671 41.6108 89.1335 42.4374 88.9727 43.3023C88.812 44.1672 87.9854 44.7336 87.1205 44.5728C86.2556 44.4121 85.6892 43.5855 85.85 42.7206Z" fill="url(#paint30_linear_411_1085)"/>
<path d="M73.5511 42.7206C73.7119 41.8557 74.5385 41.2893 75.4034 41.4501C76.2683 41.6108 76.8346 42.4374 76.6739 43.3023C76.5132 44.1672 75.6866 44.7336 74.8217 44.5728C73.9644 44.4121 73.398 43.5855 73.5511 42.7206Z" fill="url(#paint31_linear_411_1085)"/>
<path d="M61.2582 42.7206C61.4189 41.8557 62.2455 41.2893 63.1104 41.4501C63.9753 41.6108 64.5417 42.4374 64.3809 43.3023C64.2202 44.1672 63.3936 44.7336 62.5287 44.5728C61.6715 44.4121 61.0974 43.5855 61.2582 42.7206Z" fill="url(#paint32_linear_411_1085)"/>
<path d="M48.9672 42.7206C49.1279 41.8557 49.9545 41.2893 50.8194 41.4501C51.6843 41.6108 52.2507 42.4374 52.0899 43.3023C51.9292 44.1672 51.1026 44.7336 50.2377 44.5728C49.3805 44.4121 48.8064 43.5855 48.9672 42.7206Z" fill="url(#paint33_linear_411_1085)"/>
<path d="M36.6742 42.7206C36.8349 41.8557 37.6615 41.2893 38.5264 41.4501C39.3913 41.6108 39.9577 42.4374 39.797 43.3023C39.6362 44.1672 38.8096 44.7336 37.9447 44.5728C37.0798 44.4121 36.5135 43.5855 36.6742 42.7206Z" fill="url(#paint34_linear_411_1085)"/>
<path d="M85.85 32.3646C86.0107 31.4998 86.8373 30.9334 87.7022 31.0941C88.5671 31.2548 89.1335 32.0815 88.9727 32.9463C88.812 33.8112 87.9854 34.3776 87.1205 34.2169C86.2556 34.0562 85.6892 33.2295 85.85 32.3646Z" fill="url(#paint35_linear_411_1085)"/>
<path d="M73.5511 32.3646C73.7119 31.4998 74.5385 30.9334 75.4034 31.0941C76.2683 31.2548 76.8346 32.0815 76.6739 32.9463C76.5132 33.8112 75.6866 34.3776 74.8217 34.2169C73.9644 34.0562 73.398 33.2295 73.5511 32.3646Z" fill="url(#paint36_linear_411_1085)"/>
<path d="M61.2582 32.3646C61.4189 31.4998 62.2455 30.9334 63.1104 31.0941C63.9753 31.2548 64.5417 32.0815 64.3809 32.9463C64.2202 33.8112 63.3936 34.3776 62.5287 34.2169C61.6715 34.0562 61.0974 33.2295 61.2582 32.3646Z" fill="url(#paint37_linear_411_1085)"/>
<path d="M48.9672 32.3646C49.1279 31.4998 49.9545 30.9334 50.8194 31.0941C51.6843 31.2548 52.2507 32.0815 52.0899 32.9463C51.9292 33.8112 51.1026 34.3776 50.2377 34.2169C49.3805 34.0562 48.8064 33.2295 48.9672 32.3646Z" fill="url(#paint38_linear_411_1085)"/>
<path d="M36.6742 32.3646C36.8349 31.4998 37.6615 30.9334 38.5264 31.0941C39.3913 31.2548 39.9577 32.0815 39.797 32.9463C39.6362 33.8112 38.8096 34.3776 37.9447 34.2169C37.0798 34.0562 36.5135 33.2295 36.6742 32.3646Z" fill="url(#paint39_linear_411_1085)"/>
<path d="M85.85 22.0087C86.0107 21.1438 86.8373 20.5774 87.7022 20.7381C88.5671 20.8989 89.1335 21.7255 88.9727 22.5904C88.812 23.4553 87.9854 24.0217 87.1205 23.8609C86.2556 23.7002 85.6892 22.8736 85.85 22.0087Z" fill="url(#paint40_linear_411_1085)"/>
<path d="M73.5511 22.0087C73.7119 21.1438 74.5385 20.5774 75.4034 20.7381C76.2683 20.8989 76.8346 21.7255 76.6739 22.5904C76.5132 23.4553 75.6866 24.0217 74.8217 23.8609C73.9644 23.7002 73.398 22.8736 73.5511 22.0087Z" fill="url(#paint41_linear_411_1085)"/>
<path d="M61.2582 22.0087C61.4189 21.1438 62.2455 20.5774 63.1104 20.7381C63.9753 20.8989 64.5417 21.7255 64.3809 22.5904C64.2202 23.4553 63.3936 24.0217 62.5287 23.8609C61.6715 23.7002 61.0974 22.8736 61.2582 22.0087Z" fill="url(#paint42_linear_411_1085)"/>
<path d="M48.9672 22.0087C49.1279 21.1438 49.9545 20.5774 50.8194 20.7381C51.6843 20.8989 52.2507 21.7255 52.0899 22.5904C51.9292 23.4553 51.1026 24.0217 50.2377 23.8609C49.3805 23.7002 48.8064 22.8736 48.9672 22.0087Z" fill="url(#paint43_linear_411_1085)"/>
<path d="M36.6742 22.0087C36.8349 21.1438 37.6615 20.5774 38.5264 20.7381C39.3913 20.8989 39.9577 21.7255 39.797 22.5904C39.6362 23.4553 38.8096 24.0217 37.9447 23.8609C37.0798 23.7002 36.5135 22.8736 36.6742 22.0087Z" fill="url(#paint44_linear_411_1085)"/>
<path d="M85.85 11.6537C86.0107 10.7888 86.8373 10.2224 87.7022 10.3832C88.5671 10.5439 89.1335 11.3705 88.9727 12.2354C88.812 13.1003 87.9854 13.6667 87.1205 13.5059C86.2556 13.3452 85.6892 12.5186 85.85 11.6537Z" fill="url(#paint45_linear_411_1085)"/>
<path d="M73.5511 11.6537C73.7119 10.7888 74.5385 10.2224 75.4034 10.3832C76.2683 10.5439 76.8346 11.3705 76.6739 12.2354C76.5132 13.1003 75.6866 13.6667 74.8217 13.5059C73.9644 13.3452 73.398 12.5186 73.5511 11.6537Z" fill="url(#paint46_linear_411_1085)"/>
<path d="M61.2582 11.6537C61.4189 10.7888 62.2455 10.2224 63.1104 10.3832C63.9753 10.5439 64.5417 11.3705 64.3809 12.2354C64.2202 13.1003 63.3936 13.6667 62.5287 13.5059C61.6715 13.3452 61.0974 12.5186 61.2582 11.6537Z" fill="url(#paint47_linear_411_1085)"/>
<path d="M48.9672 11.6537C49.1279 10.7888 49.9545 10.2224 50.8194 10.3832C51.6843 10.5439 52.2507 11.3705 52.0899 12.2354C51.9292 13.1003 51.1026 13.6667 50.2377 13.5059C49.3805 13.3452 48.8064 12.5186 48.9672 11.6537Z" fill="url(#paint48_linear_411_1085)"/>
<path d="M36.6742 11.6537C36.8349 10.7888 37.6615 10.2224 38.5264 10.3832C39.3913 10.5439 39.9577 11.3705 39.797 12.2354C39.6362 13.1003 38.8096 13.6667 37.9447 13.5059C37.0798 13.3452 36.5135 12.5186 36.6742 11.6537Z" fill="url(#paint49_linear_411_1085)"/>
<path d="M85.85 1.29775C86.0107 0.432863 86.8373 -0.133527 87.7022 0.0272046C88.5671 0.187936 89.1335 1.01456 88.9727 1.87945C88.812 2.74434 87.9854 3.31072 87.1205 3.14999C86.2556 2.98926 85.6892 2.16264 85.85 1.29775Z" fill="url(#paint50_linear_411_1085)"/>
<path d="M73.5511 1.29775C73.7119 0.432863 74.5385 -0.133527 75.4034 0.0272046C76.2683 0.187936 76.8346 1.01456 76.6739 1.87945C76.5132 2.74434 75.6866 3.31072 74.8217 3.14999C73.9644 2.98926 73.398 2.16264 73.5511 1.29775Z" fill="url(#paint51_linear_411_1085)"/>
<path d="M61.2582 1.29775C61.4189 0.432863 62.2455 -0.133527 63.1104 0.0272046C63.9753 0.187936 64.5417 1.01456 64.3809 1.87945C64.2202 2.74434 63.3936 3.31072 62.5287 3.14999C61.6715 2.98926 61.0974 2.16264 61.2582 1.29775Z" fill="url(#paint52_linear_411_1085)"/>
<path d="M48.9672 1.29775C49.1279 0.432863 49.9545 -0.133527 50.8194 0.0272046C51.6843 0.187936 52.2507 1.01456 52.0899 1.87945C51.9292 2.74434 51.1026 3.31072 50.2377 3.14999C49.3805 2.98926 48.8064 2.16264 48.9672 1.29775Z" fill="url(#paint53_linear_411_1085)"/>
<path d="M36.6742 1.29775C36.8349 0.432863 37.6615 -0.133527 38.5264 0.0272046C39.3913 0.187936 39.9577 1.01456 39.797 1.87945C39.6362 2.74434 38.8096 3.31072 37.9447 3.14999C37.0798 2.98926 36.5135 2.16264 36.6742 1.29775Z" fill="url(#paint54_linear_411_1085)"/>
<path d="M24.6195 104.854C24.7802 103.989 25.6069 103.423 26.4718 103.584C27.3366 103.745 27.903 104.571 27.7423 105.436C27.5815 106.301 26.7549 106.867 25.89 106.707C25.0252 106.546 24.4588 105.719 24.6195 104.854Z" fill="url(#paint55_linear_411_1085)"/>
<path d="M12.3207 104.854C12.4814 103.989 13.308 103.423 14.1729 103.584C15.0378 103.745 15.6042 104.571 15.4434 105.436C15.2827 106.301 14.4561 106.867 13.5912 106.707C12.734 106.546 12.1676 105.719 12.3207 104.854Z" fill="url(#paint56_linear_411_1085)"/>
<path d="M0.0276815 104.854C0.188413 103.989 1.01504 103.423 1.87993 103.584C2.74482 103.745 3.31121 104.571 3.15048 105.436C2.98975 106.301 2.16312 106.867 1.29823 106.707C0.440994 106.546 -0.13305 105.719 0.0276815 104.854Z" fill="url(#paint57_linear_411_1085)"/>
<path d="M24.6195 94.4984C24.7802 93.6335 25.6069 93.0672 26.4718 93.2279C27.3366 93.3886 27.903 94.2152 27.7423 95.0801C27.5815 95.945 26.7549 96.5114 25.89 96.3507C25.0252 96.1899 24.4588 95.3633 24.6195 94.4984Z" fill="url(#paint58_linear_411_1085)"/>
<path d="M12.3207 94.4984C12.4814 93.6335 13.308 93.0672 14.1729 93.2279C15.0378 93.3886 15.6042 94.2152 15.4434 95.0801C15.2827 95.945 14.4561 96.5114 13.5912 96.3507C12.734 96.1899 12.1676 95.3633 12.3207 94.4984Z" fill="url(#paint59_linear_411_1085)"/>
<path d="M0.0276815 94.4984C0.188413 93.6335 1.01504 93.0672 1.87993 93.2279C2.74482 93.3886 3.31121 94.2152 3.15048 95.0801C2.98975 95.945 2.16312 96.5114 1.29823 96.3507C0.440994 96.1899 -0.13305 95.3633 0.0276815 94.4984Z" fill="url(#paint60_linear_411_1085)"/>
<path d="M24.6195 84.1435C24.7802 83.2786 25.6069 82.7122 26.4718 82.8729C27.3366 83.0336 27.903 83.8603 27.7423 84.7251C27.5815 85.59 26.7549 86.1564 25.89 85.9957C25.0252 85.835 24.4588 85.0083 24.6195 84.1435Z" fill="url(#paint61_linear_411_1085)"/>
<path d="M12.3207 84.1435C12.4814 83.2786 13.308 82.7122 14.1729 82.8729C15.0378 83.0336 15.6042 83.8603 15.4434 84.7251C15.2827 85.59 14.4561 86.1564 13.5912 85.9957C12.734 85.835 12.1676 85.0083 12.3207 84.1435Z" fill="url(#paint62_linear_411_1085)"/>
<path d="M0.0276815 84.1435C0.188413 83.2786 1.01504 82.7122 1.87993 82.8729C2.74482 83.0336 3.31121 83.8603 3.15048 84.7251C2.98975 85.59 2.16312 86.1564 1.29823 85.9957C0.440994 85.835 -0.13305 85.0083 0.0276815 84.1435Z" fill="url(#paint63_linear_411_1085)"/>
<path d="M24.6195 73.7875C24.7802 72.9226 25.6069 72.3562 26.4718 72.517C27.3366 72.6777 27.903 73.5043 27.7423 74.3692C27.5815 75.2341 26.7549 75.8005 25.89 75.6397C25.0252 75.479 24.4588 74.6524 24.6195 73.7875Z" fill="url(#paint64_linear_411_1085)"/>
<path d="M12.3207 73.7875C12.4814 72.9226 13.308 72.3562 14.1729 72.517C15.0378 72.6777 15.6042 73.5043 15.4434 74.3692C15.2827 75.2341 14.4561 75.8005 13.5912 75.6397C12.734 75.479 12.1676 74.6524 12.3207 73.7875Z" fill="url(#paint65_linear_411_1085)"/>
<path d="M0.0276815 73.7875C0.188413 72.9226 1.01504 72.3562 1.87993 72.517C2.74482 72.6777 3.31121 73.5043 3.15048 74.3692C2.98975 75.2341 2.16312 75.8005 1.29823 75.6397C0.440994 75.479 -0.13305 74.6524 0.0276815 73.7875Z" fill="url(#paint66_linear_411_1085)"/>
<path d="M24.6195 63.4315C24.7802 62.5667 25.6069 62.0003 26.4718 62.161C27.3366 62.3217 27.903 63.1483 27.7423 64.0132C27.5815 64.8781 26.7549 65.4445 25.89 65.2838C25.0252 65.123 24.4588 64.2964 24.6195 63.4315Z" fill="url(#paint67_linear_411_1085)"/>
<path d="M12.3207 63.4315C12.4814 62.5667 13.308 62.0003 14.1729 62.161C15.0378 62.3217 15.6042 63.1483 15.4434 64.0132C15.2827 64.8781 14.4561 65.4445 13.5912 65.2838C12.7263 65.123 12.1676 64.2964 12.3207 63.4315Z" fill="url(#paint68_linear_411_1085)"/>
<path d="M0.0276815 63.4315C0.188413 62.5667 1.01504 62.0003 1.87993 62.161C2.74482 62.3217 3.31121 63.1483 3.15048 64.0132C2.98975 64.8781 2.16312 65.4445 1.29823 65.2838C0.440994 65.123 -0.13305 64.2964 0.0276815 63.4315Z" fill="url(#paint69_linear_411_1085)"/>
<path d="M24.6195 53.0756C24.7802 52.2107 25.6069 51.6443 26.4718 51.805C27.3366 51.9658 27.903 52.7924 27.7423 53.6573C27.5815 54.5222 26.7549 55.0886 25.89 54.9278C25.0252 54.7671 24.4588 53.9405 24.6195 53.0756Z" fill="url(#paint70_linear_411_1085)"/>
<path d="M12.3207 53.0756C12.4814 52.2107 13.308 51.6443 14.1729 51.805C15.0378 51.9658 15.6042 52.7924 15.4434 53.6573C15.2827 54.5222 14.4561 55.0886 13.5912 54.9278C12.7263 54.7671 12.1676 53.9405 12.3207 53.0756Z" fill="url(#paint71_linear_411_1085)"/>
<path d="M0.0276815 53.0756C0.188413 52.2107 1.01504 51.6443 1.87993 51.805C2.74482 51.9658 3.31121 52.7924 3.15048 53.6573C2.98975 54.5222 2.16312 55.0886 1.29823 54.9278C0.440994 54.7671 -0.13305 53.9405 0.0276815 53.0756Z" fill="url(#paint72_linear_411_1085)"/>
<path d="M24.6195 42.7206C24.7802 41.8557 25.6069 41.2893 26.4718 41.4501C27.3366 41.6108 27.903 42.4374 27.7423 43.3023C27.5815 44.1672 26.7549 44.7336 25.89 44.5728C25.0252 44.4121 24.4588 43.5855 24.6195 42.7206Z" fill="url(#paint73_linear_411_1085)"/>
<path d="M12.3207 42.7206C12.4814 41.8557 13.308 41.2893 14.1729 41.4501C15.0378 41.6108 15.6042 42.4374 15.4434 43.3023C15.2827 44.1672 14.4561 44.7336 13.5912 44.5728C12.734 44.4121 12.1676 43.5855 12.3207 42.7206Z" fill="url(#paint74_linear_411_1085)"/>
<path d="M0.0276815 42.7206C0.188413 41.8557 1.01504 41.2893 1.87993 41.4501C2.74482 41.6108 3.31121 42.4374 3.15048 43.3023C2.98975 44.1672 2.16312 44.7336 1.29823 44.5728C0.440994 44.4121 -0.13305 43.5855 0.0276815 42.7206Z" fill="url(#paint75_linear_411_1085)"/>
<path d="M24.6195 32.3646C24.7802 31.4998 25.6069 30.9334 26.4718 31.0941C27.3366 31.2548 27.903 32.0815 27.7423 32.9463C27.5815 33.8112 26.7549 34.3776 25.89 34.2169C25.0252 34.0562 24.4588 33.2295 24.6195 32.3646Z" fill="url(#paint76_linear_411_1085)"/>
<path d="M12.3207 32.3646C12.4814 31.4998 13.308 30.9334 14.1729 31.0941C15.0378 31.2548 15.6042 32.0815 15.4434 32.9463C15.2827 33.8112 14.4561 34.3776 13.5912 34.2169C12.734 34.0562 12.1676 33.2295 12.3207 32.3646Z" fill="url(#paint77_linear_411_1085)"/>
<path d="M0.0276815 32.3646C0.188413 31.4998 1.01504 30.9334 1.87993 31.0941C2.74482 31.2548 3.31121 32.0815 3.15048 32.9463C2.98975 33.8112 2.16312 34.3776 1.29823 34.2169C0.440994 34.0562 -0.13305 33.2295 0.0276815 32.3646Z" fill="url(#paint78_linear_411_1085)"/>
<path d="M24.6195 22.0087C24.7802 21.1438 25.6069 20.5774 26.4718 20.7381C27.3366 20.8989 27.903 21.7255 27.7423 22.5904C27.5815 23.4553 26.7549 24.0217 25.89 23.8609C25.0252 23.7002 24.4588 22.8736 24.6195 22.0087Z" fill="url(#paint79_linear_411_1085)"/>
<path d="M12.3207 22.0087C12.4814 21.1438 13.308 20.5774 14.1729 20.7381C15.0378 20.8989 15.6042 21.7255 15.4434 22.5904C15.2827 23.4553 14.4561 24.0217 13.5912 23.8609C12.734 23.7002 12.1676 22.8736 12.3207 22.0087Z" fill="url(#paint80_linear_411_1085)"/>
<path d="M0.0276815 22.0087C0.188413 21.1438 1.01504 20.5774 1.87993 20.7381C2.74482 20.8989 3.31121 21.7255 3.15048 22.5904C2.98975 23.4553 2.16312 24.0217 1.29823 23.8609C0.440994 23.7002 -0.13305 22.8736 0.0276815 22.0087Z" fill="url(#paint81_linear_411_1085)"/>
<path d="M24.6195 11.6537C24.7802 10.7888 25.6069 10.2224 26.4718 10.3832C27.3366 10.5439 27.903 11.3705 27.7423 12.2354C27.5815 13.1003 26.7549 13.6667 25.89 13.5059C25.0252 13.3452 24.4588 12.5186 24.6195 11.6537Z" fill="url(#paint82_linear_411_1085)"/>
<path d="M12.3207 11.6537C12.4814 10.7888 13.308 10.2224 14.1729 10.3832C15.0378 10.5439 15.6042 11.3705 15.4434 12.2354C15.2827 13.1003 14.4561 13.6667 13.5912 13.5059C12.734 13.3452 12.1676 12.5186 12.3207 11.6537Z" fill="url(#paint83_linear_411_1085)"/>
<path d="M0.0276815 11.6537C0.188413 10.7888 1.01504 10.2224 1.87993 10.3832C2.74482 10.5439 3.31121 11.3705 3.15048 12.2354C2.98975 13.1003 2.16312 13.6667 1.29823 13.5059C0.440994 13.3452 -0.13305 12.5186 0.0276815 11.6537Z" fill="url(#paint84_linear_411_1085)"/>
<path d="M24.6195 1.29775C24.7802 0.432863 25.6069 -0.133527 26.4718 0.0272046C27.3366 0.187936 27.903 1.01456 27.7423 1.87945C27.5815 2.74434 26.7549 3.31072 25.89 3.14999C25.0252 2.98926 24.4588 2.16264 24.6195 1.29775Z" fill="url(#paint85_linear_411_1085)"/>
<path d="M12.3207 1.29775C12.4814 0.432863 13.308 -0.133527 14.1729 0.0272046C15.0378 0.187936 15.6042 1.01456 15.4434 1.87945C15.2827 2.74434 14.4561 3.31072 13.5912 3.14999C12.734 2.98926 12.1676 2.16264 12.3207 1.29775Z" fill="url(#paint86_linear_411_1085)"/>
<path d="M0.0276815 1.29775C0.188413 0.432863 1.01504 -0.133527 1.87993 0.0272046C2.74482 0.187936 3.31121 1.01456 3.15048 1.87945C2.98975 2.74434 2.16312 3.31072 1.29823 3.14999C0.440994 2.98926 -0.13305 2.16264 0.0276815 1.29775Z" fill="url(#paint87_linear_411_1085)"/>
</g>
<defs>
<linearGradient id="paint0_linear_411_1085" x1="87.4114" y1="103.557" x2="87.4114" y2="106.734" gradientUnits="userSpaceOnUse">
<stop stop-color="#004FE6"/>
<stop offset="1" stop-color="#002C80"/>
</linearGradient>
<linearGradient id="paint1_linear_411_1085" x1="75.1137" y1="103.557" x2="75.1137" y2="106.734" gradientUnits="userSpaceOnUse">
<stop stop-color="#004FE6"/>
<stop offset="1" stop-color="#002C80"/>
</linearGradient>
<linearGradient id="paint2_linear_411_1085" x1="62.8197" y1="103.557" x2="62.8197" y2="106.734" gradientUnits="userSpaceOnUse">
<stop stop-color="#004FE6"/>
<stop offset="1" stop-color="#002C80"/>
</linearGradient>
<linearGradient id="paint3_linear_411_1085" x1="50.5287" y1="103.557" x2="50.5287" y2="106.734" gradientUnits="userSpaceOnUse">
<stop stop-color="#004FE6"/>
<stop offset="1" stop-color="#002C80"/>
</linearGradient>
<linearGradient id="paint4_linear_411_1085" x1="38.2356" y1="103.557" x2="38.2356" y2="106.734" gradientUnits="userSpaceOnUse">
<stop stop-color="#004FE6"/>
<stop offset="1" stop-color="#002C80"/>
</linearGradient>
<linearGradient id="paint5_linear_411_1085" x1="87.4114" y1="93.2006" x2="87.4114" y2="96.3779" gradientUnits="userSpaceOnUse">
<stop stop-color="#004FE6"/>
<stop offset="1" stop-color="#002C80"/>
</linearGradient>
<linearGradient id="paint6_linear_411_1085" x1="75.1137" y1="93.2006" x2="75.1137" y2="96.3779" gradientUnits="userSpaceOnUse">
<stop stop-color="#004FE6"/>
<stop offset="1" stop-color="#002C80"/>
</linearGradient>
<linearGradient id="paint7_linear_411_1085" x1="62.8197" y1="93.2006" x2="62.8197" y2="96.3779" gradientUnits="userSpaceOnUse">
<stop stop-color="#004FE6"/>
<stop offset="1" stop-color="#002C80"/>
</linearGradient>
<linearGradient id="paint8_linear_411_1085" x1="50.5287" y1="93.2006" x2="50.5287" y2="96.3779" gradientUnits="userSpaceOnUse">
<stop stop-color="#004FE6"/>
<stop offset="1" stop-color="#002C80"/>
</linearGradient>
<linearGradient id="paint9_linear_411_1085" x1="38.2356" y1="93.2006" x2="38.2356" y2="96.3779" gradientUnits="userSpaceOnUse">
<stop stop-color="#004FE6"/>
<stop offset="1" stop-color="#002C80"/>
</linearGradient>
<linearGradient id="paint10_linear_411_1085" x1="87.4114" y1="82.8457" x2="87.4114" y2="86.0229" gradientUnits="userSpaceOnUse">
<stop stop-color="#004FE6"/>
<stop offset="1" stop-color="#002C80"/>
</linearGradient>
<linearGradient id="paint11_linear_411_1085" x1="75.1137" y1="82.8457" x2="75.1137" y2="86.0229" gradientUnits="userSpaceOnUse">
<stop stop-color="#004FE6"/>
<stop offset="1" stop-color="#002C80"/>
</linearGradient>
<linearGradient id="paint12_linear_411_1085" x1="62.8197" y1="82.8457" x2="62.8197" y2="86.0229" gradientUnits="userSpaceOnUse">
<stop stop-color="#004FE6"/>
<stop offset="1" stop-color="#002C80"/>
</linearGradient>
<linearGradient id="paint13_linear_411_1085" x1="50.5287" y1="82.8457" x2="50.5287" y2="86.0229" gradientUnits="userSpaceOnUse">
<stop stop-color="#004FE6"/>
<stop offset="1" stop-color="#002C80"/>
</linearGradient>
<linearGradient id="paint14_linear_411_1085" x1="38.2356" y1="82.8457" x2="38.2356" y2="86.0229" gradientUnits="userSpaceOnUse">
<stop stop-color="#004FE6"/>
<stop offset="1" stop-color="#002C80"/>
</linearGradient>
<linearGradient id="paint15_linear_411_1085" x1="87.4114" y1="72.4897" x2="87.4114" y2="75.667" gradientUnits="userSpaceOnUse">
<stop stop-color="#004FE6"/>
<stop offset="1" stop-color="#002C80"/>
</linearGradient>
<linearGradient id="paint16_linear_411_1085" x1="75.1137" y1="72.4897" x2="75.1137" y2="75.667" gradientUnits="userSpaceOnUse">
<stop stop-color="#004FE6"/>
<stop offset="1" stop-color="#002C80"/>
</linearGradient>
<linearGradient id="paint17_linear_411_1085" x1="62.8197" y1="72.4897" x2="62.8197" y2="75.667" gradientUnits="userSpaceOnUse">
<stop stop-color="#004FE6"/>
<stop offset="1" stop-color="#002C80"/>
</linearGradient>
<linearGradient id="paint18_linear_411_1085" x1="50.5287" y1="72.4897" x2="50.5287" y2="75.667" gradientUnits="userSpaceOnUse">
<stop stop-color="#004FE6"/>
<stop offset="1" stop-color="#002C80"/>
</linearGradient>
<linearGradient id="paint19_linear_411_1085" x1="38.2356" y1="72.4897" x2="38.2356" y2="75.667" gradientUnits="userSpaceOnUse">
<stop stop-color="#004FE6"/>
<stop offset="1" stop-color="#002C80"/>
</linearGradient>
<linearGradient id="paint20_linear_411_1085" x1="87.4114" y1="62.1337" x2="87.4114" y2="65.311" gradientUnits="userSpaceOnUse">
<stop stop-color="#004FE6"/>
<stop offset="1" stop-color="#002C80"/>
</linearGradient>
<linearGradient id="paint21_linear_411_1085" x1="75.1135" y1="62.1337" x2="75.1135" y2="65.311" gradientUnits="userSpaceOnUse">
<stop stop-color="#004FE6"/>
<stop offset="1" stop-color="#002C80"/>
</linearGradient>
<linearGradient id="paint22_linear_411_1085" x1="62.8197" y1="62.1337" x2="62.8197" y2="65.311" gradientUnits="userSpaceOnUse">
<stop stop-color="#004FE6"/>
<stop offset="1" stop-color="#002C80"/>
</linearGradient>
<linearGradient id="paint23_linear_411_1085" x1="50.5287" y1="62.1337" x2="50.5287" y2="65.311" gradientUnits="userSpaceOnUse">
<stop stop-color="#004FE6"/>
<stop offset="1" stop-color="#002C80"/>
</linearGradient>
<linearGradient id="paint24_linear_411_1085" x1="38.2356" y1="62.1337" x2="38.2356" y2="65.311" gradientUnits="userSpaceOnUse">
<stop stop-color="#004FE6"/>
<stop offset="1" stop-color="#002C80"/>
</linearGradient>
<linearGradient id="paint25_linear_411_1085" x1="87.4114" y1="51.7778" x2="87.4114" y2="54.9551" gradientUnits="userSpaceOnUse">
<stop stop-color="#004FE6"/>
<stop offset="1" stop-color="#002C80"/>
</linearGradient>
<linearGradient id="paint26_linear_411_1085" x1="75.1135" y1="51.7778" x2="75.1135" y2="54.9551" gradientUnits="userSpaceOnUse">
<stop stop-color="#004FE6"/>
<stop offset="1" stop-color="#002C80"/>
</linearGradient>
<linearGradient id="paint27_linear_411_1085" x1="62.8197" y1="51.7778" x2="62.8197" y2="54.9551" gradientUnits="userSpaceOnUse">
<stop stop-color="#004FE6"/>
<stop offset="1" stop-color="#002C80"/>
</linearGradient>
<linearGradient id="paint28_linear_411_1085" x1="50.5287" y1="51.7778" x2="50.5287" y2="54.9551" gradientUnits="userSpaceOnUse">
<stop stop-color="#004FE6"/>
<stop offset="1" stop-color="#002C80"/>
</linearGradient>
<linearGradient id="paint29_linear_411_1085" x1="38.2356" y1="51.7778" x2="38.2356" y2="54.9551" gradientUnits="userSpaceOnUse">
<stop stop-color="#004FE6"/>
<stop offset="1" stop-color="#002C80"/>
</linearGradient>
<linearGradient id="paint30_linear_411_1085" x1="87.4114" y1="41.4228" x2="87.4114" y2="44.6001" gradientUnits="userSpaceOnUse">
<stop stop-color="#004FE6"/>
<stop offset="1" stop-color="#002C80"/>
</linearGradient>
<linearGradient id="paint31_linear_411_1085" x1="75.1137" y1="41.4228" x2="75.1137" y2="44.6001" gradientUnits="userSpaceOnUse">
<stop stop-color="#004FE6"/>
<stop offset="1" stop-color="#002C80"/>
</linearGradient>
<linearGradient id="paint32_linear_411_1085" x1="62.8197" y1="41.4228" x2="62.8197" y2="44.6001" gradientUnits="userSpaceOnUse">
<stop stop-color="#004FE6"/>
<stop offset="1" stop-color="#002C80"/>
</linearGradient>
<linearGradient id="paint33_linear_411_1085" x1="50.5287" y1="41.4228" x2="50.5287" y2="44.6001" gradientUnits="userSpaceOnUse">
<stop stop-color="#004FE6"/>
<stop offset="1" stop-color="#002C80"/>
</linearGradient>
<linearGradient id="paint34_linear_411_1085" x1="38.2356" y1="41.4228" x2="38.2356" y2="44.6001" gradientUnits="userSpaceOnUse">
<stop stop-color="#004FE6"/>
<stop offset="1" stop-color="#002C80"/>
</linearGradient>
<linearGradient id="paint35_linear_411_1085" x1="87.4114" y1="31.0668" x2="87.4114" y2="34.2441" gradientUnits="userSpaceOnUse">
<stop stop-color="#004FE6"/>
<stop offset="1" stop-color="#002C80"/>
</linearGradient>
<linearGradient id="paint36_linear_411_1085" x1="75.1137" y1="31.0668" x2="75.1137" y2="34.2441" gradientUnits="userSpaceOnUse">
<stop stop-color="#004FE6"/>
<stop offset="1" stop-color="#002C80"/>
</linearGradient>
<linearGradient id="paint37_linear_411_1085" x1="62.8197" y1="31.0668" x2="62.8197" y2="34.2441" gradientUnits="userSpaceOnUse">
<stop stop-color="#004FE6"/>
<stop offset="1" stop-color="#002C80"/>
</linearGradient>
<linearGradient id="paint38_linear_411_1085" x1="50.5287" y1="31.0668" x2="50.5287" y2="34.2441" gradientUnits="userSpaceOnUse">
<stop stop-color="#004FE6"/>
<stop offset="1" stop-color="#002C80"/>
</linearGradient>
<linearGradient id="paint39_linear_411_1085" x1="38.2356" y1="31.0668" x2="38.2356" y2="34.2441" gradientUnits="userSpaceOnUse">
<stop stop-color="#004FE6"/>
<stop offset="1" stop-color="#002C80"/>
</linearGradient>
<linearGradient id="paint40_linear_411_1085" x1="87.4114" y1="20.7109" x2="87.4114" y2="23.8882" gradientUnits="userSpaceOnUse">
<stop stop-color="#004FE6"/>
<stop offset="1" stop-color="#002C80"/>
</linearGradient>
<linearGradient id="paint41_linear_411_1085" x1="75.1137" y1="20.7109" x2="75.1137" y2="23.8882" gradientUnits="userSpaceOnUse">
<stop stop-color="#004FE6"/>
<stop offset="1" stop-color="#002C80"/>
</linearGradient>
<linearGradient id="paint42_linear_411_1085" x1="62.8197" y1="20.7109" x2="62.8197" y2="23.8882" gradientUnits="userSpaceOnUse">
<stop stop-color="#004FE6"/>
<stop offset="1" stop-color="#002C80"/>
</linearGradient>
<linearGradient id="paint43_linear_411_1085" x1="50.5287" y1="20.7109" x2="50.5287" y2="23.8882" gradientUnits="userSpaceOnUse">
<stop stop-color="#004FE6"/>
<stop offset="1" stop-color="#002C80"/>
</linearGradient>
<linearGradient id="paint44_linear_411_1085" x1="38.2356" y1="20.7109" x2="38.2356" y2="23.8882" gradientUnits="userSpaceOnUse">
<stop stop-color="#004FE6"/>
<stop offset="1" stop-color="#002C80"/>
</linearGradient>
<linearGradient id="paint45_linear_411_1085" x1="87.4114" y1="10.3559" x2="87.4114" y2="13.5332" gradientUnits="userSpaceOnUse">
<stop stop-color="#004FE6"/>
<stop offset="1" stop-color="#002C80"/>
</linearGradient>
<linearGradient id="paint46_linear_411_1085" x1="75.1137" y1="10.3559" x2="75.1137" y2="13.5332" gradientUnits="userSpaceOnUse">
<stop stop-color="#004FE6"/>
<stop offset="1" stop-color="#002C80"/>
</linearGradient>
<linearGradient id="paint47_linear_411_1085" x1="62.8197" y1="10.3559" x2="62.8197" y2="13.5332" gradientUnits="userSpaceOnUse">
<stop stop-color="#004FE6"/>
<stop offset="1" stop-color="#002C80"/>
</linearGradient>
<linearGradient id="paint48_linear_411_1085" x1="50.5287" y1="10.3559" x2="50.5287" y2="13.5332" gradientUnits="userSpaceOnUse">
<stop stop-color="#004FE6"/>
<stop offset="1" stop-color="#002C80"/>
</linearGradient>
<linearGradient id="paint49_linear_411_1085" x1="38.2356" y1="10.3559" x2="38.2356" y2="13.5332" gradientUnits="userSpaceOnUse">
<stop stop-color="#004FE6"/>
<stop offset="1" stop-color="#002C80"/>
</linearGradient>
<linearGradient id="paint50_linear_411_1085" x1="87.4114" y1="-5.18757e-05" x2="87.4114" y2="3.17725" gradientUnits="userSpaceOnUse">
<stop stop-color="#004FE6"/>
<stop offset="1" stop-color="#002C80"/>
</linearGradient>
<linearGradient id="paint51_linear_411_1085" x1="75.1137" y1="-5.18756e-05" x2="75.1137" y2="3.17725" gradientUnits="userSpaceOnUse">
<stop stop-color="#004FE6"/>
<stop offset="1" stop-color="#002C80"/>
</linearGradient>
<linearGradient id="paint52_linear_411_1085" x1="62.8197" y1="-5.18757e-05" x2="62.8197" y2="3.17725" gradientUnits="userSpaceOnUse">
<stop stop-color="#004FE6"/>
<stop offset="1" stop-color="#002C80"/>
</linearGradient>
<linearGradient id="paint53_linear_411_1085" x1="50.5287" y1="-5.18757e-05" x2="50.5287" y2="3.17725" gradientUnits="userSpaceOnUse">
<stop stop-color="#004FE6"/>
<stop offset="1" stop-color="#002C80"/>
</linearGradient>
<linearGradient id="paint54_linear_411_1085" x1="38.2356" y1="-5.18757e-05" x2="38.2356" y2="3.17725" gradientUnits="userSpaceOnUse">
<stop stop-color="#004FE6"/>
<stop offset="1" stop-color="#002C80"/>
</linearGradient>
<linearGradient id="paint55_linear_411_1085" x1="26.1809" y1="103.557" x2="26.1809" y2="106.734" gradientUnits="userSpaceOnUse">
<stop stop-color="#004FE6"/>
<stop offset="1" stop-color="#002C80"/>
</linearGradient>
<linearGradient id="paint56_linear_411_1085" x1="13.8832" y1="103.557" x2="13.8832" y2="106.734" gradientUnits="userSpaceOnUse">
<stop stop-color="#004FE6"/>
<stop offset="1" stop-color="#002C80"/>
</linearGradient>
<linearGradient id="paint57_linear_411_1085" x1="1.58921" y1="103.557" x2="1.58921" y2="106.734" gradientUnits="userSpaceOnUse">
<stop stop-color="#004FE6"/>
<stop offset="1" stop-color="#002C80"/>
</linearGradient>
<linearGradient id="paint58_linear_411_1085" x1="26.1809" y1="93.2006" x2="26.1809" y2="96.3779" gradientUnits="userSpaceOnUse">
<stop stop-color="#004FE6"/>
<stop offset="1" stop-color="#002C80"/>
</linearGradient>
<linearGradient id="paint59_linear_411_1085" x1="13.8832" y1="93.2006" x2="13.8832" y2="96.3779" gradientUnits="userSpaceOnUse">
<stop stop-color="#004FE6"/>
<stop offset="1" stop-color="#002C80"/>
</linearGradient>
<linearGradient id="paint60_linear_411_1085" x1="1.58921" y1="93.2006" x2="1.58921" y2="96.3779" gradientUnits="userSpaceOnUse">
<stop stop-color="#004FE6"/>
<stop offset="1" stop-color="#002C80"/>
</linearGradient>
<linearGradient id="paint61_linear_411_1085" x1="26.1809" y1="82.8457" x2="26.1809" y2="86.0229" gradientUnits="userSpaceOnUse">
<stop stop-color="#004FE6"/>
<stop offset="1" stop-color="#002C80"/>
</linearGradient>
<linearGradient id="paint62_linear_411_1085" x1="13.8832" y1="82.8457" x2="13.8832" y2="86.0229" gradientUnits="userSpaceOnUse">
<stop stop-color="#004FE6"/>
<stop offset="1" stop-color="#002C80"/>
</linearGradient>
<linearGradient id="paint63_linear_411_1085" x1="1.58921" y1="82.8457" x2="1.58921" y2="86.0229" gradientUnits="userSpaceOnUse">
<stop stop-color="#004FE6"/>
<stop offset="1" stop-color="#002C80"/>
</linearGradient>
<linearGradient id="paint64_linear_411_1085" x1="26.1809" y1="72.4897" x2="26.1809" y2="75.667" gradientUnits="userSpaceOnUse">
<stop stop-color="#004FE6"/>
<stop offset="1" stop-color="#002C80"/>
</linearGradient>
<linearGradient id="paint65_linear_411_1085" x1="13.8832" y1="72.4897" x2="13.8832" y2="75.667" gradientUnits="userSpaceOnUse">
<stop stop-color="#004FE6"/>
<stop offset="1" stop-color="#002C80"/>
</linearGradient>
<linearGradient id="paint66_linear_411_1085" x1="1.58921" y1="72.4897" x2="1.58921" y2="75.667" gradientUnits="userSpaceOnUse">
<stop stop-color="#004FE6"/>
<stop offset="1" stop-color="#002C80"/>
</linearGradient>
<linearGradient id="paint67_linear_411_1085" x1="26.1809" y1="62.1337" x2="26.1809" y2="65.311" gradientUnits="userSpaceOnUse">
<stop stop-color="#004FE6"/>
<stop offset="1" stop-color="#002C80"/>
</linearGradient>
<linearGradient id="paint68_linear_411_1085" x1="13.8831" y1="62.1337" x2="13.8831" y2="65.311" gradientUnits="userSpaceOnUse">
<stop stop-color="#004FE6"/>
<stop offset="1" stop-color="#002C80"/>
</linearGradient>
<linearGradient id="paint69_linear_411_1085" x1="1.58921" y1="62.1337" x2="1.58921" y2="65.311" gradientUnits="userSpaceOnUse">
<stop stop-color="#004FE6"/>
<stop offset="1" stop-color="#002C80"/>
</linearGradient>
<linearGradient id="paint70_linear_411_1085" x1="26.1809" y1="51.7778" x2="26.1809" y2="54.9551" gradientUnits="userSpaceOnUse">
<stop stop-color="#004FE6"/>
<stop offset="1" stop-color="#002C80"/>
</linearGradient>
<linearGradient id="paint71_linear_411_1085" x1="13.8831" y1="51.7778" x2="13.8831" y2="54.9551" gradientUnits="userSpaceOnUse">
<stop stop-color="#004FE6"/>
<stop offset="1" stop-color="#002C80"/>
</linearGradient>
<linearGradient id="paint72_linear_411_1085" x1="1.58921" y1="51.7778" x2="1.58921" y2="54.9551" gradientUnits="userSpaceOnUse">
<stop stop-color="#004FE6"/>
<stop offset="1" stop-color="#002C80"/>
</linearGradient>
<linearGradient id="paint73_linear_411_1085" x1="26.1809" y1="41.4228" x2="26.1809" y2="44.6001" gradientUnits="userSpaceOnUse">
<stop stop-color="#004FE6"/>
<stop offset="1" stop-color="#002C80"/>
</linearGradient>
<linearGradient id="paint74_linear_411_1085" x1="13.8832" y1="41.4228" x2="13.8832" y2="44.6001" gradientUnits="userSpaceOnUse">
<stop stop-color="#004FE6"/>
<stop offset="1" stop-color="#002C80"/>
</linearGradient>
<linearGradient id="paint75_linear_411_1085" x1="1.58921" y1="41.4228" x2="1.58921" y2="44.6001" gradientUnits="userSpaceOnUse">
<stop stop-color="#004FE6"/>
<stop offset="1" stop-color="#002C80"/>
</linearGradient>
<linearGradient id="paint76_linear_411_1085" x1="26.1809" y1="31.0668" x2="26.1809" y2="34.2441" gradientUnits="userSpaceOnUse">
<stop stop-color="#004FE6"/>
<stop offset="1" stop-color="#002C80"/>
</linearGradient>
<linearGradient id="paint77_linear_411_1085" x1="13.8832" y1="31.0668" x2="13.8832" y2="34.2441" gradientUnits="userSpaceOnUse">
<stop stop-color="#004FE6"/>
<stop offset="1" stop-color="#002C80"/>
</linearGradient>
<linearGradient id="paint78_linear_411_1085" x1="1.58921" y1="31.0668" x2="1.58921" y2="34.2441" gradientUnits="userSpaceOnUse">
<stop stop-color="#004FE6"/>
<stop offset="1" stop-color="#002C80"/>
</linearGradient>
<linearGradient id="paint79_linear_411_1085" x1="26.1809" y1="20.7109" x2="26.1809" y2="23.8882" gradientUnits="userSpaceOnUse">
<stop stop-color="#004FE6"/>
<stop offset="1" stop-color="#002C80"/>
</linearGradient>
<linearGradient id="paint80_linear_411_1085" x1="13.8832" y1="20.7109" x2="13.8832" y2="23.8882" gradientUnits="userSpaceOnUse">
<stop stop-color="#004FE6"/>
<stop offset="1" stop-color="#002C80"/>
</linearGradient>
<linearGradient id="paint81_linear_411_1085" x1="1.58921" y1="20.7109" x2="1.58921" y2="23.8882" gradientUnits="userSpaceOnUse">
<stop stop-color="#004FE6"/>
<stop offset="1" stop-color="#002C80"/>
</linearGradient>
<linearGradient id="paint82_linear_411_1085" x1="26.1809" y1="10.3559" x2="26.1809" y2="13.5332" gradientUnits="userSpaceOnUse">
<stop stop-color="#004FE6"/>
<stop offset="1" stop-color="#002C80"/>
</linearGradient>
<linearGradient id="paint83_linear_411_1085" x1="13.8832" y1="10.3559" x2="13.8832" y2="13.5332" gradientUnits="userSpaceOnUse">
<stop stop-color="#004FE6"/>
<stop offset="1" stop-color="#002C80"/>
</linearGradient>
<linearGradient id="paint84_linear_411_1085" x1="1.58921" y1="10.3559" x2="1.58921" y2="13.5332" gradientUnits="userSpaceOnUse">
<stop stop-color="#004FE6"/>
<stop offset="1" stop-color="#002C80"/>
</linearGradient>
<linearGradient id="paint85_linear_411_1085" x1="26.1809" y1="-5.18757e-05" x2="26.1809" y2="3.17725" gradientUnits="userSpaceOnUse">
<stop stop-color="#004FE6"/>
<stop offset="1" stop-color="#002C80"/>
</linearGradient>
<linearGradient id="paint86_linear_411_1085" x1="13.8832" y1="-5.18756e-05" x2="13.8832" y2="3.17725" gradientUnits="userSpaceOnUse">
<stop stop-color="#004FE6"/>
<stop offset="1" stop-color="#002C80"/>
</linearGradient>
<linearGradient id="paint87_linear_411_1085" x1="1.58921" y1="-5.18757e-05" x2="1.58921" y2="3.17725" gradientUnits="userSpaceOnUse">
<stop stop-color="#004FE6"/>
<stop offset="1" stop-color="#002C80"/>
</linearGradient>
</defs>
</svg>
