<svg width="278" height="278" viewBox="0 0 278 278" fill="none" xmlns="http://www.w3.org/2000/svg">
<g opacity="0.6" filter="url(#filter0_d_411_1184)">
<rect x="67" y="61.1628" width="112.677" height="112.677" rx="45" transform="rotate(-15 67 61.1628)" fill="url(#paint0_linear_411_1184)" shape-rendering="crispEdges"/>
</g>
<g opacity="0.6" filter="url(#filter1_d_411_1184)">
<rect x="76" y="66.0001" width="97.5428" height="97.5428" rx="45" transform="rotate(-15 76 66.0001)" fill="white"/>
</g>
<rect x="93" y="76.1172" width="70" height="70" rx="35" transform="rotate(-15 93 76.1172)" fill="url(#paint1_radial_411_1184)"/>
<path d="M128.131 102.682C127.031 98.577 129.466 94.357 133.571 93.2571C137.676 92.1572 141.896 94.5939 142.996 98.6988C144.096 102.804 141.66 107.024 137.555 108.124C133.45 109.224 129.231 106.787 128.131 102.682ZM124.113 103.759C125.807 110.083 132.307 113.835 138.631 112.141C144.955 110.446 148.707 103.946 147.013 97.6226C145.318 91.2986 138.819 87.546 132.495 89.2404C126.171 90.9349 122.418 97.4343 124.113 103.759M141.601 86.3139C141.742 86.8432 142.038 87.3186 142.45 87.68C142.861 88.0414 143.371 88.2726 143.914 88.3444C144.458 88.4161 145.01 88.3251 145.501 88.083C145.993 87.8409 146.401 87.4584 146.676 86.984C146.95 86.5096 147.077 85.9646 147.041 85.4179C147.006 84.8711 146.809 84.3472 146.475 83.9124C146.142 83.4776 145.687 83.1514 145.169 82.9751C144.65 82.7987 144.09 82.7802 143.561 82.9218L143.56 82.9221C142.851 83.1125 142.246 83.5767 141.879 84.2126C141.511 84.8486 141.411 85.6043 141.601 86.3139ZM131.418 121.255C129.217 121.739 127.938 121.693 127.071 121.598C125.921 121.472 125.049 121.188 124.059 120.617C123.069 120.047 122.387 119.434 121.705 118.501C121.188 117.798 120.509 116.713 119.828 114.566C119.09 112.244 118.879 111.544 117.284 105.589C115.688 99.634 115.523 98.9237 114.999 96.5428C114.515 94.3422 114.564 93.0647 114.656 92.1962C114.783 91.0466 115.066 90.1744 115.637 89.1844C116.208 88.1944 116.82 87.5122 117.755 86.8292C118.458 86.3128 119.543 85.6339 121.69 84.9526C124.012 84.2146 124.712 84.0039 130.664 82.409C136.616 80.8141 137.329 80.6477 139.71 80.1244C141.911 79.6409 143.189 79.6896 144.057 79.7819C145.206 79.9065 146.079 80.192 147.069 80.7626C148.059 81.3333 148.74 81.9481 149.424 82.8806C149.94 83.5835 150.619 84.6685 151.301 86.816C152.039 89.1395 152.249 89.8378 153.845 95.7927C155.441 101.748 155.608 102.457 156.13 104.839C156.613 107.039 156.566 108.319 156.472 109.185C156.346 110.335 156.062 111.207 155.491 112.195C154.92 113.184 154.306 113.866 153.373 114.551C152.67 115.067 151.585 115.746 149.438 116.427C147.116 117.165 146.416 117.376 140.461 118.972C134.506 120.567 133.796 120.734 131.418 121.256M120.431 80.9902C118.086 81.7344 116.565 82.5454 115.296 83.4762C113.982 84.4383 112.944 85.535 112.035 87.1067C111.126 88.6783 110.697 90.1255 110.521 91.746C110.35 93.3112 110.408 95.0332 110.936 97.436C111.463 99.8431 111.641 100.61 113.264 106.666C114.887 112.721 115.115 113.475 115.862 115.823C116.607 118.168 117.417 119.688 118.348 120.958C119.311 122.271 120.406 123.313 121.979 124.219C123.552 125.125 124.997 125.555 126.618 125.732C128.185 125.903 129.905 125.846 132.308 125.318C134.716 124.788 135.482 124.612 141.538 122.989C147.593 121.367 148.347 121.138 150.695 120.391C153.04 119.647 154.56 118.836 155.83 117.905C157.143 116.941 158.182 115.846 159.091 114.275C160 112.703 160.426 111.254 160.604 109.635C160.776 108.07 160.72 106.348 160.19 103.945C159.66 101.537 159.482 100.772 157.86 94.7161C156.237 88.6605 156.008 87.9071 155.263 85.5585C154.519 83.2135 153.708 81.6924 152.777 80.4235C151.813 79.1103 150.718 78.0716 149.147 77.1626C147.575 76.2535 146.126 75.8253 144.509 75.6485C142.942 75.4775 141.22 75.5338 138.819 76.063C136.412 76.5916 135.645 76.7687 129.591 78.3911C123.536 80.0135 122.781 80.2427 120.432 80.99" fill="white"/>
<defs>
<filter id="filter0_d_411_1184" x="0.102539" y="0.102341" width="277.795" height="277.795" filterUnits="userSpaceOnUse" color-interpolation-filters="sRGB">
<feFlood flood-opacity="0" result="BackgroundImageFix"/>
<feColorMatrix in="SourceAlpha" type="matrix" values="0 0 0 0 0 0 0 0 0 0 0 0 0 0 0 0 0 0 127 0" result="hardAlpha"/>
<feOffset dx="3" dy="38"/>
<feGaussianBlur stdDeviation="40"/>
<feComposite in2="hardAlpha" operator="out"/>
<feColorMatrix type="matrix" values="0 0 0 0 0 0 0 0 0 0 0 0 0 0 0 0 0 0 0.05 0"/>
<feBlend mode="normal" in2="BackgroundImageFix" result="effect1_dropShadow_411_1184"/>
<feBlend mode="normal" in="SourceGraphic" in2="effect1_dropShadow_411_1184" result="shape"/>
</filter>
<filter id="filter1_d_411_1184" x="9.10254" y="8.85651" width="259.26" height="259.26" filterUnits="userSpaceOnUse" color-interpolation-filters="sRGB">
<feFlood flood-opacity="0" result="BackgroundImageFix"/>
<feColorMatrix in="SourceAlpha" type="matrix" values="0 0 0 0 0 0 0 0 0 0 0 0 0 0 0 0 0 0 127 0" result="hardAlpha"/>
<feOffset dx="3" dy="38"/>
<feGaussianBlur stdDeviation="40"/>
<feComposite in2="hardAlpha" operator="out"/>
<feColorMatrix type="matrix" values="0 0 0 0 0 0 0 0 0 0 0 0 0 0 0 0 0 0 0.05 0"/>
<feBlend mode="normal" in2="BackgroundImageFix" result="effect1_dropShadow_411_1184"/>
<feBlend mode="normal" in="SourceGraphic" in2="effect1_dropShadow_411_1184" result="shape"/>
</filter>
<linearGradient id="paint0_linear_411_1184" x1="123.338" y1="61.1628" x2="123.338" y2="173.839" gradientUnits="userSpaceOnUse">
<stop stop-color="#F5F7FF"/>
<stop offset="1" stop-color="#FCFCFF" stop-opacity="0"/>
</linearGradient>
<radialGradient id="paint1_radial_411_1184" cx="0" cy="0" r="1" gradientUnits="userSpaceOnUse" gradientTransform="translate(97.5303 144.584) scale(88.874)">
<stop offset="0.09" stop-color="#FA8F21"/>
<stop offset="0.78" stop-color="#D82D7E"/>
</radialGradient>
</defs>
</svg>
