<svg width="51" height="51" viewBox="0 0 51 51" fill="none" xmlns="http://www.w3.org/2000/svg">
<path fill-rule="evenodd" clip-rule="evenodd" d="M25.5 4.65625C13.9883 4.65625 4.65625 13.9883 4.65625 25.5C4.65625 37.0118 13.9883 46.3438 25.5 46.3438C37.0118 46.3438 46.3438 37.0118 46.3438 25.5C46.3438 13.9883 37.0118 4.65625 25.5 4.65625ZM0.34375 25.5C0.34375 11.6066 11.6066 0.34375 25.5 0.34375C39.3934 0.34375 50.6562 11.6066 50.6562 25.5C50.6562 39.3934 39.3934 50.6562 25.5 50.6562C11.6066 50.6562 0.34375 39.3934 0.34375 25.5Z" fill="#6C4AE7"/>
<path fill-rule="evenodd" clip-rule="evenodd" d="M22.1929 17.7625C19.5088 19.9706 17.7157 23.0765 17.1454 26.5049L15.8864 34.0742C15.2325 38.0049 19.8032 40.6439 22.8803 38.1121L28.806 33.237C31.4901 31.029 33.2832 27.9231 33.8533 24.4947L35.1126 16.9253C35.7663 12.9946 31.1959 10.3558 28.1185 12.8874L22.1929 17.7625ZM25.4997 21.1873C23.1181 21.1873 21.1872 23.1182 21.1872 25.4998C21.1872 27.8815 23.1181 29.8123 25.4997 29.8123C27.8814 29.8123 29.8122 27.8815 29.8122 25.4998C29.8122 23.1182 27.8814 21.1873 25.4997 21.1873Z" fill="#6C4AE7"/>
</svg>
