<svg width="51" height="51" viewBox="0 0 51 51" fill="none" xmlns="http://www.w3.org/2000/svg">
<path d="M19 16V34M19 16L23 20M19 16L15 20" stroke="#29E59A" stroke-width="4" stroke-linecap="round" stroke-linejoin="round"/>
<path d="M31 34V16M31 34L35 30M31 34L27 30" stroke="#29E59A" stroke-width="4" stroke-linecap="round" stroke-linejoin="round"/>
<path fill-rule="evenodd" clip-rule="evenodd" d="M25.1562 4.3125C13.6446 4.3125 4.3125 13.6446 4.3125 25.1562C4.3125 36.668 13.6446 46 25.1562 46C36.668 46 46 36.668 46 25.1562C46 13.6446 36.668 4.3125 25.1562 4.3125ZM0 25.1562C0 11.2628 11.2628 0 25.1562 0C39.0497 0 50.3125 11.2628 50.3125 25.1562C50.3125 39.0497 39.0497 50.3125 25.1562 50.3125C11.2628 50.3125 0 39.0497 0 25.1562Z" fill="#29E59A"/>
</svg>
