<svg width="120" height="22" viewBox="0 0 120 22" fill="none" xmlns="http://www.w3.org/2000/svg">
<path d="M10.724 22C8.56723 22 6.68005 21.5657 5.06246 20.697C3.46484 19.8081 2.2167 18.5657 1.31804 16.9697C0.439345 15.3737 0 13.5152 0 11.3939C0 9.21212 0.459316 7.28283 1.37795 5.60606C2.31655 3.92929 3.59464 2.61616 5.21223 1.66667C6.84979 0.69697 8.727 0.212122 10.8438 0.212122C13.2003 0.212122 15.0476 0.676769 16.3856 1.60606L15.5768 6.42424C14.9977 6.14141 14.3886 5.93939 13.7495 5.81818C13.1304 5.67677 12.5413 5.60606 11.9821 5.60606C10.3446 5.60606 9.0565 6.10101 8.1179 7.09091C7.1793 8.08081 6.71 9.45455 6.71 11.2121C6.71 12.8687 7.15933 14.1717 8.05799 15.1212C8.97662 16.0505 10.2447 16.5152 11.8623 16.5152C12.5014 16.5152 13.0805 16.4545 13.5997 16.3333C14.1389 16.2121 14.7979 15.9899 15.5768 15.6667L16.4155 20.4545C14.6781 21.4848 12.781 22 10.724 22Z" fill="white"/>
<path d="M18.4172 21.5152V6.33333H24.6479V10.1212C25.0473 8.74747 25.6664 7.73737 26.5051 7.09091C27.3638 6.44444 28.3823 6.12121 29.5606 6.12121L30.3094 11.4848C29.8302 11.4242 29.3609 11.3939 28.9015 11.3939C26.1257 11.3939 24.7377 12.5455 24.7377 14.8485V21.5152H18.4172Z" fill="white"/>
<path d="M37.9965 21.7576C36.6186 21.7576 35.3704 21.4242 34.2521 20.7576C33.1338 20.0707 32.2451 19.1313 31.5861 17.9394C30.947 16.7475 30.6275 15.3838 30.6275 13.8485C30.6275 12.3131 30.947 10.9697 31.5861 9.81818C32.2451 8.66667 33.1338 7.76768 34.2521 7.12121C35.3704 6.45455 36.6186 6.12121 37.9965 6.12121C38.975 6.12121 39.9236 6.39394 40.8423 6.93939C41.7609 7.48485 42.4698 8.38384 42.9691 9.63636V6.33333H49.1998V21.5152H42.9092V18.697C42.4299 19.6869 41.7908 20.4444 40.992 20.9697C40.1932 21.4949 39.1947 21.7576 37.9965 21.7576ZM39.9436 16.9697C40.7624 16.9697 41.4613 16.6768 42.0405 16.0909C42.6196 15.4848 42.9092 14.7475 42.9092 13.8788C42.9092 13.0101 42.6196 12.303 42.0405 11.7576C41.4613 11.1919 40.7624 10.9091 39.9436 10.9091C39.0849 10.9091 38.366 11.202 37.7868 11.7879C37.2077 12.3737 36.9181 13.0909 36.9181 13.9394C36.9181 14.7879 37.2077 15.505 37.7868 16.0909C38.366 16.6768 39.0849 16.9697 39.9436 16.9697Z" fill="white"/>
<path d="M54.9906 21.5152L51.0964 6.33333H57.5068L59.5138 15.8788L61.8803 6.33333H67.0326L69.429 16.1212L71.436 6.33333H76.5584L72.9338 21.5152H65.7745L63.7974 13.7879L61.9102 21.5152H54.9906Z" fill="white"/>
<path d="M84.1998 21.7576C82.782 21.7576 81.6237 21.5152 80.725 21.0303C79.8463 20.5455 79.2073 19.8889 78.8079 19.0606C78.4085 18.2323 78.2088 17.303 78.2088 16.2727V0.939394L84.5293 0V15.3939C84.5293 15.8586 84.6791 16.2222 84.9787 16.4848C85.2782 16.7273 85.6676 16.8485 86.1469 16.8485C86.6262 16.8485 87.1055 16.7273 87.5848 16.4848L88.0341 20.697C87.5548 21.0404 86.9457 21.303 86.2068 21.4848C85.4679 21.6667 84.7989 21.7576 84.1998 21.7576Z" fill="white"/>
<path d="M97.3238 21.7576C94.7876 21.7576 92.8005 21.1111 91.3627 19.8182C89.9448 18.5051 89.2358 16.697 89.2358 14.3939V6.33333H95.4067V14.6667C95.4067 15.4747 95.5764 16.0707 95.9159 16.4545C96.2754 16.8384 96.7546 17.0303 97.3537 17.0303C97.9329 17.0303 98.3822 16.8384 98.7017 16.4545C99.0412 16.0707 99.211 15.4747 99.211 14.6667V6.33333H105.262V14.3939C105.262 16.7172 104.563 18.5253 103.165 19.8182C101.787 21.1111 99.84 21.7576 97.3238 21.7576Z" fill="white"/>
<path d="M108.108 21.5152V6.33333H114.338V10.1212C114.738 8.74747 115.357 7.73737 116.196 7.09091C117.054 6.44444 118.073 6.12121 119.251 6.12121L120 11.4848C119.521 11.4242 119.051 11.3939 118.592 11.3939C115.816 11.3939 114.428 12.5455 114.428 14.8485V21.5152H108.108Z" fill="white"/>
</svg>
