<svg width="298" height="260" viewBox="0 0 298 260" fill="none" xmlns="http://www.w3.org/2000/svg">
<path opacity="0.2" fill-rule="evenodd" clip-rule="evenodd" d="M298 260L0 260L2.27299e-05 -2.6052e-05L298 0L298 260ZM297.534 259.536L261.216 259.536L261.216 223.321L297.534 223.321L297.534 259.536ZM260.284 259.536L223.966 259.536L223.966 223.321L260.284 223.321L260.284 259.536ZM186.716 259.536L223.034 259.536L223.034 223.321L186.716 223.321L186.716 259.536ZM185.784 259.536L149.466 259.536L149.466 223.321L185.784 223.321L185.784 259.536ZM112.216 259.536L148.534 259.536L148.534 223.321L112.216 223.321L112.216 259.536ZM111.284 259.536L74.9656 259.536L74.9656 223.321L111.284 223.321L111.284 259.536ZM37.7156 259.536L74.0344 259.536L74.0344 223.321L37.7156 223.321L37.7156 259.536ZM36.7844 259.536L0.465637 259.536L0.46564 223.321L36.7844 223.321L36.7844 259.536ZM261.216 222.393L297.534 222.393L297.534 186.179L261.216 186.179L261.216 222.393ZM260.284 222.393L223.966 222.393L223.966 186.179L260.284 186.179L260.284 222.393ZM186.716 222.393L223.034 222.393L223.034 186.179L186.716 186.179L186.716 222.393ZM185.784 222.393L149.466 222.393L149.466 186.179L185.784 186.179L185.784 222.393ZM112.216 222.393L148.534 222.393L148.534 186.179L112.216 186.179L112.216 222.393ZM111.284 222.393L74.9656 222.393L74.9656 186.179L111.284 186.179L111.284 222.393ZM37.7156 222.393L74.0344 222.393L74.0344 186.179L37.7156 186.179L37.7156 222.393ZM36.7844 222.393L0.46564 222.393L0.465644 186.179L36.7844 186.179L36.7844 222.393ZM261.216 185.25L297.534 185.25L297.534 149.036L261.216 149.036L261.216 185.25ZM260.284 185.25L223.966 185.25L223.966 149.036L260.284 149.036L260.284 185.25ZM186.716 185.25L223.034 185.25L223.034 149.036L186.716 149.036L186.716 185.25ZM185.784 185.25L149.466 185.25L149.466 149.036L185.784 149.036L185.784 185.25ZM112.216 185.25L148.534 185.25L148.534 149.036L112.216 149.036L112.216 185.25ZM111.284 185.25L74.9656 185.25L74.9656 149.036L111.284 149.036L111.284 185.25ZM37.7156 185.25L74.0344 185.25L74.0344 149.036L37.7156 149.036L37.7156 185.25ZM36.7844 185.25L0.465644 185.25L0.465647 149.036L36.7844 149.036L36.7844 185.25ZM261.216 148.107L297.534 148.107L297.534 111.893L261.216 111.893L261.216 148.107ZM260.284 148.107L223.966 148.107L223.966 111.893L260.284 111.893L260.284 148.107ZM186.716 148.107L223.034 148.107L223.034 111.893L186.716 111.893L186.716 148.107ZM185.784 148.107L149.466 148.107L149.466 111.893L185.784 111.893L185.784 148.107ZM112.216 148.107L148.534 148.107L148.534 111.893L112.216 111.893L112.216 148.107ZM111.284 148.107L74.9656 148.107L74.9657 111.893L111.284 111.893L111.284 148.107ZM37.7156 148.107L74.0344 148.107L74.0344 111.893L37.7157 111.893L37.7156 148.107ZM36.7844 148.107L0.465647 148.107L0.46565 111.893L36.7844 111.893L36.7844 148.107ZM261.216 110.964L297.534 110.964L297.534 74.75L261.216 74.75L261.216 110.964ZM260.284 110.964L223.966 110.964L223.966 74.75L260.284 74.75L260.284 110.964ZM186.716 110.964L223.034 110.964L223.034 74.75L186.716 74.75L186.716 110.964ZM185.784 110.964L149.466 110.964L149.466 74.75L185.784 74.75L185.784 110.964ZM112.216 110.964L148.534 110.964L148.534 74.75L112.216 74.75L112.216 110.964ZM111.284 110.964L74.9657 110.964L74.9657 74.75L111.284 74.75L111.284 110.964ZM37.7157 110.964L74.0344 110.964L74.0344 74.75L37.7157 74.75L37.7157 110.964ZM36.7844 110.964L0.46565 110.964L0.465653 74.75L36.7844 74.75L36.7844 110.964ZM261.216 73.8214L297.534 73.8214L297.534 37.6071L261.216 37.6071L261.216 73.8214ZM260.284 73.8214L223.966 73.8214L223.966 37.6071L260.284 37.6071L260.284 73.8214ZM186.716 73.8214L223.034 73.8214L223.034 37.6071L186.716 37.6071L186.716 73.8214ZM185.784 73.8214L149.466 73.8214L149.466 37.6071L185.784 37.6071L185.784 73.8214ZM112.216 73.8214L148.534 73.8214L148.534 37.6071L112.216 37.6071L112.216 73.8214ZM111.284 73.8214L74.9657 73.8214L74.9657 37.6071L111.284 37.6071L111.284 73.8214ZM37.7157 73.8214L74.0344 73.8214L74.0344 37.6071L37.7157 37.6071L37.7157 73.8214ZM36.7844 73.8214L0.465653 73.8214L0.465657 37.6071L36.7844 37.6071L36.7844 73.8214ZM261.216 36.6786L297.534 36.6786L297.534 0.464294L261.216 0.464291L261.216 36.6786ZM260.284 36.6786L223.966 36.6786L223.966 0.464288L260.284 0.464291L260.284 36.6786ZM186.716 36.6786L223.034 36.6786L223.034 0.464288L186.716 0.464285L186.716 36.6786ZM185.784 36.6786L149.466 36.6786L149.466 0.464281L185.784 0.464285L185.784 36.6786ZM112.216 36.6786L148.534 36.6786L148.534 0.464281L112.216 0.464278L112.216 36.6786ZM111.284 36.6786L74.9657 36.6786L74.9657 0.464275L111.284 0.464278L111.284 36.6786ZM37.7157 36.6786L74.0344 36.6786L74.0344 0.464275L37.7157 0.464272L37.7157 36.6786ZM36.7844 36.6786L0.465657 36.6785L0.46566 0.464268L36.7844 0.464272L36.7844 36.6786Z" fill="url(#paint0_linear_214_321)"/>
<defs>
<linearGradient id="paint0_linear_214_321" x1="149" y1="214" x2="349.143" y2="141.829" gradientUnits="userSpaceOnUse">
<stop stop-color="white" stop-opacity="0"/>
<stop offset="1" stop-color="#E8F0FF"/>
</linearGradient>
</defs>
</svg>
