<svg width="298" height="260" viewBox="0 0 298 260" fill="none" xmlns="http://www.w3.org/2000/svg">
<path opacity="0.2" fill-rule="evenodd" clip-rule="evenodd" d="M0 0H298V260H0V0ZM0.465625 0.464286H36.7844V36.6786H0.465625V0.464286ZM37.7156 0.464286H74.0344V36.6786H37.7156V0.464286ZM111.284 0.464286H74.9656V36.6786H111.284V0.464286ZM112.216 0.464286H148.534V36.6786H112.216V0.464286ZM185.784 0.464286H149.466V36.6786H185.784V0.464286ZM186.716 0.464286H223.034V36.6786H186.716V0.464286ZM260.284 0.464286H223.966V36.6786H260.284V0.464286ZM261.216 0.464286H297.534V36.6786H261.216V0.464286ZM36.7844 37.6071H0.465625V73.8214H36.7844V37.6071ZM37.7156 37.6071H74.0344V73.8214H37.7156V37.6071ZM111.284 37.6071H74.9656V73.8214H111.284V37.6071ZM112.216 37.6071H148.534V73.8214H112.216V37.6071ZM185.784 37.6071H149.466V73.8214H185.784V37.6071ZM186.716 37.6071H223.034V73.8214H186.716V37.6071ZM260.284 37.6071H223.966V73.8214H260.284V37.6071ZM261.216 37.6071H297.534V73.8214H261.216V37.6071ZM36.7844 74.75H0.465625V110.964H36.7844V74.75ZM37.7156 74.75H74.0344V110.964H37.7156V74.75ZM111.284 74.75H74.9656V110.964H111.284V74.75ZM112.216 74.75H148.534V110.964H112.216V74.75ZM185.784 74.75H149.466V110.964H185.784V74.75ZM186.716 74.75H223.034V110.964H186.716V74.75ZM260.284 74.75H223.966V110.964H260.284V74.75ZM261.216 74.75H297.534V110.964H261.216V74.75ZM36.7844 111.893H0.465625V148.107H36.7844V111.893ZM37.7156 111.893H74.0344V148.107H37.7156V111.893ZM111.284 111.893H74.9656V148.107H111.284V111.893ZM112.216 111.893H148.534V148.107H112.216V111.893ZM185.784 111.893H149.466V148.107H185.784V111.893ZM186.716 111.893H223.034V148.107H186.716V111.893ZM260.284 111.893H223.966V148.107H260.284V111.893ZM261.216 111.893H297.534V148.107H261.216V111.893ZM36.7844 149.036H0.465625V185.25H36.7844V149.036ZM37.7156 149.036H74.0344V185.25H37.7156V149.036ZM111.284 149.036H74.9656V185.25H111.284V149.036ZM112.216 149.036H148.534V185.25H112.216V149.036ZM185.784 149.036H149.466V185.25H185.784V149.036ZM186.716 149.036H223.034V185.25H186.716V149.036ZM260.284 149.036H223.966V185.25H260.284V149.036ZM261.216 149.036H297.534V185.25H261.216V149.036ZM36.7844 186.179H0.465625V222.393H36.7844V186.179ZM37.7156 186.179H74.0344V222.393H37.7156V186.179ZM111.284 186.179H74.9656V222.393H111.284V186.179ZM112.216 186.179H148.534V222.393H112.216V186.179ZM185.784 186.179H149.466V222.393H185.784V186.179ZM186.716 186.179H223.034V222.393H186.716V186.179ZM260.284 186.179H223.966V222.393H260.284V186.179ZM261.216 186.179H297.534V222.393H261.216V186.179ZM36.7844 223.321H0.465625V259.536H36.7844V223.321ZM37.7156 223.321H74.0344V259.536H37.7156V223.321ZM111.284 223.321H74.9656V259.536H111.284V223.321ZM112.216 223.321H148.534V259.536H112.216V223.321ZM185.784 223.321H149.466V259.536H185.784V223.321ZM186.716 223.321H223.034V259.536H186.716V223.321ZM260.284 223.321H223.966V259.536H260.284V223.321ZM261.216 223.321H297.534V259.536H261.216V223.321Z" fill="url(#paint0_linear_214_320)"/>
<defs>
<linearGradient id="paint0_linear_214_320" x1="149" y1="46" x2="-51.1432" y2="118.171" gradientUnits="userSpaceOnUse">
<stop stop-color="white" stop-opacity="0"/>
<stop offset="1" stop-color="#E8F0FF"/>
</linearGradient>
</defs>
</svg>
