<svg width="431" height="230" viewBox="0 0 431 230" fill="none" xmlns="http://www.w3.org/2000/svg">
<path opacity="0.2" fill-rule="evenodd" clip-rule="evenodd" d="M431 230L-3.05176e-05 230L-1.04103e-05 -7.16164e-06L431 3.05176e-05L431 230ZM430.327 229.589L377.798 229.589L377.798 197.554L430.327 197.554L430.327 229.589ZM376.452 229.589L323.923 229.589L323.923 197.554L376.452 197.554L376.452 229.589ZM270.048 229.589L322.577 229.589L322.577 197.554L270.048 197.554L270.048 229.589ZM268.702 229.589L216.173 229.589L216.173 197.554L268.702 197.554L268.702 229.589ZM162.298 229.589L214.827 229.589L214.827 197.554L162.298 197.554L162.298 229.589ZM160.952 229.589L108.423 229.589L108.423 197.554L160.952 197.554L160.952 229.589ZM54.5484 229.589L107.077 229.589L107.077 197.554L54.5484 197.554L54.5484 229.589ZM53.2015 229.589L0.673401 229.589L0.673404 197.554L53.2015 197.554L53.2015 229.589ZM377.798 196.732L430.327 196.732L430.327 164.696L377.798 164.696L377.798 196.732ZM376.452 196.732L323.923 196.732L323.923 164.696L376.452 164.696L376.452 196.732ZM270.048 196.732L322.577 196.732L322.577 164.696L270.048 164.696L270.048 196.732ZM268.702 196.732L216.173 196.732L216.173 164.696L268.702 164.696L268.702 196.732ZM162.298 196.732L214.827 196.732L214.827 164.696L162.298 164.696L162.298 196.732ZM160.952 196.732L108.423 196.732L108.423 164.696L160.952 164.696L160.952 196.732ZM54.5484 196.732L107.077 196.732L107.077 164.696L54.5484 164.696L54.5484 196.732ZM53.2015 196.732L0.673404 196.732L0.673407 164.696L53.2015 164.696L53.2015 196.732ZM377.798 163.875L430.327 163.875L430.327 131.839L377.798 131.839L377.798 163.875ZM376.452 163.875L323.923 163.875L323.923 131.839L376.452 131.839L376.452 163.875ZM270.048 163.875L322.577 163.875L322.577 131.839L270.048 131.839L270.048 163.875ZM268.702 163.875L216.173 163.875L216.173 131.839L268.702 131.839L268.702 163.875ZM162.298 163.875L214.827 163.875L214.827 131.839L162.298 131.839L162.298 163.875ZM160.952 163.875L108.423 163.875L108.423 131.839L160.952 131.839L160.952 163.875ZM54.5484 163.875L107.077 163.875L107.077 131.839L54.5484 131.839L54.5484 163.875ZM53.2015 163.875L0.673407 163.875L0.673409 131.839L53.2015 131.839L53.2015 163.875ZM377.798 131.018L430.327 131.018L430.327 98.9822L377.798 98.9822L377.798 131.018ZM376.452 131.018L323.923 131.018L323.923 98.9822L376.452 98.9822L376.452 131.018ZM270.048 131.018L322.577 131.018L322.577 98.9822L270.048 98.9821L270.048 131.018ZM268.702 131.018L216.173 131.018L216.173 98.9821L268.702 98.9821L268.702 131.018ZM162.298 131.018L214.827 131.018L214.827 98.9821L162.298 98.9821L162.298 131.018ZM160.952 131.018L108.423 131.018L108.423 98.9821L160.952 98.9821L160.952 131.018ZM54.5484 131.018L107.077 131.018L107.077 98.9821L54.5484 98.9821L54.5484 131.018ZM53.2015 131.018L0.67341 131.018L0.673412 98.9821L53.2015 98.9821L53.2015 131.018ZM377.798 98.1607L430.327 98.1607L430.327 66.125L377.798 66.125L377.798 98.1607ZM376.452 98.1607L323.923 98.1607L323.923 66.125L376.452 66.125L376.452 98.1607ZM270.048 98.1607L322.577 98.1607L322.577 66.125L270.048 66.125L270.048 98.1607ZM268.702 98.1607L216.173 98.1607L216.173 66.125L268.702 66.125L268.702 98.1607ZM162.298 98.1607L214.827 98.1607L214.827 66.125L162.298 66.125L162.298 98.1607ZM160.952 98.1607L108.423 98.1607L108.423 66.125L160.952 66.125L160.952 98.1607ZM54.5484 98.1607L107.077 98.1607L107.077 66.125L54.5484 66.125L54.5484 98.1607ZM53.2015 98.1607L0.673412 98.1607L0.673415 66.125L53.2016 66.125L53.2015 98.1607ZM377.798 65.3036L430.327 65.3036L430.327 33.2679L377.798 33.2679L377.798 65.3036ZM376.452 65.3036L323.923 65.3036L323.923 33.2679L376.452 33.2679L376.452 65.3036ZM270.048 65.3036L322.577 65.3036L322.577 33.2679L270.048 33.2679L270.048 65.3036ZM268.702 65.3036L216.173 65.3036L216.173 33.2679L268.702 33.2679L268.702 65.3036ZM162.298 65.3036L214.827 65.3036L214.827 33.2679L162.298 33.2679L162.298 65.3036ZM160.952 65.3036L108.423 65.3036L108.423 33.2679L160.952 33.2679L160.952 65.3036ZM54.5484 65.3036L107.077 65.3036L107.077 33.2679L54.5484 33.2679L54.5484 65.3036ZM53.2016 65.3036L0.673415 65.3036L0.673418 33.2678L53.2016 33.2679L53.2016 65.3036ZM377.798 32.4465L430.327 32.4465L430.327 0.410736L377.798 0.410731L377.798 32.4465ZM376.452 32.4465L323.923 32.4464L323.923 0.410727L376.452 0.410731L376.452 32.4465ZM270.048 32.4464L322.577 32.4464L322.577 0.410727L270.048 0.410722L270.048 32.4464ZM268.702 32.4464L216.173 32.4464L216.173 0.410717L268.702 0.410722L268.702 32.4464ZM162.298 32.4464L214.827 32.4464L214.827 0.410717L162.298 0.410713L162.298 32.4464ZM160.952 32.4464L108.423 32.4464L108.423 0.410708L160.952 0.410712L160.952 32.4464ZM54.5484 32.4464L107.077 32.4464L107.077 0.410708L54.5485 0.410703L54.5484 32.4464ZM53.2016 32.4464L0.673418 32.4464L0.673421 0.410698L53.2016 0.410703L53.2016 32.4464Z" fill="url(#paint0_linear_411_1022)"/>
<defs>
<linearGradient id="paint0_linear_411_1022" x1="-26.3878" y1="189.308" x2="396.173" y2="310.619" gradientUnits="userSpaceOnUse">
<stop stop-color="white" stop-opacity="0"/>
<stop offset="1" stop-color="#E8F0FF"/>
</linearGradient>
</defs>
</svg>
