<svg width="18" height="19" viewBox="0 0 18 19" fill="none" xmlns="http://www.w3.org/2000/svg">
<path d="M14.221 19H18V11.1701C18 7.30308 15.7213 5.98413 13.6127 5.98413C11.6629 5.98413 10.3383 7.31467 9.97263 8.09408V6.33996H6.33835V19H10.1173V12.1361C10.1173 10.306 11.2165 9.41597 12.3379 9.41597C13.3985 9.41597 14.221 10.0452 14.221 12.0853V19Z" fill="#0E275D"/>
<path d="M0 2.2885C0 3.61021 0.975425 4.57609 2.17865 4.57609C3.38205 4.57609 4.35747 3.61021 4.35747 2.2885C4.35747 0.966981 3.38205 0 2.17865 0C0.975425 0 0 0.966981 0 2.2885Z" fill="#0E275D"/>
<path d="M0.289243 18.9902H4.06805V6.3302H0.289243V18.9902Z" fill="#0E275D"/>
</svg>
