<svg width="103" height="170" viewBox="0 0 103 170" fill="none" xmlns="http://www.w3.org/2000/svg">
<path d="M87.2495 143.428C79.9494 144.394 74.8148 151.095 75.7811 158.395C76.7475 165.696 83.4488 170.83 90.7489 169.864C98.049 168.897 103.184 162.196 102.217 154.896C101.251 147.596 94.5496 142.461 87.2495 143.428ZM45.751 5.30987C46.9463 4.61865 47.3548 3.08938 46.6636 1.89415C45.9724 0.698915 44.4431 0.290335 43.2479 0.981558L45.751 5.30987ZM36.319 5.37093C35.1842 6.15754 34.902 7.7151 35.6886 8.84982C36.4752 9.98455 38.0328 10.2668 39.1675 9.48015L36.319 5.37093ZM27.2773 19.405C28.25 18.425 28.244 16.8421 27.2641 15.8695C26.2841 14.8968 24.7012 14.9027 23.7286 15.8827L27.2773 19.405ZM13.3773 28.6421C12.6214 29.7976 12.9454 31.347 14.1008 32.1028C15.2563 32.8587 16.8057 32.5347 17.5615 31.3793L13.3773 28.6421ZM10.5151 45.0886C11.015 43.8016 10.3769 42.353 9.08981 41.8531C7.80277 41.3532 6.35418 41.9913 5.85428 43.2783L10.5151 45.0886ZM1.49043 59.1291C1.25849 60.4902 2.17384 61.7816 3.53493 62.0135C4.89603 62.2455 6.18743 61.3301 6.41937 59.969L1.49043 59.1291ZM5.28034 75.3971C5.25433 74.0166 4.11415 72.9186 2.73369 72.9446C1.35322 72.9706 0.255219 74.1108 0.281226 75.4913L5.28034 75.3971ZM2.02865 91.7754C2.29369 93.1304 3.60702 94.014 4.96206 93.749C6.31709 93.484 7.2007 92.1706 6.93567 90.8156L2.02865 91.7754ZM11.1811 105.755C10.6947 104.463 9.25291 103.81 7.96068 104.296C6.66847 104.782 6.01517 106.224 6.5015 107.516L11.1811 105.755ZM13.5231 122.301C14.2184 123.494 15.7491 123.897 16.9419 123.202C18.1348 122.506 18.538 120.976 17.8427 119.783L13.5231 122.301ZM26.7911 132.426C25.8942 131.376 24.3162 131.252 23.2664 132.149C22.2167 133.046 22.0928 134.624 22.9897 135.674L26.7911 132.426ZM34.8594 147.062C35.9495 147.91 37.5201 147.713 38.3676 146.623C39.2151 145.533 39.0185 143.962 37.9285 143.115L34.8594 147.062ZM51.033 151.073C49.7747 150.505 48.2939 151.064 47.7256 152.322C47.1572 153.581 47.7166 155.061 48.9749 155.63L51.033 151.073ZM64.8551 160.394C66.2193 160.607 67.4976 159.673 67.7103 158.309C67.9229 156.945 66.9894 155.666 65.6251 155.454L64.8551 160.394ZM80.8416 155.674C79.4714 155.845 78.4989 157.094 78.6695 158.464C78.84 159.834 80.089 160.807 81.4591 160.636L80.8416 155.674ZM43.2479 0.981558C40.8274 2.38135 38.5186 3.84611 36.319 5.37093L39.1675 9.48015C41.2529 8.03455 43.4464 6.64271 45.751 5.30987L43.2479 0.981558ZM23.7286 15.8827C19.738 19.9033 16.2979 24.1773 13.3773 28.6421L17.5615 31.3793C20.2969 27.1977 23.5239 23.1866 27.2773 19.405L23.7286 15.8827ZM5.85428 43.2783C3.84465 48.4524 2.40489 53.7628 1.49043 59.1291L6.41937 59.969C7.27954 54.9214 8.63193 49.9369 10.5151 45.0886L5.85428 43.2783ZM0.281226 75.4913C0.384479 80.9708 0.982368 86.4262 2.02865 91.7754L6.93567 90.8156C5.94329 85.742 5.37793 80.5762 5.28034 75.3971L0.281226 75.4913ZM6.5015 107.516C8.4383 112.663 10.7941 117.619 13.5231 122.301L17.8427 119.783C15.2561 115.346 13.0203 110.642 11.1811 105.755L6.5015 107.516ZM22.9897 135.674C26.5992 139.898 30.5728 143.729 34.8594 147.062L37.9285 143.115C33.9246 140.002 30.1941 136.409 26.7911 132.426L22.9897 135.674ZM48.9749 155.63C54.0121 157.905 59.3261 159.532 64.8551 160.394L65.6251 155.454C60.5637 154.665 55.6817 153.173 51.033 151.073L48.9749 155.63ZM81.4591 160.636C84.157 160.3 86.8824 159.78 89.6289 159.065L88.3695 154.226C85.8312 154.887 83.3202 155.366 80.8416 155.674L81.4591 160.636Z" fill="#FFD60A"/>
</svg>
