<svg width="26" height="26" viewBox="0 0 26 26" fill="none" xmlns="http://www.w3.org/2000/svg">
<path d="M12.7462 0.618958C9.38365 0.618958 8.96165 0.63366 7.641 0.69376C6.32293 0.754117 5.42323 0.962788 4.636 1.26896C3.82169 1.58519 3.13092 2.00821 2.44274 2.69664C1.75404 3.38482 1.33102 4.07557 1.01375 4.88963C0.706802 5.67711 0.497871 6.57705 0.438545 7.89459C0.379734 9.21523 0.364258 9.63748 0.364258 12.9999C0.364258 16.3624 0.379219 16.7831 0.439061 18.1038C0.499677 19.4218 0.70835 20.3215 1.01427 21.1087C1.33076 21.923 1.75378 22.6138 2.44222 23.302C3.13015 23.9907 3.82091 24.4147 4.63471 24.7309C5.42246 25.0371 6.32241 25.2458 7.64023 25.3061C8.96088 25.3662 9.38261 25.3809 12.7449 25.3809C16.1076 25.3809 16.5283 25.3662 17.849 25.3061C19.1671 25.2458 20.0678 25.0371 20.8555 24.7309C21.6696 24.4147 22.3593 23.9907 23.0472 23.302C23.7359 22.6138 24.159 21.923 24.4762 21.109C24.7806 20.3215 24.9895 19.4216 25.0514 18.104C25.1108 16.7834 25.1262 16.3624 25.1262 12.9999C25.1262 9.63748 25.1108 9.21549 25.0514 7.89485C24.9895 6.57679 24.7806 5.67711 24.4762 4.88988C24.159 4.07557 23.7359 3.38482 23.0472 2.69664C22.3585 2.00795 21.6698 1.58493 20.8548 1.26896C20.0655 0.962788 19.1652 0.754117 17.8472 0.69376C16.5265 0.63366 16.1061 0.618958 12.7425 0.618958H12.7462ZM11.6355 2.85011C11.9651 2.8496 12.3329 2.85011 12.7462 2.85011C16.0519 2.85011 16.4437 2.86198 17.7492 2.92131C18.9563 2.9765 19.6115 3.17821 20.0479 3.34768C20.6257 3.57208 21.0376 3.84034 21.4707 4.27367C21.9041 4.70701 22.1723 5.11971 22.3972 5.69748C22.5667 6.1334 22.7687 6.78856 22.8236 7.99571C22.8829 9.30087 22.8958 9.69293 22.8958 12.9971C22.8958 16.3013 22.8829 16.6934 22.8236 17.9985C22.7684 19.2057 22.5667 19.8608 22.3972 20.2967C22.1728 20.8745 21.9041 21.2859 21.4707 21.719C21.0374 22.1523 20.626 22.4206 20.0479 22.645C19.612 22.8152 18.9563 23.0164 17.7492 23.0716C16.444 23.1309 16.0519 23.1438 12.7462 23.1438C9.44013 23.1438 9.04832 23.1309 7.74315 23.0716C6.53599 23.0159 5.88082 22.8142 5.44413 22.6447C4.86634 22.4203 4.45364 22.1521 4.0203 21.7187C3.58696 21.2854 3.3187 20.8737 3.09378 20.2957C2.92431 19.8598 2.72235 19.2046 2.6674 17.9975C2.60808 16.6923 2.59621 16.3003 2.59621 12.994C2.59621 9.68777 2.60808 9.29777 2.6674 7.99261C2.7226 6.78546 2.92431 6.1303 3.09378 5.69387C3.31819 5.11609 3.58696 4.70339 4.0203 4.27006C4.45364 3.83673 4.86634 3.56847 5.44413 3.34355C5.88056 3.17331 6.53599 2.97212 7.74315 2.91666C8.8853 2.86508 9.32793 2.8496 11.6355 2.84702V2.85011Z" fill="white"/>
<path d="M19.3285 4.87546C19.0346 4.87546 18.7473 4.96261 18.503 5.12589C18.2586 5.28916 18.0682 5.52123 17.9558 5.79274C17.8433 6.06425 17.8139 6.363 17.8713 6.65122C17.9287 6.93944 18.0702 7.20416 18.2781 7.41193C18.4859 7.61969 18.7507 7.76115 19.0389 7.81841C19.3272 7.87568 19.6259 7.84619 19.8974 7.73366C20.1689 7.62113 20.4009 7.43062 20.5641 7.18623C20.7273 6.94183 20.8143 6.65453 20.8142 6.36066C20.8142 5.54042 20.1487 4.87495 19.3285 4.87495V4.87546Z" fill="white"/>
<path fill-rule="evenodd" clip-rule="evenodd" d="M12.7195 6.61138C9.20819 6.61138 6.36131 9.45823 6.36131 12.9695C6.36131 16.4808 9.20819 19.3264 12.7195 19.3264C16.2309 19.3264 19.077 16.4808 19.077 12.9695C19.077 9.45823 16.2309 6.61138 12.7195 6.61138ZM12.7453 17.0625C14.9889 17.0625 16.8078 15.2436 16.8078 13C16.8078 10.7563 14.9889 8.93746 12.7453 8.93746C10.5016 8.93746 8.68274 10.7563 8.68274 13C8.68274 15.2436 10.5016 17.0625 12.7453 17.0625Z" fill="white"/>
</svg>
