<svg width="192" height="94" viewBox="0 0 192 94" fill="none" xmlns="http://www.w3.org/2000/svg">
<path d="M15.7499 26.8146C23.05 25.8483 28.1845 19.147 27.2182 11.8469C26.2519 4.54673 19.5506 -0.587813 12.2505 0.378518C4.95035 1.34485 -0.184197 8.04613 0.782134 15.3462C1.74846 22.6464 8.44974 27.7809 15.7499 26.8146ZM190.582 78.7537C191.826 78.1564 192.351 76.6631 191.754 75.4182C191.157 74.1734 189.663 73.6485 188.419 74.2458L190.582 78.7537ZM181.492 77.4316C180.228 77.9868 179.653 79.4618 180.209 80.7259C180.764 81.99 182.239 82.5647 183.503 82.0094L181.492 77.4316ZM169.364 87.5624C170.671 87.1153 171.367 85.6938 170.92 84.3875C170.473 83.0812 169.051 82.3847 167.745 82.8318L169.364 87.5624ZM153.413 86.8261C152.061 87.1075 151.193 88.4314 151.475 89.7831C151.756 91.1349 153.08 92.0025 154.432 91.7211L153.413 86.8261ZM139.016 93.5465C140.397 93.5221 141.496 92.3831 141.472 91.0026C141.447 89.6221 140.308 88.5228 138.928 88.5473L139.016 93.5465ZM124.67 86.9476C123.334 86.5977 121.968 87.3969 121.618 88.7326C121.268 90.0682 122.067 91.4346 123.403 91.7844L124.67 86.9476ZM108.944 85.3894C110.103 86.1402 111.651 85.8096 112.402 84.651C113.152 83.4923 112.822 81.9443 111.663 81.1934L108.944 85.3894ZM100.717 71.7776C99.7811 70.7621 98.1995 70.6972 97.184 71.6326C96.1685 72.5681 96.1036 74.1497 97.0391 75.1652L100.717 71.7776ZM87.4905 63.0375C88.2786 64.1712 89.8365 64.4514 90.9702 63.6633C92.1039 62.8753 92.3841 61.3174 91.5961 60.1836L87.4905 63.0375ZM83.3491 47.6288C82.6035 46.4668 81.057 46.1291 79.8949 46.8747C78.7328 47.6203 78.3952 49.1668 79.1408 50.3289L83.3491 47.6288ZM70.8052 37.8957C71.6158 39.0134 73.1791 39.2622 74.2967 38.4515C75.4144 37.6409 75.6633 36.0776 74.8526 34.96L70.8052 37.8957ZM64.8204 23.1167C63.8305 22.1542 62.2477 22.1765 61.2852 23.1664C60.3227 24.1563 60.345 25.7391 61.3349 26.7016L64.8204 23.1167ZM49.7936 18.3016C51.027 18.9222 52.5299 18.4254 53.1505 17.192C53.7712 15.9587 53.2744 14.4557 52.041 13.8351L49.7936 18.3016ZM36.8021 9.31649C35.4308 9.15566 34.1887 10.137 34.0279 11.5083C33.867 12.8796 34.8483 14.1216 36.2196 14.2825L36.8021 9.31649ZM21.7959 14.6227C23.1623 14.424 24.1089 13.1554 23.9102 11.789C23.7116 10.4227 22.4429 9.47606 21.0766 9.67469L21.7959 14.6227ZM188.419 74.2458C186.049 75.3826 183.741 76.4436 181.492 77.4316L183.503 82.0094C185.806 80.9979 188.165 79.9135 190.582 78.7537L188.419 74.2458ZM167.745 82.8318C162.617 84.587 157.852 85.902 153.413 86.8261L154.432 91.7211C159.097 90.7499 164.064 89.3767 169.364 87.5624L167.745 82.8318ZM138.928 88.5473C133.637 88.6412 128.921 88.0608 124.67 86.9476L123.403 91.7844C128.127 93.0216 133.301 93.6479 139.016 93.5465L138.928 88.5473ZM111.663 81.1934C107.637 78.5844 104.041 75.387 100.717 71.7776L97.0391 75.1652C100.582 79.0114 104.493 82.5046 108.944 85.3894L111.663 81.1934ZM91.5961 60.1836C88.7675 56.1144 86.0803 51.8857 83.3491 47.6288L79.1408 50.3289C81.8509 54.5529 84.5965 58.8742 87.4905 63.0375L91.5961 60.1836ZM74.8526 34.96C71.7792 30.7228 68.4928 26.6873 64.8204 23.1167L61.3349 26.7016C64.7338 30.0063 67.8335 33.7988 70.8052 37.8957L74.8526 34.96ZM52.041 13.8351C47.5151 11.5578 42.483 9.98278 36.8021 9.31649L36.2196 14.2825C41.317 14.8803 45.786 16.285 49.7936 18.3016L52.041 13.8351ZM21.0766 9.67469C18.6196 10.0319 16.0677 10.5264 13.4142 11.1662L14.5861 16.0269C17.1005 15.4207 19.5012 14.9563 21.7959 14.6227L21.0766 9.67469Z" fill="#FFD60A"/>
</svg>
