<svg width="167" height="220" viewBox="0 0 167 220" fill="none" xmlns="http://www.w3.org/2000/svg">
<path d="M151.25 27.2399C143.95 26.2736 138.815 19.5723 139.782 12.2722C140.748 4.97211 147.449 -0.162434 154.749 0.803896C162.049 1.77023 167.184 8.4715 166.218 15.7716C165.251 23.0717 158.55 28.2063 151.25 27.2399ZM3.75079 219.165C2.55536 219.856 1.02621 219.447 0.335338 218.251C-0.355529 217.056 0.0535012 215.526 1.24894 214.836L3.75079 219.165ZM6.97982 211.067C8.08698 210.242 9.65328 210.471 10.4782 211.578C11.3032 212.685 11.0744 214.251 9.96723 215.076L6.97982 211.067ZM20.717 204.892C19.8311 205.952 18.2545 206.092 17.1954 205.206C16.1363 204.32 15.9959 202.744 16.8817 201.685L20.717 204.892ZM24.538 190.298C25.1948 189.083 26.7117 188.631 27.9262 189.288C29.1407 189.945 29.5929 191.462 28.9362 192.676L24.538 190.298ZM34.8567 179.31C34.3875 180.608 32.9544 181.281 31.6559 180.811C30.3573 180.342 29.6851 178.909 30.1543 177.61L34.8567 179.31ZM34.1984 164.184C34.5341 162.845 35.8919 162.031 37.2312 162.367C38.5705 162.703 39.384 164.06 39.0484 165.4L34.1984 164.184ZM42.0664 151.315C41.8166 152.673 40.5133 153.571 39.1554 153.321C37.7974 153.072 36.8991 151.768 37.1489 150.41L42.0664 151.315ZM39.4408 136.415C39.6431 135.05 40.9143 134.106 42.2801 134.309C43.6459 134.511 44.5891 135.782 44.3868 137.148L39.4408 136.415ZM46.3777 122.993C46.1903 124.361 44.9294 125.318 43.5615 125.13C42.1935 124.943 41.2365 123.682 41.424 122.314L46.3777 122.993ZM43.4193 108.156C43.6223 106.791 44.894 105.848 46.2597 106.051C47.6255 106.254 48.568 107.526 48.365 108.892L43.4193 108.156ZM50.6621 94.9098C50.4118 96.2677 49.1082 97.1656 47.7504 96.9153C46.3925 96.665 45.4947 95.3614 45.7449 94.0036L50.6621 94.9098ZM48.7637 79.8943C49.0977 78.5546 50.4545 77.7393 51.7942 78.0733C53.1339 78.4072 53.9492 79.764 53.6153 81.1037L48.7637 79.8943ZM57.6119 67.6664C57.151 68.9679 55.7222 69.6492 54.4207 69.1883C53.1192 68.7273 52.4379 67.2986 52.8988 65.9971L57.6119 67.6664ZM58.656 52.5979C59.292 51.3723 60.8011 50.8945 62.0266 51.5305C63.2521 52.1665 63.73 53.6755 63.094 54.901L58.656 52.5979ZM70.4975 43.2756C69.6478 44.3639 68.0768 44.5574 66.9884 43.7078C65.9001 42.8582 65.7066 41.2871 66.5562 40.1988L70.4975 43.2756ZM76.8166 29.5997C77.8792 28.7181 79.4553 28.8648 80.3369 29.9274C81.2186 30.99 81.0719 32.5661 80.0093 33.4477L76.8166 29.5997ZM91.4184 25.9033C90.1933 26.5402 88.6839 26.0635 88.047 24.8384C87.4101 23.6134 87.8869 22.104 89.1119 21.4671L91.4184 25.9033ZM102.748 15.9365C104.068 15.5316 105.467 16.2735 105.872 17.5935C106.277 18.9135 105.535 20.3118 104.215 20.7167L102.748 15.9365ZM117.732 17.641C116.368 17.8561 115.088 16.9247 114.873 15.5609C114.658 14.197 115.589 12.9171 116.953 12.702L117.732 17.641ZM131.344 11.2516C132.723 11.1835 133.896 12.2463 133.964 13.6253C134.033 15.0043 132.97 16.1774 131.591 16.2455L131.344 11.2516ZM145.622 16.1535C144.242 16.1085 143.16 14.9533 143.205 13.5733C143.25 12.1934 144.405 11.1112 145.785 11.1562L145.622 16.1535ZM1.24894 214.836C3.27339 213.666 5.1808 212.407 6.97982 211.067L9.96723 215.076C8.01202 216.533 5.94242 217.898 3.75079 219.165L1.24894 214.836ZM16.8817 201.685C19.797 198.199 22.3262 194.388 24.538 190.298L28.9362 192.676C26.5837 197.027 23.871 201.122 20.717 204.892L16.8817 201.685ZM30.1543 177.61C31.7055 173.318 33.0342 168.829 34.1984 164.184L39.0484 165.4C37.8513 170.176 36.4756 174.83 34.8567 179.31L30.1543 177.61ZM37.1489 150.41C37.9926 145.824 38.7398 141.148 39.4408 136.415L44.3868 137.148C43.6806 141.916 42.9241 146.653 42.0664 151.315L37.1489 150.41ZM41.424 122.314C42.07 117.6 42.7197 112.864 43.4193 108.156L48.365 108.892C47.6702 113.566 47.0243 118.274 46.3777 122.993L41.424 122.314ZM45.7449 94.0036C46.6254 89.2264 47.6136 84.5083 48.7637 79.8943L53.6153 81.1037C52.4956 85.5955 51.5284 90.2095 50.6621 94.9098L45.7449 94.0036ZM52.8988 65.9971C54.5436 61.3532 56.4399 56.8682 58.656 52.5979L63.094 54.901C60.9994 58.937 59.1917 63.2059 57.6119 67.6664L52.8988 65.9971ZM66.5562 40.1988C69.5527 36.3604 72.9499 32.808 76.8166 29.5997L80.0093 33.4477C76.4337 36.4144 73.2848 39.705 70.4975 43.2756L66.5562 40.1988ZM89.1119 21.4671C93.2617 19.3095 97.7941 17.456 102.748 15.9365L104.215 20.7167C99.5339 22.1523 95.2844 23.8933 91.4184 25.9033L89.1119 21.4671ZM116.953 12.702C121.462 11.9912 126.252 11.5031 131.344 11.2516L131.591 16.2455C126.662 16.4889 122.05 16.9602 117.732 17.641L116.953 12.702ZM145.785 11.1562C148.187 11.2345 150.647 11.3579 153.167 11.5276L152.832 16.5163C150.367 16.3504 147.964 16.2299 145.622 16.1535L145.785 11.1562Z" fill="#FFD60A"/>
</svg>
