<svg width="21" height="20" viewBox="0 0 21 20" fill="none" xmlns="http://www.w3.org/2000/svg">
<path d="M10.3328 0C7.6169 0 7.27606 0.0118752 6.20938 0.0604169C5.14479 0.109167 4.41812 0.277708 3.78228 0.525C3.12456 0.780417 2.56664 1.12208 2.0108 1.67813C1.45454 2.23396 1.11287 2.79187 0.85662 3.44937C0.608701 4.08542 0.439949 4.81229 0.392032 5.87646C0.344531 6.94313 0.332031 7.28417 0.332031 10C0.332031 12.7158 0.344115 13.0556 0.392449 14.1223C0.441408 15.1869 0.609951 15.9135 0.857037 16.5494C1.11266 17.2071 1.45433 17.765 2.01038 18.3208C2.56601 18.8771 3.12394 19.2196 3.78123 19.475C4.41749 19.7223 5.14437 19.8908 6.20876 19.9396C7.27544 19.9881 7.61607 20 10.3317 20C13.0478 20 13.3876 19.9881 14.4543 19.9396C15.5189 19.8908 16.2464 19.7223 16.8826 19.475C17.5401 19.2196 18.0972 18.8771 18.6528 18.3208C19.2091 17.765 19.5508 17.2071 19.807 16.5496C20.0529 15.9135 20.2216 15.1867 20.2716 14.1225C20.3195 13.0558 20.332 12.7158 20.332 10C20.332 7.28417 20.3195 6.94333 20.2716 5.87667C20.2216 4.81208 20.0529 4.08542 19.807 3.44958C19.5508 2.79187 19.2091 2.23396 18.6528 1.67813C18.0966 1.12188 17.5403 0.780208 16.882 0.525C16.2445 0.277708 15.5174 0.109167 14.4528 0.0604169C13.3861 0.0118752 13.0465 0 10.3298 0H10.3328ZM9.43567 1.80208C9.70192 1.80167 9.99901 1.80208 10.3328 1.80208C13.0028 1.80208 13.3193 1.81167 14.3736 1.85958C15.3486 1.90417 15.8778 2.06708 16.2303 2.20396C16.697 2.38521 17.0297 2.60188 17.3795 2.95188C17.7295 3.30188 17.9462 3.63521 18.1278 4.10188C18.2647 4.45396 18.4278 4.98312 18.4722 5.95813C18.5201 7.01229 18.5306 7.32896 18.5306 9.99771C18.5306 12.6665 18.5201 12.9831 18.4722 14.0373C18.4276 15.0123 18.2647 15.5415 18.1278 15.8935C17.9466 16.3602 17.7295 16.6925 17.3795 17.0423C17.0295 17.3923 16.6972 17.609 16.2303 17.7902C15.8782 17.9277 15.3486 18.0902 14.3736 18.1348C13.3195 18.1827 13.0028 18.1931 10.3328 18.1931C7.66252 18.1931 7.34606 18.1827 6.29188 18.1348C5.31687 18.0898 4.7877 17.9269 4.43499 17.79C3.96832 17.6087 3.63498 17.3921 3.28498 17.0421C2.93498 16.6921 2.71831 16.3596 2.53664 15.8927C2.39976 15.5406 2.23663 15.0115 2.19226 14.0365C2.14434 12.9823 2.13476 12.6656 2.13476 9.99521C2.13476 7.32479 2.14434 7.00979 2.19226 5.95563C2.23684 4.98063 2.39976 4.45146 2.53664 4.09896C2.71789 3.63229 2.93498 3.29896 3.28498 2.94896C3.63498 2.59896 3.96832 2.38229 4.43499 2.20062C4.78749 2.06312 5.31687 1.90063 6.29188 1.85583C7.21439 1.81417 7.5719 1.80167 9.43567 1.79958V1.80208Z" fill="#0E275D"/>
<path d="M15.6492 3.43794C15.4119 3.43794 15.1798 3.50833 14.9825 3.6402C14.7851 3.77208 14.6313 3.95952 14.5405 4.17881C14.4497 4.39811 14.426 4.63941 14.4723 4.8722C14.5186 5.10499 14.633 5.31881 14.8008 5.48661C14.9687 5.65442 15.1826 5.76867 15.4154 5.81493C15.6482 5.86118 15.8895 5.83736 16.1087 5.74647C16.328 5.65558 16.5154 5.50171 16.6472 5.30432C16.779 5.10692 16.8493 4.87487 16.8492 4.63752C16.8492 3.97502 16.3117 3.43752 15.6492 3.43752V3.43794Z" fill="#0E275D"/>
<path fill-rule="evenodd" clip-rule="evenodd" d="M10.3113 4.84002C7.47518 4.84002 5.17579 7.13939 5.17579 9.97544C5.17579 12.8115 7.47518 15.1098 10.3113 15.1098C13.1473 15.1098 15.4461 12.8115 15.4461 9.97544C15.4461 7.13939 13.1473 4.84002 10.3113 4.84002ZM10.332 13.2813C12.1442 13.2813 13.6133 11.8122 13.6133 10C13.6133 8.18783 12.1442 6.71877 10.332 6.71877C8.51985 6.71877 7.05079 8.18783 7.05079 10C7.05079 11.8122 8.51985 13.2813 10.332 13.2813Z" fill="#0E275D"/>
</svg>
