<svg width="167" height="220" viewBox="0 0 167 220" fill="none" xmlns="http://www.w3.org/2000/svg">
<path d="M151.25 27.2399C143.95 26.2736 138.815 19.5723 139.782 12.2722C140.748 4.97211 147.449 -0.162434 154.749 0.803896C162.05 1.77023 167.184 8.4715 166.218 15.7716C165.251 23.0717 158.55 28.2063 151.25 27.2399ZM3.75091 219.165C2.55548 219.856 1.02633 219.447 0.33546 218.251C-0.355407 217.056 0.0536233 215.526 1.24906 214.836L3.75091 219.165ZM6.97994 211.067C8.0871 210.242 9.6534 210.471 10.4783 211.578C11.3033 212.685 11.0745 214.251 9.96735 215.076L6.97994 211.067ZM20.7171 204.892C19.8313 205.952 18.2546 206.092 17.1955 205.206C16.1364 204.32 15.996 202.744 16.8818 201.685L20.7171 204.892ZM24.5381 190.298C25.1949 189.083 26.7118 188.631 27.9263 189.288C29.1409 189.945 29.593 191.462 28.9363 192.676L24.5381 190.298ZM34.8568 179.31C34.3876 180.608 32.9545 181.281 31.656 180.811C30.3575 180.342 29.6852 178.909 30.1545 177.61L34.8568 179.31ZM34.1985 164.184C34.5342 162.845 35.892 162.031 37.2313 162.367C38.5706 162.703 39.3842 164.06 39.0485 165.4L34.1985 164.184ZM42.0665 151.315C41.8167 152.673 40.5134 153.571 39.1555 153.321C37.7976 153.072 36.8993 151.768 37.1491 150.41L42.0665 151.315ZM39.4409 136.415C39.6432 135.05 40.9144 134.106 42.2802 134.309C43.646 134.511 44.5892 135.782 44.3869 137.148L39.4409 136.415ZM46.3778 122.993C46.1904 124.361 44.9295 125.318 43.5616 125.13C42.1936 124.943 41.2367 123.682 41.4241 122.314L46.3778 122.993ZM43.4195 108.156C43.6225 106.791 44.8942 105.848 46.2599 106.051C47.6256 106.254 48.5681 107.526 48.3651 108.892L43.4195 108.156ZM50.6622 94.9098C50.412 96.2677 49.1083 97.1656 47.7505 96.9153C46.3926 96.665 45.4948 95.3614 45.745 94.0036L50.6622 94.9098ZM48.7639 79.8943C49.0978 78.5546 50.4546 77.7393 51.7943 78.0733C53.134 78.4072 53.9494 79.764 53.6154 81.1037L48.7639 79.8943ZM57.6121 67.6664C57.1511 68.9679 55.7224 69.6492 54.4209 69.1883C53.1194 68.7273 52.438 67.2986 52.8989 65.9971L57.6121 67.6664ZM58.6561 52.5979C59.2921 51.3723 60.8012 50.8945 62.0267 51.5305C63.2522 52.1665 63.7301 53.6755 63.0941 54.901L58.6561 52.5979ZM70.4976 43.2756C69.6479 44.3639 68.0769 44.5574 66.9886 43.7078C65.9002 42.8582 65.7067 41.2871 66.5563 40.1988L70.4976 43.2756ZM76.8168 29.5997C77.8793 28.7181 79.4554 28.8648 80.3371 29.9274C81.2187 30.99 81.072 32.5661 80.0094 33.4477L76.8168 29.5997ZM91.4185 25.9033C90.1935 26.5402 88.6841 26.0635 88.0471 24.8384C87.4102 23.6134 87.887 22.104 89.112 21.4671L91.4185 25.9033ZM102.749 15.9365C104.069 15.5316 105.467 16.2735 105.872 17.5935C106.277 18.9135 105.535 20.3118 104.215 20.7167L102.749 15.9365ZM117.732 17.641C116.368 17.8561 115.088 16.9247 114.873 15.5609C114.658 14.197 115.589 12.9171 116.953 12.702L117.732 17.641ZM131.344 11.2516C132.723 11.1835 133.896 12.2463 133.965 13.6253C134.033 15.0043 132.97 16.1774 131.591 16.2455L131.344 11.2516ZM145.622 16.1535C144.242 16.1085 143.16 14.9533 143.205 13.5733C143.25 12.1934 144.405 11.1112 145.785 11.1562L145.622 16.1535ZM1.24906 214.836C3.27351 213.666 5.18092 212.407 6.97994 211.067L9.96735 215.076C8.01214 216.533 5.94255 217.898 3.75091 219.165L1.24906 214.836ZM16.8818 201.685C19.7971 198.199 22.3264 194.388 24.5381 190.298L28.9363 192.676C26.5838 197.027 23.8711 201.122 20.7171 204.892L16.8818 201.685ZM30.1545 177.61C31.7056 173.318 33.0343 168.829 34.1985 164.184L39.0485 165.4C37.8514 170.176 36.4758 174.83 34.8568 179.31L30.1545 177.61ZM37.1491 150.41C37.9927 145.824 38.7399 141.148 39.4409 136.415L44.3869 137.148C43.6808 141.916 42.9242 146.653 42.0665 151.315L37.1491 150.41ZM41.4241 122.314C42.0701 117.6 42.7198 112.864 43.4195 108.156L48.3651 108.892C47.6703 113.566 47.0244 118.274 46.3778 122.993L41.4241 122.314ZM45.745 94.0036C46.6255 89.2264 47.6137 84.5083 48.7639 79.8943L53.6154 81.1037C52.4957 85.5955 51.5285 90.2095 50.6622 94.9098L45.745 94.0036ZM52.8989 65.9971C54.5437 61.3532 56.44 56.8682 58.6561 52.5979L63.0941 54.901C60.9995 58.937 59.1919 63.2059 57.6121 67.6664L52.8989 65.9971ZM66.5563 40.1988C69.5528 36.3604 72.95 32.808 76.8168 29.5997L80.0094 33.4477C76.4339 36.4144 73.285 39.705 70.4976 43.2756L66.5563 40.1988ZM89.112 21.4671C93.2618 19.3095 97.7942 17.456 102.749 15.9365L104.215 20.7167C99.5341 22.1523 95.2845 23.8933 91.4185 25.9033L89.112 21.4671ZM116.953 12.702C121.462 11.9912 126.252 11.5031 131.344 11.2516L131.591 16.2455C126.662 16.4889 122.05 16.9602 117.732 17.641L116.953 12.702ZM145.785 11.1562C148.187 11.2345 150.647 11.3579 153.168 11.5276L152.832 16.5163C150.367 16.3504 147.964 16.2299 145.622 16.1535L145.785 11.1562Z" fill="#FFD60A"/>
</svg>
