<svg width="24" height="25" viewBox="0 0 24 25" fill="none" xmlns="http://www.w3.org/2000/svg">
<path d="M18.4644 24.381H23.1432V14.6868C23.1432 9.89905 20.322 8.26606 17.7113 8.26606C15.2972 8.26606 13.6573 9.91341 13.2045 10.8784V8.70662H8.70492V24.381H13.3837V15.8829C13.3837 13.617 14.7446 12.515 16.1329 12.515C17.4461 12.515 18.4644 13.294 18.4644 15.82V24.381Z" fill="white"/>
<path d="M0.857422 3.69051C0.857422 5.32692 2.06509 6.52277 3.5548 6.52277C5.04473 6.52277 6.2524 5.32692 6.2524 3.69051C6.2524 2.05434 5.04473 0.857117 3.5548 0.857117C2.06509 0.857117 0.857422 2.05434 0.857422 3.69051Z" fill="white"/>
<path d="M1.21553 24.3689H5.89407V8.69454H1.21553V24.3689Z" fill="white"/>
</svg>
