<svg width="409" height="627" viewBox="0 0 409 627" fill="none" xmlns="http://www.w3.org/2000/svg">
<rect width="409" height="627" fill=""/>
<g clip-path="url(#clip0_3008_1105)">
<path d="M27.3625 436.559L26.275 439.774H23.5L28.155 427.274H31.365L36 439.774H33.0825L31.995 436.559H27.3625ZM31.4475 434.719L29.75 429.664H29.6275L27.93 434.719H31.45H31.4475Z" fill="#0E275D"/>
<path d="M16 424.774C16 423.448 16.5268 422.176 17.4645 421.238C18.4021 420.301 19.6739 419.774 21 419.774H38.5C39.8261 419.774 41.0979 420.301 42.0355 421.238C42.9732 422.176 43.5 423.448 43.5 424.774V432.274H51C52.3261 432.274 53.5979 432.801 54.5355 433.738C55.4732 434.676 56 435.948 56 437.274V454.774C56 456.1 55.4732 457.372 54.5355 458.309C53.5979 459.247 52.3261 459.774 51 459.774H33.5C32.1739 459.774 30.9021 459.247 29.9645 458.309C29.0268 457.372 28.5 456.1 28.5 454.774V447.274H21C19.6739 447.274 18.4021 446.747 17.4645 445.809C16.5268 444.872 16 443.6 16 442.274V424.774ZM21 422.274C20.337 422.274 19.7011 422.537 19.2322 423.006C18.7634 423.475 18.5 424.111 18.5 424.774V442.274C18.5 442.937 18.7634 443.573 19.2322 444.042C19.7011 444.511 20.337 444.774 21 444.774H38.5C39.163 444.774 39.7989 444.511 40.2678 444.042C40.7366 443.573 41 442.937 41 442.274V424.774C41 424.111 40.7366 423.475 40.2678 423.006C39.7989 422.537 39.163 422.274 38.5 422.274H21ZM38.845 447.261C39.3275 448.014 39.85 448.719 40.42 449.376C38.55 450.814 36.2375 451.879 33.5 452.606C33.945 453.149 34.6275 454.194 34.8875 454.774C37.7 453.876 40.0875 452.664 42.1025 451.039C44.045 452.701 46.45 453.951 49.4275 454.719C49.76 454.084 50.4625 453.036 51 452.494C48.1875 451.861 45.8575 450.759 43.95 449.284C45.6525 447.416 47.005 445.156 48.0025 442.391H51V439.774H43.5V442.391H45.4125C44.6175 444.501 43.5625 446.256 42.2325 447.716C41.8651 447.325 41.5188 446.914 41.195 446.486C40.4895 446.939 39.6811 447.205 38.845 447.261V447.261Z" fill="#0E275D"/>
</g>
<path d="M86.4557 437.05L79.9489 444.163L73.4421 437.05" stroke="#0E275D" stroke-width="2" stroke-linecap="round" stroke-linejoin="round"/>
<g opacity="0.1">
<path d="M389.622 372.881C389.782 372.002 390.61 371.426 391.476 371.589C392.342 371.753 392.909 372.593 392.748 373.472C392.587 374.351 391.759 374.926 390.893 374.763C390.028 374.599 389.461 373.759 389.622 372.881Z" fill="url(#paint0_linear_3008_1105)"/>
<path d="M377.309 372.881C377.47 372.002 378.297 371.426 379.163 371.589C380.029 371.753 380.596 372.593 380.435 373.472C380.274 374.351 379.447 374.926 378.581 374.763C377.723 374.599 377.156 373.759 377.309 372.881Z" fill="url(#paint1_linear_3008_1105)"/>
<path d="M365.004 372.881C365.165 372.002 365.992 371.426 366.858 371.589C367.724 371.753 368.291 372.593 368.13 373.472C367.969 374.351 367.142 374.926 366.276 374.763C365.418 374.599 364.843 373.759 365.004 372.881Z" fill="url(#paint2_linear_3008_1105)"/>
<path d="M352.699 372.881C352.86 372.002 353.688 371.426 354.554 371.589C355.419 371.753 355.986 372.593 355.825 373.472C355.664 374.351 354.837 374.926 353.971 374.763C353.113 374.599 352.538 373.759 352.699 372.881Z" fill="url(#paint3_linear_3008_1105)"/>
<path d="M340.395 372.881C340.555 372.002 341.383 371.426 342.249 371.589C343.115 371.753 343.681 372.593 343.521 373.472C343.36 374.351 342.532 374.926 341.666 374.763C340.801 374.599 340.234 373.759 340.395 372.881Z" fill="url(#paint4_linear_3008_1105)"/>
<path d="M389.622 362.357C389.782 361.478 390.61 360.902 391.476 361.066C392.342 361.229 392.909 362.069 392.748 362.948C392.587 363.827 391.759 364.402 390.893 364.239C390.028 364.076 389.461 363.236 389.622 362.357Z" fill="url(#paint5_linear_3008_1105)"/>
<path d="M377.309 362.357C377.47 361.478 378.297 360.902 379.163 361.066C380.029 361.229 380.596 362.069 380.435 362.948C380.274 363.827 379.447 364.402 378.581 364.239C377.723 364.076 377.156 363.236 377.309 362.357Z" fill="url(#paint6_linear_3008_1105)"/>
<path d="M365.004 362.357C365.165 361.478 365.992 360.902 366.858 361.066C367.724 361.229 368.291 362.069 368.13 362.948C367.969 363.827 367.142 364.402 366.276 364.239C365.418 364.076 364.843 363.236 365.004 362.357Z" fill="url(#paint7_linear_3008_1105)"/>
<path d="M352.699 362.357C352.86 361.478 353.688 360.902 354.554 361.066C355.419 361.229 355.986 362.069 355.825 362.948C355.664 363.827 354.837 364.402 353.971 364.239C353.113 364.076 352.538 363.236 352.699 362.357Z" fill="url(#paint8_linear_3008_1105)"/>
<path d="M340.395 362.357C340.555 361.478 341.383 360.902 342.249 361.066C343.115 361.229 343.681 362.069 343.521 362.948C343.36 363.827 342.532 364.402 341.666 364.239C340.801 364.076 340.234 363.236 340.395 362.357Z" fill="url(#paint9_linear_3008_1105)"/>
<path d="M389.622 351.834C389.782 350.955 390.61 350.379 391.476 350.543C392.342 350.706 392.909 351.546 392.748 352.425C392.587 353.304 391.759 353.88 390.893 353.716C390.028 353.553 389.461 352.713 389.622 351.834Z" fill="url(#paint10_linear_3008_1105)"/>
<path d="M377.309 351.834C377.47 350.955 378.297 350.379 379.163 350.543C380.029 350.706 380.596 351.546 380.435 352.425C380.274 353.304 379.447 353.88 378.581 353.716C377.723 353.553 377.156 352.713 377.309 351.834Z" fill="url(#paint11_linear_3008_1105)"/>
<path d="M365.004 351.834C365.165 350.955 365.992 350.379 366.858 350.543C367.724 350.706 368.291 351.546 368.13 352.425C367.969 353.304 367.142 353.88 366.276 353.716C365.418 353.553 364.843 352.713 365.004 351.834Z" fill="url(#paint12_linear_3008_1105)"/>
<path d="M352.699 351.834C352.86 350.955 353.688 350.379 354.554 350.543C355.419 350.706 355.986 351.546 355.825 352.425C355.664 353.304 354.837 353.88 353.971 353.716C353.113 353.553 352.538 352.713 352.699 351.834Z" fill="url(#paint13_linear_3008_1105)"/>
<path d="M340.395 351.834C340.555 350.955 341.383 350.379 342.249 350.543C343.115 350.706 343.681 351.546 343.521 352.425C343.36 353.304 342.532 353.88 341.666 353.716C340.801 353.553 340.234 352.713 340.395 351.834Z" fill="url(#paint14_linear_3008_1105)"/>
<path d="M389.622 341.31C389.782 340.431 390.61 339.856 391.476 340.019C392.342 340.182 392.909 341.022 392.748 341.901C392.587 342.78 391.759 343.356 390.893 343.192C390.028 343.029 389.461 342.189 389.622 341.31Z" fill="url(#paint15_linear_3008_1105)"/>
<path d="M377.309 341.31C377.47 340.431 378.297 339.856 379.163 340.019C380.029 340.182 380.596 341.022 380.435 341.901C380.274 342.78 379.447 343.356 378.581 343.192C377.723 343.029 377.156 342.189 377.309 341.31Z" fill="url(#paint16_linear_3008_1105)"/>
<path d="M365.004 341.31C365.165 340.431 365.992 339.856 366.858 340.019C367.724 340.182 368.291 341.022 368.13 341.901C367.969 342.78 367.142 343.356 366.276 343.192C365.418 343.029 364.843 342.189 365.004 341.31Z" fill="url(#paint17_linear_3008_1105)"/>
<path d="M352.699 341.31C352.86 340.431 353.688 339.856 354.554 340.019C355.419 340.182 355.986 341.022 355.825 341.901C355.664 342.78 354.837 343.356 353.971 343.192C353.113 343.029 352.538 342.189 352.699 341.31Z" fill="url(#paint18_linear_3008_1105)"/>
<path d="M340.395 341.31C340.555 340.431 341.383 339.856 342.249 340.019C343.115 340.182 343.681 341.022 343.521 341.901C343.36 342.78 342.532 343.356 341.666 343.192C340.801 343.029 340.234 342.189 340.395 341.31Z" fill="url(#paint19_linear_3008_1105)"/>
<path d="M389.622 330.786C389.782 329.907 390.61 329.332 391.476 329.495C392.342 329.659 392.909 330.499 392.748 331.377C392.587 332.256 391.759 332.832 390.893 332.669C390.028 332.505 389.461 331.665 389.622 330.786Z" fill="url(#paint20_linear_3008_1105)"/>
<path d="M377.309 330.786C377.47 329.907 378.297 329.332 379.163 329.495C380.029 329.659 380.596 330.499 380.435 331.377C380.274 332.256 379.447 332.832 378.581 332.669C377.715 332.505 377.156 331.665 377.309 330.786Z" fill="url(#paint21_linear_3008_1105)"/>
<path d="M365.004 330.786C365.165 329.907 365.992 329.332 366.858 329.495C367.724 329.659 368.291 330.499 368.13 331.377C367.969 332.256 367.142 332.832 366.276 332.669C365.418 332.505 364.843 331.665 365.004 330.786Z" fill="url(#paint22_linear_3008_1105)"/>
<path d="M352.699 330.786C352.86 329.907 353.688 329.332 354.554 329.495C355.419 329.659 355.986 330.499 355.825 331.377C355.664 332.256 354.837 332.832 353.971 332.669C353.113 332.505 352.538 331.665 352.699 330.786Z" fill="url(#paint23_linear_3008_1105)"/>
<path d="M340.395 330.786C340.555 329.907 341.383 329.332 342.249 329.495C343.115 329.659 343.681 330.499 343.521 331.377C343.36 332.256 342.532 332.832 341.666 332.669C340.801 332.505 340.234 331.665 340.395 330.786Z" fill="url(#paint24_linear_3008_1105)"/>
<path d="M389.622 320.263C389.782 319.384 390.61 318.808 391.476 318.972C392.342 319.135 392.909 319.975 392.748 320.854C392.587 321.733 391.759 322.308 390.893 322.145C390.028 321.982 389.461 321.142 389.622 320.263Z" fill="url(#paint25_linear_3008_1105)"/>
<path d="M377.309 320.263C377.47 319.384 378.297 318.808 379.163 318.972C380.029 319.135 380.596 319.975 380.435 320.854C380.274 321.733 379.447 322.308 378.581 322.145C377.715 321.982 377.156 321.142 377.309 320.263Z" fill="url(#paint26_linear_3008_1105)"/>
<path d="M365.004 320.263C365.165 319.384 365.992 318.808 366.858 318.972C367.724 319.135 368.291 319.975 368.13 320.854C367.969 321.733 367.142 322.308 366.276 322.145C365.418 321.982 364.843 321.142 365.004 320.263Z" fill="url(#paint27_linear_3008_1105)"/>
<path d="M352.699 320.263C352.86 319.384 353.688 318.808 354.554 318.972C355.419 319.135 355.986 319.975 355.825 320.854C355.664 321.733 354.837 322.308 353.971 322.145C353.113 321.982 352.538 321.142 352.699 320.263Z" fill="url(#paint28_linear_3008_1105)"/>
<path d="M340.395 320.263C340.555 319.384 341.383 318.808 342.249 318.972C343.115 319.135 343.681 319.975 343.521 320.854C343.36 321.733 342.532 322.308 341.666 322.145C340.801 321.982 340.234 321.142 340.395 320.263Z" fill="url(#paint29_linear_3008_1105)"/>
<path d="M389.622 309.739C389.782 308.861 390.61 308.285 391.476 308.448C392.342 308.612 392.909 309.452 392.748 310.331C392.587 311.209 391.759 311.785 390.893 311.622C390.028 311.458 389.461 310.618 389.622 309.739Z" fill="url(#paint30_linear_3008_1105)"/>
<path d="M377.309 309.739C377.47 308.861 378.297 308.285 379.163 308.448C380.029 308.612 380.596 309.452 380.435 310.331C380.274 311.209 379.447 311.785 378.581 311.622C377.723 311.458 377.156 310.618 377.309 309.739Z" fill="url(#paint31_linear_3008_1105)"/>
<path d="M365.004 309.739C365.165 308.861 365.992 308.285 366.858 308.448C367.724 308.612 368.291 309.452 368.13 310.331C367.969 311.209 367.142 311.785 366.276 311.622C365.418 311.458 364.843 310.618 365.004 309.739Z" fill="url(#paint32_linear_3008_1105)"/>
<path d="M352.699 309.739C352.86 308.861 353.688 308.285 354.554 308.448C355.419 308.612 355.986 309.452 355.825 310.331C355.664 311.209 354.837 311.785 353.971 311.622C353.113 311.458 352.538 310.618 352.699 309.739Z" fill="url(#paint33_linear_3008_1105)"/>
<path d="M340.395 309.739C340.555 308.861 341.383 308.285 342.249 308.448C343.115 308.612 343.681 309.452 343.521 310.331C343.36 311.209 342.532 311.785 341.666 311.622C340.801 311.458 340.234 310.618 340.395 309.739Z" fill="url(#paint34_linear_3008_1105)"/>
<path d="M389.622 299.216C389.782 298.337 390.61 297.761 391.476 297.925C392.342 298.088 392.909 298.928 392.748 299.807C392.587 300.686 391.759 301.261 390.893 301.098C390.028 300.935 389.461 300.095 389.622 299.216Z" fill="url(#paint35_linear_3008_1105)"/>
<path d="M377.309 299.216C377.47 298.337 378.297 297.761 379.163 297.925C380.029 298.088 380.596 298.928 380.435 299.807C380.274 300.686 379.447 301.261 378.581 301.098C377.723 300.935 377.156 300.095 377.309 299.216Z" fill="url(#paint36_linear_3008_1105)"/>
<path d="M365.004 299.216C365.165 298.337 365.992 297.761 366.858 297.925C367.724 298.088 368.291 298.928 368.13 299.807C367.969 300.686 367.142 301.261 366.276 301.098C365.418 300.935 364.843 300.095 365.004 299.216Z" fill="url(#paint37_linear_3008_1105)"/>
<path d="M352.699 299.216C352.86 298.337 353.688 297.761 354.554 297.925C355.419 298.088 355.986 298.928 355.825 299.807C355.664 300.686 354.837 301.261 353.971 301.098C353.113 300.935 352.538 300.095 352.699 299.216Z" fill="url(#paint38_linear_3008_1105)"/>
<path d="M340.395 299.216C340.555 298.337 341.383 297.761 342.249 297.925C343.115 298.088 343.681 298.928 343.521 299.807C343.36 300.686 342.532 301.261 341.666 301.098C340.801 300.935 340.234 300.095 340.395 299.216Z" fill="url(#paint39_linear_3008_1105)"/>
<path d="M389.622 288.692C389.782 287.813 390.61 287.238 391.476 287.401C392.342 287.564 392.909 288.404 392.748 289.283C392.587 290.162 391.759 290.738 390.893 290.574C390.028 290.411 389.461 289.571 389.622 288.692Z" fill="url(#paint40_linear_3008_1105)"/>
<path d="M377.309 288.692C377.47 287.813 378.297 287.238 379.163 287.401C380.029 287.564 380.596 288.404 380.435 289.283C380.274 290.162 379.447 290.738 378.581 290.574C377.723 290.411 377.156 289.571 377.309 288.692Z" fill="url(#paint41_linear_3008_1105)"/>
<path d="M365.004 288.692C365.165 287.813 365.992 287.238 366.858 287.401C367.724 287.564 368.291 288.404 368.13 289.283C367.969 290.162 367.142 290.738 366.276 290.574C365.418 290.411 364.843 289.571 365.004 288.692Z" fill="url(#paint42_linear_3008_1105)"/>
<path d="M352.699 288.692C352.86 287.813 353.688 287.238 354.554 287.401C355.419 287.564 355.986 288.404 355.825 289.283C355.664 290.162 354.837 290.738 353.971 290.574C353.113 290.411 352.538 289.571 352.699 288.692Z" fill="url(#paint43_linear_3008_1105)"/>
<path d="M340.395 288.692C340.555 287.813 341.383 287.238 342.249 287.401C343.115 287.564 343.681 288.404 343.521 289.283C343.36 290.162 342.532 290.738 341.666 290.574C340.801 290.411 340.234 289.571 340.395 288.692Z" fill="url(#paint44_linear_3008_1105)"/>
<path d="M389.622 278.169C389.782 277.29 390.61 276.714 391.476 276.878C392.342 277.041 392.909 277.881 392.748 278.76C392.587 279.639 391.759 280.214 390.893 280.051C390.028 279.888 389.461 279.048 389.622 278.169Z" fill="url(#paint45_linear_3008_1105)"/>
<path d="M377.309 278.169C377.47 277.29 378.297 276.715 379.163 276.878C380.029 277.041 380.596 277.881 380.435 278.76C380.274 279.639 379.447 280.215 378.581 280.051C377.723 279.888 377.156 279.048 377.309 278.169Z" fill="url(#paint46_linear_3008_1105)"/>
<path d="M365.004 278.169C365.165 277.29 365.992 276.715 366.858 276.878C367.724 277.041 368.291 277.881 368.13 278.76C367.969 279.639 367.142 280.215 366.276 280.051C365.418 279.888 364.843 279.048 365.004 278.169Z" fill="url(#paint47_linear_3008_1105)"/>
<path d="M352.699 278.169C352.86 277.29 353.688 276.715 354.554 276.878C355.419 277.041 355.986 277.881 355.825 278.76C355.664 279.639 354.837 280.215 353.971 280.051C353.113 279.888 352.538 279.048 352.699 278.169Z" fill="url(#paint48_linear_3008_1105)"/>
<path d="M340.395 278.169C340.555 277.29 341.383 276.715 342.249 276.878C343.115 277.041 343.681 277.881 343.521 278.76C343.36 279.639 342.532 280.215 341.666 280.051C340.801 279.888 340.234 279.048 340.395 278.169Z" fill="url(#paint49_linear_3008_1105)"/>
<path d="M389.622 267.645C389.782 266.766 390.61 266.191 391.476 266.354C392.342 266.517 392.909 267.357 392.748 268.236C392.587 269.115 391.759 269.691 390.893 269.527C390.028 269.364 389.461 268.524 389.622 267.645Z" fill="url(#paint50_linear_3008_1105)"/>
<path d="M377.309 267.645C377.47 266.766 378.297 266.191 379.163 266.354C380.029 266.517 380.596 267.357 380.435 268.236C380.274 269.115 379.447 269.691 378.581 269.527C377.723 269.364 377.156 268.524 377.309 267.645Z" fill="url(#paint51_linear_3008_1105)"/>
<path d="M365.004 267.645C365.165 266.766 365.992 266.191 366.858 266.354C367.724 266.517 368.291 267.357 368.13 268.236C367.969 269.115 367.142 269.691 366.276 269.527C365.418 269.364 364.843 268.524 365.004 267.645Z" fill="url(#paint52_linear_3008_1105)"/>
<path d="M352.699 267.645C352.86 266.766 353.688 266.191 354.554 266.354C355.419 266.517 355.986 267.357 355.825 268.236C355.664 269.115 354.837 269.691 353.971 269.527C353.113 269.364 352.538 268.524 352.699 267.645Z" fill="url(#paint53_linear_3008_1105)"/>
<path d="M340.395 267.645C340.555 266.766 341.383 266.191 342.249 266.354C343.115 266.517 343.681 267.357 343.521 268.236C343.36 269.115 342.532 269.691 341.666 269.527C340.801 269.364 340.234 268.524 340.395 267.645Z" fill="url(#paint54_linear_3008_1105)"/>
<path d="M328.326 372.881C328.487 372.002 329.315 371.426 330.18 371.589C331.046 371.753 331.613 372.593 331.452 373.472C331.291 374.351 330.464 374.926 329.598 374.763C328.732 374.599 328.165 373.759 328.326 372.881Z" fill="url(#paint55_linear_3008_1105)"/>
<path d="M316.015 372.881C316.176 372.002 317.003 371.426 317.869 371.589C318.735 371.753 319.302 372.593 319.141 373.472C318.98 374.351 318.152 374.926 317.287 374.763C316.428 374.599 315.861 373.759 316.015 372.881Z" fill="url(#paint56_linear_3008_1105)"/>
<path d="M303.709 372.881C303.87 372.002 304.697 371.426 305.563 371.589C306.429 371.753 306.996 372.593 306.835 373.472C306.674 374.351 305.847 374.926 304.981 374.763C304.123 374.599 303.548 373.759 303.709 372.881Z" fill="url(#paint57_linear_3008_1105)"/>
<path d="M328.326 362.357C328.487 361.478 329.315 360.902 330.18 361.066C331.046 361.229 331.613 362.069 331.452 362.948C331.291 363.827 330.464 364.402 329.598 364.239C328.732 364.076 328.165 363.236 328.326 362.357Z" fill="url(#paint58_linear_3008_1105)"/>
<path d="M316.015 362.357C316.176 361.478 317.003 360.902 317.869 361.066C318.735 361.229 319.302 362.069 319.141 362.948C318.98 363.827 318.152 364.402 317.287 364.239C316.428 364.076 315.861 363.236 316.015 362.357Z" fill="url(#paint59_linear_3008_1105)"/>
<path d="M303.709 362.357C303.87 361.478 304.697 360.902 305.563 361.066C306.429 361.229 306.996 362.069 306.835 362.948C306.674 363.827 305.847 364.402 304.981 364.239C304.123 364.076 303.548 363.236 303.709 362.357Z" fill="url(#paint60_linear_3008_1105)"/>
<path d="M328.326 351.834C328.487 350.955 329.315 350.379 330.18 350.543C331.046 350.706 331.613 351.546 331.452 352.425C331.291 353.304 330.464 353.88 329.598 353.716C328.732 353.553 328.165 352.713 328.326 351.834Z" fill="url(#paint61_linear_3008_1105)"/>
<path d="M316.015 351.834C316.176 350.955 317.003 350.379 317.869 350.543C318.735 350.706 319.302 351.546 319.141 352.425C318.98 353.304 318.152 353.88 317.287 353.716C316.428 353.553 315.861 352.713 316.015 351.834Z" fill="url(#paint62_linear_3008_1105)"/>
<path d="M303.709 351.834C303.87 350.955 304.697 350.379 305.563 350.543C306.429 350.706 306.996 351.546 306.835 352.425C306.674 353.304 305.847 353.88 304.981 353.716C304.123 353.553 303.548 352.713 303.709 351.834Z" fill="url(#paint63_linear_3008_1105)"/>
<path d="M328.326 341.31C328.487 340.431 329.315 339.856 330.18 340.019C331.046 340.182 331.613 341.022 331.452 341.901C331.291 342.78 330.464 343.356 329.598 343.192C328.732 343.029 328.165 342.189 328.326 341.31Z" fill="url(#paint64_linear_3008_1105)"/>
<path d="M316.015 341.31C316.176 340.431 317.003 339.856 317.869 340.019C318.735 340.182 319.302 341.022 319.141 341.901C318.98 342.78 318.152 343.356 317.287 343.192C316.428 343.029 315.861 342.189 316.015 341.31Z" fill="url(#paint65_linear_3008_1105)"/>
<path d="M303.709 341.31C303.87 340.431 304.697 339.856 305.563 340.019C306.429 340.182 306.996 341.022 306.835 341.901C306.674 342.78 305.847 343.356 304.981 343.192C304.123 343.029 303.548 342.189 303.709 341.31Z" fill="url(#paint66_linear_3008_1105)"/>
<path d="M328.326 330.786C328.487 329.907 329.315 329.332 330.18 329.495C331.046 329.659 331.613 330.499 331.452 331.377C331.291 332.256 330.464 332.832 329.598 332.669C328.732 332.505 328.165 331.665 328.326 330.786Z" fill="url(#paint67_linear_3008_1105)"/>
<path d="M316.015 330.786C316.176 329.907 317.003 329.332 317.869 329.495C318.735 329.659 319.302 330.499 319.141 331.377C318.98 332.256 318.152 332.832 317.287 332.669C316.421 332.505 315.861 331.665 316.015 330.786Z" fill="url(#paint68_linear_3008_1105)"/>
<path d="M303.709 330.786C303.87 329.907 304.697 329.332 305.563 329.495C306.429 329.659 306.996 330.499 306.835 331.377C306.674 332.256 305.847 332.832 304.981 332.669C304.123 332.505 303.548 331.665 303.709 330.786Z" fill="url(#paint69_linear_3008_1105)"/>
<path d="M328.326 320.263C328.487 319.384 329.315 318.808 330.18 318.972C331.046 319.135 331.613 319.975 331.452 320.854C331.291 321.733 330.464 322.308 329.598 322.145C328.732 321.982 328.165 321.142 328.326 320.263Z" fill="url(#paint70_linear_3008_1105)"/>
<path d="M316.015 320.263C316.176 319.384 317.003 318.808 317.869 318.972C318.735 319.135 319.302 319.975 319.141 320.854C318.98 321.733 318.152 322.308 317.287 322.145C316.421 321.982 315.861 321.142 316.015 320.263Z" fill="url(#paint71_linear_3008_1105)"/>
<path d="M303.709 320.263C303.87 319.384 304.697 318.808 305.563 318.972C306.429 319.135 306.996 319.975 306.835 320.854C306.674 321.733 305.847 322.308 304.981 322.145C304.123 321.982 303.548 321.142 303.709 320.263Z" fill="url(#paint72_linear_3008_1105)"/>
<path d="M328.326 309.739C328.487 308.861 329.315 308.285 330.18 308.448C331.046 308.612 331.613 309.452 331.452 310.331C331.291 311.209 330.464 311.785 329.598 311.622C328.732 311.458 328.165 310.618 328.326 309.739Z" fill="url(#paint73_linear_3008_1105)"/>
<path d="M316.015 309.739C316.176 308.861 317.003 308.285 317.869 308.448C318.735 308.612 319.302 309.452 319.141 310.331C318.98 311.209 318.152 311.785 317.287 311.622C316.428 311.458 315.861 310.618 316.015 309.739Z" fill="url(#paint74_linear_3008_1105)"/>
<path d="M303.709 309.739C303.87 308.861 304.697 308.285 305.563 308.448C306.429 308.612 306.996 309.452 306.835 310.331C306.674 311.209 305.847 311.785 304.981 311.622C304.123 311.458 303.548 310.618 303.709 309.739Z" fill="url(#paint75_linear_3008_1105)"/>
<path d="M328.326 299.216C328.487 298.337 329.315 297.761 330.18 297.925C331.046 298.088 331.613 298.928 331.452 299.807C331.291 300.686 330.464 301.261 329.598 301.098C328.732 300.935 328.165 300.095 328.326 299.216Z" fill="url(#paint76_linear_3008_1105)"/>
<path d="M316.015 299.216C316.176 298.337 317.003 297.761 317.869 297.925C318.735 298.088 319.302 298.928 319.141 299.807C318.98 300.686 318.152 301.261 317.287 301.098C316.428 300.935 315.861 300.095 316.015 299.216Z" fill="url(#paint77_linear_3008_1105)"/>
<path d="M303.709 299.216C303.87 298.337 304.697 297.761 305.563 297.925C306.429 298.088 306.996 298.928 306.835 299.807C306.674 300.686 305.847 301.261 304.981 301.098C304.123 300.935 303.548 300.095 303.709 299.216Z" fill="url(#paint78_linear_3008_1105)"/>
<path d="M328.326 288.692C328.487 287.813 329.315 287.238 330.18 287.401C331.046 287.564 331.613 288.404 331.452 289.283C331.291 290.162 330.464 290.738 329.598 290.574C328.732 290.411 328.165 289.571 328.326 288.692Z" fill="url(#paint79_linear_3008_1105)"/>
<path d="M316.015 288.692C316.176 287.813 317.003 287.238 317.869 287.401C318.735 287.564 319.302 288.404 319.141 289.283C318.98 290.162 318.152 290.738 317.287 290.574C316.428 290.411 315.861 289.571 316.015 288.692Z" fill="url(#paint80_linear_3008_1105)"/>
<path d="M303.709 288.692C303.87 287.813 304.697 287.238 305.563 287.401C306.429 287.564 306.996 288.404 306.835 289.283C306.674 290.162 305.847 290.738 304.981 290.574C304.123 290.411 303.548 289.571 303.709 288.692Z" fill="url(#paint81_linear_3008_1105)"/>
<path d="M328.326 278.169C328.487 277.29 329.315 276.715 330.18 276.878C331.046 277.041 331.613 277.881 331.452 278.76C331.291 279.639 330.464 280.215 329.598 280.051C328.732 279.888 328.165 279.048 328.326 278.169Z" fill="url(#paint82_linear_3008_1105)"/>
<path d="M316.015 278.169C316.176 277.29 317.003 276.715 317.869 276.878C318.735 277.041 319.302 277.881 319.141 278.76C318.98 279.639 318.152 280.215 317.287 280.051C316.428 279.888 315.861 279.048 316.015 278.169Z" fill="url(#paint83_linear_3008_1105)"/>
<path d="M303.709 278.169C303.87 277.29 304.697 276.715 305.563 276.878C306.429 277.041 306.996 277.881 306.835 278.76C306.674 279.639 305.847 280.215 304.981 280.051C304.123 279.888 303.548 279.048 303.709 278.169Z" fill="url(#paint84_linear_3008_1105)"/>
<path d="M328.326 267.645C328.487 266.766 329.315 266.191 330.18 266.354C331.046 266.517 331.613 267.357 331.452 268.236C331.291 269.115 330.464 269.691 329.598 269.527C328.732 269.364 328.165 268.524 328.326 267.645Z" fill="url(#paint85_linear_3008_1105)"/>
<path d="M316.015 267.645C316.176 266.766 317.003 266.191 317.869 266.354C318.735 266.517 319.302 267.357 319.141 268.236C318.98 269.115 318.152 269.691 317.287 269.527C316.428 269.364 315.861 268.524 316.015 267.645Z" fill="url(#paint86_linear_3008_1105)"/>
<path d="M303.709 267.645C303.87 266.766 304.697 266.191 305.563 266.354C306.429 266.517 306.996 267.357 306.835 268.236C306.674 269.115 305.847 269.691 304.981 269.527C304.123 269.364 303.548 268.524 303.709 267.645Z" fill="url(#paint87_linear_3008_1105)"/>
</g>
<g filter="url(#filter0_d_3008_1105)">
<path d="M215 220.24C215 208.09 224.85 198.24 237 198.24H340C352.15 198.24 362 208.09 362 220.24V323.24C362 335.391 352.15 345.24 340 345.24H237C224.85 345.24 215 335.391 215 323.24V220.24Z" fill="white"/>
</g>
<path d="M247.415 286.379L260.759 272.795C261.399 272.091 261.927 271.467 262.343 270.923C262.759 270.347 263.047 269.819 263.207 269.339C263.399 268.827 263.495 268.299 263.495 267.755C263.495 266.539 263.095 265.579 262.295 264.875C261.527 264.171 260.503 263.819 259.223 263.819C258.007 263.819 256.903 264.171 255.911 264.875C254.919 265.547 253.895 266.683 252.839 268.283L247.223 263.291C248.599 261.051 250.359 259.355 252.503 258.203C254.647 257.019 257.111 256.427 259.895 256.427C262.359 256.427 264.487 256.875 266.279 257.771C268.071 258.667 269.447 259.947 270.407 261.611C271.399 263.243 271.895 265.179 271.895 267.419C271.895 268.763 271.719 270.011 271.367 271.163C271.015 272.283 270.455 273.403 269.687 274.523C268.919 275.611 267.895 276.763 266.615 277.979L257.783 286.571L247.415 286.379ZM247.415 291.035V286.379L254.567 283.883H272.615V291.035H247.415ZM290.192 291.563C287.344 291.563 284.8 290.827 282.56 289.355C280.32 287.851 278.544 285.771 277.232 283.115C275.952 280.459 275.312 277.403 275.312 273.947C275.312 270.523 275.952 267.499 277.232 264.875C278.512 262.219 280.256 260.155 282.464 258.683C284.704 257.179 287.232 256.427 290.048 256.427C292.928 256.427 295.488 257.179 297.728 258.683C299.968 260.155 301.728 262.219 303.008 264.875C304.288 267.499 304.928 270.555 304.928 274.043C304.928 277.499 304.288 280.555 303.008 283.211C301.728 285.835 299.968 287.883 297.728 289.355C295.52 290.827 293.008 291.563 290.192 291.563ZM290.096 284.171C291.408 284.171 292.528 283.787 293.456 283.019C294.384 282.219 295.088 281.067 295.568 279.563C296.08 278.059 296.336 276.203 296.336 273.995C296.336 271.819 296.08 269.979 295.568 268.475C295.088 266.971 294.384 265.835 293.456 265.067C292.528 264.267 291.392 263.867 290.048 263.867C288.8 263.867 287.712 264.251 286.784 265.019C285.856 265.787 285.136 266.923 284.624 268.427C284.144 269.931 283.904 271.771 283.904 273.947C283.904 276.155 284.144 278.027 284.624 279.563C285.136 281.067 285.856 282.219 286.784 283.019C287.712 283.787 288.816 284.171 290.096 284.171ZM308.475 278.363V271.595H331.371V278.363H308.475ZM316.491 262.907H323.403V286.955H316.491V262.907Z" fill="url(#paint88_linear_3008_1105)"/>
<path d="M250.819 314.861C250.488 314.861 250.232 314.77 250.051 314.589C249.87 314.397 249.779 314.136 249.779 313.805V304.573C249.779 304.232 249.864 303.976 250.035 303.805C250.216 303.624 250.472 303.533 250.803 303.533C251.134 303.533 251.384 303.624 251.555 303.805C251.736 303.976 251.827 304.232 251.827 304.573V313.117H256.467C256.755 313.117 256.974 313.192 257.123 313.341C257.283 313.49 257.363 313.704 257.363 313.981C257.363 314.258 257.283 314.477 257.123 314.637C256.974 314.786 256.755 314.861 256.467 314.861H250.819ZM261.147 315.021C260.582 315.021 260.075 314.914 259.627 314.701C259.19 314.477 258.843 314.178 258.587 313.805C258.342 313.432 258.219 313.01 258.219 312.541C258.219 311.965 258.369 311.512 258.667 311.181C258.966 310.84 259.451 310.594 260.123 310.445C260.795 310.296 261.697 310.221 262.827 310.221H263.627V311.373H262.843C262.182 311.373 261.654 311.405 261.259 311.469C260.865 311.533 260.582 311.645 260.411 311.805C260.251 311.954 260.171 312.168 260.171 312.445C260.171 312.797 260.294 313.085 260.539 313.309C260.785 313.533 261.126 313.645 261.563 313.645C261.915 313.645 262.225 313.565 262.491 313.405C262.769 313.234 262.987 313.005 263.147 312.717C263.307 312.429 263.387 312.098 263.387 311.725V309.885C263.387 309.352 263.27 308.968 263.035 308.733C262.801 308.498 262.406 308.381 261.851 308.381C261.542 308.381 261.206 308.418 260.843 308.493C260.491 308.568 260.118 308.696 259.723 308.877C259.521 308.973 259.339 309 259.179 308.957C259.03 308.914 258.913 308.829 258.827 308.701C258.742 308.562 258.699 308.413 258.699 308.253C258.699 308.093 258.742 307.938 258.827 307.789C258.913 307.629 259.057 307.512 259.259 307.437C259.75 307.234 260.219 307.09 260.667 307.005C261.126 306.92 261.542 306.877 261.915 306.877C262.683 306.877 263.313 306.994 263.803 307.229C264.305 307.464 264.678 307.821 264.923 308.301C265.169 308.77 265.291 309.378 265.291 310.125V313.965C265.291 314.296 265.211 314.552 265.051 314.733C264.891 314.904 264.662 314.989 264.363 314.989C264.065 314.989 263.83 314.904 263.659 314.733C263.499 314.552 263.419 314.296 263.419 313.965V313.197H263.547C263.473 313.57 263.323 313.896 263.099 314.173C262.886 314.44 262.614 314.648 262.283 314.797C261.953 314.946 261.574 315.021 261.147 315.021ZM268.313 314.989C267.993 314.989 267.748 314.904 267.577 314.733C267.407 314.552 267.321 314.296 267.321 313.965V307.917C267.321 307.586 267.407 307.336 267.577 307.165C267.748 306.994 267.988 306.909 268.297 306.909C268.607 306.909 268.847 306.994 269.017 307.165C269.188 307.336 269.273 307.586 269.273 307.917V309.005L269.097 308.605C269.332 308.04 269.695 307.613 270.185 307.325C270.687 307.026 271.252 306.877 271.881 306.877C272.511 306.877 273.028 306.994 273.433 307.229C273.839 307.464 274.143 307.821 274.345 308.301C274.548 308.77 274.649 309.368 274.649 310.093V313.965C274.649 314.296 274.564 314.552 274.393 314.733C274.223 314.904 273.977 314.989 273.657 314.989C273.337 314.989 273.087 314.904 272.905 314.733C272.735 314.552 272.649 314.296 272.649 313.965V310.189C272.649 309.581 272.532 309.138 272.297 308.861C272.073 308.584 271.721 308.445 271.241 308.445C270.655 308.445 270.185 308.632 269.833 309.005C269.492 309.368 269.321 309.853 269.321 310.461V313.965C269.321 314.648 268.985 314.989 268.313 314.989ZM280.329 317.901C279.753 317.901 279.193 317.848 278.649 317.741C278.115 317.634 277.63 317.469 277.193 317.245C276.99 317.138 276.851 317.01 276.777 316.861C276.713 316.712 276.691 316.557 276.713 316.397C276.745 316.248 276.809 316.114 276.905 315.997C277.011 315.88 277.139 315.8 277.289 315.757C277.438 315.714 277.593 315.736 277.753 315.821C278.222 316.056 278.665 316.205 279.081 316.269C279.507 316.344 279.87 316.381 280.169 316.381C280.883 316.381 281.417 316.205 281.769 315.853C282.131 315.512 282.313 315 282.313 314.317V312.877H282.457C282.297 313.421 281.961 313.858 281.449 314.189C280.947 314.509 280.377 314.669 279.737 314.669C279.033 314.669 278.419 314.509 277.897 314.189C277.374 313.858 276.969 313.4 276.681 312.813C276.393 312.226 276.249 311.544 276.249 310.765C276.249 310.178 276.329 309.65 276.489 309.181C276.659 308.701 276.894 308.29 277.193 307.949C277.502 307.608 277.87 307.346 278.297 307.165C278.734 306.973 279.214 306.877 279.737 306.877C280.398 306.877 280.974 307.042 281.465 307.373C281.966 307.693 282.291 308.12 282.441 308.653L282.281 309.053V307.917C282.281 307.586 282.366 307.336 282.537 307.165C282.718 306.994 282.963 306.909 283.273 306.909C283.593 306.909 283.838 306.994 284.009 307.165C284.179 307.336 284.265 307.586 284.265 307.917V314.077C284.265 315.346 283.929 316.301 283.257 316.941C282.585 317.581 281.609 317.901 280.329 317.901ZM280.281 313.149C280.697 313.149 281.054 313.053 281.353 312.861C281.651 312.669 281.881 312.397 282.041 312.045C282.211 311.682 282.297 311.256 282.297 310.765C282.297 310.029 282.115 309.453 281.753 309.037C281.39 308.61 280.899 308.397 280.281 308.397C279.865 308.397 279.507 308.493 279.209 308.685C278.91 308.877 278.675 309.149 278.505 309.501C278.345 309.853 278.265 310.274 278.265 310.765C278.265 311.501 278.446 312.082 278.809 312.509C279.171 312.936 279.662 313.149 280.281 313.149ZM289.169 315.021C288.518 315.021 287.98 314.904 287.553 314.669C287.126 314.424 286.806 314.061 286.593 313.581C286.39 313.101 286.289 312.504 286.289 311.789V307.917C286.289 307.576 286.374 307.325 286.545 307.165C286.716 306.994 286.961 306.909 287.281 306.909C287.601 306.909 287.846 306.994 288.017 307.165C288.198 307.325 288.289 307.576 288.289 307.917V311.821C288.289 312.376 288.401 312.786 288.625 313.053C288.849 313.32 289.206 313.453 289.697 313.453C290.23 313.453 290.668 313.272 291.009 312.909C291.35 312.536 291.521 312.045 291.521 311.437V307.917C291.521 307.576 291.606 307.325 291.777 307.165C291.948 306.994 292.193 306.909 292.513 306.909C292.833 306.909 293.078 306.994 293.249 307.165C293.43 307.325 293.521 307.576 293.521 307.917V313.965C293.521 314.648 293.196 314.989 292.545 314.989C292.236 314.989 291.996 314.904 291.825 314.733C291.654 314.552 291.569 314.296 291.569 313.965V312.749L291.793 313.229C291.569 313.805 291.228 314.248 290.769 314.557C290.321 314.866 289.788 315.021 289.169 315.021ZM298.179 315.021C297.613 315.021 297.107 314.914 296.659 314.701C296.221 314.477 295.875 314.178 295.619 313.805C295.373 313.432 295.251 313.01 295.251 312.541C295.251 311.965 295.4 311.512 295.699 311.181C295.997 310.84 296.483 310.594 297.155 310.445C297.827 310.296 298.728 310.221 299.859 310.221H300.659V311.373H299.875C299.213 311.373 298.685 311.405 298.291 311.469C297.896 311.533 297.613 311.645 297.443 311.805C297.283 311.954 297.203 312.168 297.203 312.445C297.203 312.797 297.325 313.085 297.571 313.309C297.816 313.533 298.157 313.645 298.595 313.645C298.947 313.645 299.256 313.565 299.523 313.405C299.8 313.234 300.019 313.005 300.179 312.717C300.339 312.429 300.419 312.098 300.419 311.725V309.885C300.419 309.352 300.301 308.968 300.067 308.733C299.832 308.498 299.437 308.381 298.883 308.381C298.573 308.381 298.237 308.418 297.875 308.493C297.523 308.568 297.149 308.696 296.755 308.877C296.552 308.973 296.371 309 296.211 308.957C296.061 308.914 295.944 308.829 295.859 308.701C295.773 308.562 295.731 308.413 295.731 308.253C295.731 308.093 295.773 307.938 295.859 307.789C295.944 307.629 296.088 307.512 296.291 307.437C296.781 307.234 297.251 307.09 297.699 307.005C298.157 306.92 298.573 306.877 298.947 306.877C299.715 306.877 300.344 306.994 300.835 307.229C301.336 307.464 301.709 307.821 301.955 308.301C302.2 308.77 302.323 309.378 302.323 310.125V313.965C302.323 314.296 302.243 314.552 302.083 314.733C301.923 314.904 301.693 314.989 301.395 314.989C301.096 314.989 300.861 314.904 300.691 314.733C300.531 314.552 300.451 314.296 300.451 313.965V313.197H300.579C300.504 313.57 300.355 313.896 300.131 314.173C299.917 314.44 299.645 314.648 299.315 314.797C298.984 314.946 298.605 315.021 298.179 315.021ZM308.001 317.901C307.425 317.901 306.865 317.848 306.321 317.741C305.787 317.634 305.302 317.469 304.865 317.245C304.662 317.138 304.523 317.01 304.449 316.861C304.385 316.712 304.363 316.557 304.385 316.397C304.417 316.248 304.481 316.114 304.577 315.997C304.683 315.88 304.811 315.8 304.961 315.757C305.11 315.714 305.265 315.736 305.425 315.821C305.894 316.056 306.337 316.205 306.753 316.269C307.179 316.344 307.542 316.381 307.841 316.381C308.555 316.381 309.089 316.205 309.441 315.853C309.803 315.512 309.985 315 309.985 314.317V312.877H310.129C309.969 313.421 309.633 313.858 309.121 314.189C308.619 314.509 308.049 314.669 307.409 314.669C306.705 314.669 306.091 314.509 305.569 314.189C305.046 313.858 304.641 313.4 304.353 312.813C304.065 312.226 303.921 311.544 303.921 310.765C303.921 310.178 304.001 309.65 304.161 309.181C304.331 308.701 304.566 308.29 304.865 307.949C305.174 307.608 305.542 307.346 305.969 307.165C306.406 306.973 306.886 306.877 307.409 306.877C308.07 306.877 308.646 307.042 309.137 307.373C309.638 307.693 309.963 308.12 310.113 308.653L309.953 309.053V307.917C309.953 307.586 310.038 307.336 310.209 307.165C310.39 306.994 310.635 306.909 310.945 306.909C311.265 306.909 311.51 306.994 311.681 307.165C311.851 307.336 311.937 307.586 311.937 307.917V314.077C311.937 315.346 311.601 316.301 310.929 316.941C310.257 317.581 309.281 317.901 308.001 317.901ZM307.953 313.149C308.369 313.149 308.726 313.053 309.025 312.861C309.323 312.669 309.553 312.397 309.713 312.045C309.883 311.682 309.969 311.256 309.969 310.765C309.969 310.029 309.787 309.453 309.425 309.037C309.062 308.61 308.571 308.397 307.953 308.397C307.537 308.397 307.179 308.493 306.881 308.685C306.582 308.877 306.347 309.149 306.177 309.501C306.017 309.853 305.937 310.274 305.937 310.765C305.937 311.501 306.118 312.082 306.481 312.509C306.843 312.936 307.334 313.149 307.953 313.149ZM317.865 315.021C316.98 315.021 316.217 314.856 315.577 314.525C314.937 314.194 314.441 313.725 314.089 313.117C313.748 312.509 313.577 311.789 313.577 310.957C313.577 310.146 313.742 309.437 314.073 308.829C314.414 308.221 314.878 307.746 315.465 307.405C316.062 307.053 316.74 306.877 317.497 306.877C318.052 306.877 318.548 306.968 318.985 307.149C319.433 307.33 319.812 307.592 320.121 307.933C320.441 308.274 320.681 308.69 320.841 309.181C321.012 309.661 321.097 310.205 321.097 310.813C321.097 311.005 321.028 311.154 320.889 311.261C320.761 311.357 320.574 311.405 320.329 311.405H315.193V310.253H319.689L319.433 310.493C319.433 310.002 319.358 309.592 319.209 309.261C319.07 308.93 318.862 308.68 318.585 308.509C318.318 308.328 317.982 308.237 317.577 308.237C317.129 308.237 316.745 308.344 316.425 308.557C316.116 308.76 315.876 309.053 315.705 309.437C315.545 309.81 315.465 310.258 315.465 310.781V310.893C315.465 311.768 315.668 312.424 316.073 312.861C316.489 313.288 317.097 313.501 317.897 313.501C318.174 313.501 318.484 313.469 318.825 313.405C319.177 313.33 319.508 313.208 319.817 313.037C320.041 312.909 320.238 312.856 320.409 312.877C320.58 312.888 320.713 312.946 320.809 313.053C320.916 313.16 320.98 313.293 321.001 313.453C321.022 313.602 320.99 313.757 320.905 313.917C320.83 314.077 320.697 314.216 320.505 314.333C320.132 314.568 319.7 314.744 319.209 314.861C318.729 314.968 318.281 315.021 317.865 315.021ZM325.545 315.021C325.086 315.021 324.601 314.973 324.089 314.877C323.577 314.781 323.118 314.616 322.713 314.381C322.542 314.274 322.419 314.152 322.345 314.013C322.281 313.864 322.254 313.72 322.265 313.581C322.286 313.432 322.339 313.304 322.425 313.197C322.521 313.09 322.638 313.021 322.777 312.989C322.926 312.957 323.086 312.984 323.257 313.069C323.683 313.272 324.083 313.416 324.457 313.501C324.83 313.576 325.198 313.613 325.561 313.613C326.073 313.613 326.451 313.528 326.697 313.357C326.953 313.176 327.081 312.941 327.081 312.653C327.081 312.408 326.995 312.221 326.825 312.093C326.665 311.954 326.419 311.853 326.089 311.789L324.489 311.485C323.827 311.357 323.321 311.117 322.969 310.765C322.627 310.402 322.457 309.938 322.457 309.373C322.457 308.861 322.595 308.418 322.873 308.045C323.161 307.672 323.555 307.384 324.057 307.181C324.558 306.978 325.134 306.877 325.785 306.877C326.254 306.877 326.691 306.93 327.097 307.037C327.513 307.133 327.913 307.288 328.297 307.501C328.457 307.586 328.563 307.698 328.617 307.837C328.681 307.976 328.697 308.12 328.665 308.269C328.633 308.408 328.569 308.536 328.473 308.653C328.377 308.76 328.254 308.829 328.105 308.861C327.966 308.882 327.806 308.85 327.625 308.765C327.294 308.594 326.974 308.472 326.665 308.397C326.366 308.322 326.078 308.285 325.801 308.285C325.278 308.285 324.889 308.376 324.633 308.557C324.387 308.738 324.265 308.978 324.265 309.277C324.265 309.501 324.339 309.688 324.489 309.837C324.638 309.986 324.867 310.088 325.177 310.141L326.777 310.445C327.47 310.573 327.993 310.808 328.345 311.149C328.707 311.49 328.889 311.949 328.889 312.525C328.889 313.304 328.585 313.917 327.977 314.365C327.369 314.802 326.558 315.021 325.545 315.021Z" fill="#0E275D"/>
<path d="M246.594 240.806C246.338 240.806 246.13 240.747 245.97 240.63C245.821 240.513 245.73 240.358 245.698 240.166C245.666 239.963 245.703 239.739 245.81 239.494L250.034 230.134C250.173 229.825 250.338 229.606 250.53 229.478C250.733 229.339 250.962 229.27 251.218 229.27C251.463 229.27 251.682 229.339 251.874 229.478C252.077 229.606 252.247 229.825 252.386 230.134L256.626 239.494C256.743 239.739 256.786 239.963 256.754 240.166C256.722 240.369 256.631 240.529 256.482 240.646C256.333 240.753 256.135 240.806 255.89 240.806C255.591 240.806 255.357 240.737 255.186 240.598C255.026 240.449 254.882 240.225 254.754 239.926L253.714 237.51L254.578 238.07H247.826L248.69 237.51L247.666 239.926C247.527 240.235 247.383 240.459 247.234 240.598C247.085 240.737 246.871 240.806 246.594 240.806ZM251.186 231.622L248.946 236.95L248.53 236.438H253.874L253.474 236.95L251.218 231.622H251.186ZM260.911 240.806C260.645 240.806 260.41 240.737 260.207 240.598C260.015 240.459 259.855 240.246 259.727 239.958L257.183 234.054C257.087 233.819 257.05 233.601 257.071 233.398C257.103 233.195 257.199 233.035 257.359 232.918C257.53 232.79 257.759 232.726 258.047 232.726C258.293 232.726 258.49 232.785 258.639 232.902C258.789 233.009 258.922 233.217 259.039 233.526L261.199 238.918H260.719L262.943 233.51C263.061 233.211 263.194 233.009 263.343 232.902C263.503 232.785 263.717 232.726 263.983 232.726C264.218 232.726 264.405 232.79 264.543 232.918C264.682 233.035 264.767 233.195 264.799 233.398C264.831 233.59 264.794 233.803 264.687 234.038L262.095 239.958C261.978 240.246 261.818 240.459 261.615 240.598C261.423 240.737 261.189 240.806 260.911 240.806ZM268.6 240.838C268.035 240.838 267.528 240.731 267.08 240.518C266.643 240.294 266.296 239.995 266.04 239.622C265.795 239.249 265.672 238.827 265.672 238.358C265.672 237.782 265.822 237.329 266.12 236.998C266.419 236.657 266.904 236.411 267.576 236.262C268.248 236.113 269.15 236.038 270.28 236.038H271.08V237.19H270.296C269.635 237.19 269.107 237.222 268.712 237.286C268.318 237.35 268.035 237.462 267.864 237.622C267.704 237.771 267.624 237.985 267.624 238.262C267.624 238.614 267.747 238.902 267.992 239.126C268.238 239.35 268.579 239.462 269.016 239.462C269.368 239.462 269.678 239.382 269.944 239.222C270.222 239.051 270.44 238.822 270.6 238.534C270.76 238.246 270.84 237.915 270.84 237.542V235.702C270.84 235.169 270.723 234.785 270.488 234.55C270.254 234.315 269.859 234.198 269.304 234.198C268.995 234.198 268.659 234.235 268.296 234.31C267.944 234.385 267.571 234.513 267.176 234.694C266.974 234.79 266.792 234.817 266.632 234.774C266.483 234.731 266.366 234.646 266.28 234.518C266.195 234.379 266.152 234.23 266.152 234.07C266.152 233.91 266.195 233.755 266.28 233.606C266.366 233.446 266.51 233.329 266.712 233.254C267.203 233.051 267.672 232.907 268.12 232.822C268.579 232.737 268.995 232.694 269.368 232.694C270.136 232.694 270.766 232.811 271.256 233.046C271.758 233.281 272.131 233.638 272.376 234.118C272.622 234.587 272.744 235.195 272.744 235.942V239.782C272.744 240.113 272.664 240.369 272.504 240.55C272.344 240.721 272.115 240.806 271.816 240.806C271.518 240.806 271.283 240.721 271.112 240.55C270.952 240.369 270.872 240.113 270.872 239.782V239.014H271C270.926 239.387 270.776 239.713 270.552 239.99C270.339 240.257 270.067 240.465 269.736 240.614C269.406 240.763 269.027 240.838 268.6 240.838ZM275.766 240.79C275.446 240.79 275.201 240.694 275.03 240.502C274.86 240.31 274.774 240.043 274.774 239.702V233.83C274.774 233.478 274.86 233.211 275.03 233.03C275.201 232.838 275.446 232.742 275.766 232.742C276.086 232.742 276.332 232.838 276.502 233.03C276.684 233.211 276.774 233.478 276.774 233.83V239.702C276.774 240.043 276.689 240.31 276.518 240.502C276.348 240.694 276.097 240.79 275.766 240.79ZM275.766 231.254C275.393 231.254 275.1 231.163 274.886 230.982C274.684 230.79 274.582 230.529 274.582 230.198C274.582 229.857 274.684 229.595 274.886 229.414C275.1 229.233 275.393 229.142 275.766 229.142C276.15 229.142 276.444 229.233 276.646 229.414C276.849 229.595 276.95 229.857 276.95 230.198C276.95 230.529 276.849 230.79 276.646 230.982C276.444 231.163 276.15 231.254 275.766 231.254ZM281.525 240.838C280.639 240.838 279.973 240.587 279.525 240.086C279.077 239.574 278.853 238.827 278.853 237.846V230.278C278.853 229.947 278.938 229.697 279.109 229.526C279.279 229.355 279.525 229.27 279.845 229.27C280.165 229.27 280.41 229.355 280.581 229.526C280.762 229.697 280.853 229.947 280.853 230.278V237.75C280.853 238.241 280.954 238.603 281.157 238.838C281.37 239.073 281.669 239.19 282.053 239.19C282.138 239.19 282.218 239.19 282.293 239.19C282.367 239.179 282.442 239.169 282.517 239.158C282.666 239.137 282.767 239.179 282.821 239.286C282.874 239.382 282.901 239.585 282.901 239.894C282.901 240.161 282.847 240.369 282.741 240.518C282.634 240.667 282.458 240.758 282.213 240.79C282.106 240.801 281.994 240.811 281.877 240.822C281.759 240.833 281.642 240.838 281.525 240.838ZM286.538 240.838C285.973 240.838 285.466 240.731 285.018 240.518C284.581 240.294 284.234 239.995 283.978 239.622C283.733 239.249 283.61 238.827 283.61 238.358C283.61 237.782 283.759 237.329 284.058 236.998C284.357 236.657 284.842 236.411 285.514 236.262C286.186 236.113 287.087 236.038 288.218 236.038H289.018V237.19H288.234C287.573 237.19 287.045 237.222 286.65 237.286C286.255 237.35 285.973 237.462 285.802 237.622C285.642 237.771 285.562 237.985 285.562 238.262C285.562 238.614 285.685 238.902 285.93 239.126C286.175 239.35 286.517 239.462 286.954 239.462C287.306 239.462 287.615 239.382 287.882 239.222C288.159 239.051 288.378 238.822 288.538 238.534C288.698 238.246 288.778 237.915 288.778 237.542V235.702C288.778 235.169 288.661 234.785 288.426 234.55C288.191 234.315 287.797 234.198 287.242 234.198C286.933 234.198 286.597 234.235 286.234 234.31C285.882 234.385 285.509 234.513 285.114 234.694C284.911 234.79 284.73 234.817 284.57 234.774C284.421 234.731 284.303 234.646 284.218 234.518C284.133 234.379 284.09 234.23 284.09 234.07C284.09 233.91 284.133 233.755 284.218 233.606C284.303 233.446 284.447 233.329 284.65 233.254C285.141 233.051 285.61 232.907 286.058 232.822C286.517 232.737 286.933 232.694 287.306 232.694C288.074 232.694 288.703 232.811 289.194 233.046C289.695 233.281 290.069 233.638 290.314 234.118C290.559 234.587 290.682 235.195 290.682 235.942V239.782C290.682 240.113 290.602 240.369 290.442 240.55C290.282 240.721 290.053 240.806 289.754 240.806C289.455 240.806 289.221 240.721 289.05 240.55C288.89 240.369 288.81 240.113 288.81 239.782V239.014H288.938C288.863 239.387 288.714 239.713 288.49 239.99C288.277 240.257 288.005 240.465 287.674 240.614C287.343 240.763 286.965 240.838 286.538 240.838ZM297.224 240.838C296.563 240.838 295.981 240.673 295.48 240.342C294.989 240.011 294.664 239.569 294.504 239.014L294.68 238.614V239.782C294.68 240.113 294.595 240.369 294.424 240.55C294.253 240.721 294.013 240.806 293.704 240.806C293.384 240.806 293.139 240.721 292.968 240.55C292.797 240.369 292.712 240.113 292.712 239.782V230.278C292.712 229.947 292.797 229.697 292.968 229.526C293.139 229.355 293.384 229.27 293.704 229.27C294.024 229.27 294.269 229.355 294.44 229.526C294.621 229.697 294.712 229.947 294.712 230.278V234.438H294.52C294.691 233.915 295.021 233.494 295.512 233.174C296.003 232.854 296.573 232.694 297.224 232.694C297.917 232.694 298.52 232.859 299.032 233.19C299.544 233.521 299.944 233.99 300.232 234.598C300.52 235.195 300.664 235.915 300.664 236.758C300.664 237.59 300.52 238.315 300.232 238.934C299.944 239.542 299.539 240.011 299.016 240.342C298.504 240.673 297.907 240.838 297.224 240.838ZM296.664 239.318C297.059 239.318 297.405 239.222 297.704 239.03C298.003 238.838 298.232 238.555 298.392 238.182C298.563 237.798 298.648 237.323 298.648 236.758C298.648 235.905 298.467 235.27 298.104 234.854C297.741 234.427 297.261 234.214 296.664 234.214C296.269 234.214 295.923 234.31 295.624 234.502C295.325 234.683 295.091 234.966 294.92 235.35C294.76 235.723 294.68 236.193 294.68 236.758C294.68 237.601 294.861 238.241 295.224 238.678C295.587 239.105 296.067 239.318 296.664 239.318ZM304.978 240.838C304.092 240.838 303.426 240.587 302.978 240.086C302.53 239.574 302.306 238.827 302.306 237.846V230.278C302.306 229.947 302.391 229.697 302.562 229.526C302.732 229.355 302.978 229.27 303.298 229.27C303.618 229.27 303.863 229.355 304.034 229.526C304.215 229.697 304.306 229.947 304.306 230.278V237.75C304.306 238.241 304.407 238.603 304.61 238.838C304.823 239.073 305.122 239.19 305.506 239.19C305.591 239.19 305.671 239.19 305.746 239.19C305.82 239.179 305.895 239.169 305.97 239.158C306.119 239.137 306.22 239.179 306.274 239.286C306.327 239.382 306.354 239.585 306.354 239.894C306.354 240.161 306.3 240.369 306.194 240.518C306.087 240.667 305.911 240.758 305.666 240.79C305.559 240.801 305.447 240.811 305.33 240.822C305.212 240.833 305.095 240.838 304.978 240.838ZM311.193 240.838C310.308 240.838 309.545 240.673 308.905 240.342C308.265 240.011 307.769 239.542 307.417 238.934C307.076 238.326 306.905 237.606 306.905 236.774C306.905 235.963 307.07 235.254 307.401 234.646C307.742 234.038 308.206 233.563 308.793 233.222C309.39 232.87 310.068 232.694 310.825 232.694C311.38 232.694 311.876 232.785 312.313 232.966C312.761 233.147 313.14 233.409 313.449 233.75C313.769 234.091 314.009 234.507 314.169 234.998C314.34 235.478 314.425 236.022 314.425 236.63C314.425 236.822 314.356 236.971 314.217 237.078C314.089 237.174 313.902 237.222 313.657 237.222H308.521V236.07H313.017L312.761 236.31C312.761 235.819 312.686 235.409 312.537 235.078C312.398 234.747 312.19 234.497 311.913 234.326C311.646 234.145 311.31 234.054 310.905 234.054C310.457 234.054 310.073 234.161 309.753 234.374C309.444 234.577 309.204 234.87 309.033 235.254C308.873 235.627 308.793 236.075 308.793 236.598V236.71C308.793 237.585 308.996 238.241 309.401 238.678C309.817 239.105 310.425 239.318 311.225 239.318C311.502 239.318 311.812 239.286 312.153 239.222C312.505 239.147 312.836 239.025 313.145 238.854C313.369 238.726 313.566 238.673 313.737 238.694C313.908 238.705 314.041 238.763 314.137 238.87C314.244 238.977 314.308 239.11 314.329 239.27C314.35 239.419 314.318 239.574 314.233 239.734C314.158 239.894 314.025 240.033 313.833 240.15C313.46 240.385 313.028 240.561 312.537 240.678C312.057 240.785 311.609 240.838 311.193 240.838ZM321.345 240.79C321.025 240.79 320.779 240.694 320.609 240.502C320.438 240.31 320.353 240.043 320.353 239.702V233.83C320.353 233.478 320.438 233.211 320.609 233.03C320.779 232.838 321.025 232.742 321.345 232.742C321.665 232.742 321.91 232.838 322.081 233.03C322.262 233.211 322.353 233.478 322.353 233.83V239.702C322.353 240.043 322.267 240.31 322.097 240.502C321.926 240.694 321.675 240.79 321.345 240.79ZM321.345 231.254C320.971 231.254 320.678 231.163 320.465 230.982C320.262 230.79 320.161 230.529 320.161 230.198C320.161 229.857 320.262 229.595 320.465 229.414C320.678 229.233 320.971 229.142 321.345 229.142C321.729 229.142 322.022 229.233 322.225 229.414C322.427 229.595 322.529 229.857 322.529 230.198C322.529 230.529 322.427 230.79 322.225 230.982C322.022 231.163 321.729 231.254 321.345 231.254ZM325.423 240.806C325.103 240.806 324.857 240.721 324.687 240.55C324.516 240.369 324.431 240.113 324.431 239.782V233.734C324.431 233.403 324.516 233.153 324.687 232.982C324.857 232.811 325.097 232.726 325.407 232.726C325.716 232.726 325.956 232.811 326.127 232.982C326.297 233.153 326.383 233.403 326.383 233.734V234.822L326.207 234.422C326.441 233.857 326.804 233.43 327.295 233.142C327.796 232.843 328.361 232.694 328.991 232.694C329.62 232.694 330.137 232.811 330.543 233.046C330.948 233.281 331.252 233.638 331.455 234.118C331.657 234.587 331.759 235.185 331.759 235.91V239.782C331.759 240.113 331.673 240.369 331.503 240.55C331.332 240.721 331.087 240.806 330.767 240.806C330.447 240.806 330.196 240.721 330.015 240.55C329.844 240.369 329.759 240.113 329.759 239.782V236.006C329.759 235.398 329.641 234.955 329.407 234.678C329.183 234.401 328.831 234.262 328.351 234.262C327.764 234.262 327.295 234.449 326.943 234.822C326.601 235.185 326.431 235.67 326.431 236.278V239.782C326.431 240.465 326.095 240.806 325.423 240.806Z" fill="#0E275D"/>
<path d="M220.25 216.302C212.95 215.335 207.815 208.634 208.782 201.334C209.748 194.034 216.449 188.899 223.749 189.866C231.05 190.832 236.184 197.533 235.218 204.833C234.251 212.133 227.55 217.268 220.25 216.302ZM72.7509 408.226C71.5555 408.917 70.0263 408.508 69.3355 407.313C68.6446 406.117 69.0536 404.588 70.2491 403.897L72.7509 408.226ZM75.9799 400.129C77.0871 399.304 78.6534 399.532 79.4783 400.64C80.3033 401.747 80.0745 403.313 78.9674 404.138L75.9799 400.129ZM89.7171 393.954C88.8313 395.013 87.2546 395.154 86.1955 394.268C85.1364 393.382 84.996 391.805 85.8818 390.746L89.7171 393.954ZM93.5381 379.36C94.1949 378.145 95.7118 377.693 96.9264 378.35C98.1409 379.006 98.593 380.523 97.9363 381.738L93.5381 379.36ZM103.857 368.371C103.388 369.67 101.955 370.342 100.656 369.873C99.3575 369.404 98.6852 367.971 99.1545 366.672L103.857 368.371ZM103.199 353.246C103.534 351.906 104.892 351.093 106.231 351.429C107.571 351.764 108.384 353.122 108.048 354.461L103.199 353.246ZM111.067 340.377C110.817 341.735 109.513 342.633 108.155 342.383C106.798 342.133 105.899 340.83 106.149 339.472L111.067 340.377ZM108.441 325.477C108.643 324.111 109.914 323.168 111.28 323.37C112.646 323.573 113.589 324.844 113.387 326.21L108.441 325.477ZM115.378 312.055C115.19 313.423 113.93 314.38 112.562 314.192C111.194 314.005 110.237 312.744 110.424 311.376L115.378 312.055ZM112.419 297.218C112.622 295.852 113.894 294.91 115.26 295.113C116.626 295.316 117.568 296.588 117.365 297.953L112.419 297.218ZM119.662 283.971C119.412 285.329 118.108 286.227 116.75 285.977C115.393 285.727 114.495 284.423 114.745 283.065L119.662 283.971ZM117.764 268.956C118.098 267.616 119.455 266.801 120.794 267.135C122.134 267.469 122.949 268.826 122.615 270.165L117.764 268.956ZM126.612 256.728C126.151 258.03 124.722 258.711 123.421 258.25C122.119 257.789 121.438 256.36 121.899 255.059L126.612 256.728ZM127.656 241.66C128.292 240.434 129.801 239.956 131.027 240.592C132.252 241.228 132.73 242.737 132.094 243.963L127.656 241.66ZM139.498 232.337C138.648 233.426 137.077 233.619 135.989 232.769C134.9 231.92 134.707 230.349 135.556 229.26L139.498 232.337ZM145.817 218.661C146.879 217.78 148.455 217.926 149.337 218.989C150.219 220.052 150.072 221.628 149.009 222.509L145.817 218.661ZM160.418 214.965C159.193 215.602 157.684 215.125 157.047 213.9C156.41 212.675 156.887 211.166 158.112 210.529L160.418 214.965ZM171.749 204.998C173.069 204.593 174.467 205.335 174.872 206.655C175.277 207.975 174.535 209.373 173.215 209.778L171.749 204.998ZM186.732 206.703C185.368 206.918 184.088 205.986 183.873 204.623C183.658 203.259 184.589 201.979 185.953 201.764L186.732 206.703ZM200.344 200.313C201.723 200.245 202.896 201.308 202.965 202.687C203.033 204.066 201.97 205.239 200.591 205.307L200.344 200.313ZM214.622 205.215C213.242 205.17 212.16 204.015 212.205 202.635C212.25 201.255 213.405 200.173 214.785 200.218L214.622 205.215ZM70.2491 403.897C72.2735 402.727 74.1809 401.469 75.9799 400.129L78.9674 404.138C77.0121 405.595 74.9425 406.96 72.7509 408.226L70.2491 403.897ZM85.8818 390.746C88.7971 387.261 91.3264 383.45 93.5381 379.36L97.9363 381.738C95.5838 386.088 92.8711 390.183 89.7171 393.954L85.8818 390.746ZM99.1545 366.672C100.706 362.38 102.034 357.891 103.199 353.246L108.048 354.461C106.851 359.237 105.476 363.892 103.857 368.371L99.1545 366.672ZM106.149 339.472C106.993 334.886 107.74 330.21 108.441 325.477L113.387 326.21C112.681 330.977 111.924 335.714 111.067 340.377L106.149 339.472ZM110.424 311.376C111.07 306.661 111.72 301.925 112.419 297.218L117.365 297.953C116.67 302.628 116.024 307.336 115.378 312.055L110.424 311.376ZM114.745 283.065C115.625 278.288 116.614 273.57 117.764 268.956L122.615 270.165C121.496 274.657 120.528 279.271 119.662 283.971L114.745 283.065ZM121.899 255.059C123.544 250.415 125.44 245.93 127.656 241.66L132.094 243.963C130 247.999 128.192 252.268 126.612 256.728L121.899 255.059ZM135.556 229.26C138.553 225.422 141.95 221.87 145.817 218.661L149.009 222.509C145.434 225.476 142.285 228.767 139.498 232.337L135.556 229.26ZM158.112 210.529C162.262 208.371 166.794 206.518 171.749 204.998L173.215 209.778C168.534 211.214 164.284 212.955 160.418 214.965L158.112 210.529ZM185.953 201.764C190.462 201.053 195.252 200.565 200.344 200.313L200.591 205.307C195.662 205.551 191.05 206.022 186.732 206.703L185.953 201.764ZM214.785 200.218C217.187 200.296 219.647 200.42 222.168 200.589L221.832 205.578C219.367 205.412 216.964 205.292 214.622 205.215L214.785 200.218Z" fill="#FFD60A"/>
<defs>
<filter id="filter0_d_3008_1105" x="98.2001" y="161.44" width="300.6" height="300.6" filterUnits="userSpaceOnUse" color-interpolation-filters="sRGB">
<feFlood flood-opacity="0" result="BackgroundImageFix"/>
<feColorMatrix in="SourceAlpha" type="matrix" values="0 0 0 0 0 0 0 0 0 0 0 0 0 0 0 0 0 0 127 0" result="hardAlpha"/>
<feOffset dx="-40" dy="40"/>
<feGaussianBlur stdDeviation="38.4"/>
<feComposite in2="hardAlpha" operator="out"/>
<feColorMatrix type="matrix" values="0 0 0 0 0.172549 0 0 0 0 0.45098 0 0 0 0 0.705882 0 0 0 0.05 0"/>
<feBlend mode="normal" in2="BackgroundImageFix" result="effect1_dropShadow_3008_1105"/>
<feBlend mode="normal" in="SourceGraphic" in2="effect1_dropShadow_3008_1105" result="shape"/>
</filter>
<linearGradient id="paint0_linear_3008_1105" x1="391.185" y1="371.562" x2="391.185" y2="374.791" gradientUnits="userSpaceOnUse">
<stop stop-color="#004FE6"/>
<stop offset="1" stop-color="#002C80"/>
</linearGradient>
<linearGradient id="paint1_linear_3008_1105" x1="378.873" y1="371.562" x2="378.873" y2="374.791" gradientUnits="userSpaceOnUse">
<stop stop-color="#004FE6"/>
<stop offset="1" stop-color="#002C80"/>
</linearGradient>
<linearGradient id="paint2_linear_3008_1105" x1="366.567" y1="371.562" x2="366.567" y2="374.791" gradientUnits="userSpaceOnUse">
<stop stop-color="#004FE6"/>
<stop offset="1" stop-color="#002C80"/>
</linearGradient>
<linearGradient id="paint3_linear_3008_1105" x1="354.262" y1="371.562" x2="354.262" y2="374.791" gradientUnits="userSpaceOnUse">
<stop stop-color="#004FE6"/>
<stop offset="1" stop-color="#002C80"/>
</linearGradient>
<linearGradient id="paint4_linear_3008_1105" x1="341.958" y1="371.562" x2="341.958" y2="374.791" gradientUnits="userSpaceOnUse">
<stop stop-color="#004FE6"/>
<stop offset="1" stop-color="#002C80"/>
</linearGradient>
<linearGradient id="paint5_linear_3008_1105" x1="391.185" y1="361.038" x2="391.185" y2="364.267" gradientUnits="userSpaceOnUse">
<stop stop-color="#004FE6"/>
<stop offset="1" stop-color="#002C80"/>
</linearGradient>
<linearGradient id="paint6_linear_3008_1105" x1="378.873" y1="361.038" x2="378.873" y2="364.267" gradientUnits="userSpaceOnUse">
<stop stop-color="#004FE6"/>
<stop offset="1" stop-color="#002C80"/>
</linearGradient>
<linearGradient id="paint7_linear_3008_1105" x1="366.567" y1="361.038" x2="366.567" y2="364.267" gradientUnits="userSpaceOnUse">
<stop stop-color="#004FE6"/>
<stop offset="1" stop-color="#002C80"/>
</linearGradient>
<linearGradient id="paint8_linear_3008_1105" x1="354.262" y1="361.038" x2="354.262" y2="364.267" gradientUnits="userSpaceOnUse">
<stop stop-color="#004FE6"/>
<stop offset="1" stop-color="#002C80"/>
</linearGradient>
<linearGradient id="paint9_linear_3008_1105" x1="341.958" y1="361.038" x2="341.958" y2="364.267" gradientUnits="userSpaceOnUse">
<stop stop-color="#004FE6"/>
<stop offset="1" stop-color="#002C80"/>
</linearGradient>
<linearGradient id="paint10_linear_3008_1105" x1="391.185" y1="350.515" x2="391.185" y2="353.744" gradientUnits="userSpaceOnUse">
<stop stop-color="#004FE6"/>
<stop offset="1" stop-color="#002C80"/>
</linearGradient>
<linearGradient id="paint11_linear_3008_1105" x1="378.873" y1="350.515" x2="378.873" y2="353.744" gradientUnits="userSpaceOnUse">
<stop stop-color="#004FE6"/>
<stop offset="1" stop-color="#002C80"/>
</linearGradient>
<linearGradient id="paint12_linear_3008_1105" x1="366.567" y1="350.515" x2="366.567" y2="353.744" gradientUnits="userSpaceOnUse">
<stop stop-color="#004FE6"/>
<stop offset="1" stop-color="#002C80"/>
</linearGradient>
<linearGradient id="paint13_linear_3008_1105" x1="354.262" y1="350.515" x2="354.262" y2="353.744" gradientUnits="userSpaceOnUse">
<stop stop-color="#004FE6"/>
<stop offset="1" stop-color="#002C80"/>
</linearGradient>
<linearGradient id="paint14_linear_3008_1105" x1="341.958" y1="350.515" x2="341.958" y2="353.744" gradientUnits="userSpaceOnUse">
<stop stop-color="#004FE6"/>
<stop offset="1" stop-color="#002C80"/>
</linearGradient>
<linearGradient id="paint15_linear_3008_1105" x1="391.185" y1="339.991" x2="391.185" y2="343.22" gradientUnits="userSpaceOnUse">
<stop stop-color="#004FE6"/>
<stop offset="1" stop-color="#002C80"/>
</linearGradient>
<linearGradient id="paint16_linear_3008_1105" x1="378.873" y1="339.991" x2="378.873" y2="343.22" gradientUnits="userSpaceOnUse">
<stop stop-color="#004FE6"/>
<stop offset="1" stop-color="#002C80"/>
</linearGradient>
<linearGradient id="paint17_linear_3008_1105" x1="366.567" y1="339.991" x2="366.567" y2="343.22" gradientUnits="userSpaceOnUse">
<stop stop-color="#004FE6"/>
<stop offset="1" stop-color="#002C80"/>
</linearGradient>
<linearGradient id="paint18_linear_3008_1105" x1="354.262" y1="339.991" x2="354.262" y2="343.22" gradientUnits="userSpaceOnUse">
<stop stop-color="#004FE6"/>
<stop offset="1" stop-color="#002C80"/>
</linearGradient>
<linearGradient id="paint19_linear_3008_1105" x1="341.958" y1="339.991" x2="341.958" y2="343.22" gradientUnits="userSpaceOnUse">
<stop stop-color="#004FE6"/>
<stop offset="1" stop-color="#002C80"/>
</linearGradient>
<linearGradient id="paint20_linear_3008_1105" x1="391.185" y1="329.467" x2="391.185" y2="332.696" gradientUnits="userSpaceOnUse">
<stop stop-color="#004FE6"/>
<stop offset="1" stop-color="#002C80"/>
</linearGradient>
<linearGradient id="paint21_linear_3008_1105" x1="378.873" y1="329.467" x2="378.873" y2="332.696" gradientUnits="userSpaceOnUse">
<stop stop-color="#004FE6"/>
<stop offset="1" stop-color="#002C80"/>
</linearGradient>
<linearGradient id="paint22_linear_3008_1105" x1="366.567" y1="329.467" x2="366.567" y2="332.696" gradientUnits="userSpaceOnUse">
<stop stop-color="#004FE6"/>
<stop offset="1" stop-color="#002C80"/>
</linearGradient>
<linearGradient id="paint23_linear_3008_1105" x1="354.262" y1="329.467" x2="354.262" y2="332.696" gradientUnits="userSpaceOnUse">
<stop stop-color="#004FE6"/>
<stop offset="1" stop-color="#002C80"/>
</linearGradient>
<linearGradient id="paint24_linear_3008_1105" x1="341.958" y1="329.467" x2="341.958" y2="332.696" gradientUnits="userSpaceOnUse">
<stop stop-color="#004FE6"/>
<stop offset="1" stop-color="#002C80"/>
</linearGradient>
<linearGradient id="paint25_linear_3008_1105" x1="391.185" y1="318.944" x2="391.185" y2="322.173" gradientUnits="userSpaceOnUse">
<stop stop-color="#004FE6"/>
<stop offset="1" stop-color="#002C80"/>
</linearGradient>
<linearGradient id="paint26_linear_3008_1105" x1="378.873" y1="318.944" x2="378.873" y2="322.173" gradientUnits="userSpaceOnUse">
<stop stop-color="#004FE6"/>
<stop offset="1" stop-color="#002C80"/>
</linearGradient>
<linearGradient id="paint27_linear_3008_1105" x1="366.567" y1="318.944" x2="366.567" y2="322.173" gradientUnits="userSpaceOnUse">
<stop stop-color="#004FE6"/>
<stop offset="1" stop-color="#002C80"/>
</linearGradient>
<linearGradient id="paint28_linear_3008_1105" x1="354.262" y1="318.944" x2="354.262" y2="322.173" gradientUnits="userSpaceOnUse">
<stop stop-color="#004FE6"/>
<stop offset="1" stop-color="#002C80"/>
</linearGradient>
<linearGradient id="paint29_linear_3008_1105" x1="341.958" y1="318.944" x2="341.958" y2="322.173" gradientUnits="userSpaceOnUse">
<stop stop-color="#004FE6"/>
<stop offset="1" stop-color="#002C80"/>
</linearGradient>
<linearGradient id="paint30_linear_3008_1105" x1="391.185" y1="308.421" x2="391.185" y2="311.649" gradientUnits="userSpaceOnUse">
<stop stop-color="#004FE6"/>
<stop offset="1" stop-color="#002C80"/>
</linearGradient>
<linearGradient id="paint31_linear_3008_1105" x1="378.873" y1="308.421" x2="378.873" y2="311.649" gradientUnits="userSpaceOnUse">
<stop stop-color="#004FE6"/>
<stop offset="1" stop-color="#002C80"/>
</linearGradient>
<linearGradient id="paint32_linear_3008_1105" x1="366.567" y1="308.421" x2="366.567" y2="311.649" gradientUnits="userSpaceOnUse">
<stop stop-color="#004FE6"/>
<stop offset="1" stop-color="#002C80"/>
</linearGradient>
<linearGradient id="paint33_linear_3008_1105" x1="354.262" y1="308.421" x2="354.262" y2="311.649" gradientUnits="userSpaceOnUse">
<stop stop-color="#004FE6"/>
<stop offset="1" stop-color="#002C80"/>
</linearGradient>
<linearGradient id="paint34_linear_3008_1105" x1="341.958" y1="308.421" x2="341.958" y2="311.649" gradientUnits="userSpaceOnUse">
<stop stop-color="#004FE6"/>
<stop offset="1" stop-color="#002C80"/>
</linearGradient>
<linearGradient id="paint35_linear_3008_1105" x1="391.185" y1="297.897" x2="391.185" y2="301.126" gradientUnits="userSpaceOnUse">
<stop stop-color="#004FE6"/>
<stop offset="1" stop-color="#002C80"/>
</linearGradient>
<linearGradient id="paint36_linear_3008_1105" x1="378.873" y1="297.897" x2="378.873" y2="301.126" gradientUnits="userSpaceOnUse">
<stop stop-color="#004FE6"/>
<stop offset="1" stop-color="#002C80"/>
</linearGradient>
<linearGradient id="paint37_linear_3008_1105" x1="366.567" y1="297.897" x2="366.567" y2="301.126" gradientUnits="userSpaceOnUse">
<stop stop-color="#004FE6"/>
<stop offset="1" stop-color="#002C80"/>
</linearGradient>
<linearGradient id="paint38_linear_3008_1105" x1="354.262" y1="297.897" x2="354.262" y2="301.126" gradientUnits="userSpaceOnUse">
<stop stop-color="#004FE6"/>
<stop offset="1" stop-color="#002C80"/>
</linearGradient>
<linearGradient id="paint39_linear_3008_1105" x1="341.958" y1="297.897" x2="341.958" y2="301.126" gradientUnits="userSpaceOnUse">
<stop stop-color="#004FE6"/>
<stop offset="1" stop-color="#002C80"/>
</linearGradient>
<linearGradient id="paint40_linear_3008_1105" x1="391.185" y1="287.373" x2="391.185" y2="290.602" gradientUnits="userSpaceOnUse">
<stop stop-color="#004FE6"/>
<stop offset="1" stop-color="#002C80"/>
</linearGradient>
<linearGradient id="paint41_linear_3008_1105" x1="378.873" y1="287.373" x2="378.873" y2="290.602" gradientUnits="userSpaceOnUse">
<stop stop-color="#004FE6"/>
<stop offset="1" stop-color="#002C80"/>
</linearGradient>
<linearGradient id="paint42_linear_3008_1105" x1="366.567" y1="287.373" x2="366.567" y2="290.602" gradientUnits="userSpaceOnUse">
<stop stop-color="#004FE6"/>
<stop offset="1" stop-color="#002C80"/>
</linearGradient>
<linearGradient id="paint43_linear_3008_1105" x1="354.262" y1="287.373" x2="354.262" y2="290.602" gradientUnits="userSpaceOnUse">
<stop stop-color="#004FE6"/>
<stop offset="1" stop-color="#002C80"/>
</linearGradient>
<linearGradient id="paint44_linear_3008_1105" x1="341.958" y1="287.373" x2="341.958" y2="290.602" gradientUnits="userSpaceOnUse">
<stop stop-color="#004FE6"/>
<stop offset="1" stop-color="#002C80"/>
</linearGradient>
<linearGradient id="paint45_linear_3008_1105" x1="391.185" y1="276.85" x2="391.185" y2="280.079" gradientUnits="userSpaceOnUse">
<stop stop-color="#004FE6"/>
<stop offset="1" stop-color="#002C80"/>
</linearGradient>
<linearGradient id="paint46_linear_3008_1105" x1="378.873" y1="276.85" x2="378.873" y2="280.079" gradientUnits="userSpaceOnUse">
<stop stop-color="#004FE6"/>
<stop offset="1" stop-color="#002C80"/>
</linearGradient>
<linearGradient id="paint47_linear_3008_1105" x1="366.567" y1="276.85" x2="366.567" y2="280.079" gradientUnits="userSpaceOnUse">
<stop stop-color="#004FE6"/>
<stop offset="1" stop-color="#002C80"/>
</linearGradient>
<linearGradient id="paint48_linear_3008_1105" x1="354.262" y1="276.85" x2="354.262" y2="280.079" gradientUnits="userSpaceOnUse">
<stop stop-color="#004FE6"/>
<stop offset="1" stop-color="#002C80"/>
</linearGradient>
<linearGradient id="paint49_linear_3008_1105" x1="341.958" y1="276.85" x2="341.958" y2="280.079" gradientUnits="userSpaceOnUse">
<stop stop-color="#004FE6"/>
<stop offset="1" stop-color="#002C80"/>
</linearGradient>
<linearGradient id="paint50_linear_3008_1105" x1="391.185" y1="266.326" x2="391.185" y2="269.555" gradientUnits="userSpaceOnUse">
<stop stop-color="#004FE6"/>
<stop offset="1" stop-color="#002C80"/>
</linearGradient>
<linearGradient id="paint51_linear_3008_1105" x1="378.873" y1="266.326" x2="378.873" y2="269.555" gradientUnits="userSpaceOnUse">
<stop stop-color="#004FE6"/>
<stop offset="1" stop-color="#002C80"/>
</linearGradient>
<linearGradient id="paint52_linear_3008_1105" x1="366.567" y1="266.326" x2="366.567" y2="269.555" gradientUnits="userSpaceOnUse">
<stop stop-color="#004FE6"/>
<stop offset="1" stop-color="#002C80"/>
</linearGradient>
<linearGradient id="paint53_linear_3008_1105" x1="354.262" y1="266.326" x2="354.262" y2="269.555" gradientUnits="userSpaceOnUse">
<stop stop-color="#004FE6"/>
<stop offset="1" stop-color="#002C80"/>
</linearGradient>
<linearGradient id="paint54_linear_3008_1105" x1="341.958" y1="266.326" x2="341.958" y2="269.555" gradientUnits="userSpaceOnUse">
<stop stop-color="#004FE6"/>
<stop offset="1" stop-color="#002C80"/>
</linearGradient>
<linearGradient id="paint55_linear_3008_1105" x1="329.889" y1="371.562" x2="329.889" y2="374.791" gradientUnits="userSpaceOnUse">
<stop stop-color="#004FE6"/>
<stop offset="1" stop-color="#002C80"/>
</linearGradient>
<linearGradient id="paint56_linear_3008_1105" x1="317.579" y1="371.562" x2="317.579" y2="374.791" gradientUnits="userSpaceOnUse">
<stop stop-color="#004FE6"/>
<stop offset="1" stop-color="#002C80"/>
</linearGradient>
<linearGradient id="paint57_linear_3008_1105" x1="305.272" y1="371.562" x2="305.272" y2="374.791" gradientUnits="userSpaceOnUse">
<stop stop-color="#004FE6"/>
<stop offset="1" stop-color="#002C80"/>
</linearGradient>
<linearGradient id="paint58_linear_3008_1105" x1="329.889" y1="361.038" x2="329.889" y2="364.267" gradientUnits="userSpaceOnUse">
<stop stop-color="#004FE6"/>
<stop offset="1" stop-color="#002C80"/>
</linearGradient>
<linearGradient id="paint59_linear_3008_1105" x1="317.579" y1="361.038" x2="317.579" y2="364.267" gradientUnits="userSpaceOnUse">
<stop stop-color="#004FE6"/>
<stop offset="1" stop-color="#002C80"/>
</linearGradient>
<linearGradient id="paint60_linear_3008_1105" x1="305.272" y1="361.038" x2="305.272" y2="364.267" gradientUnits="userSpaceOnUse">
<stop stop-color="#004FE6"/>
<stop offset="1" stop-color="#002C80"/>
</linearGradient>
<linearGradient id="paint61_linear_3008_1105" x1="329.889" y1="350.515" x2="329.889" y2="353.744" gradientUnits="userSpaceOnUse">
<stop stop-color="#004FE6"/>
<stop offset="1" stop-color="#002C80"/>
</linearGradient>
<linearGradient id="paint62_linear_3008_1105" x1="317.579" y1="350.515" x2="317.579" y2="353.744" gradientUnits="userSpaceOnUse">
<stop stop-color="#004FE6"/>
<stop offset="1" stop-color="#002C80"/>
</linearGradient>
<linearGradient id="paint63_linear_3008_1105" x1="305.272" y1="350.515" x2="305.272" y2="353.744" gradientUnits="userSpaceOnUse">
<stop stop-color="#004FE6"/>
<stop offset="1" stop-color="#002C80"/>
</linearGradient>
<linearGradient id="paint64_linear_3008_1105" x1="329.889" y1="339.991" x2="329.889" y2="343.22" gradientUnits="userSpaceOnUse">
<stop stop-color="#004FE6"/>
<stop offset="1" stop-color="#002C80"/>
</linearGradient>
<linearGradient id="paint65_linear_3008_1105" x1="317.579" y1="339.991" x2="317.579" y2="343.22" gradientUnits="userSpaceOnUse">
<stop stop-color="#004FE6"/>
<stop offset="1" stop-color="#002C80"/>
</linearGradient>
<linearGradient id="paint66_linear_3008_1105" x1="305.272" y1="339.991" x2="305.272" y2="343.22" gradientUnits="userSpaceOnUse">
<stop stop-color="#004FE6"/>
<stop offset="1" stop-color="#002C80"/>
</linearGradient>
<linearGradient id="paint67_linear_3008_1105" x1="329.889" y1="329.467" x2="329.889" y2="332.696" gradientUnits="userSpaceOnUse">
<stop stop-color="#004FE6"/>
<stop offset="1" stop-color="#002C80"/>
</linearGradient>
<linearGradient id="paint68_linear_3008_1105" x1="317.579" y1="329.467" x2="317.579" y2="332.696" gradientUnits="userSpaceOnUse">
<stop stop-color="#004FE6"/>
<stop offset="1" stop-color="#002C80"/>
</linearGradient>
<linearGradient id="paint69_linear_3008_1105" x1="305.272" y1="329.467" x2="305.272" y2="332.696" gradientUnits="userSpaceOnUse">
<stop stop-color="#004FE6"/>
<stop offset="1" stop-color="#002C80"/>
</linearGradient>
<linearGradient id="paint70_linear_3008_1105" x1="329.889" y1="318.944" x2="329.889" y2="322.173" gradientUnits="userSpaceOnUse">
<stop stop-color="#004FE6"/>
<stop offset="1" stop-color="#002C80"/>
</linearGradient>
<linearGradient id="paint71_linear_3008_1105" x1="317.579" y1="318.944" x2="317.579" y2="322.173" gradientUnits="userSpaceOnUse">
<stop stop-color="#004FE6"/>
<stop offset="1" stop-color="#002C80"/>
</linearGradient>
<linearGradient id="paint72_linear_3008_1105" x1="305.272" y1="318.944" x2="305.272" y2="322.173" gradientUnits="userSpaceOnUse">
<stop stop-color="#004FE6"/>
<stop offset="1" stop-color="#002C80"/>
</linearGradient>
<linearGradient id="paint73_linear_3008_1105" x1="329.889" y1="308.421" x2="329.889" y2="311.649" gradientUnits="userSpaceOnUse">
<stop stop-color="#004FE6"/>
<stop offset="1" stop-color="#002C80"/>
</linearGradient>
<linearGradient id="paint74_linear_3008_1105" x1="317.579" y1="308.421" x2="317.579" y2="311.649" gradientUnits="userSpaceOnUse">
<stop stop-color="#004FE6"/>
<stop offset="1" stop-color="#002C80"/>
</linearGradient>
<linearGradient id="paint75_linear_3008_1105" x1="305.272" y1="308.421" x2="305.272" y2="311.649" gradientUnits="userSpaceOnUse">
<stop stop-color="#004FE6"/>
<stop offset="1" stop-color="#002C80"/>
</linearGradient>
<linearGradient id="paint76_linear_3008_1105" x1="329.889" y1="297.897" x2="329.889" y2="301.126" gradientUnits="userSpaceOnUse">
<stop stop-color="#004FE6"/>
<stop offset="1" stop-color="#002C80"/>
</linearGradient>
<linearGradient id="paint77_linear_3008_1105" x1="317.579" y1="297.897" x2="317.579" y2="301.126" gradientUnits="userSpaceOnUse">
<stop stop-color="#004FE6"/>
<stop offset="1" stop-color="#002C80"/>
</linearGradient>
<linearGradient id="paint78_linear_3008_1105" x1="305.272" y1="297.897" x2="305.272" y2="301.126" gradientUnits="userSpaceOnUse">
<stop stop-color="#004FE6"/>
<stop offset="1" stop-color="#002C80"/>
</linearGradient>
<linearGradient id="paint79_linear_3008_1105" x1="329.889" y1="287.373" x2="329.889" y2="290.602" gradientUnits="userSpaceOnUse">
<stop stop-color="#004FE6"/>
<stop offset="1" stop-color="#002C80"/>
</linearGradient>
<linearGradient id="paint80_linear_3008_1105" x1="317.579" y1="287.373" x2="317.579" y2="290.602" gradientUnits="userSpaceOnUse">
<stop stop-color="#004FE6"/>
<stop offset="1" stop-color="#002C80"/>
</linearGradient>
<linearGradient id="paint81_linear_3008_1105" x1="305.272" y1="287.373" x2="305.272" y2="290.602" gradientUnits="userSpaceOnUse">
<stop stop-color="#004FE6"/>
<stop offset="1" stop-color="#002C80"/>
</linearGradient>
<linearGradient id="paint82_linear_3008_1105" x1="329.889" y1="276.85" x2="329.889" y2="280.079" gradientUnits="userSpaceOnUse">
<stop stop-color="#004FE6"/>
<stop offset="1" stop-color="#002C80"/>
</linearGradient>
<linearGradient id="paint83_linear_3008_1105" x1="317.579" y1="276.85" x2="317.579" y2="280.079" gradientUnits="userSpaceOnUse">
<stop stop-color="#004FE6"/>
<stop offset="1" stop-color="#002C80"/>
</linearGradient>
<linearGradient id="paint84_linear_3008_1105" x1="305.272" y1="276.85" x2="305.272" y2="280.079" gradientUnits="userSpaceOnUse">
<stop stop-color="#004FE6"/>
<stop offset="1" stop-color="#002C80"/>
</linearGradient>
<linearGradient id="paint85_linear_3008_1105" x1="329.889" y1="266.326" x2="329.889" y2="269.555" gradientUnits="userSpaceOnUse">
<stop stop-color="#004FE6"/>
<stop offset="1" stop-color="#002C80"/>
</linearGradient>
<linearGradient id="paint86_linear_3008_1105" x1="317.579" y1="266.326" x2="317.579" y2="269.555" gradientUnits="userSpaceOnUse">
<stop stop-color="#004FE6"/>
<stop offset="1" stop-color="#002C80"/>
</linearGradient>
<linearGradient id="paint87_linear_3008_1105" x1="305.272" y1="266.326" x2="305.272" y2="269.555" gradientUnits="userSpaceOnUse">
<stop stop-color="#004FE6"/>
<stop offset="1" stop-color="#002C80"/>
</linearGradient>
<linearGradient id="paint88_linear_3008_1105" x1="290" y1="248.035" x2="290" y2="298.845" gradientUnits="userSpaceOnUse">
<stop stop-color="#256FFD"/>
<stop offset="1" stop-color="#004FE6"/>
</linearGradient>
<clipPath id="clip0_3008_1105">
<rect width="40" height="40" fill="white" transform="translate(16 419.774)"/>
</clipPath>
</defs>
</svg>
