<svg width="64" height="64" viewBox="0 0 64 64" fill="none" xmlns="http://www.w3.org/2000/svg">
<rect width="64" height="64" rx="32" fill="#0E275D"/>
<g clip-path="url(#clip0_411_1233)">
<path d="M25.782 29.6851L24.999 31.9999H23.001L26.3526 22.9999H28.6638L32.001 31.9999H29.9004L29.1174 29.6851H25.782ZM28.7232 28.3603L27.501 24.7207H27.4128L26.1906 28.3603H28.725H28.7232Z" fill="white"/>
<path d="M17.6006 21.1999C17.6006 20.2451 17.9799 19.3294 18.655 18.6543C19.3301 17.9791 20.2458 17.5999 21.2006 17.5999H33.8006C34.7554 17.5999 35.671 17.9791 36.3462 18.6543C37.0213 19.3294 37.4006 20.2451 37.4006 21.1999V26.5999H42.8006C43.7554 26.5999 44.671 26.9791 45.3462 27.6543C46.0213 28.3294 46.4006 29.2451 46.4006 30.1999V42.7999C46.4006 43.7546 46.0213 44.6703 45.3462 45.3454C44.671 46.0206 43.7554 46.3999 42.8006 46.3999H30.2006C29.2458 46.3999 28.3301 46.0206 27.655 45.3454C26.9799 44.6703 26.6006 43.7546 26.6006 42.7999V37.3999H21.2006C20.2458 37.3999 19.3301 37.0206 18.655 36.3454C17.9799 35.6703 17.6006 34.7546 17.6006 33.7999V21.1999ZM21.2006 19.3999C20.7232 19.3999 20.2654 19.5895 19.9278 19.9271C19.5902 20.2646 19.4006 20.7225 19.4006 21.1999V33.7999C19.4006 34.2772 19.5902 34.7351 19.9278 35.0726C20.2654 35.4102 20.7232 35.5999 21.2006 35.5999H33.8006C34.278 35.5999 34.7358 35.4102 35.0734 35.0726C35.4109 34.7351 35.6006 34.2772 35.6006 33.7999V21.1999C35.6006 20.7225 35.4109 20.2646 35.0734 19.9271C34.7358 19.5895 34.278 19.3999 33.8006 19.3999H21.2006ZM34.049 37.3909C34.3964 37.9327 34.7726 38.4403 35.183 38.9137C33.8366 39.9487 32.1716 40.7155 30.2006 41.2393C30.521 41.6299 31.0124 42.3823 31.1996 42.7999C33.2246 42.1537 34.9436 41.2807 36.3944 40.1107C37.793 41.3077 39.5246 42.2077 41.6684 42.7603C41.9078 42.3031 42.4136 41.5489 42.8006 41.1583C40.7756 40.7029 39.098 39.9091 37.7246 38.8471C38.9504 37.5025 39.9242 35.8753 40.6424 33.8845H42.8006V31.9999H37.4006V33.8845H38.7776C38.2052 35.4037 37.4456 36.6673 36.488 37.7185C36.2235 37.4367 35.9741 37.1411 35.741 36.8329C35.233 37.1585 34.651 37.3505 34.049 37.3909Z" fill="white"/>
</g>
<defs>
<clipPath id="clip0_411_1233">
<rect width="28.8" height="28.8" fill="white" transform="translate(17.6006 17.5999)"/>
</clipPath>
</defs>
</svg>
